<svg width="49" height="50" viewBox="0 0 49 50" fill="none" xmlns="http://www.w3.org/2000/svg">
<path d="M19.5173 28.0748V20.1927C19.5173 19.8168 19.822 19.5121 20.1978 19.5121H28.0798C28.4557 19.5121 28.7604 19.8168 28.7604 20.1927C28.7604 20.5685 28.4557 20.8732 28.0798 20.8732H20.8784V28.0748C20.8784 28.4506 20.5737 28.7553 20.1978 28.7553C19.822 28.7553 19.5173 28.4506 19.5173 28.0748ZM32.4868 25.2665V27.6659H37.2195C37.5953 27.6659 37.9 27.9706 37.9 28.3465C37.9 28.7224 37.5953 29.027 37.2195 29.027H32.4868V29.3215C32.4868 29.502 32.4152 29.6751 32.2874 29.8028L29.7167 32.3734C29.5892 32.501 29.416 32.5727 29.2356 32.5727H28.9411V37.3053C28.9411 37.6812 28.6364 37.9859 28.2606 37.9859C27.8847 37.9859 27.58 37.6812 27.58 37.3053V32.5727H25.1806V39.9472C25.1806 40.3231 24.8759 40.6278 24.5 40.6278C24.1241 40.6278 23.8194 40.3231 23.8194 39.9472V32.5727H21.4199V37.3053C21.4199 37.6812 21.1152 37.9859 20.7393 37.9859C20.3635 37.9859 20.0588 37.6812 20.0588 37.3053V32.5727H17.1937C16.8178 32.5727 16.5131 32.268 16.5131 31.8922V29.027H11.7804C11.4046 29.027 11.0999 28.7224 11.0999 28.3465C11.0999 27.9706 11.4046 27.6659 11.7804 27.6659H16.5131V25.2665H9.1386C8.76274 25.2665 8.45804 24.9618 8.45804 24.5859C8.45804 24.2101 8.76274 23.9054 9.1386 23.9054H16.5132V21.5059H11.7805C11.4047 21.5059 11.1 21.2012 11.1 20.8254C11.1 20.4495 11.4047 20.1448 11.7805 20.1448H16.5132V17.2797C16.5132 16.9038 16.8179 16.5991 17.1938 16.5991H20.0589V11.8665C20.0589 11.4907 20.3636 11.186 20.7394 11.186C21.1153 11.186 21.42 11.4907 21.42 11.8665V16.5991H23.8194V9.22463C23.8194 8.84877 24.1241 8.54408 24.5 8.54408C24.8759 8.54408 25.1806 8.84877 25.1806 9.22463V16.5991H27.58V11.8665C27.58 11.4907 27.8847 11.186 28.2606 11.186C28.6364 11.186 28.9411 11.4907 28.9411 11.8665V16.5991H31.8063C32.1822 16.5991 32.4869 16.9038 32.4869 17.2797V20.1448H37.2196C37.5954 20.1448 37.9001 20.4495 37.9001 20.8254C37.9001 21.2012 37.5954 21.5059 37.2196 21.5059H32.4868V23.9054H39.8614C40.2373 23.9054 40.542 24.2101 40.542 24.5859C40.542 24.9618 40.2373 25.2665 39.8614 25.2665H32.4868ZM31.1257 17.9601H17.8743V31.2116H28.9538L31.1258 29.0396V17.9601H31.1257ZM3.42135 7.98417C3.42135 5.5156 5.42957 3.50738 7.89814 3.50738C10.3667 3.50738 12.3749 5.5157 12.3749 7.98417C12.3749 10.4526 10.3667 12.461 7.89814 12.461C5.42957 12.461 3.42135 10.4526 3.42135 7.98417ZM4.78246 7.98417C4.78246 9.70219 6.18013 11.0999 7.89814 11.0999C9.61615 11.0999 11.0138 9.70219 11.0138 7.98417C11.0138 6.26616 9.61615 4.86849 7.89814 4.86849C6.18013 4.86849 4.78246 6.26616 4.78246 7.98417ZM36.625 7.98417C36.625 5.5156 38.6332 3.50738 41.1018 3.50738C43.5703 3.50738 45.5786 5.5157 45.5786 7.98417C45.5786 10.4526 43.5703 12.461 41.1018 12.461C38.6332 12.461 36.625 10.4526 36.625 7.98417ZM37.9861 7.98417C37.9861 9.70219 39.3838 11.0999 41.1018 11.0999C42.8198 11.0999 44.2174 9.70219 44.2174 7.98417C44.2174 6.26616 42.8198 4.86849 41.1018 4.86849C39.3838 4.86849 37.9861 6.26616 37.9861 7.98417ZM12.3749 41.1878C12.3749 43.6563 10.3667 45.6646 7.89814 45.6646C5.42957 45.6646 3.42135 43.6563 3.42135 41.1878C3.42135 38.7193 5.42957 36.711 7.89814 36.711C10.3667 36.711 12.3749 38.7193 12.3749 41.1878ZM11.0138 41.1878C11.0138 39.4698 9.61615 38.0721 7.89814 38.0721C6.18013 38.0721 4.78246 39.4698 4.78246 41.1878C4.78246 42.9058 6.18013 44.3035 7.89814 44.3035C9.61615 44.3035 11.0138 42.9058 11.0138 41.1878ZM45.5786 41.1878C45.5786 43.6563 43.5703 45.6646 41.1018 45.6646C38.6332 45.6646 36.625 43.6563 36.625 41.1878C36.625 38.7193 38.6332 36.711 41.1018 36.711C43.5703 36.711 45.5786 38.7193 45.5786 41.1878ZM44.2174 41.1878C44.2174 39.4698 42.8198 38.0721 41.1018 38.0721C39.3838 38.0721 37.9861 39.4698 37.9861 41.1878C37.9861 42.9058 39.3838 44.3035 41.1018 44.3035C42.8198 44.3035 44.2174 42.9058 44.2174 41.1878ZM13.0907 4.35341C13.201 4.35341 13.3129 4.32658 13.4167 4.2699C16.7943 2.42316 20.6269 1.44705 24.5 1.44705C28.3734 1.44705 32.206 2.42316 35.5833 4.2698C35.9131 4.45005 36.3266 4.32901 36.5069 3.99923C36.6872 3.66945 36.5661 3.25587 36.2364 3.07562C32.6594 1.1198 28.601 0.0859375 24.5 0.0859375C20.3993 0.0859375 16.3409 1.1197 12.7636 3.07562C12.4338 3.25587 12.3127 3.66935 12.4931 3.99923C12.6166 4.22537 12.85 4.35341 13.0907 4.35341ZM46.0103 12.8497C45.8301 12.5199 45.4168 12.3986 45.0867 12.579C44.7569 12.7592 44.6358 13.1727 44.8161 13.5026C46.6628 16.8803 47.6389 20.7128 47.6389 24.5859C47.6389 28.4591 46.6628 32.2916 44.8161 35.6693C44.6359 35.9991 44.757 36.4125 45.0867 36.5929C45.1903 36.6496 45.3022 36.6764 45.4127 36.6764C45.6534 36.6764 45.8867 36.5484 46.0103 36.3222C47.9661 32.7449 49 28.6866 49 24.5859C49 20.4853 47.9661 16.427 46.0103 12.8497ZM35.5832 44.9021C32.206 46.7487 28.3734 47.7248 24.5 47.7248C20.6268 47.7248 16.7942 46.7487 13.4167 44.9021C13.0869 44.7218 12.6734 44.8429 12.4931 45.1727C12.3128 45.5025 12.4339 45.916 12.7636 46.0964C16.3408 48.0521 20.3992 49.0859 24.5 49.0859C28.601 49.0859 32.6594 48.0521 36.2363 46.0963C36.5661 45.916 36.6872 45.5024 36.5068 45.1726C36.3265 44.8429 35.9132 44.7218 35.5832 44.9021ZM3.91329 36.5929C4.24307 36.4126 4.36421 35.9991 4.18386 35.6693C2.33722 32.292 1.36111 28.4594 1.36111 24.5859C1.36111 20.7125 2.33722 16.88 4.18386 13.5026C4.36411 13.1728 4.24297 12.7592 3.91329 12.579C3.58351 12.3986 3.16993 12.5198 2.98968 12.8496C1.03386 16.4267 0 20.485 0 24.5859C0 28.687 1.03386 32.7452 2.98968 36.3222C3.11325 36.5484 3.34658 36.6764 3.58731 36.6764C3.69765 36.6764 3.80965 36.6496 3.91329 36.5929Z" fill="#1090D0"/>
</svg>
