<svg width="44" height="24" viewBox="0 0 44 24" fill="none" xmlns="http://www.w3.org/2000/svg">
<path d="M13.224 0.876622C12.6385 0.291126 11.69 0.291126 11.1045 0.876622L1.08756 10.8936C0.502064 11.4791 0.502064 12.4276 1.08756 13.0131L11.1045 23.03C11.3973 23.3228 11.7808 23.4692 12.1643 23.4692C12.5478 23.4692 12.9313 23.3228 13.224 23.03C13.8095 22.4445 13.8095 21.4961 13.224 20.9106L4.26677 11.9533L13.224 2.99612C13.8095 2.41062 13.8095 1.4621 13.224 0.876622Z" fill="#1090D0"/>
<path d="M31.0563 23.0301C31.349 23.3228 31.7325 23.4692 32.116 23.4692C32.4995 23.4692 32.883 23.3228 33.1758 23.0301L43.1928 13.0131C43.7783 12.4276 43.7783 11.4791 43.1928 10.8936L33.1758 0.876622C32.5903 0.291126 31.6418 0.291126 31.0563 0.876622C30.4708 1.46212 30.4708 2.41061 31.0563 2.99609L40.0135 11.9533L31.0563 20.9106C30.4708 21.496 30.4708 22.4446 31.0563 23.0301Z" fill="#1090D0"/>
<path d="M22.9161 1.6066L18.4196 21.6405C18.2381 22.4485 18.746 23.2506 19.5532 23.4314C19.6645 23.4563 19.7743 23.468 19.8833 23.468C20.569 23.468 21.1875 22.9945 21.3441 22.2977L25.8407 2.2638C26.0222 1.45583 25.5143 0.653703 24.707 0.472942C23.8983 0.295838 23.0976 0.799346 22.9161 1.6066Z" fill="#1090D0"/>
</svg>
