<svg width="60" height="46" viewBox="0 0 60 46" fill="none" xmlns="http://www.w3.org/2000/svg">
<path fill-rule="evenodd" clip-rule="evenodd" d="M6.97482 30.3476C9.53949 30.8072 11.4884 33.0517 11.4884 35.7479C11.4884 38.7758 9.03006 41.2342 6.00209 41.2342C2.97399 41.2342 0.515625 38.7758 0.515625 35.7479C0.515625 33.0517 2.46456 30.8072 5.02936 30.3476V24.1149C5.02936 23.5777 5.46487 23.1421 6.00209 23.1421H13.4417V7.27167C13.4417 6.73444 13.8772 6.29894 14.4144 6.29894H18.7835V1.7071C18.7835 1.1703 19.2194 0.734375 19.7562 0.734375C20.2931 0.734375 20.7289 1.1703 20.7289 1.7071V6.29894H25.4575V1.7071C25.4575 1.1703 25.8934 0.734375 26.4302 0.734375C26.9672 0.734375 27.403 1.1703 27.403 1.7071V6.29894H32.1315V1.7071C32.1315 1.1703 32.5673 0.734375 33.1043 0.734375C33.6411 0.734375 34.077 1.1703 34.077 1.7071V6.29894H38.8056V1.7071C38.8056 1.1703 39.2413 0.734375 39.7783 0.734375C40.3151 0.734375 40.751 1.1703 40.751 1.7071V6.29894H45.1201C45.6573 6.29894 46.0928 6.73444 46.0928 7.27167V23.1421H53.5324C54.0696 23.1421 54.5051 23.5777 54.5051 24.1149V30.3476C57.0699 30.8072 59.0189 33.0517 59.0189 35.7479C59.0189 38.7758 56.5605 41.2342 53.5324 41.2342C50.5044 41.2342 48.0461 38.7758 48.0461 35.7479C48.0461 33.0517 49.995 30.8072 52.5597 30.3476C52.5597 28.6456 52.5597 25.0876 52.5597 25.0876H46.0928V29.1034C46.0928 29.6407 45.6573 30.0762 45.1201 30.0762H38.1573V34.4537C40.6913 34.9383 42.6088 37.1682 42.6088 39.8425C42.6088 42.8705 40.1504 45.329 37.1225 45.329C34.0944 45.329 31.636 42.8705 31.636 39.8425C31.636 37.1246 33.6165 34.8657 36.2118 34.4314V30.0762H23.3226V34.4314C25.918 34.8657 27.8985 37.1246 27.8985 39.8425C27.8985 42.8705 25.4401 45.329 22.412 45.329C19.3841 45.329 16.9257 42.8705 16.9257 39.8425C16.9257 37.1682 18.8432 34.9383 21.3772 34.4537V30.0762H14.4144C13.8772 30.0762 13.4417 29.6407 13.4417 29.1034V25.0876H6.97482V30.3476ZM6.00209 32.2069C4.04774 32.2069 2.46108 33.7935 2.46108 35.7479C2.46108 37.7021 4.04774 39.2887 6.00209 39.2887C7.9563 39.2887 9.54296 37.7021 9.54296 35.7479C9.54296 33.7935 7.9563 32.2069 6.00209 32.2069ZM44.1474 8.24439H15.3871V28.1307H44.1474V8.24439ZM53.5324 32.2069C51.5782 32.2069 49.9915 33.7935 49.9915 35.7479C49.9915 37.7021 51.5782 39.2887 53.5324 39.2887C55.4867 39.2887 57.0734 37.7021 57.0734 35.7479C57.0734 33.7935 55.4867 32.2069 53.5324 32.2069ZM37.1591 36.3016C37.1469 36.3016 37.1347 36.3015 37.1225 36.3015C35.1681 36.3015 33.5814 37.8881 33.5814 39.8425C33.5814 41.7969 35.1681 43.3835 37.1225 43.3835C39.0767 43.3835 40.6633 41.7969 40.6633 39.8425C40.6633 37.909 39.1103 36.3353 37.1846 36.302C37.1761 36.3019 37.1676 36.3018 37.1591 36.3016ZM22.3499 36.302C20.4242 36.3353 18.8712 37.909 18.8712 39.8425C18.8712 41.7969 20.4578 43.3835 22.412 43.3835C24.3664 43.3835 25.953 41.7969 25.953 39.8425C25.953 37.8881 24.3664 36.3015 22.412 36.3015C22.3998 36.3015 22.3876 36.3016 22.3753 36.3016C22.3669 36.3018 22.3584 36.3019 22.3499 36.302ZM28.9974 22.0892C28.7678 22.5745 28.1874 22.7821 27.7021 22.5525C27.2167 22.3228 27.0091 21.7425 27.2388 21.2571L30.5371 14.2857C30.7666 13.8005 31.3471 13.5929 31.8323 13.8224C32.3177 14.0521 32.5253 14.6324 32.2956 15.1178L28.9974 22.0892ZM35.4691 22.4404C35.0457 22.7704 34.434 22.6947 34.1039 22.2713C33.7738 21.8479 33.8496 21.2362 34.2731 20.906L37.7603 18.1875L34.2731 15.469C33.8496 15.1388 33.7738 14.5271 34.1039 14.1037C34.434 13.6803 35.0457 13.6045 35.4691 13.9346L39.9405 17.4203C40.177 17.6047 40.3152 17.8877 40.3152 18.1875C40.3152 18.4872 40.177 18.7703 39.9405 18.9547L35.4691 22.4404ZM25.2614 20.906C25.6848 21.2362 25.7607 21.8479 25.4305 22.2713C25.1005 22.6947 24.4888 22.7704 24.0654 22.4404L19.594 18.9547C19.3575 18.7703 19.2192 18.4872 19.2192 18.1875C19.2192 17.8877 19.3575 17.6047 19.594 17.4203L24.0654 13.9346C24.4888 13.6045 25.1005 13.6803 25.4305 14.1037C25.7607 14.5271 25.6848 15.1388 25.2614 15.469L21.7742 18.1875L25.2614 20.906Z" fill="#1090D0"/>
</svg>
