<svg width="19" height="36" viewBox="0 0 19 36" fill="none" xmlns="http://www.w3.org/2000/svg">
<path fill-rule="evenodd" clip-rule="evenodd" d="M6.21765 18.6517C6.21765 18.6517 5.30077 19.1852 6.87086 19.3655C8.77353 19.5827 9.74538 19.5515 11.8414 19.1549C11.8414 19.1549 12.3933 19.5005 13.1636 19.7994C8.46345 21.8135 2.52643 19.6829 6.21765 18.6517ZM5.64311 16.0234C5.64311 16.0234 4.6145 16.7848 6.18599 16.9473C8.2185 17.1572 9.82284 17.1744 12.6008 16.6398C12.6008 16.6398 12.9843 17.0292 13.588 17.2419C7.90604 18.9038 1.57788 17.3727 5.64311 16.0234Z" fill="#3174B9"/>
<path fill-rule="evenodd" clip-rule="evenodd" d="M10.4838 11.5651C11.6425 12.8989 10.1801 14.0984 10.1801 14.0984C10.1801 14.0984 13.1208 12.5806 11.7701 10.6793C10.5091 8.90701 9.54186 8.02655 14.7777 4.99023C14.7777 4.99023 6.5588 7.04212 10.4838 11.5651Z" fill="#CA3132"/>
<path fill-rule="evenodd" clip-rule="evenodd" d="M16.7081 20.5976C16.7081 20.5976 17.3868 21.1573 15.9605 21.59C13.2483 22.4115 4.66996 22.6593 2.28715 21.6227C1.43121 21.2499 3.03714 20.7331 3.54238 20.6239C4.06933 20.51 4.37005 20.5307 4.37005 20.5307C3.41752 19.86 -1.78684 21.8481 1.72694 22.4185C11.3084 23.9721 19.1931 21.7191 16.7081 20.5976ZM6.66643 13.3018C6.66643 13.3018 2.30348 14.3384 5.12163 14.7152C6.31195 14.8743 8.68301 14.8377 10.8934 14.6523C12.6992 14.5007 14.5119 14.1765 14.5119 14.1765C14.5119 14.1765 13.8756 14.4495 13.4146 14.7638C8.98333 15.9295 0.424311 15.3866 2.88858 14.195C4.97207 13.1871 6.66643 13.3018 6.66643 13.3018ZM14.4938 17.6766C18.9979 15.3366 16.9154 13.0873 15.4614 13.3904C15.106 13.4647 14.9464 13.5288 14.9464 13.5288C14.9464 13.5288 15.0791 13.3213 15.3312 13.2321C18.2071 12.2214 20.4185 16.2138 14.404 17.7949C14.4038 17.7949 14.4731 17.7324 14.4938 17.6766Z" fill="#3174B9"/>
<path fill-rule="evenodd" clip-rule="evenodd" d="M11.7682 0.0859375C11.7682 0.0859375 14.2622 2.58155 9.40214 6.41786C5.5046 9.4964 8.51354 11.2512 9.40094 13.2568C7.12547 11.2041 5.4564 9.39682 6.57602 7.71516C8.21979 5.24663 12.7745 4.04952 11.7682 0.0859375Z" fill="#CA3132"/>
<path fill-rule="evenodd" clip-rule="evenodd" d="M7.10503 24.0178C11.4278 24.2943 18.0672 23.8643 18.2247 21.8184C18.2247 21.8184 17.9224 22.5939 14.6518 23.2091C10.9617 23.9037 6.4098 23.8229 3.71094 23.3773C3.71094 23.3773 4.26397 23.835 7.10503 24.0178Z" fill="#3174B9"/>
<path fill-rule="evenodd" clip-rule="evenodd" d="M18.0256 27.6856H17.8941V27.6119H18.2488V27.6856H18.1174V28.0536H18.0256V27.6856ZM18.7333 27.7039H18.7317L18.6011 28.0534H18.5412L18.4113 27.7039H18.4097V28.0534H18.3225V27.6117H18.4505L18.5708 27.9241L18.6911 27.6117H18.818V28.0534H18.7335L18.7333 27.7039ZM6.39726 31.833C5.9896 32.1863 5.55864 32.385 5.1717 32.385C4.62045 32.385 4.32133 32.0538 4.32133 31.5239C4.32133 30.9501 4.64156 30.5303 5.92328 30.5303H6.39706L6.39726 31.833ZM7.52245 33.1024V29.1726C7.52245 28.1683 6.9497 27.5055 5.569 27.5055C4.76344 27.5055 4.05726 27.7045 3.48311 27.958L3.64841 28.654C4.10067 28.4879 4.68538 28.334 5.25932 28.334C6.05472 28.334 6.39706 28.654 6.39706 29.3166V29.8135H5.99956C4.06742 29.8135 3.19554 30.5631 3.19554 31.6902C3.19554 32.6612 3.77009 33.2133 4.85167 33.2133C5.54689 33.2133 6.06627 32.9263 6.5512 32.5063L6.63942 33.1024H7.52245ZM11.2778 33.1024H9.8748L8.18542 27.6055H9.41098L10.4595 30.9834L10.6929 31.9983C11.2218 30.5303 11.5972 29.04 11.785 27.6055H12.9767C12.6577 29.4154 12.083 31.4026 11.2778 33.1024ZM16.6622 31.833C16.2533 32.1863 15.8224 32.385 15.4362 32.385C14.885 32.385 14.5863 32.0538 14.5863 31.5239C14.5863 30.9501 14.9067 30.5303 16.1876 30.5303H16.6622V31.833ZM17.7878 33.1024V29.1726C17.7878 28.1683 17.2132 27.5055 15.8339 27.5055C15.0276 27.5055 14.3216 27.7045 13.7474 27.958L13.9127 28.654C14.365 28.4879 14.9509 28.334 15.525 28.334C16.3193 28.334 16.662 28.654 16.662 29.3166V29.8135H16.2645C14.3321 29.8135 13.4609 30.5631 13.4609 31.6902C13.4609 32.6612 14.0342 33.2133 15.116 33.2133C15.8118 33.2133 16.3304 32.9263 16.8165 32.5063L16.9051 33.1024H17.7878ZM1.96182 34.0364C1.64119 34.505 1.1226 34.876 0.555625 35.0853L0 34.4309C0.431954 34.2093 0.801972 33.8514 0.974236 33.5184C1.1226 33.2217 1.18454 32.8401 1.18454 31.9268V25.6504H2.38043V31.8401C2.38043 33.0617 2.28284 33.5554 1.96182 34.0364Z" fill="#CA3132"/>
</svg>
