<svg width="35" height="36" viewBox="0 0 35 36" fill="none" xmlns="http://www.w3.org/2000/svg">
<path d="M34.9342 17.553C34.9342 27.1998 27.1139 35.0201 17.4671 35.0201C7.82026 35.0201 0 27.1998 0 17.553C0 7.9062 7.82026 0.0859375 17.4671 0.0859375C27.1139 0.0859375 34.9342 7.9062 34.9342 17.553Z" fill="#3A3C5B"/>
<path d="M29.6379 18.8452C29.0493 15.1316 25.1531 12.726 22.2518 10.9117C20.9844 10.1192 18.9296 9.08681 18.6638 7.41996C18.5541 6.73115 18.5581 6.0195 18.5351 5.32398C18.526 5.05089 18.5218 4.77621 18.4974 4.50378C18.4658 4.15233 18.1081 4.58549 17.912 4.27878C17.4263 3.51944 17.6133 4.50891 17.661 4.90819C17.7734 5.84733 17.9054 6.78371 17.8978 7.73167C17.8833 9.54339 17.5914 11.2777 17.1397 13.0232C16.0817 17.111 15.2472 21.2992 16.2937 25.4823C16.5106 26.349 16.7929 27.204 17.1637 28.0176C17.2758 28.2636 17.4905 28.9502 17.7989 29.0324C18.9099 29.3288 19.7499 29.4147 20.6372 30.2411C21.188 30.7542 21.6012 30.4739 22.2528 30.2132C24.2264 29.4233 25.9369 28.4293 27.3355 26.8027C29.3014 24.5163 30.1124 21.8396 29.6379 18.8452ZM27.5504 22.5844C27.3753 24.1119 26.4172 25.4801 25.4388 26.6145C24.7296 27.4368 23.7701 28.504 22.7185 28.8784C22.34 29.0132 22.7878 28.2559 22.8433 28.1724C23.1689 27.6829 23.57 27.2511 23.9424 26.7982C24.4935 26.1285 24.9707 25.4256 25.2932 24.6145C26.364 21.9228 26.1207 18.6601 24.536 16.2352C23.6732 14.915 22.4891 13.799 21.2954 12.781C20.7187 12.2891 20.1351 11.824 19.6498 11.2354C19.5376 11.0995 18.5464 9.80194 18.8547 9.6101C18.9543 9.54806 21.1206 11.8268 21.3562 12.0047C22.252 12.6811 23.1733 13.3065 24.0028 14.0681C25.1253 15.0994 26.2781 16.2513 26.9212 17.6538C27.626 19.1905 27.7406 20.9229 27.5504 22.5844Z" fill="white"/>
<path d="M16.8203 0.557553C17.1455 0.774395 17.2176 2.039 17.2176 3.19518C17.2176 4.35163 17.3261 9.33795 16.9647 10.6749C16.6035 12.0119 15.7724 13.4934 14.869 14.7942C13.9657 16.095 12.9178 18.8411 12.954 20.5393C12.99 22.2377 13.9657 25.0199 14.7245 26.1762C15.4862 27.3369 16.7792 28.9545 16.495 29.3199C15.9891 29.9703 13.9296 27.73 12.8456 26.4293C11.7615 25.1284 10.6775 22.4905 10.6415 20.431C10.6053 18.3714 11.7615 16.4562 12.5926 15.3001C13.4238 14.1438 15.0497 12.1564 15.4833 11.2531C15.9168 10.3498 16.3867 9.37426 16.5312 8.10946C16.6757 6.84479 16.5312 2.32801 16.5312 2.32801C16.5312 2.32801 16.495 0.340711 16.8203 0.557553Z" fill="white"/>
<path d="M15.9586 2.68874C16.2838 2.83328 16.32 3.23072 16.32 3.62828C16.32 4.02572 16.2115 5.65177 16.1032 7.24164C15.9947 8.8315 14.7302 10.1685 13.7906 11.1079C12.8512 12.0473 10.1411 14.9742 9.12937 16.4196C8.11766 17.8649 7.61345 19.7687 7.72023 21.3699C7.82858 22.9958 8.22602 24.5857 9.74371 26.2841C11.2613 27.9823 12.3092 28.7772 13.104 29.1748C13.899 29.572 14.694 29.8612 14.5133 30.2226C14.3326 30.5839 13.5738 30.3309 12.7427 30.042C11.9117 29.7528 9.09325 28.5967 7.4672 26.7538C5.84128 24.9108 5.01023 22.4538 5.08246 20.1051C5.15464 17.7564 5.80516 16.7808 6.88918 15.2632C7.97312 13.7456 10.9722 11.5055 11.9117 10.9273C12.8512 10.3491 14.1158 9.37354 14.7302 8.57861C15.3444 7.78361 15.6696 7.13308 15.6334 6.04914C15.5973 4.96519 15.7058 3.98953 15.6696 3.62828C15.6334 3.26697 15.6334 2.54433 15.9586 2.68874Z" fill="white"/>
<path d="M16.048 31.0118C16.1949 31.0058 16.1021 31.6426 15.8426 31.9585C15.5832 32.2744 15.1376 32.4643 15.0834 32.3373C15.029 32.2101 15.4052 32.137 15.6813 31.8297C15.9349 31.5474 15.8678 31.0191 16.048 31.0118Z" fill="white"/>
<path d="M18.9682 30.9961C18.8213 30.99 18.9142 31.6267 19.1736 31.9426C19.4331 32.2584 19.8787 32.4486 19.9328 32.3215C19.9871 32.1943 19.611 32.1213 19.3349 31.8138C19.0813 31.5318 19.1484 31.0032 18.9682 30.9961Z" fill="white"/>
<path d="M17.6731 31.6866C17.6731 32.2427 17.7015 32.6934 17.5801 32.6934C17.4306 32.6934 17.487 32.2427 17.487 31.6866C17.487 31.1305 17.4363 30.6797 17.5801 30.6797C17.7126 30.6797 17.6731 31.1305 17.6731 31.6866Z" fill="white"/>
</svg>
