<svg width="35" height="36" viewBox="0 0 35 36" fill="none" xmlns="http://www.w3.org/2000/svg">
<path d="M17.5 35.0859C27.165 35.0859 35 27.2509 35 17.5859C35 7.92095 27.165 0.0859375 17.5 0.0859375C7.83502 0.0859375 0 7.92095 0 17.5859C0 27.2509 7.83502 35.0859 17.5 35.0859Z" fill="black"/>
<path d="M18.7612 14.3112C19.0278 14.171 19.5063 14.1847 19.5063 14.1847C19.5063 14.6495 19.4619 14.9264 19.168 15.1417C19.0757 15.2101 18.9116 15.316 18.7236 15.3844C18.4639 15.4801 18.2861 15.6476 18.2861 15.6476C18.2861 14.7999 18.416 14.4923 18.7612 14.3112ZM16.707 14.5094C16.4233 14.7589 16.3413 15.1554 16.3413 15.1554L15.4048 18.7819L14.6255 15.8117C14.5503 15.4972 14.4136 15.1041 14.1982 14.841C13.9214 14.506 13.3608 14.4821 13.3027 14.4821C13.2446 14.4821 12.6841 14.5026 12.4072 14.841C12.1919 15.1041 12.0552 15.4938 11.98 15.8117L11.1973 18.7819L10.2607 15.1554C10.2607 15.1554 10.1787 14.7589 9.89502 14.5094C9.43701 14.1061 8.75 14.1915 8.75 14.1915L10.541 20.9694C10.541 20.9694 11.1323 21.0104 11.4297 20.86C11.8193 20.6618 12.0039 20.5079 12.2397 19.5851C12.4482 18.7614 13.0361 16.3483 13.0908 16.174C13.1182 16.0885 13.1523 15.8868 13.3027 15.8868C13.4565 15.8868 13.4873 16.0885 13.5146 16.174C13.5693 16.3449 14.1572 18.7614 14.3657 19.5851C14.6016 20.5079 14.7861 20.6618 15.1758 20.86C15.4731 21.0104 16.0645 20.9694 16.0645 20.9694L17.8589 14.1881C17.852 14.1915 17.165 14.1027 16.707 14.5094ZM19.5063 15.299C19.5063 15.299 19.3936 15.4733 19.1372 15.6168C18.9731 15.7091 18.8159 15.7706 18.645 15.8527C18.3613 15.9894 18.2861 16.1398 18.2861 16.3722V20.9694C18.2861 20.9694 18.7373 21.0275 19.0347 20.8771C19.4141 20.6823 19.5029 20.4943 19.5063 19.6535V15.299ZM23.977 17.5958L26.2534 14.212C26.2534 14.212 25.293 14.048 24.8179 14.4821C24.5137 14.7589 24.1719 15.2579 24.1719 15.2579L23.3345 16.4645C23.2935 16.526 23.2422 16.5944 23.1567 16.5944C23.0713 16.5944 23.02 16.526 22.979 16.4645L22.1416 15.2579C22.1416 15.2579 21.7998 14.7589 21.4956 14.4821C21.0205 14.048 20.0601 14.212 20.0601 14.212L22.3364 17.5958L20.0635 20.9694C20.0635 20.9694 21.0649 21.0958 21.54 20.6618C21.8442 20.3849 22.1382 19.9337 22.1382 19.9337L22.9756 18.7272C23.0166 18.6657 23.0679 18.5973 23.1533 18.5973C23.2388 18.5973 23.29 18.6657 23.3311 18.7272L24.1685 19.9337C24.1685 19.9337 24.4795 20.3849 24.7837 20.6618C25.2588 21.0958 26.2432 20.9694 26.2432 20.9694L23.977 17.5958Z" fill="white"/>
</svg>
