<svg width="25" height="36" viewBox="0 0 25 36" fill="none" xmlns="http://www.w3.org/2000/svg">
<path d="M2.3125 0.0859375H3.88476V1.64451H5.33397V0.0859375H6.90623V4.80267H5.33397V3.23042H3.89843V4.80267H2.3125V0.0859375ZM8.98435 1.65818H7.59666V0.0859375H11.9511V1.65818H10.5566V4.80267H8.98435V1.65818ZM12.6416 0.0859375H14.289L15.3007 1.74705L16.3125 0.0859375H17.9599V4.80267H16.3876V2.46481L15.2871 4.1601L14.1865 2.46481V4.80267H12.6416V0.0859375ZM18.7392 0.0859375H20.3115V3.2441H22.54V4.80267H18.7392V0.0859375Z" fill="black"/>
<path d="M2.25585 32.2828L0 6.96289H24.8007L22.5448 32.2692L12.3798 35.0855" fill="#FF4C1E"/>
<path d="M12.3984 32.9303V9.03906H22.5361L20.6015 30.6403L12.3984 32.9303Z" fill="#FF651E"/>
<path d="M4.60938 12.1348H12.4023L13.5611 13.6865L12.4023 15.2382H8.01366L8.30077 18.4169H12.4023L13.5611 20.0267L12.4023 21.5135H5.45703L4.60938 12.1348ZM5.59375 23.0721H8.71092L8.92967 25.5535L12.4023 26.4832L13.7098 28.0322L12.4023 29.7234L6.03125 27.9461L5.59375 23.0721Z" fill="#EBEBEB"/>
<path d="M20.1621 12.1348H12.3828V15.2382H19.875L20.1621 12.1348ZM19.5947 18.4169H12.3828V21.5204H16.2109L15.8486 25.5535L12.3828 26.4832V29.7097L18.7402 27.9461L19.5947 18.4169Z" fill="#F1F8FC"/>
</svg>
