<svg width="25" height="36" viewBox="0 0 25 36" fill="none" xmlns="http://www.w3.org/2000/svg">
<path d="M24.7963 6.96484L22.5373 32.2706L12.383 35.0856L2.25661 32.2745L0 6.96484H24.7963Z" fill="#004CE8"/>
<path d="M20.6036 30.6581L22.5341 9.0332H12.3984V32.9328L20.6036 30.6581Z" fill="#0065F4"/>
<path d="M5.17188 18.418L5.4501 21.5221H12.3968L13.732 19.97L12.3968 18.418H5.17188Z" fill="#EBEBEB"/>
<path d="M12.4011 12.1367H12.3904H4.61719L4.89937 15.2409H12.4011L13.7364 13.6888L12.4011 12.1367Z" fill="#EBEBEB"/>
<path d="M12.4017 29.7113L13.737 28.0652L12.4017 26.4817L12.3881 26.4853L8.93092 25.5519L8.70991 23.0762H7.02998H5.59375L6.02865 27.9501L12.3874 29.7153L12.4017 29.7113Z" fill="#EBEBEB"/>
<path d="M5.83594 0.0859375H9.5957V1.65815H7.4082V3.23036H9.5957V4.80258H5.83594V0.0859375Z" fill="black"/>
<path d="M10.3516 0.0859375H14.1113V1.45308H11.9238V1.72651H14.1113V4.87094H10.3516V3.43544H12.5391V3.16201H10.3516V0.0859375Z" fill="black"/>
<path d="M14.8594 0.0859375H18.6191V1.45308H16.4316V1.72651H18.6191V4.87094H14.8594V3.43544H17.0469V3.16201H14.8594V0.0859375Z" fill="black"/>
<path d="M16.2053 21.5237L15.845 25.5495L12.3828 26.4839V29.7134L18.7467 27.9497L18.7933 27.4253L19.5228 19.2531L19.5986 18.4196L20.159 12.1367H12.3828V15.2409H16.757L16.4745 18.4196H12.3828V21.5237H16.2053Z" fill="#F1F8FC"/>
</svg>
