<svg width="29" height="31" viewBox="0 0 29 31" fill="none" xmlns="http://www.w3.org/2000/svg">
<path d="M14.0646 0.0859375C13.6366 0.0859375 13.2087 0.190924 12.8393 0.401997L1.21843 7.11024C0.467951 7.54412 0 8.36559 0 9.23334V21.4039C0 22.2834 0.467951 23.0931 1.21843 23.527L4.26909 25.2859C5.7466 26.013 6.27346 26.012 6.94185 26.012C9.13467 26.012 10.3887 24.6871 10.3887 22.3887V9.8311C10.3887 9.64348 10.2374 9.48985 10.0498 9.48985H8.58399C8.38464 9.48985 8.24274 9.64348 8.24274 9.8311V22.3773C8.24274 23.4092 7.17693 24.4174 5.45317 23.5614L2.2628 21.72C2.14554 21.6613 2.075 21.5329 2.075 21.4039V9.24479C2.075 9.10407 2.14554 8.98535 2.2628 8.91499L13.8837 2.20903C13.9892 2.13867 14.1306 2.13867 14.2479 2.20903L25.8688 8.91499C25.986 8.98535 26.0566 9.10435 26.0566 9.23334V21.4039C26.0566 21.5329 25.9858 21.6613 25.8802 21.72L14.2479 28.4397C14.1423 28.4983 13.9892 28.4983 13.8837 28.4397L10.8926 26.6693C10.8105 26.6107 10.6953 26.5995 10.6132 26.6464C9.78062 27.1154 9.62818 27.1737 8.85424 27.4434C8.66662 27.502 8.37328 27.6189 8.9596 27.9473L12.8393 30.2467C13.2146 30.4578 13.6379 30.5742 14.0601 30.5742C14.4939 30.5742 14.9147 30.4578 15.2899 30.2467L26.9246 23.527C27.6751 23.0931 28.143 22.2834 28.143 21.4039V9.24479C28.143 8.36532 27.6751 7.55557 26.9246 7.1217L15.2899 0.401997C14.9206 0.190924 14.4927 0.0859375 14.0646 0.0859375ZM17.1909 9.47382C13.8724 9.47382 11.8912 10.8801 11.8912 13.2253C11.8912 15.7699 13.8593 16.4724 17.0489 16.789C20.8599 17.1642 21.1531 17.7287 21.1531 18.4792C21.1531 19.7691 20.1112 20.3206 17.6604 20.3206C14.5764 20.3206 13.8958 19.5456 13.673 18.0212C13.6496 17.857 13.5097 17.7395 13.3455 17.7395H11.8316C11.644 17.7395 11.5041 17.8934 11.5041 18.0693C11.5041 20.0275 12.5712 22.359 17.6604 22.359C21.3424 22.359 23.4525 20.9067 23.4525 18.3739C23.4525 15.8644 21.7519 15.1948 18.1872 14.714C14.5637 14.2449 14.1998 13.9986 14.1998 13.1543C14.1998 12.4507 14.5173 11.5259 17.1909 11.5259C19.5713 11.5259 20.4621 12.0402 20.8256 13.6467C20.8607 13.7992 20.9889 13.917 21.1531 13.917H22.667C22.7608 13.917 22.8417 13.8705 22.912 13.8002C22.9706 13.7415 23.0062 13.6469 22.9945 13.5414C22.7599 10.774 20.9198 9.47382 17.1909 9.47382Z" fill="#83CD29"/>
</svg>
