<svg width="24" height="26" viewBox="0 0 24 26" fill="none" xmlns="http://www.w3.org/2000/svg">
<path d="M22.3294 4.87109V25.6068H1.59375V0.0859375H17.5443L18.9773 3.3862L22.3294 4.87109Z" fill="#ECF2FF"/>
<path d="M22.3288 4.87109V25.6068H11.9609V0.0859375H17.5436L18.9767 3.3862L22.3288 4.87109Z" fill="#DAE6FE"/>
<path d="M17.5469 0.0859375V4.87109H22.332L17.5469 0.0859375Z" fill="#C0D7FE"/>
<path d="M0 11.0176H23.9258V22.1829H0V11.0176Z" fill="#00CE6D"/>
<path d="M11.9609 11.0176H23.9238V22.1829H11.9609V11.0176Z" fill="#009A86"/>
<path d="M5.21094 7.59375H18.719V9.08911H5.21094V7.59375Z" fill="#DAE6FE"/>
<path d="M5.21094 4.58984H14.214V6.08521H5.21094V4.58984Z" fill="#DAE6FE"/>
<path d="M11.9609 4.5918H14.21V6.08716H11.9609V4.5918Z" fill="#C0D7FE"/>
<path d="M11.9609 7.59375H18.715V9.08911H11.9609V7.59375Z" fill="#C0D7FE"/>
<path d="M8.90552 19.6026C7.66527 19.6026 6.65625 18.5936 6.65625 17.3533H8.15161C8.15161 17.769 8.48981 18.1072 8.90552 18.1072C9.32123 18.1072 9.65943 17.769 9.65943 17.3533V13.5977H11.1548V17.3533C11.1548 18.5936 10.1458 19.6026 8.90552 19.6026Z" fill="#ECF2FF"/>
<path d="M14.9919 19.5992H12.8158V18.1039H14.9919C15.2006 18.1039 15.3704 17.9341 15.3704 17.7254C15.3704 17.5167 15.2006 17.3469 14.9919 17.3469H14.2418C13.2081 17.3469 12.3672 16.506 12.3672 15.4723C12.3672 14.9712 12.5624 14.5003 12.9168 14.1462C13.2708 13.7925 13.7413 13.5977 14.2417 13.5977H14.2434L16.4176 13.5992L16.4166 15.0946L14.2422 15.093C14.2421 15.093 14.242 15.093 14.2419 15.093C14.1052 15.093 14.0152 15.1626 13.9737 15.204C13.9322 15.2455 13.8625 15.3355 13.8625 15.4723C13.8625 15.6814 14.0327 15.8516 14.2418 15.8516H14.9919C16.0251 15.8516 16.8657 16.6922 16.8657 17.7254C16.8657 18.7586 16.0251 19.5992 14.9919 19.5992Z" fill="#DAE6FE"/>
</svg>
