<svg width="35" height="35" viewBox="0 0 35 35" fill="none" xmlns="http://www.w3.org/2000/svg">
<path d="M29.4763 9.93359H23.3385V16.0039H8.5V23.4232C8.5 24.1683 9.10387 24.7721 9.84896 24.7721V29.5609C9.84896 32.3548 12.1137 34.6195 14.9076 34.6195H19.6289C22.4227 34.6195 24.6875 32.3548 24.6875 29.5609V26.7956H18.6459C18.1011 26.7956 17.6323 26.3769 17.6065 25.8329C17.5791 25.2516 18.0423 24.7721 18.6172 24.7721H29.4763C32.2701 24.7721 34.5349 22.5074 34.5349 19.7135V14.9922C34.5349 12.1984 32.2701 9.93359 29.4763 9.93359Z" fill="#FEEF55"/>
<path d="M29.4737 9.93359H23.3359V16.0039H17.2656V34.6195H19.6263C22.4201 34.6195 24.6849 32.3548 24.6849 29.5609V26.7956H18.6433C18.0984 26.7956 17.6297 26.3769 17.6039 25.8329C17.5765 25.2516 18.0397 24.7721 18.6146 24.7721H29.4737C32.2675 24.7721 34.5323 22.5074 34.5323 19.7135V14.9922C34.5323 12.1984 32.2675 9.93359 29.4737 9.93359Z" fill="#FEDC00"/>
<path d="M12.5453 17.3526H21.988C23.4779 17.3526 24.6859 16.1446 24.6859 14.6547V5.14453C24.6859 2.35519 22.4167 0.0859375 19.6273 0.0859375H14.906C12.1166 0.0859375 9.8474 2.35519 9.8474 5.14453V7.9099H15.9177C16.4765 7.9099 16.9294 8.3628 16.9294 8.92161C16.9294 9.48043 16.4765 9.93333 15.9177 9.93333H5.05859C2.26925 9.93333 0 12.2026 0 14.9919V19.7133C0 22.5026 2.26925 24.7719 5.05859 24.7719H9.8474V20.0505C9.8474 18.5606 11.0554 17.3526 12.5453 17.3526Z" fill="#78E0EA"/>
<path d="M19.6263 0.0859375H17.2656V17.3526H21.987C23.4769 17.3526 24.6849 16.1446 24.6849 14.6547V5.14453C24.6849 2.35519 22.4156 0.0859375 19.6263 0.0859375Z" fill="#3CCCDD"/>
<path d="M15.9141 4.20117C15.9141 4.75999 15.4612 5.21289 14.9023 5.21289C14.3435 5.21289 13.8906 4.75999 13.8906 4.20117C13.8906 3.64236 14.3435 3.18945 14.9023 3.18945C15.4612 3.18945 15.9141 3.64236 15.9141 4.20117Z" fill="#5A5A6E"/>
<path d="M20.6406 30.5059C20.6406 31.0647 20.1877 31.5176 19.6289 31.5176C19.0701 31.5176 18.6172 31.0647 18.6172 30.5059C18.6172 29.947 19.0701 29.4941 19.6289 29.4941C20.1877 29.4941 20.6406 29.947 20.6406 30.5059Z" fill="#46465A"/>
</svg>
