<svg width="40" height="36" viewBox="0 0 40 36" fill="none" xmlns="http://www.w3.org/2000/svg">
<path d="M35.1999 14.4688V16.645H33.0209V18.8255H35.1999V21.0059H37.3803V18.8255H39.5608V16.645H37.3803V14.4688H35.1999ZM30.254 14.4688H28.0722V16.645H25.8917V18.8255H28.0722V21.0059H30.2526V18.8255H32.433V16.645H30.2526L30.254 14.4688ZM25.0905 21.8538C24.1481 23.5287 22.6786 24.8451 20.9105 25.5982C19.1424 26.3513 17.1749 26.4988 15.3143 26.0178C13.4536 25.5368 11.8042 24.4543 10.6226 22.9386C9.44099 21.423 8.79353 19.5593 8.78097 17.6375C8.7684 15.7157 9.39144 13.8437 10.5531 12.3127C11.7148 10.7818 13.35 9.67775 15.2041 9.17246C17.0583 8.66717 19.0275 8.78896 20.8053 9.51888C22.5831 10.2488 24.0698 11.5459 25.034 13.2083L32.6507 8.82768C30.7211 5.48984 27.7433 2.88262 24.1799 1.41098C20.6164 -0.0606566 16.6666 -0.314328 12.9441 0.689369C9.22167 1.69307 5.93483 3.89795 3.59417 6.96153C1.25352 10.0251 -0.00993892 13.7759 5.8881e-05 17.6313C0.0100567 21.4867 1.29295 25.2309 3.64946 28.2823C6.00598 31.3337 9.3042 33.5215 13.0318 34.5059C16.7595 35.4903 20.7078 35.2161 24.2637 33.726C27.8195 32.2359 30.7837 29.6133 32.6959 26.2655L25.0905 21.8538Z" fill="#005F91"/>
</svg>
