<svg width="35" height="36" viewBox="0 0 35 36" fill="none" xmlns="http://www.w3.org/2000/svg">
<path d="M30.2273 0.0859375H4.77273C2.13682 0.0859375 0 2.22276 0 4.85866V30.3132C0 32.9491 2.13682 35.0859 4.77273 35.0859H30.2273C32.8632 35.0859 35 32.9491 35 30.3132V4.85866C35 2.22276 32.8632 0.0859375 30.2273 0.0859375Z" fill="#F04F23"/>
<path d="M24.6949 18.0162V21.1483C24.6949 21.4553 24.5729 21.7496 24.3559 21.9667C24.1388 22.1837 23.8445 22.3057 23.5375 22.3057C23.2305 22.3057 22.9362 22.1837 22.7191 21.9667C22.5021 21.7496 22.3801 21.4553 22.3801 21.1483V18.0759L20.1528 18.742L18.6574 18.046V21.0926C18.6629 22.3895 19.1834 23.6311 20.1044 24.5443C21.0254 25.4574 22.2714 25.9673 23.5683 25.9618C24.8652 25.9563 26.1069 25.4357 27.02 24.5148C27.9331 23.5938 28.443 22.3478 28.4375 21.0509V18.0162H24.6949ZM17.5 9.23438C16.2344 9.23463 15.0184 9.72612 14.1081 10.6053C13.1977 11.4845 12.6642 12.6827 12.6199 13.9474V21.0111C12.6199 21.318 12.4979 21.6124 12.2809 21.8295C12.0638 22.0465 11.7695 22.1685 11.4625 22.1685C11.1555 22.1685 10.8612 22.0465 10.6441 21.8295C10.4271 21.6124 10.3051 21.318 10.3051 21.0111V18.0162H6.5625V21.0509C6.57755 22.3312 7.09437 23.5545 8.00186 24.4578C8.90934 25.3611 10.135 25.8722 11.4154 25.8814C12.6958 25.8905 13.9287 25.3968 14.8489 24.5066C15.7692 23.6163 16.3034 22.4004 16.3366 21.1205V14.1443C16.349 13.8454 16.4765 13.5628 16.6924 13.3557C16.9083 13.1486 17.1959 13.0329 17.495 13.0329C17.7942 13.0329 18.0818 13.1486 18.2977 13.3557C18.5136 13.5628 18.641 13.8454 18.6534 14.1443V15.4906L20.1469 16.1866L22.3741 15.5205V13.9753C22.3369 12.7066 21.8073 11.5023 20.8975 10.6174C19.9877 9.73243 18.7692 9.23641 17.5 9.23438Z" fill="#F1F8FC"/>
</svg>
