<svg width="35" height="36" viewBox="0 0 35 36" fill="none" xmlns="http://www.w3.org/2000/svg">
<path d="M16.3539 0.0953561C16.2786 0.102198 16.0391 0.126143 15.8236 0.143247C10.8524 0.591373 6.19599 3.27329 3.24682 7.39536C1.60459 9.6873 0.554252 12.2871 0.15738 15.0409C0.0171065 16.0021 0 16.286 0 17.5894C0 18.8927 0.0171065 19.1766 0.15738 20.1379C1.1085 26.7092 5.78543 32.2304 12.1285 34.2761C13.2644 34.6421 14.4619 34.8918 15.8236 35.0423C16.3539 35.1005 18.6461 35.1005 19.1764 35.0423C21.5269 34.7823 23.5181 34.2008 25.4819 33.1985C25.783 33.0446 25.8412 33.0035 25.8001 32.9693C25.7727 32.9488 24.4897 31.2281 22.9501 29.1483L20.1515 25.3683L16.6447 20.1789C14.7151 17.326 13.1276 14.993 13.1139 14.993C13.1002 14.9895 13.0865 17.2952 13.0797 20.1105C13.0694 25.0399 13.066 25.2383 13.0044 25.3546C12.9154 25.5222 12.847 25.5906 12.7033 25.6659C12.5938 25.7206 12.498 25.7309 11.9814 25.7309H11.3895L11.2322 25.6317C11.1295 25.5667 11.0543 25.4812 11.0029 25.382L10.9311 25.228L10.9379 18.3693L10.9482 11.5072L11.0543 11.3738C11.109 11.3019 11.2253 11.2096 11.3074 11.1651C11.4477 11.0967 11.5024 11.0898 12.0943 11.0898C12.7923 11.0898 12.9086 11.1172 13.0899 11.3156C13.1413 11.3703 15.0401 14.2301 17.3118 17.6749C19.5836 21.1196 22.6901 25.8232 24.216 28.1323L26.9873 32.3296L27.1276 32.2373C28.3695 31.4299 29.6833 30.2806 30.7234 29.0833C32.937 26.5416 34.3636 23.4424 34.8426 20.1379C34.9829 19.1766 35 18.8927 35 17.5894C35 16.286 34.9829 16.0021 34.8426 15.0409C33.8915 8.46949 29.2146 2.94831 22.8715 0.902667C21.7527 0.540061 20.5621 0.290342 19.2278 0.139827C18.8993 0.105619 16.6378 0.0679897 16.3539 0.0953561ZM23.5181 10.6793C23.6823 10.7614 23.8157 10.9188 23.8636 11.083C23.891 11.1719 23.8979 13.0739 23.891 17.3602L23.8807 23.5108L22.7962 21.8483L21.7082 20.1858V15.7148C21.7082 12.8242 21.7219 11.1993 21.7424 11.1206C21.7972 10.9291 21.9169 10.7785 22.0811 10.6896C22.2214 10.6178 22.2727 10.6109 22.8099 10.6109C23.3162 10.6109 23.4052 10.6178 23.5181 10.6793Z" fill="black"/>
</svg>
