<svg width="35" height="36" viewBox="0 0 35 36" fill="none" xmlns="http://www.w3.org/2000/svg">
<path d="M0 5.08594C0 2.32451 2.23858 0.0859375 5 0.0859375H30C32.7614 0.0859375 35 2.32451 35 5.08594V30.0859C35 32.8474 32.7614 35.0859 30 35.0859H5C2.23858 35.0859 0 32.8474 0 30.0859V5.08594Z" fill="#FFDF00"/>
<path d="M22.1548 28.2197C22.9107 27.7806 23.8412 28.0742 24.5065 28.6412C25.0766 29.1271 25.7927 29.4271 26.7588 29.4271C28.1216 29.4271 28.9921 28.746 28.9921 27.8049C28.9921 26.6771 28.0977 26.2777 26.5977 25.6216L25.7755 25.2688C23.4021 24.2577 21.8254 22.991 21.8254 20.3132C21.8254 17.8465 23.7049 15.9688 26.6421 15.9688C28.2396 15.9688 29.4941 16.3935 30.4804 17.4436C31.0307 18.0297 30.79 18.9423 30.1135 19.3767C29.3793 19.8481 28.4605 19.4824 27.6907 19.0716C27.3873 18.9097 27.0453 18.8371 26.6421 18.8371C25.6788 18.8371 25.0682 19.4482 25.0682 20.2465C25.0682 21.2332 25.6793 21.6327 27.0904 22.2438L27.9126 22.596C30.7071 23.7943 32.2848 25.016 32.2848 27.7627C32.2848 30.7238 29.9587 32.346 26.8348 32.346C24.4973 32.346 22.7929 31.4935 21.6889 30.2383C21.1257 29.598 21.4176 28.648 22.1548 28.2197ZM10.4676 28.5797C11.2492 28.1065 12.1628 28.4877 12.8872 29.0445C13.181 29.2704 13.5388 29.4066 14.0127 29.4066C15.0932 29.4066 15.7749 28.9838 15.7749 27.34V17.8011C15.7749 16.8929 16.5111 16.1566 17.4193 16.1566C18.3276 16.1566 19.0638 16.8928 19.0638 17.8011V27.3844C19.0638 30.7899 17.0672 32.3399 14.1527 32.3399C12.2181 32.3399 10.8817 31.6044 10.0012 30.5633C9.46557 29.93 9.75805 29.0093 10.4676 28.5797Z" fill="black"/>
</svg>
