<svg width="31" height="36" viewBox="0 0 31 36" fill="none" xmlns="http://www.w3.org/2000/svg">
<path d="M26.9563 6.90056C26.9321 6.72466 26.778 6.62731 26.6507 6.61658C26.5236 6.60598 23.8334 6.40658 23.8334 6.40658C23.8334 6.40658 21.9651 4.55175 21.76 4.34645C21.5548 4.14127 21.1541 4.20368 20.9986 4.24946C20.9757 4.25621 20.5904 4.37512 19.953 4.57235C19.3289 2.77644 18.2275 1.12607 16.2898 1.12607C16.2363 1.12607 16.1812 1.12823 16.1261 1.13137C15.575 0.402566 14.8924 0.0859375 14.3027 0.0859375C9.78886 0.0859375 7.63234 5.72875 6.95619 8.59624C5.2022 9.13973 3.95617 9.52612 3.79701 9.57612C2.81797 9.88323 2.78701 9.91408 2.65845 10.8366C2.5617 11.5351 0 31.3459 0 31.3459L19.9613 35.0859L30.7771 32.7462C30.7771 32.7462 26.9802 7.07647 26.9563 6.90056ZM18.8498 4.91356L17.1607 5.43634C17.1613 5.3173 17.1619 5.20019 17.1619 5.07212C17.1619 3.95596 17.007 3.05728 16.7584 2.34487C17.7569 2.47017 18.4218 3.6062 18.8498 4.91356ZM15.5199 2.5662C15.7975 3.26174 15.9779 4.25994 15.9779 5.60694C15.9779 5.67586 15.9773 5.73887 15.9767 5.8026C14.8783 6.14285 13.6847 6.51225 12.4884 6.88285C13.1601 4.29054 14.4191 3.03849 15.5199 2.5662ZM14.1788 1.29667C14.3736 1.29667 14.5699 1.36281 14.7577 1.49209C13.3111 2.17282 11.7604 3.88729 11.1056 7.31105L8.34825 8.16503C9.11524 5.55357 10.9366 1.29667 14.1788 1.29667Z" fill="#95BF46"/>
<path d="M26.6493 6.61739C26.5222 6.60679 23.832 6.40739 23.832 6.40739C23.832 6.40739 21.9637 4.55256 21.7587 4.34725C21.6819 4.27087 21.5784 4.23171 21.4702 4.21484L19.9609 35.0865L30.7757 32.747C30.7757 32.747 26.9788 7.07727 26.955 6.90137C26.9307 6.72546 26.7766 6.62811 26.6493 6.61739Z" fill="#5E8E3E"/>
<path d="M16.2876 12.593L14.954 16.56C14.954 16.56 13.7856 15.9364 12.3533 15.9364C10.2535 15.9364 10.1478 17.2541 10.1478 17.5861C10.1478 19.398 14.8707 20.0922 14.8707 24.3361C14.8707 27.675 12.753 29.825 9.89758 29.825C6.47105 29.825 4.71875 27.6925 4.71875 27.6925L5.63623 24.6611C5.63623 24.6611 7.43744 26.2075 8.95733 26.2075C9.95047 26.2075 10.3545 25.4256 10.3545 24.8543C10.3545 22.4909 6.47973 22.3854 6.47973 18.5019C6.47973 15.2333 8.82577 12.0703 13.5615 12.0703C15.3862 12.0703 16.2876 12.593 16.2876 12.593Z" fill="white"/>
</svg>
