<svg width="30" height="30" viewBox="0 0 30 30" fill="none" xmlns="http://www.w3.org/2000/svg">
<path fill-rule="evenodd" clip-rule="evenodd" d="M3.85484 4.99023H7.57003H26.0882C26.9406 4.99023 27.6364 5.68608 27.6364 6.53843V29.5423H3.85484C1.94066 29.5736 0 28.3312 0 25.8102V6.53843C0 5.68608 0.695846 4.99023 1.5482 4.99023H3.85484Z" fill="#3743A1"/>
<path fill-rule="evenodd" clip-rule="evenodd" d="M24.5666 0.0859375H7.97705L3.25781 4.80517V24.9245C3.25781 25.6444 3.84772 26.2343 4.56764 26.2343H24.5666C25.2865 26.2343 25.8764 25.6444 25.8764 24.9245V1.39577C25.8764 0.675842 25.2865 0.0859375 24.5666 0.0859375Z" fill="#F7F7F7"/>
<path fill-rule="evenodd" clip-rule="evenodd" d="M3.25781 4.80517H7.3125C7.67848 4.80517 7.97705 4.50661 7.97705 4.14063V0.0859375L3.25781 4.80517Z" fill="#E3E3E3"/>
<path fill-rule="evenodd" clip-rule="evenodd" d="M29.9578 14.3239V27.9953C29.9578 28.8476 29.2619 29.5435 28.4096 29.5435H3.89844C5.75242 29.4953 7.57029 28.2529 7.57029 25.8138V14.3264C7.57029 13.3512 8.36485 12.5566 9.34 12.5566H28.1904C29.1656 12.5566 29.9602 13.3512 29.9602 14.3264L29.9578 14.3239Z" fill="#3B4ABD"/>
<path fill-rule="evenodd" clip-rule="evenodd" d="M12.0673 3.52349L21.7609 3.49219C22.151 3.49219 22.4688 3.81001 22.4688 4.20007V4.86703C22.4688 5.25708 22.151 5.57491 21.7609 5.57491L12.0673 5.60621C11.6772 5.60621 11.3594 5.28839 11.3594 4.89833V4.23137C11.3594 3.84131 11.6772 3.52349 12.0673 3.52349Z" fill="#C2C9FC"/>
<path fill-rule="evenodd" clip-rule="evenodd" d="M7.37195 8.57232L21.7584 8.54102C22.1484 8.54102 22.4663 8.85884 22.4663 9.2489V9.91585C22.4663 10.3059 22.1484 10.6237 21.7584 10.6237L7.37195 10.655C6.98189 10.655 6.66406 10.3372 6.66406 9.94715V9.2802C6.66406 8.89014 6.98189 8.57232 7.37195 8.57232Z" fill="#C2C9FC"/>
<path d="M15.7702 25.3105C15.5295 25.3105 15.3248 25.2936 15.1562 25.2623V24.0584C15.2839 24.0897 15.4283 24.1066 15.5896 24.1066C15.8545 24.1066 16.0519 24.0392 16.1796 23.9067C16.3072 23.7743 16.3722 23.572 16.3722 23.3V16.8351H17.6964V23.2639C17.6964 23.9549 17.5375 24.4677 17.2197 24.8048C16.9019 25.1419 16.4179 25.3105 15.7678 25.3105H15.7702ZM20.3691 25.3827C19.7262 25.3827 19.2422 25.1997 18.9124 24.8337C18.5825 24.4677 18.4188 23.9452 18.4188 23.2614V22.7799H19.6708V23.3578C19.6708 23.9043 19.8996 24.1764 20.357 24.1764C20.581 24.1764 20.7519 24.1114 20.8699 23.979C20.9855 23.8465 21.0433 23.6322 21.0433 23.3337C21.0433 22.9797 20.9638 22.6691 20.8025 22.3995C20.6412 22.1298 20.345 21.8071 19.9116 21.4291C19.365 20.9476 18.9846 20.5118 18.7679 20.1217C18.5512 19.7316 18.4429 19.2934 18.4429 18.8022C18.4429 18.1353 18.6114 17.62 18.9485 17.2541C19.2856 16.8881 19.7744 16.7051 20.4172 16.7051C21.0505 16.7051 21.532 16.8881 21.8571 17.2541C22.1821 17.62 22.3434 18.1425 22.3434 18.8263V19.1755H21.0914V18.7421C21.0914 18.4531 21.036 18.2412 20.9229 18.1088C20.8097 17.9764 20.646 17.909 20.4293 17.909C19.9886 17.909 19.7671 18.1786 19.7671 18.7156C19.7671 19.0214 19.849 19.3055 20.0151 19.5703C20.1789 19.8352 20.4798 20.1554 20.9132 20.5334C21.467 21.015 21.8474 21.4532 22.0569 21.8457C22.2664 22.2381 22.3699 22.7004 22.3699 23.2301C22.3699 23.9212 22.199 24.4509 21.8571 24.8193C21.5152 25.1877 21.0192 25.3731 20.3691 25.3731V25.3827Z" fill="#F7F7F7"/>
</svg>
