<svg width="35" height="36" viewBox="0 0 35 36" fill="none" xmlns="http://www.w3.org/2000/svg">
<path d="M17.5 35.0859C27.165 35.0859 35 27.2509 35 17.5859C35 7.92095 27.165 0.0859375 17.5 0.0859375C7.83502 0.0859375 0 7.92095 0 17.5859C0 27.2509 7.83502 35.0859 17.5 35.0859Z" fill="#EE672F"/>
<path d="M17.506 8.83594L9.92188 13.2137V21.9609L12.0878 23.2102L12.0738 14.4657L17.4917 11.3345L22.9098 14.4664V23.2075L25.0758 21.9609V13.2065L17.506 8.83594ZM18.582 23.2112L17.4988 23.8374L16.4123 23.2146V14.4664L14.2463 15.7156L14.2497 24.4602L17.4988 26.3359L20.7459 24.4602V15.7156L18.5799 14.4664L18.582 23.2112Z" fill="white"/>
</svg>
