<svg width="27" height="27" viewBox="0 0 27 27" fill="none" xmlns="http://www.w3.org/2000/svg">
<path d="M26.25 5.21289V21.209C26.25 22.5687 25.7098 23.8728 24.7483 24.8343C23.7868 25.7958 22.4828 26.3359 21.123 26.3359H5.12695C3.7672 26.3359 2.46314 25.7958 1.50165 24.8343C0.540159 23.8728 0 22.5687 0 21.209L0 5.21289C0 3.85314 0.540159 2.54908 1.50165 1.58759C2.46314 0.626097 3.7672 0.0859375 5.12695 0.0859375L21.123 0.0859375C22.4828 0.0859375 23.7868 0.626097 24.7483 1.58759C25.7098 2.54908 26.25 3.85314 26.25 5.21289Z" fill="#6A51A1"/>
<path d="M26.2461 5.21357V21.2097C26.2461 22.5694 25.7059 23.8735 24.7444 24.835C23.7829 25.7965 22.4789 26.3366 21.1191 26.3366H5.12304C4.33818 26.3372 3.56371 26.1571 2.85958 25.8104C2.15546 25.4637 1.54056 24.9596 1.0625 24.3371C3.102 12.5287 12.3879 3.20073 24.1758 1.09766C24.8186 1.57412 25.3408 2.19466 25.7003 2.90947C26.0599 3.62428 26.2468 4.41343 26.2461 5.21357Z" fill="#614994"/>
<path d="M16.163 12.9812C17.0489 12.5055 17.6395 11.6359 17.6395 10.4547C17.6395 8.63359 16.163 7.46875 13.4067 7.46875H8.02344V18.9531H13.7349C16.688 18.9531 18.2302 17.8047 18.2302 15.8359C18.2302 14.343 17.3935 13.375 16.163 12.9812ZM10.1583 9.14219H13.1791C14.6557 9.14219 15.4924 9.66719 15.4924 10.7315C15.4924 11.7815 14.6557 12.3065 13.1791 12.3065H10.1583V9.14219ZM13.6036 17.2797H10.1583V13.9656H13.6036C15.2114 13.9656 16.081 14.4742 16.081 15.6227C16.081 16.7711 15.2114 17.2797 13.6036 17.2797Z" fill="#F1F8FC"/>
</svg>
