<svg width="35" height="36" viewBox="0 0 35 36" fill="none" xmlns="http://www.w3.org/2000/svg">
<mask id="mask0_2941_10224" style="mask-type:luminance" maskUnits="userSpaceOnUse" x="0" y="0" width="35" height="36">
<path d="M35 0.0859375H0V35.0859H35V0.0859375Z" fill="white"/>
</mask>
<g mask="url(#mask0_2941_10224)">
<path d="M17.5 35.0859C27.165 35.0859 35 27.2509 35 17.5859C35 7.92097 27.165 0.0859375 17.5 0.0859375C7.83503 0.0859375 0 7.92097 0 17.5859C0 27.2509 7.83503 35.0859 17.5 35.0859Z" fill="#146EF5"/>
<path fill-rule="evenodd" clip-rule="evenodd" d="M29.2578 11.5664L22.557 24.6669H16.263L19.0674 19.2375H18.9415C16.628 22.241 13.1762 24.2183 8.25781 24.6669V19.3127C8.25781 19.3127 11.4042 19.1268 13.2539 17.182H8.25781V11.5665H13.8728V16.1851L13.9989 16.1847L16.2934 11.5665H20.5399V16.1559L20.6658 16.1557L23.0464 11.5664H29.2578Z" fill="white"/>
</g>
</svg>
