<svg width="33" height="33" viewBox="0 0 33 33" fill="none" xmlns="http://www.w3.org/2000/svg">
<path d="M28.175 0.0859375H4.02502C1.80206 0.0859375 0 1.888 0 4.11095V28.2609C0 30.4839 1.80206 32.2859 4.02502 32.2859H28.175C30.3979 32.2859 32.2 30.4839 32.2 28.2609V4.11095C32.2 1.888 30.3979 0.0859375 28.175 0.0859375Z" fill="#7E57C2"/>
<path d="M22.7871 4.93953C23.6119 5.42967 24.0567 6.23608 24.269 7.14412C24.5454 8.32644 24.42 9.68175 24.2463 10.6745C24.0119 12.0142 23.5906 13.3867 23.057 14.7242C22.4482 16.2499 21.697 17.7209 20.9132 19.0401C20.1287 20.3603 19.1953 21.724 18.1462 22.988C17.2273 24.0951 16.2232 25.1211 15.1573 25.9684C14.7403 26.3 14.2829 26.6281 13.7998 26.9145C13.3078 27.2062 12.7885 27.4549 12.2562 27.6213C11.7749 27.7717 11.2627 27.8568 10.7549 27.8267C10.2955 27.7995 9.84348 27.679 9.42494 27.4303C8.60013 26.9401 8.15534 26.1337 7.94309 25.2257C7.66669 24.0434 7.79206 22.6881 7.96574 21.6953C8.20015 20.3556 8.62147 18.9832 9.1551 17.6456C9.76383 16.1199 10.515 14.6489 11.2989 13.3297C12.0834 12.0096 13.0168 10.6459 14.0658 9.38183C14.9847 8.27467 15.9888 7.24871 17.0547 6.40137C17.4717 6.06984 17.9292 5.7417 18.4123 5.45528C18.9043 5.16362 19.4236 4.91494 19.9559 4.74856C20.4371 4.59814 20.9494 4.51303 21.4571 4.54312C21.9166 4.57034 22.3686 4.69082 22.7871 4.93953ZM23.2902 7.37208C23.1355 6.71011 22.8288 6.13268 22.2761 5.80426C22.0036 5.64233 21.7048 5.56363 21.3981 5.54545C21.0223 5.52319 20.6305 5.59013 20.2546 5.70763C19.8028 5.84885 19.3538 6.06477 18.9233 6.32001C18.4839 6.58051 18.0643 6.88178 17.6797 7.18751C16.6649 7.99425 15.7097 8.97007 14.8362 10.0225C13.8302 11.2348 12.9276 12.5551 12.1636 13.8407C11.3991 15.1273 10.6705 16.5519 10.0867 18.0151C9.58032 19.2843 9.17998 20.5897 8.95627 21.8682C8.79937 22.765 8.68349 23.9782 8.92184 24.9977C9.07658 25.6597 9.38329 26.2371 9.93591 26.5655C10.2084 26.7275 10.5072 26.8062 10.8139 26.8243C11.1897 26.8466 11.5816 26.7797 11.9575 26.6622C12.4093 26.5209 12.8582 26.305 13.2888 26.0498C13.7282 25.7893 14.1478 25.488 14.5323 25.1823C15.5472 24.3755 16.5023 23.3997 17.3758 22.3473C18.3819 21.135 19.2845 19.8147 20.0484 18.5291C20.813 17.2425 21.5416 15.8179 22.1254 14.3547C22.6317 13.0855 23.0321 11.7801 23.2558 10.5015C23.4127 9.60474 23.5286 8.39162 23.2902 7.37208Z" fill="#FFFFFE"/>
<path d="M9.42494 4.93953C8.60013 5.42967 8.15534 6.23608 7.94309 7.14412C7.66669 8.32644 7.79206 9.68175 7.96574 10.6745C8.20015 12.0142 8.62147 13.3867 9.1551 14.7242C9.76383 16.2499 10.515 17.7209 11.2989 19.0401C12.0834 20.3603 13.0168 21.724 14.0658 22.988C14.9847 24.0951 15.9888 25.1211 17.0547 25.9684C17.4717 26.3 17.9292 26.6281 18.4123 26.9145C18.9043 27.2062 19.4236 27.4549 19.9559 27.6213C20.4371 27.7717 20.9494 27.8568 21.4571 27.8267C21.9166 27.7995 22.3686 27.679 22.7871 27.4303C23.6119 26.9401 24.0567 26.1337 24.269 25.2257C24.5454 24.0434 24.42 22.6881 24.2463 21.6953C24.0119 20.3556 23.5906 18.9832 23.057 17.6456C22.4482 16.1199 21.697 14.6489 20.9132 13.3297C20.1287 12.0096 19.1953 10.6459 18.1462 9.38183C17.2273 8.27467 16.2232 7.24871 15.1573 6.40137C14.7403 6.06984 14.2829 5.7417 13.7998 5.45528C13.3078 5.16362 12.7885 4.91494 12.2562 4.74856C11.7749 4.59814 11.2627 4.51303 10.7549 4.54312C10.2955 4.57034 9.84347 4.69082 9.42494 4.93953ZM8.92184 7.37208C9.07659 6.71011 9.38329 6.13268 9.93592 5.80426C10.2084 5.64233 10.5072 5.56363 10.8139 5.54545C11.1897 5.52319 11.5816 5.59013 11.9575 5.70763C12.4093 5.84885 12.8582 6.06477 13.2888 6.32001C13.7282 6.58051 14.1478 6.88178 14.5323 7.18751C15.5472 7.99425 16.5023 8.97007 17.3758 10.0225C18.3819 11.2348 19.2845 12.5551 20.0484 13.8407C20.813 15.1273 21.5416 16.5519 22.1254 18.0151C22.6317 19.2843 23.0321 20.5897 23.2558 21.8682C23.4127 22.765 23.5286 23.9782 23.2902 24.9977C23.1355 25.6597 22.8288 26.2371 22.2761 26.5655C22.0036 26.7275 21.7048 26.8062 21.3981 26.8243C21.0223 26.8466 20.6305 26.7797 20.2546 26.6622C19.8028 26.5209 19.3538 26.305 18.9233 26.0498C18.4839 25.7893 18.0643 25.488 17.6797 25.1823C16.6649 24.3755 15.7097 23.3997 14.8362 22.3473C13.8302 21.135 12.9276 19.8147 12.1636 18.5291C11.3991 17.2425 10.6705 15.8179 10.0867 14.3547C9.58032 13.0855 9.17999 11.7801 8.95627 10.5015C8.79937 9.60474 8.6835 8.39162 8.92184 7.37208Z" fill="#FFFFFE"/>
<path d="M3.02367 16.3502C3.01162 15.3921 3.4675 14.5926 4.13134 13.938C4.99596 13.0854 6.21814 12.4851 7.15624 12.1153C8.42647 11.6146 9.81621 11.2578 11.2307 11.0162C12.8387 10.7416 14.4876 10.6159 16.032 10.5964C17.5753 10.577 19.2259 10.6613 20.8403 10.8953C22.2604 11.1012 23.659 11.423 24.9425 11.8921C25.8902 12.2384 27.1278 12.8079 28.0135 13.6384C28.6929 14.2754 29.1682 15.0631 29.1803 16.0219C29.1923 16.98 28.7364 17.7796 28.0726 18.4342C27.208 19.2868 25.9858 19.887 25.0477 20.2568C23.7775 20.7576 22.3877 21.1144 20.9732 21.3559C19.3652 21.6305 17.7164 21.7563 16.1719 21.7757C14.6286 21.7951 12.978 21.7109 11.3636 21.4768C9.94358 21.271 8.54493 20.9491 7.26144 20.4801C6.31371 20.1338 5.0761 19.5642 4.19041 18.7337C3.51108 18.0967 3.03572 17.3091 3.02367 16.3502ZM4.83492 14.6534C4.35069 15.1309 4.01791 15.6943 4.02601 16.3384C4.0341 16.9817 4.38148 17.5368 4.87828 18.0026C5.6421 18.7189 6.74942 19.2246 7.60343 19.5367C8.81654 19.9801 10.1477 20.2856 11.5051 20.4824C13.0755 20.71 14.6725 20.7921 16.1601 20.7734C17.6465 20.7547 19.2402 20.6325 20.8042 20.3654C22.1561 20.1345 23.4796 19.7955 24.6821 19.3213C25.5287 18.9876 26.6236 18.4539 27.369 17.7188C27.8533 17.2413 28.186 16.6778 28.178 16.0337C28.1699 15.3905 27.8225 14.8354 27.3257 14.3695C26.5619 13.6533 25.4545 13.1475 24.6005 12.8354C23.3874 12.3921 22.0562 12.0866 20.6988 11.8898C19.1285 11.6621 17.5315 11.5801 16.0439 11.5988C14.5574 11.6175 12.9638 11.7397 11.3998 12.0068C10.0478 12.2376 8.72439 12.5767 7.52181 13.0508C6.67528 13.3845 5.58038 13.9183 4.83492 14.6534Z" fill="#FFFFFE"/>
<path d="M16.1047 14.4238C16.5909 14.4238 17.0311 14.6209 17.3498 14.9396C17.6685 15.2583 17.8656 15.6986 17.8656 16.1848C17.8656 16.671 17.6685 17.1112 17.3498 17.4299C17.0311 17.7486 16.5909 17.9457 16.1047 17.9457C15.6185 17.9457 15.1783 17.7486 14.8596 17.4299C14.5409 17.1112 14.3438 16.671 14.3438 16.1848C14.3438 15.6986 14.5409 15.2583 14.8596 14.9396C15.1783 14.6209 15.6185 14.4238 16.1047 14.4238ZM16.6384 15.6511C16.5019 15.5146 16.3131 15.4301 16.1047 15.4301C15.8962 15.4301 15.7075 15.5146 15.571 15.6511C15.4345 15.7876 15.35 15.9763 15.35 16.1848C15.35 16.3932 15.4345 16.5819 15.571 16.7185C15.7075 16.855 15.8962 16.9394 16.1047 16.9394C16.3131 16.9394 16.5019 16.855 16.6384 16.7185C16.7749 16.5819 16.8594 16.3932 16.8594 16.1848C16.8594 15.9763 16.7749 15.7876 16.6384 15.6511Z" fill="#FFFFFE"/>
</svg>
