<svg width="35" height="36" viewBox="0 0 35 36" fill="none" xmlns="http://www.w3.org/2000/svg">
<path d="M17.5004 0.0859375C7.85027 0.0859375 0 7.93584 0 17.5852C0 27.2353 7.85063 35.0859 17.5 35.0859C27.149 35.0859 34.9989 27.2353 34.9989 17.5852C34.9993 7.93621 27.1494 0.0859375 17.5004 0.0859375ZM1.766 17.5852C1.766 15.3046 2.25514 13.1386 3.12832 11.1824L10.6338 31.746C5.38565 29.1951 1.766 23.8131 1.766 17.5852ZM17.5004 33.3203C15.9558 33.3203 14.4651 33.0937 13.0555 32.6791L17.776 18.9617L22.6133 32.2115C22.6445 32.2896 22.6827 32.3609 22.7253 32.4282C21.0898 33.0035 19.3326 33.3203 17.5004 33.3203ZM19.6682 10.2084C20.6152 10.1586 21.4695 10.0586 21.4695 10.0586C22.3169 9.95824 22.2176 8.71265 21.3688 8.76248C21.3688 8.76248 18.8205 8.96213 17.1749 8.96213C15.6293 8.96213 13.0304 8.76248 13.0304 8.76248C12.1824 8.71265 12.0834 10.0088 12.9312 10.0586C12.9312 10.0586 13.7342 10.1586 14.5812 10.2084L17.0323 16.9251L13.589 27.2517L7.86045 10.2088C8.80892 10.1593 9.66137 10.059 9.66137 10.059C10.5087 9.95896 10.4087 8.71265 9.56027 8.76357C9.56027 8.76357 7.01309 8.96322 5.3671 8.96322C5.07144 8.96322 4.7234 8.95559 4.35463 8.94431C7.16729 4.67223 12.0038 1.85194 17.5004 1.85194C21.5972 1.85194 25.3263 3.41792 28.1251 5.98219C28.0571 5.97855 27.9913 5.96946 27.9207 5.96946C26.3758 5.96946 25.279 7.31578 25.279 8.76211C25.279 10.0582 26.0263 11.1558 26.8239 12.4519C27.4229 13.5001 28.1211 14.8467 28.1211 16.7913C28.1211 18.1384 27.604 19.7007 26.9235 21.8777L25.3543 27.1222L19.6682 10.2084ZM25.4099 31.1859L30.2159 17.2906C31.1145 15.0464 31.4124 13.2517 31.4124 11.6548C31.4124 11.0762 31.3745 10.5383 31.3062 10.0368C32.5354 12.2781 33.2347 14.8504 33.234 17.5859C33.2336 23.3902 30.0871 28.4583 25.4099 31.1859Z" fill="#00759D"/>
</svg>
