<svg width="36" height="36" viewBox="0 0 36 36" fill="none" xmlns="http://www.w3.org/2000/svg">
<path d="M25.1737 26.6219L32.6706 33.2756L17.9194 32.1166C20.8094 30.3707 23.1936 28.2857 24.9787 26.6257C25.0081 26.6314 25.0394 26.6346 25.0707 26.6346C25.1048 26.6345 25.1392 26.6304 25.1737 26.6219ZM33.4713 30.5978L34.852 12.514C34.169 14.2589 33.0883 16.291 31.6874 18.4608L33.4713 30.5978ZM25.6751 26.2111L33.1547 32.8496L31.1579 19.2639C29.5117 21.7141 27.5351 24.2194 25.6751 26.2111ZM16.9387 32.6838C15.3276 33.5763 13.6694 34.2872 11.9901 34.8063L29.228 33.6471L16.9443 32.6822L16.9387 32.6838ZM2.54283 23.9729L7.05811 34.5239L10.7744 22.2125L2.54283 23.9729ZM11.8708 21.5877L24.4432 25.626L21.2351 12.914L11.8708 21.5877ZM21.9386 11.6515L33.6586 10.8669L24.4953 3.38291L21.9386 11.6515ZM28.6049 0.120719L20.9143 0.0859375L24.3333 2.47991L28.6049 0.120719ZM0.29571 19.5015L0.0426484 26.9997L1.88723 23.6355L0.29571 19.5015ZM4.49727 22.5138C5.95919 22.6071 7.43594 22.2831 8.92567 21.6311C9.92915 21.1555 10.9702 20.5537 12.0151 19.8462C13.5136 18.7875 15.0239 17.4632 16.5452 15.9554C22.0172 10.5324 24.2672 4.46748 21.876 2.05266C21.3054 1.47684 20.4886 1.18251 19.4477 1.17796C16.2967 1.16436 11.5871 3.53639 7.57313 7.51601C3.73712 11.3183 1.24964 15.8315 1.23632 19.0144C1.23163 20.1461 1.54473 21.0377 2.16679 21.6649C2.72004 22.2238 3.50614 22.4503 4.49727 22.5138ZM15.914 32.5046C16.0856 32.4159 16.2565 32.3261 16.4252 32.2348L11.3653 22.4718L7.55705 35.0859C7.58894 35.0818 7.84614 35.0509 7.84614 35.0509C8.17849 35.0086 8.50677 34.9599 8.83099 34.9049C10.9232 34.5482 12.9933 33.8951 14.9835 32.963C15.2985 32.8158 15.6082 32.6626 15.914 32.5046ZM26.2476 24.4518L26.3676 24.3141C26.4514 24.2158 26.5358 24.1157 26.6198 24.0152C26.6198 24.0152 26.8798 23.7056 26.9809 23.5827C27.1509 23.377 27.3199 23.1672 27.4895 22.9561C27.6454 22.7615 27.8008 22.5663 27.9559 22.3675C28.1186 22.159 28.2814 21.9502 28.4428 21.7372C28.8084 21.256 29.178 20.7514 29.573 20.1941C29.991 19.6045 30.3948 19.0111 30.7749 18.4286L30.0896 18.0095C28.2697 16.8967 24.6122 14.6551 22.2084 13.1785L25.3189 25.5034C25.6087 25.1852 25.9146 24.8392 26.2476 24.4518ZM35.039 4.60853L25.3617 3.24979L34.5875 10.7945C34.9117 9.7251 35.1228 8.68801 35.2147 7.70979C35.2279 7.57267 35.2364 7.43478 35.2447 7.29587C35.2526 7.16806 35.2571 7.03977 35.2605 6.9112C35.2827 6.07804 35.2081 5.30409 35.039 4.60853ZM31.3186 17.8442C31.3424 17.8129 31.369 17.7778 31.3979 17.7356C31.5821 17.4748 31.8441 17.0481 32.1354 16.5342C32.9461 15.1045 33.9461 13.0662 34.3632 11.566L22.3269 12.369C24.8375 13.9118 28.5048 16.1593 30.3281 17.2745L31.3003 17.8678C31.3061 17.8606 31.312 17.8527 31.3186 17.8442ZM16.8913 32.087L16.9289 32.0658C19.5544 30.6108 21.9011 28.8208 24.5298 26.2629L11.734 22.1356L16.8913 32.087ZM0 28.3476C0.0565195 30.0139 0.410129 31.3896 1.05179 32.4462L1.64928 25.3303L0 28.3476ZM2.33145 24.8601L1.64203 33.0724C2.62433 34.3573 3.93677 34.9311 5.88811 34.9311C6.08465 34.9311 6.28878 34.9258 6.50768 34.9151L6.16297 34.0585C5.41704 32.2054 3.28848 26.9195 2.33145 24.8601ZM34.8947 4.10158C34.7528 3.66758 34.5717 3.26683 34.3557 2.90729C33.4839 1.45704 31.9781 0.529122 29.8789 0.14853L25.1889 2.73856L34.8947 4.10158Z" fill="#D91404"/>
</svg>
