<svg width="35" height="36" viewBox="0 0 35 36" fill="none" xmlns="http://www.w3.org/2000/svg">
<path d="M17.4974 25.6081C26.7597 25.6081 34.2682 22.017 34.2682 17.5872C34.2682 13.1575 26.7597 9.56641 17.4974 9.56641C8.23512 9.56641 0.726562 13.1575 0.726562 17.5872C0.726562 22.017 8.23512 25.6081 17.4974 25.6081Z" stroke="#303C42" stroke-width="1.45833" stroke-linecap="round" stroke-linejoin="round"/>
<path d="M5.82812 22.6914L8.01563 13.9414H11.0781C11.4025 13.9514 11.7205 14.0338 12.0088 14.1828C12.2971 14.3317 12.5484 14.5433 12.7442 14.8021C12.94 15.0608 13.0754 15.3602 13.1404 15.6781C13.2054 15.996 13.1983 16.3245 13.1198 16.6393L12.9885 17.1497C12.8 17.9002 12.366 18.5661 11.7557 19.0417C11.1453 19.5173 10.3936 19.7753 9.61979 19.7747H6.55729" stroke="#303C42" stroke-width="1.45833" stroke-linecap="round" stroke-linejoin="round"/>
<path d="M22.6016 22.6914L24.7891 13.9414H27.8516C28.1809 13.9427 28.5056 14.0188 28.8012 14.164C29.0967 14.3093 29.3554 14.5197 29.5577 14.7796C29.76 15.0395 29.9006 15.3419 29.9688 15.6641C30.037 15.9863 30.0311 16.3198 29.9516 16.6393L29.8203 17.1497C29.6317 17.9002 29.1978 18.5661 28.5875 19.0417C27.9771 19.5173 27.2253 19.7753 26.4516 19.7747H23.3307" stroke="#303C42" stroke-width="1.45833" stroke-linecap="round" stroke-linejoin="round"/>
<path d="M16.7708 11.7539L15.3125 19.7747" stroke="#303C42" stroke-width="1.45833" stroke-linecap="round" stroke-linejoin="round"/>
<path d="M16.7656 13.9414H19.551C19.8008 13.9429 20.0471 13.9997 20.2723 14.1077C20.4975 14.2156 20.696 14.3721 20.8535 14.5659C21.0111 14.7597 21.1237 14.986 21.1835 15.2285C21.2432 15.471 21.2485 15.7237 21.199 15.9685L20.4115 19.7747" stroke="#303C42" stroke-width="1.45833" stroke-linecap="round" stroke-linejoin="round"/>
</svg>
