<svg width="165" height="41" viewBox="0 0 165 41" fill="none" xmlns="http://www.w3.org/2000/svg">
<path d="M162.68 37.6955C162.782 37.6966 162.882 37.6767 162.976 37.6373C163.069 37.5978 163.154 37.5396 163.224 37.4662C163.294 37.3928 163.348 37.3058 163.383 37.2106C163.418 37.1154 163.433 37.014 163.427 36.9128C163.427 36.3577 163.092 36.0924 162.405 36.0924H161.295V38.9989H161.712V37.7319H162.225L162.237 37.7474L163.033 38.9989H163.48L162.623 37.7036L162.68 37.6955ZM162.198 37.4044H161.713V36.4218H162.327C162.644 36.4218 163.006 36.4736 163.006 36.8888C163.006 37.3662 162.64 37.4044 162.195 37.4044M0 5.91614H6.1638V28.3681H17.5748V34.0563H0V5.91614ZM20.2999 14.9765H26.2213V34.0459H20.2999V14.9765ZM23.2606 5.49609C23.94 5.49622 24.604 5.69778 25.1688 6.0753C25.7336 6.45282 26.1738 6.98934 26.4337 7.61702C26.6936 8.2447 26.7615 8.93535 26.6289 9.60164C26.4963 10.2679 26.1691 10.8799 25.6887 11.3603C25.2083 11.8406 24.5962 12.1677 23.9299 12.3002C23.2636 12.4327 22.5729 12.3646 21.9453 12.1046C21.3177 11.8446 20.7812 11.4043 20.4038 10.8395C20.0264 10.2746 19.825 9.61048 19.825 8.93112C19.825 8.47997 19.9138 8.03325 20.0865 7.61645C20.2592 7.19965 20.5122 6.82095 20.8313 6.50197C21.1503 6.18299 21.5291 5.92998 21.9459 5.75739C22.3627 5.5848 22.8095 5.49601 23.2606 5.49609ZM50.9912 5.91183H56.9126V22.7292L63.6236 14.9679H70.8834L63.1116 23.7963L70.72 34.0539H63.2775L56.9916 24.6278H56.9139V34.0526H50.9925L50.9912 5.91183ZM29.5046 14.9783H35.191V17.5844H35.2718C35.8398 16.6113 36.6614 15.8107 37.6489 15.2682C38.6364 14.7257 39.7527 14.4616 40.8786 14.504C46.8833 14.504 47.9886 18.4547 47.9886 23.5872V34.0446H42.0672V24.7733C42.0672 22.5602 42.0265 19.7155 38.9831 19.7155C35.9053 19.7155 35.4303 22.1254 35.4303 24.6123V34.0422H29.5089L29.5046 14.9783Z" fill="#0A66C2"/>
<path d="M83.3532 22.2906C83.3645 21.8102 83.2782 21.3325 83.0995 20.8864C82.9208 20.4404 82.6533 20.0352 82.3134 19.6956C81.9735 19.3559 81.5682 19.0888 81.122 18.9103C80.6758 18.7319 80.1981 18.6459 79.7177 18.6576C78.6831 18.5932 77.6646 18.938 76.8818 19.6176C76.0991 20.2972 75.6147 21.2572 75.5332 22.2906H83.3532ZM88.3691 30.7409C87.3851 31.9342 86.1481 32.8936 84.7476 33.5498C83.3471 34.206 81.8182 34.5425 80.2716 34.535C74.3502 34.535 69.6094 30.5824 69.6094 24.4618C69.6094 18.3412 74.3496 14.3905 80.2716 14.3905C85.8062 14.3905 89.2771 18.3381 89.2771 24.4618V26.3184H75.5332C75.7044 27.3713 76.2502 28.327 77.0703 29.0092C77.8904 29.6914 78.9294 30.0543 79.9959 30.031C80.8387 30.0258 81.6668 29.8098 82.4049 29.4028C83.1429 28.9958 83.7675 28.4107 84.2217 27.7007L88.3691 30.7409ZM101.619 19.5834C98.6588 19.5834 96.8823 21.5603 96.8823 24.4408C96.8823 27.3213 98.6581 29.3001 101.619 29.3001C104.581 29.3001 106.361 27.3263 106.361 24.4408C106.361 21.5554 104.584 19.5834 101.619 19.5834ZM111.812 34.0396H106.361V31.5107H106.28C105.596 32.4306 104.709 33.1801 103.688 33.7009C102.667 34.2218 101.539 34.4998 100.393 34.5134C94.7038 34.5134 90.956 30.4072 90.956 24.6006C90.956 19.2676 94.2726 14.3707 99.7246 14.3707C102.175 14.3707 104.464 15.0412 105.807 16.8997H105.885V5.90746H111.812L111.812 34.0396ZM151.787 34.0508H145.866V24.7776C145.866 22.5663 145.826 19.7197 142.786 19.7197C139.702 19.7197 139.23 22.129 139.23 24.6166V34.0501H133.309V14.9808H138.993V17.5868H139.073C139.642 16.6141 140.464 15.8139 141.452 15.2715C142.439 14.729 143.556 14.4646 144.682 14.5064C150.683 14.5064 151.79 18.454 151.79 23.5896L151.787 34.0508ZM126.627 12.3741C125.948 12.3742 125.283 12.1728 124.718 11.7954C124.153 11.4179 123.713 10.8813 123.452 10.2534C123.192 9.62559 123.124 8.93468 123.257 8.26809C123.389 7.60149 123.716 6.98915 124.197 6.5085C124.677 6.02784 125.289 5.70046 125.956 5.56775C126.622 5.43504 127.313 5.50297 127.941 5.76294C128.569 6.02291 129.106 6.46324 129.484 7.02827C129.861 7.59329 130.063 8.25762 130.063 8.93725C130.063 9.3885 129.974 9.83536 129.802 10.2523C129.629 10.6692 129.376 11.0481 129.057 11.3672C128.738 11.6864 128.359 11.9396 127.942 12.1123C127.526 12.2851 127.079 12.374 126.627 12.3741ZM129.588 34.0508H123.661V14.9808H129.588V34.0508ZM154.739 0.00272171H120.685C119.912 -0.00600085 119.167 0.292497 118.614 0.832622C118.061 1.37275 117.746 2.11031 117.736 2.88323V37.0787C117.745 37.852 118.061 38.5901 118.614 39.1307C119.167 39.6714 119.912 39.9705 120.685 39.9623H154.739C155.514 39.972 156.261 39.6738 156.816 39.1331C157.371 38.5924 157.689 37.8535 157.7 37.0787V2.88077C157.689 2.10631 157.371 1.36791 156.816 0.827797C156.261 0.287686 155.514 -0.00995971 154.739 0.000254464M162.248 34.7952C161.527 34.8022 160.839 35.0941 160.333 35.6072C159.827 36.1203 159.545 36.8128 159.549 37.5333C159.552 38.2538 159.841 38.9435 160.352 39.4517C160.862 39.96 161.554 40.2453 162.274 40.2453C162.994 40.2453 163.686 39.96 164.196 39.4517C164.707 38.9435 164.996 38.2538 164.999 37.5333C165.003 36.8128 164.721 36.1203 164.215 35.6072C163.709 35.0941 163.021 34.8022 162.3 34.7952H162.248ZM162.248 39.9333C161.775 39.9412 161.311 39.8087 160.914 39.5527C160.516 39.2967 160.204 38.9287 160.016 38.4951C159.828 38.0616 159.772 37.582 159.857 37.117C159.941 36.652 160.162 36.2225 160.49 35.8828C160.819 35.5431 161.241 35.3085 161.703 35.2086C162.165 35.1087 162.646 35.148 163.086 35.3215C163.525 35.4951 163.903 35.7951 164.172 36.1836C164.442 36.5722 164.589 37.0317 164.597 37.5043V37.5444C164.61 38.1643 164.377 38.764 163.948 39.2118C163.519 39.6595 162.93 39.9186 162.31 39.9321H162.248" fill="#0A66C2"/>
</svg>
