<svg width="70" height="79" viewBox="0 0 70 79" fill="none" xmlns="http://www.w3.org/2000/svg">
<path d="M44.1357 42.2122L44.3717 44.0706L44.5093 44.0531L44.6429 44.0155L44.1357 42.2122ZM34.769 16.6107L33.9313 14.9352L33.9313 14.9352L34.769 16.6107ZM68.6284 65.324C69.3225 64.5568 69.2633 63.3722 68.4961 62.6781L55.9941 51.3668C55.2269 50.6727 54.0423 50.7319 53.3482 51.4991C52.6541 52.2663 52.7133 53.4509 53.4805 54.145L64.5933 64.1995L54.5389 75.3123C53.8447 76.0795 53.904 77.2641 54.6712 77.9582C55.4383 78.6524 56.623 78.5931 57.3171 77.8259L68.6284 65.324ZM0.437111 0.793131C-0.418913 8.49734 0.187757 20.5427 6.25947 30.1035C9.32079 34.924 13.7649 39.0969 20.0475 41.7167C26.3141 44.3298 34.2942 45.3503 44.3717 44.0706L43.8997 40.3539C34.3078 41.5719 27.0154 40.563 21.4894 38.2587C15.9795 35.9611 12.1108 32.3287 9.42217 28.095C3.99393 19.5474 3.35164 8.48892 4.16076 1.20687L0.437111 0.793131ZM44.6429 44.0155C50.1277 42.4729 53.6778 39.2337 55.4455 35.2902C57.1914 31.3956 57.1243 26.9835 55.7308 23.1514C54.3376 19.3203 51.5663 15.9283 47.7267 14.1666C43.835 12.381 39.0618 12.37 33.9313 14.9352L35.6068 18.2862C39.8428 16.1682 43.4213 16.3133 46.1643 17.5718C48.9592 18.8542 51.1052 21.3942 52.2098 24.4318C53.314 27.4684 53.325 30.8616 52.0268 33.7577C50.7505 36.6049 48.1344 39.1416 43.6285 40.4089L44.6429 44.0155ZM33.9313 14.9352C29.591 17.1054 26.367 21.6689 24.7074 26.9794C23.0366 32.3262 22.8691 38.6618 24.8744 44.6779C26.8897 50.7238 31.0878 56.405 38.0545 60.386C45.0003 64.355 54.5897 66.5753 67.3328 65.9381L67.1457 62.1962C54.9117 62.8079 46.0805 60.6572 39.9134 57.1331C33.7672 53.621 30.1599 48.6869 28.4287 43.4931C26.6875 38.2695 26.8322 32.741 28.2835 28.0969C29.746 23.4166 32.4541 19.8626 35.6068 18.2862L33.9313 14.9352Z" fill="white"/>
</svg>
