<svg width="56" height="56" viewBox="0 0 56 56" fill="none" xmlns="http://www.w3.org/2000/svg">
<path d="M55.4875 53.0171L43.7934 41.3179C47.7482 36.7784 49.9078 31.0323 49.9078 24.9539C49.9078 18.2885 47.3121 12.0221 42.5989 7.309C37.8857 2.59587 31.6193 0 24.9539 0C18.2885 0 12.0221 2.59576 7.30889 7.30889C2.59565 12.022 0 18.2885 0 24.9539C0 31.6193 2.59565 37.8857 7.30889 42.5988C12.0221 47.3119 18.2885 49.9077 24.9539 49.9077C31.0321 49.9077 36.778 47.7482 41.3173 43.7937L53.0109 55.4924C53.3529 55.8344 53.8011 56.0055 54.2492 56.0055C54.6972 56.0055 55.1452 55.8345 55.487 55.4929C56.1708 54.8094 56.171 53.701 55.4875 53.0171ZM9.78483 40.1228C1.42066 31.7587 1.42066 18.149 9.78483 9.78483C13.967 5.60275 19.4605 3.51165 24.9539 3.51165C30.4473 3.51165 35.9408 5.60264 40.123 9.78483C48.4866 18.1485 48.4871 31.7566 40.1248 40.121C40.1243 40.1215 40.1236 40.122 40.1231 40.1225C40.1225 40.1231 40.122 40.1237 40.1214 40.1244C31.7569 48.487 18.1487 48.4866 9.78483 40.1228ZM32.706 37.978C32.3598 38.4002 31.8575 38.6189 31.3509 38.6189C30.9605 38.6189 30.5676 38.4889 30.242 38.222L15.1397 25.8413C14.3919 25.2283 14.2827 24.1251 14.8957 23.3774C15.5089 22.6296 16.6119 22.5204 17.3597 23.1334L32.4622 35.5141C33.2097 36.1271 33.3189 37.2302 32.706 37.978ZM35.0123 26.5305C34.6662 26.9526 34.1638 27.1714 33.6574 27.1714C33.2669 27.1714 32.874 27.0414 32.5484 26.7745L17.4461 14.3938C16.6983 13.7808 16.5891 12.6776 17.2022 11.9299C17.8152 11.1822 18.9183 11.0728 19.6661 11.6859L34.7685 24.0666C35.5162 24.6796 35.6254 25.7827 35.0123 26.5305Z" fill="#1090D0"/>
</svg>
