<svg width="62" height="70" viewBox="0 0 62 70" fill="none" xmlns="http://www.w3.org/2000/svg">
<path d="M61.6026 19.9778C61.6032 18.9292 61.2858 17.9051 60.6924 17.0405C60.099 16.176 59.2575 15.5116 58.2788 15.1351C57.3001 14.7586 56.2303 14.6877 55.2104 14.9316C54.1906 15.1756 53.2687 15.7229 52.5663 16.5015L35.7381 6.78664C35.9902 6.0081 36.0546 5.18098 35.9259 4.37282C35.7973 3.56466 35.4793 2.79838 34.998 2.13658C34.5167 1.47479 33.8856 0.936228 33.1564 0.564899C32.4271 0.193569 31.6204 0 30.8021 0C29.9837 0 29.177 0.193569 28.4478 0.564899C27.7185 0.936228 27.0875 1.47479 26.6061 2.13658C26.1248 2.79838 25.8068 3.56466 25.6782 4.37282C25.5496 5.18098 25.6139 6.0081 25.866 6.78664L9.03757 16.5024C8.48936 15.8951 7.80531 15.4262 7.04127 15.1338C6.27724 14.8414 5.45488 14.7339 4.64135 14.82C3.82782 14.9061 3.04619 15.1834 2.36029 15.6292C1.67438 16.0751 1.10364 16.6768 0.694685 17.3853C0.285726 18.0938 0.0501403 18.889 0.00716364 19.706C-0.035813 20.5229 0.115039 21.3384 0.447401 22.0859C0.779763 22.8335 1.28421 23.4918 1.91955 24.0071C2.55489 24.5225 3.30312 24.8802 4.10312 25.0512V44.4802C3.30312 44.6512 2.55489 45.009 1.91955 45.5243C1.28421 46.0396 0.779763 46.698 0.447401 47.4455C0.115039 48.193 -0.035813 49.0085 0.00716364 49.8254C0.0501403 50.6424 0.285726 51.4376 0.694685 52.1461C1.10364 52.8546 1.67438 53.4564 2.36029 53.9022C3.04619 54.348 3.82782 54.6253 4.64135 54.7114C5.45488 54.7975 6.27724 54.69 7.04127 54.3976C7.80531 54.1052 8.48936 53.6363 9.03757 53.0291L25.8659 62.7449C25.6138 63.5235 25.5494 64.3506 25.6781 65.1587C25.8067 65.9669 26.1247 66.7332 26.606 67.395C27.0873 68.0568 27.7184 68.5953 28.4476 68.9667C29.1769 69.338 29.9836 69.5316 30.8019 69.5316C31.6203 69.5316 32.427 69.338 33.1562 68.9667C33.8855 68.5953 34.5165 68.0568 34.9979 67.395C35.4792 66.7332 35.7972 65.9669 35.9258 65.1587C36.0544 64.3506 35.9901 63.5235 35.738 62.7449L52.5664 53.0299C53.1147 53.6371 53.7987 54.106 54.5628 54.3983C55.3268 54.6907 56.1491 54.7982 56.9627 54.7121C57.7762 54.626 58.5578 54.3487 59.2437 53.9028C59.9296 53.457 60.5003 52.8552 60.9092 52.1467C61.3182 51.4382 61.5538 50.643 61.5967 49.826C61.6397 49.0091 61.4888 48.1936 61.1565 47.4461C60.8241 46.6986 60.3196 46.0403 59.6843 45.525C59.049 45.0096 58.3007 44.6519 57.5007 44.4809V25.0512C58.6611 24.8012 59.7008 24.1615 60.4471 23.2385C61.1933 22.3155 61.6011 21.1648 61.6026 19.9778ZM34.65 8.66629L51.4782 18.382C51.1124 19.5106 51.1456 20.7306 51.5723 21.8377L45.2552 25.3916C45.3319 25.1951 45.3498 24.9805 45.3066 24.774C45.2633 24.5675 45.1609 24.3781 45.0119 24.2288L41.338 20.555C41.1632 20.3803 40.9341 20.2704 40.6885 20.2434C40.4428 20.2164 40.1953 20.274 39.9868 20.4067L36.9904 22.3135C36.4213 22.03 35.8334 21.7861 35.2308 21.5833L34.4602 18.1184C34.4065 17.8772 34.2722 17.6615 34.0794 17.5069C33.8866 17.3523 33.6469 17.2681 33.3998 17.2681H31.8883V10.2639C32.9537 10.0347 33.9199 9.47608 34.65 8.6671V8.66629ZM41.0828 41.5884L42.8594 44.3816L40.4178 46.8233L37.6246 45.0466C37.4592 44.9414 37.2685 44.8829 37.0726 44.8773C36.8766 44.8717 36.6829 44.9192 36.5118 45.0148C35.7211 45.4566 34.8818 45.8049 34.0106 46.0526C33.822 46.106 33.6514 46.2094 33.5169 46.3518C33.3823 46.4943 33.2888 46.6705 33.2462 46.8617L32.528 50.091H29.0755L28.3577 46.8617C28.3151 46.6705 28.2216 46.4943 28.0872 46.3519C27.9527 46.2094 27.7822 46.106 27.5937 46.0526C26.7226 45.8049 25.8832 45.4566 25.0926 45.0148C24.9215 44.9192 24.7278 44.8717 24.5319 44.8773C24.3359 44.8829 24.1452 44.9414 23.9798 45.0466L21.1867 46.8233L18.745 44.3816L20.5217 41.5884C20.6269 41.423 20.6854 41.2322 20.6909 41.0363C20.6965 40.8404 20.649 40.6466 20.5534 40.4755C20.1116 39.6849 19.7633 38.8455 19.5155 37.9744C19.4621 37.7857 19.3586 37.6151 19.216 37.4805C19.0735 37.346 18.8971 37.2525 18.7058 37.21L15.4766 36.4918V33.0392L18.7059 32.3214C18.8971 32.2789 19.0733 32.1855 19.2157 32.051C19.3582 31.9165 19.4616 31.746 19.5151 31.5576C19.7628 30.6864 20.1111 29.8471 20.553 29.0564C20.6485 28.8853 20.696 28.6916 20.6904 28.4957C20.6848 28.2998 20.6263 28.1091 20.5212 27.9437L18.7445 25.1506L21.1862 22.7089L23.9793 24.4855C24.1446 24.5907 24.3353 24.6493 24.5312 24.6549C24.7271 24.6605 24.9209 24.6129 25.092 24.5173C25.8828 24.0756 26.7222 23.7273 27.5934 23.4794C27.782 23.4259 27.9526 23.3225 28.0872 23.1799C28.2217 23.0373 28.3152 22.861 28.3577 22.6697L29.076 19.4405H32.5291L33.2462 22.6697C33.2887 22.8609 33.3822 23.037 33.5167 23.1795C33.6511 23.3219 33.8216 23.4254 34.01 23.4789C34.8812 23.7266 35.7207 24.0748 36.5114 24.5166C36.6824 24.6123 36.8762 24.6598 37.0721 24.6542C37.268 24.6486 37.4587 24.5901 37.624 24.4848L40.4173 22.7082L42.8589 25.1499L41.0828 27.9431C40.9776 28.1084 40.9191 28.2992 40.9135 28.4951C40.908 28.691 40.9555 28.8848 41.051 29.0559C41.4929 29.8465 41.8411 30.6859 42.0889 31.5571C42.1423 31.7456 42.2457 31.9162 42.3881 32.0507C42.5305 32.1853 42.7067 32.2788 42.898 32.3214L46.1273 33.0399V36.493L42.8981 37.21C42.7068 37.2525 42.5307 37.346 42.3882 37.4805C42.2457 37.6149 42.1423 37.7855 42.0888 37.974C41.8411 38.8451 41.4928 39.6845 41.051 40.4751C40.9554 40.6463 40.9078 40.8401 40.9134 41.0361C40.919 41.2321 40.9776 41.4229 41.0828 41.5884ZM30.8019 2.17538C31.3984 2.17538 31.9814 2.35224 32.4773 2.68359C32.9732 3.01495 33.3597 3.48591 33.5879 4.03693C33.8162 4.58795 33.8759 5.19428 33.7595 5.77924C33.6432 6.3642 33.356 6.90152 32.9343 7.32326C32.5125 7.74499 31.9752 8.03219 31.3902 8.14855C30.8053 8.2649 30.1989 8.20519 29.6479 7.97695C29.0969 7.74871 28.6259 7.3622 28.2946 6.86629C27.9632 6.37038 27.7864 5.78736 27.7864 5.19094C27.7873 4.39144 28.1053 3.62494 28.6706 3.05961C29.2359 2.49428 30.0024 2.17628 30.8019 2.17538ZM10.1257 18.3828L26.954 8.66697C27.684 9.47602 28.6502 10.0347 29.7156 10.2639V17.2678H28.2042C27.9571 17.2678 27.7174 17.3521 27.5246 17.5067C27.3318 17.6613 27.1975 17.877 27.1438 18.1182L26.373 21.5831C25.7705 21.7859 25.1826 22.0299 24.6134 22.3132L21.617 20.4075C21.4085 20.2749 21.161 20.2173 20.9154 20.2442C20.6698 20.2712 20.4407 20.3811 20.2659 20.5558L16.592 24.2297C16.4172 24.4044 16.3073 24.6335 16.2803 24.8792C16.2533 25.1249 16.3109 25.3724 16.4436 25.5809L16.6838 25.9586L9.90257 22.1435C10.447 20.9625 10.5266 19.6199 10.1257 18.3828ZM2.17391 19.9778C2.17391 19.3814 2.35077 18.7984 2.68212 18.3025C3.01347 17.8066 3.48444 17.4201 4.03546 17.1918C4.58648 16.9636 5.19281 16.9039 5.77777 17.0202C6.36273 17.1366 6.90005 17.4238 7.32178 17.8455C7.74352 18.2673 8.03072 18.8046 8.14708 19.3895C8.26343 19.9745 8.20372 20.5808 7.97547 21.1318C7.74723 21.6829 7.36072 22.1538 6.86482 22.4852C6.36891 22.8165 5.78588 22.9934 5.18946 22.9934C4.38997 22.9925 3.62347 22.6745 3.05814 22.1092C2.49281 21.5438 2.17481 20.7773 2.17391 19.9778ZM5.18946 52.5682C4.59296 52.5682 4.00985 52.3913 3.51389 52.0599C3.01792 51.7285 2.63137 51.2575 2.40313 50.7064C2.17489 50.1553 2.11521 49.5489 2.23165 48.9638C2.34808 48.3788 2.63539 47.8415 3.05725 47.4197C3.4791 46.998 4.01655 46.7109 4.60161 46.5946C5.18667 46.4784 5.79307 46.5382 6.3441 46.7666C6.89514 46.9951 7.36606 47.3818 7.6973 47.8778C8.02855 48.3739 8.20524 48.9571 8.20502 49.5536C8.20387 50.3529 7.88576 51.1192 7.32046 51.6843C6.75515 52.2494 5.9888 52.5673 5.18946 52.5682ZM8.84596 45.8756C8.14099 45.1733 7.24876 44.6886 6.27581 44.4797V25.0512C7.13107 24.8675 7.92578 24.4699 8.58565 23.8956L17.9225 29.1485C17.9654 29.1724 18.0098 29.1935 18.0554 29.2116C17.8943 29.5809 17.7473 29.9559 17.6191 30.3368L14.1544 31.1077C13.9132 31.1614 13.6975 31.2957 13.5428 31.4884C13.3882 31.6812 13.3039 31.9209 13.3039 32.168V37.3636C13.3039 37.6107 13.3882 37.8504 13.5428 38.0431C13.6975 38.2359 13.9132 38.3702 14.1544 38.4238L17.6193 39.1946C17.7834 39.6811 17.9744 40.1581 18.1916 40.6233C18.166 40.6352 18.1403 40.6472 18.1153 40.6613L8.84596 45.8756ZM26.954 60.8651L10.1257 51.1486C10.4906 50.0226 10.4584 48.8055 10.0346 47.7004L16.3446 44.1504C16.2708 44.3458 16.2548 44.5583 16.2987 44.7626C16.3426 44.9668 16.4444 45.1541 16.592 45.3019L20.2659 48.9758C20.4407 49.1505 20.6698 49.2604 20.9154 49.2873C21.161 49.3143 21.4085 49.2567 21.617 49.1241L24.6134 47.2179C25.1825 47.5014 25.7704 47.7454 26.373 47.9482L27.1438 51.4131C27.1975 51.6543 27.3318 51.87 27.5246 52.0246C27.7174 52.1792 27.9571 52.2635 28.2042 52.2635H29.7156V59.2673C28.6501 59.4967 27.6839 60.0557 26.954 60.8651ZM30.8019 67.356C30.2055 67.356 29.6225 67.1791 29.1266 66.8478C28.6307 66.5164 28.2442 66.0454 28.016 65.4944C27.7878 64.9434 27.7281 64.337 27.8445 63.7521C27.9608 63.1671 28.2481 62.6298 28.6698 62.2081C29.0915 61.7864 29.6289 61.4992 30.2138 61.3829C30.7988 61.2665 31.4051 61.3262 31.9561 61.5545C32.5071 61.7827 32.9781 62.1692 33.3094 62.6651C33.6408 63.161 33.8176 63.7441 33.8176 64.3405C33.8167 65.14 33.4987 65.9065 32.9333 66.4719C32.368 67.0372 31.6015 67.3552 30.8019 67.356ZM34.65 60.8651C33.92 60.0558 32.9538 59.4969 31.8883 59.2675V52.2637H33.3998C33.6469 52.2637 33.8866 52.1795 34.0794 52.0249C34.2722 51.8703 34.4065 51.6546 34.4602 51.4134L35.2308 47.9484C35.8335 47.7456 36.4214 47.5017 36.9906 47.2182L39.9868 49.1241C40.1954 49.2567 40.4428 49.3143 40.6885 49.2873C40.9341 49.2603 41.1632 49.1504 41.338 48.9756L45.0119 45.3019C45.2074 45.1065 45.3209 44.8438 45.3293 44.5675L51.4586 48.0159C51.1421 49.0372 51.1489 50.1314 51.4782 51.1487L34.65 60.8651ZM52.5262 46.1234L43.435 41.0088C43.3806 40.9785 43.3236 40.953 43.2647 40.9325C43.5438 40.3701 43.7843 39.7894 43.9844 39.1943L47.4492 38.4236C47.6904 38.3699 47.9061 38.2356 48.0607 38.0429C48.2154 37.8501 48.2996 37.6104 48.2997 37.3633V32.168C48.2996 31.9209 48.2154 31.6812 48.0607 31.4884C47.9061 31.2957 47.6904 31.1614 47.4492 31.1077L43.9843 30.3368C43.8124 29.8276 43.611 29.3289 43.3811 28.8431C43.5235 28.8264 43.6611 28.7817 43.7861 28.7114L52.7637 23.6606C53.4677 24.3599 54.3576 24.8425 55.3278 25.0508V44.4802C54.2421 44.714 53.2602 45.29 52.5262 46.1234ZM59.43 49.553C59.43 50.1494 59.2531 50.7325 58.9217 51.2284C58.5904 51.7243 58.1194 52.1108 57.5684 52.339C57.0174 52.5673 56.4111 52.627 55.8261 52.5106C55.2411 52.3943 54.7038 52.1071 54.2821 51.6853C53.8603 51.2636 53.5731 50.7263 53.4568 50.1413C53.3404 49.5564 53.4001 48.95 53.6284 48.399C53.8566 47.848 54.2431 47.377 54.739 47.0457C55.235 46.7143 55.818 46.5375 56.4144 46.5375C57.214 46.5384 57.9806 46.8564 58.5459 47.4219C59.1113 47.9873 59.4292 48.754 59.43 49.5536V49.553ZM56.4144 22.9939C55.818 22.994 55.2349 22.8171 54.739 22.4858C54.243 22.1545 53.8565 21.6835 53.6282 21.1325C53.3999 20.5815 53.3402 19.9751 53.4565 19.3902C53.5728 18.8052 53.86 18.2678 54.2817 17.846C54.7034 17.4242 55.2407 17.137 55.8256 17.0206C56.4106 16.9042 57.0169 16.9638 57.568 17.192C58.1191 17.4202 58.5901 17.8066 58.9215 18.3025C59.2529 18.7984 59.4299 19.3814 59.43 19.9778C59.4292 20.7774 59.1113 21.5441 58.5459 22.1095C57.9806 22.675 57.214 22.993 56.4144 22.9939ZM30.8019 25.9112C29.0507 25.9112 27.3387 26.4305 25.8826 27.4034C24.4265 28.3764 23.2916 29.7593 22.6214 31.3772C21.9512 32.9952 21.7759 34.7755 22.1175 36.4931C22.4592 38.2108 23.3025 39.7885 24.5408 41.0268C25.7792 42.2651 27.3569 43.1084 29.0745 43.4501C30.7921 43.7917 32.5725 43.6164 34.1904 42.9462C35.8084 42.276 37.1912 41.1411 38.1642 39.685C39.1371 38.2289 39.6565 36.517 39.6565 34.7657C39.6538 32.4182 38.7201 30.1675 37.0601 28.5075C35.4002 26.8475 33.1495 25.9138 30.8019 25.9112ZM30.8019 41.4475C29.4804 41.4475 28.1885 41.0557 27.0897 40.3214C25.9909 39.5872 25.1345 38.5437 24.6287 37.3227C24.123 36.1018 23.9907 34.7583 24.2485 33.4621C24.5063 32.166 25.1427 30.9754 26.0772 30.0409C27.0116 29.1065 28.2022 28.4701 29.4984 28.2123C30.7945 27.9544 32.138 28.0868 33.359 28.5925C34.5799 29.0982 35.6235 29.9547 36.3577 31.0535C37.0919 32.1523 37.4838 33.4442 37.4838 34.7657C37.4818 36.5372 36.7772 38.2356 35.5245 39.4883C34.2719 40.741 32.5735 41.4456 30.8019 41.4475ZM35.4422 31.18C35.6537 31.3756 35.7788 31.6473 35.7899 31.9352C35.8011 32.2231 35.6974 32.5036 35.5017 32.7151L30.3416 38.2921C30.2399 38.402 30.1166 38.4897 29.9794 38.5497C29.8421 38.6096 29.694 38.6406 29.5443 38.6406C29.3945 38.6406 29.2464 38.6096 29.1092 38.5497C28.972 38.4897 28.8487 38.402 28.747 38.2921L26.1021 35.4346C26.0042 35.3301 25.9279 35.2073 25.8776 35.0731C25.8273 34.939 25.804 34.7963 25.8091 34.6531C25.8142 34.51 25.8476 34.3692 25.9072 34.239C25.9669 34.1088 26.0518 33.9917 26.1569 33.8944C26.2621 33.7971 26.3854 33.7216 26.5198 33.6722C26.6543 33.6227 26.7972 33.6004 26.9403 33.6064C27.0834 33.6124 27.2239 33.6466 27.3537 33.7071C27.4836 33.7676 27.6001 33.8532 27.6968 33.959L29.5435 35.9551L33.907 31.2397C34.0039 31.135 34.1204 31.0503 34.25 30.9906C34.3796 30.931 34.5197 30.8974 34.6622 30.8918C34.8048 30.8863 34.9471 30.9089 35.0809 30.9583C35.2147 31.0077 35.3375 31.0831 35.4422 31.18Z" fill="#1090D0"/>
</svg>
