<svg width="46" height="64" viewBox="0 0 46 64" fill="none" xmlns="http://www.w3.org/2000/svg">
<path d="M44.2115 52.1024C44.3604 52.1025 44.5078 52.0732 44.6454 52.0162C44.783 51.9593 44.908 51.8758 45.0133 51.7705C45.1186 51.6652 45.202 51.5402 45.259 51.4027C45.3159 51.2651 45.3452 51.1176 45.3451 50.9687V9.02451C45.3439 7.82225 44.8658 6.66957 44.0157 5.81945C43.1655 4.96932 42.0129 4.49119 40.8106 4.48999C38.284 4.4864 30.6054 4.50491 28.2189 4.45011C27.9386 3.1847 27.2339 2.05327 26.2217 1.24375C25.2095 0.434233 23.9508 -0.00463854 22.6548 3.69747e-05C21.3587 0.00471248 20.1032 0.452654 19.0969 1.26945C18.0906 2.08625 17.394 3.22274 17.1229 4.49014C14.7559 4.48333 7.01569 4.4948 4.53451 4.48999C3.33225 4.49119 2.17958 4.96932 1.32945 5.81945C0.479328 6.66957 0.00120046 7.82225 0 9.02451V58.9041C0.00120046 60.1064 0.479328 61.2591 1.32945 62.1092C2.17958 62.9593 3.33225 63.4374 4.53451 63.4386H40.8106C42.0129 63.4374 43.1655 62.9593 44.0157 62.1092C44.8658 61.2591 45.3439 60.1064 45.3451 58.9041V56.6369C45.3413 56.3387 45.2202 56.054 45.0081 55.8445C44.7959 55.635 44.5097 55.5175 44.2115 55.5175C43.9133 55.5175 43.6271 55.635 43.4149 55.8445C43.2027 56.054 43.0816 56.3387 43.0779 56.6369V58.9041C43.0771 59.5052 42.838 60.0814 42.4129 60.5065C41.9879 60.9315 41.4117 61.1706 40.8106 61.1714H4.53451C3.93344 61.1706 3.3572 60.9315 2.93218 60.5065C2.50716 60.0814 2.26804 59.5052 2.26726 58.9041V9.02451C2.26804 8.42343 2.50716 7.8472 2.93218 7.42217C3.3572 6.99715 3.93344 6.75803 4.53451 6.75725H12.4699V10.1581H6.80177C6.50389 10.1624 6.21964 10.2837 6.01048 10.4958C5.80133 10.7079 5.68408 10.9939 5.68409 11.2918C5.68409 11.5897 5.80136 11.8756 6.01052 12.0878C6.21969 12.2999 6.50394 12.4212 6.80182 12.4254H43.0779V50.9687C43.0778 51.1176 43.107 51.2651 43.164 51.4027C43.2209 51.5402 43.3044 51.6652 43.4097 51.7705C43.515 51.8758 43.64 51.9593 43.7776 52.0162C43.9151 52.0732 44.0626 52.1025 44.2115 52.1024ZM14.7372 6.75725H17.1229C17.6491 6.75562 18.1584 6.57124 18.5637 6.23563C18.969 5.90003 19.2451 5.43404 19.3448 4.91737C19.5069 4.15507 19.9258 3.47153 20.5315 2.98105C21.1371 2.49058 21.8928 2.22289 22.6721 2.22276C23.4515 2.22262 24.2073 2.49005 24.8131 2.98033C25.4189 3.4706 25.838 4.15399 26.0004 4.91624C26.0999 5.43313 26.3759 5.89938 26.7812 6.23522C27.1865 6.57105 27.696 6.75559 28.2223 6.75725H30.608V10.1581H14.7372V6.75725ZM32.8752 10.1581V6.75725H40.8106C41.4117 6.75803 41.9879 6.99715 42.4129 7.42217C42.838 7.8472 43.0771 8.42343 43.0779 9.02451V10.1581H32.8752Z" fill="#1090D0"/>
<path d="M22.6724 4.49023C22.3745 4.49445 22.0903 4.61574 21.8811 4.82787C21.6719 5.04001 21.5547 5.32595 21.5547 5.62386C21.5547 5.92177 21.6719 6.20771 21.8811 6.41985C22.0903 6.63199 22.3745 6.75328 22.6724 6.75749C22.9703 6.75328 23.2545 6.63199 23.4637 6.41985C23.6728 6.20771 23.7901 5.92177 23.7901 5.62386C23.7901 5.32595 23.6728 5.04001 23.4637 4.82787C23.2545 4.61574 22.9703 4.49445 22.6724 4.49023Z" fill="#1090D0"/>
<path d="M35.1429 32.0274C34.4618 15.4923 10.8888 15.4816 10.2031 32.0275C10.204 33.8088 10.5877 35.5691 11.328 37.1892C12.0684 38.8093 13.1483 40.2515 14.4945 41.4179L10.3371 49.1768C10.2377 49.3695 10.1952 49.5864 10.2145 49.8023C10.2339 50.0182 10.3142 50.2241 10.4462 50.396C10.5782 50.568 10.7564 50.6988 10.96 50.7732C11.1635 50.8476 11.3841 50.8626 11.5958 50.8164L15.8082 49.8267L18.0876 53.5077C18.2044 53.6903 18.3708 53.8359 18.5673 53.9275C18.7638 54.019 18.9823 54.0527 19.1973 54.0246C19.4122 53.9965 19.6148 53.9077 19.7811 53.7688C19.9475 53.6298 20.0709 53.4463 20.1368 53.2397L22.6761 44.8577L25.2093 53.2386C25.275 53.4453 25.3982 53.629 25.5645 53.7682C25.7308 53.9074 25.9333 53.9964 26.1484 54.0246C26.3634 54.0528 26.582 54.0192 26.7786 53.9276C26.9752 53.836 27.1417 53.6904 27.2585 53.5076L29.5379 49.8267L33.7503 50.8164C33.962 50.8627 34.1826 50.8478 34.3862 50.7733C34.5898 50.6989 34.768 50.5681 34.9 50.3961C35.032 50.2242 35.1124 50.0182 35.1316 49.8023C35.1509 49.5864 35.1084 49.3695 35.0089 49.1768L30.8516 41.418C32.1978 40.2515 33.2777 38.8093 34.0181 37.1892C34.7584 35.569 35.1421 33.8087 35.1429 32.0274ZM12.4704 32.0274C12.4733 29.3224 13.5492 26.729 15.4619 24.8163C17.3747 22.9036 19.968 21.8277 22.673 21.8247C36.2083 22.3848 36.2044 41.6721 22.673 42.23C19.968 42.2271 17.3746 41.1512 15.4619 39.2385C13.5492 37.3257 12.4733 34.7324 12.4704 32.0274ZM18.6943 50.1809C16.5653 46.7797 17.4217 47.1418 13.5221 48.0355L16.3506 42.7569C17.6236 43.5114 19.0218 44.0313 20.4785 44.2918L18.6943 50.1809ZM31.8239 48.0355C27.9147 47.1352 28.7761 46.7939 26.6529 50.1788L24.8728 44.291C26.3276 44.0301 27.7239 43.5105 28.9954 42.7569L31.8239 48.0355Z" fill="#1090D0"/>
<path d="M20.7399 34.7675C20.8451 34.8728 20.9701 34.9563 21.1076 35.0133C21.2451 35.0703 21.3925 35.0996 21.5414 35.0996C21.6903 35.0996 21.8377 35.0703 21.9752 35.0133C22.1127 34.9563 22.2377 34.8728 22.3429 34.7675L26.8774 30.233C26.9838 30.128 27.0683 30.003 27.1261 29.8652C27.184 29.7274 27.214 29.5795 27.2145 29.43C27.2149 29.2806 27.1858 29.1325 27.1288 28.9943C27.0719 28.8562 26.9881 28.7306 26.8824 28.6249C26.7768 28.5193 26.6512 28.4355 26.5131 28.3786C26.3749 28.3216 26.2268 28.2925 26.0774 28.293C25.9279 28.2934 25.78 28.3235 25.6422 28.3813C25.5044 28.4392 25.3794 28.5237 25.2744 28.63L21.5414 32.363L20.0756 30.8972C19.8616 30.6916 19.5755 30.578 19.2787 30.581C18.9819 30.5839 18.6981 30.7031 18.4883 30.913C18.2784 31.1229 18.1592 31.4067 18.1563 31.7034C18.1534 32.0002 18.267 32.2863 18.4726 32.5003L20.7399 34.7675Z" fill="#1090D0"/>
</svg>
