<svg width="59" height="65" viewBox="0 0 59 65" fill="none" xmlns="http://www.w3.org/2000/svg">
<path d="M4.70775 24.7645V55.6978H4.31983C3.16797 55.7159 2.06938 56.1861 1.26118 57.007C0.452983 57.828 0 58.9338 0 60.0858C0 61.2378 0.452983 62.3436 1.26118 63.1646C2.06938 63.9855 3.16797 64.4557 4.31983 64.4738H54.6802C55.832 64.4557 56.9306 63.9855 57.7388 63.1646C58.547 62.3436 59 61.2378 59 60.0858C59 58.9338 58.547 57.828 57.7388 57.007C56.9306 56.1861 55.832 55.7159 54.6802 55.6978H54.2922V24.7645C54.2911 23.7607 53.8919 22.7983 53.1823 22.0885C52.4726 21.3786 51.5103 20.9791 50.5066 20.9777H42.0315C41.3466 19.6444 40.3934 18.4672 39.2317 17.52C38.07 16.5729 36.725 15.8762 35.2811 15.4738C34.6695 15.3118 34.0227 15.342 33.4289 15.5604C32.835 15.7788 32.3228 16.1748 31.9618 16.6945C31.6374 17.0303 31.2488 17.2973 30.819 17.4797C30.3892 17.6621 29.9271 17.756 29.4602 17.756C28.9934 17.756 28.5313 17.6621 28.1015 17.4797C27.6717 17.2973 27.2831 17.0303 26.9587 16.6945C26.5992 16.1763 26.089 15.7811 25.4974 15.5626C24.9058 15.344 24.2612 15.3127 23.6512 15.4727C22.2061 15.8745 20.8601 16.5718 19.6984 17.5204C18.5366 18.4691 17.5844 19.6486 16.9019 20.9842H8.49343C7.49077 20.9856 6.5295 21.3841 5.82001 22.0926C5.11052 22.8011 4.71059 23.7618 4.70775 24.7645ZM56.9185 60.0863C56.9179 60.6798 56.6819 61.2488 56.2623 61.6684C55.8426 62.0881 55.2736 62.3241 54.6802 62.3246H4.31983C3.73455 62.3118 3.17755 62.0703 2.76815 61.6518C2.35875 61.2334 2.1295 60.6712 2.1295 60.0858C2.1295 59.5004 2.35875 58.9382 2.76815 58.5197C3.17755 58.1013 3.73455 57.8598 4.31983 57.8469H5.76619H5.78231H53.2177H53.2338H54.6802C55.2737 57.8478 55.8427 58.084 56.2623 58.5039C56.6819 58.9237 56.9179 59.4928 56.9185 60.0863ZM24.2207 17.537C24.2885 17.5195 24.3581 17.5105 24.4281 17.5101C24.5855 17.516 24.7392 17.5589 24.8769 17.6355C25.0145 17.712 25.1321 17.82 25.22 17.9507C25.7446 18.5619 26.3951 19.0525 27.127 19.3888C27.8589 19.7252 28.6548 19.8993 29.4602 19.8993C30.2657 19.8993 31.0616 19.7252 31.7935 19.3888C32.5254 19.0525 33.1759 18.5619 33.7005 17.9507C33.8056 17.7866 33.9588 17.659 34.1393 17.5853C34.3197 17.5116 34.5185 17.4955 34.7084 17.5391C36.5331 18.048 38.1421 19.1384 39.2909 20.6446C40.4398 22.1509 41.0658 23.9909 41.0741 25.8852C41.075 25.9434 41.0643 26.0012 41.0427 26.0552C41.0211 26.1093 40.9891 26.1585 40.9484 26.2001C40.9128 26.2351 40.8707 26.2626 40.8244 26.2811C40.778 26.2995 40.7285 26.3085 40.6786 26.3075H18.2483C18.1977 26.308 18.1476 26.2982 18.1009 26.2788C18.0541 26.2594 18.0118 26.2308 17.9764 26.1947C17.9345 26.1523 17.9014 26.102 17.8793 26.0466C17.8571 25.9912 17.8463 25.932 17.8475 25.8723C17.8604 23.9793 18.4894 22.142 19.6392 20.6382C20.7891 19.1343 22.3973 18.0457 24.2207 17.537ZM16.4527 27.7174C16.6877 27.9544 16.9674 28.1424 17.2757 28.2704C17.5839 28.3984 17.9145 28.4639 18.2483 28.4631H40.6754C41.0086 28.4649 41.3388 28.4005 41.6469 28.2736C41.9549 28.1467 42.2347 27.9598 42.4699 27.7238C42.7108 27.4822 42.9013 27.1951 43.0304 26.8794C43.1595 26.5636 43.2247 26.2253 43.2221 25.8842C43.2158 24.9544 43.0909 24.0293 42.8503 23.1311H50.5055C50.9396 23.1317 51.3556 23.3045 51.6625 23.6115C51.9693 23.9185 52.1418 24.3347 52.1421 24.7688V55.6978H6.85687V24.7645C6.85716 24.3304 7.02963 23.9142 7.33645 23.6072C7.64328 23.3002 8.05937 23.1274 8.49343 23.1268H16.068C15.8276 24.0202 15.703 24.9408 15.6973 25.8659C15.6941 26.2092 15.7593 26.5497 15.889 26.8675C16.0187 27.1854 16.2103 27.4743 16.4527 27.7174Z" fill="#1090D0"/>
<path d="M7.66563 59.3258C7.56148 59.2277 7.44161 59.1478 7.31102 59.0894C7.04941 58.9819 6.75597 58.9819 6.49436 59.0894C6.36091 59.1425 6.24011 59.223 6.13975 59.3258C6.04284 59.4246 5.96618 59.5414 5.91409 59.6697C5.85988 59.8029 5.83074 59.9449 5.82813 60.0887C5.82779 60.2285 5.85515 60.3669 5.90864 60.496C5.96213 60.6251 6.04068 60.7424 6.13975 60.8409C6.2389 60.943 6.3575 61.0241 6.48855 61.0794C6.61959 61.1348 6.76042 61.1634 6.90269 61.1634C7.04496 61.1634 7.18578 61.1348 7.31683 61.0794C7.44787 61.0241 7.56648 60.943 7.66563 60.8409C7.76543 60.7429 7.84446 60.6258 7.898 60.4966C7.95155 60.3673 7.9785 60.2286 7.97725 60.0887C7.97464 59.9449 7.94549 59.8029 7.89128 59.6697C7.8392 59.5414 7.76254 59.4246 7.66563 59.3258Z" fill="#1090D0"/>
<path d="M11.4039 59.3258C11.3016 59.2254 11.1813 59.1452 11.0493 59.0894C10.7877 58.9819 10.4943 58.9819 10.2326 59.0894C10.1006 59.1452 9.98031 59.2254 9.87803 59.3258C9.78112 59.4246 9.70446 59.5414 9.65237 59.6697C9.59816 59.8029 9.56902 59.9449 9.56641 60.0887C9.56607 60.2285 9.59343 60.3669 9.64692 60.496C9.70041 60.6251 9.77896 60.7424 9.87803 60.8409C9.97718 60.943 10.0958 61.0241 10.2268 61.0794C10.3579 61.1348 10.4987 61.1634 10.641 61.1634C10.7832 61.1634 10.9241 61.1348 11.0551 61.0794C11.1862 61.0241 11.3048 60.943 11.4039 60.8409C11.5037 60.7429 11.5827 60.6258 11.6363 60.4966C11.6898 60.3673 11.7168 60.2286 11.7155 60.0887C11.7129 59.9449 11.6838 59.8029 11.6296 59.6697C11.5775 59.5414 11.5008 59.4246 11.4039 59.3258Z" fill="#1090D0"/>
<path d="M15.1422 59.3258C15.0399 59.2254 14.9196 59.1452 14.7876 59.0894C14.526 58.9819 14.2325 58.9819 13.9709 59.0894C13.8403 59.1478 13.7205 59.2277 13.6163 59.3258C13.5194 59.4246 13.4427 59.5414 13.3907 59.6697C13.3364 59.8029 13.3073 59.9449 13.3047 60.0887C13.3043 60.2285 13.3317 60.3669 13.3852 60.496C13.4387 60.6251 13.5172 60.7424 13.6163 60.8409C13.7155 60.943 13.8341 61.0241 13.9651 61.0794C14.0962 61.1348 14.237 61.1634 14.3793 61.1634C14.5215 61.1634 14.6623 61.1348 14.7934 61.0794C14.9244 61.0241 15.043 60.943 15.1422 60.8409C15.242 60.7429 15.321 60.6258 15.3746 60.4966C15.4281 60.3673 15.4551 60.2286 15.4538 60.0887C15.4512 59.9449 15.4221 59.8029 15.3678 59.6697C15.3158 59.5414 15.2391 59.4246 15.1422 59.3258Z" fill="#1090D0"/>
<path d="M18.8805 59.3258C18.7801 59.223 18.6593 59.1425 18.5259 59.0894C18.2642 58.9819 17.9708 58.9819 17.7092 59.0894C17.5786 59.1478 17.4587 59.2277 17.3546 59.3258C17.2577 59.4246 17.181 59.5414 17.1289 59.6697C17.0747 59.8029 17.0456 59.9449 17.043 60.0887C17.0472 60.37 17.1586 60.6391 17.3546 60.8409C17.5024 60.9951 17.6938 61.1004 17.9032 61.1427C18.1125 61.185 18.3298 61.1621 18.5259 61.0773C18.66 61.0255 18.7811 60.9448 18.8805 60.8409C18.9795 60.7424 19.0581 60.6251 19.1116 60.496C19.1651 60.3669 19.1924 60.2285 19.1921 60.0887C19.1948 59.9444 19.1654 59.8013 19.1061 59.6697C19.054 59.5414 18.9774 59.4246 18.8805 59.3258Z" fill="#1090D0"/>
<path d="M22.3711 7.0921C22.3711 8.49478 22.787 9.86597 23.5663 11.0323C24.3456 12.1985 25.4533 13.1076 26.7492 13.6443C28.0451 14.1811 29.4711 14.3216 30.8468 14.0479C32.2225 13.7743 33.4862 13.0988 34.4781 12.107C35.4699 11.1151 36.1454 9.85143 36.419 8.4757C36.6927 7.09996 36.5522 5.67398 36.0154 4.37807C35.4787 3.08216 34.5696 1.97452 33.4033 1.19523C32.2371 0.415944 30.8659 0 29.4632 0C27.5827 0.00142301 25.7796 0.749081 24.4499 2.0788C23.1202 3.40852 22.3725 5.21159 22.3711 7.0921ZM34.4062 7.0921C34.4062 8.06973 34.1163 9.0254 33.5731 9.83827C33.03 10.6511 32.258 11.2847 31.3548 11.6588C30.4516 12.0329 29.4577 12.1308 28.4989 11.9401C27.54 11.7494 26.6593 11.2786 25.968 10.5873C25.2767 9.89602 24.8059 9.01527 24.6152 8.05642C24.4245 7.09758 24.5224 6.10371 24.8965 5.2005C25.2706 4.29729 25.9042 3.5253 26.717 2.98216C27.5299 2.43902 28.4856 2.14912 29.4632 2.14912C30.7732 2.15054 32.0291 2.67195 32.9549 3.59878C33.8808 4.52562 34.4008 5.78207 34.4008 7.0921H34.4062Z" fill="#1090D0"/>
<path d="M11.6812 37.1057C11.6194 37.2964 11.6122 37.5007 11.6605 37.6953C11.7087 37.89 11.8104 38.0672 11.9542 38.2071L14.589 40.7753L13.9668 44.4019C13.9327 44.5998 13.9547 44.8033 14.0303 44.9894C14.1059 45.1754 14.2322 45.3365 14.3948 45.4545C14.5573 45.5724 14.7497 45.6424 14.95 45.6565C15.1503 45.6707 15.3506 45.6284 15.5282 45.5345L18.7851 43.8227L22.0421 45.5345C22.2196 45.6278 22.4196 45.6696 22.6196 45.6552C22.8196 45.6407 23.0115 45.5706 23.1737 45.4528C23.3359 45.335 23.462 45.1741 23.5375 44.9884C23.6131 44.8027 23.6352 44.5995 23.6013 44.4019L22.9792 40.7753L25.614 38.2071C25.7573 38.0672 25.8587 37.89 25.9067 37.6956C25.9547 37.5011 25.9474 37.2971 25.8856 37.1066C25.8238 36.916 25.71 36.7466 25.557 36.6173C25.404 36.488 25.2179 36.4041 25.0197 36.375L21.377 35.8441L19.7479 32.5452C19.6493 32.3774 19.5085 32.2383 19.3395 32.1416C19.1706 32.045 18.9793 31.9941 18.7846 31.9941C18.5899 31.9941 18.3987 32.045 18.2297 32.1416C18.0607 32.2383 17.9199 32.3774 17.8213 32.5452L16.1933 35.8441L12.5516 36.375C12.3527 36.4032 12.1658 36.4867 12.0119 36.6158C11.8581 36.745 11.7435 36.9147 11.6812 37.1057ZM17.0594 37.8901C17.2318 37.8651 17.3956 37.7985 17.5365 37.6961C17.6775 37.5937 17.7914 37.4585 17.8685 37.3023L18.783 35.4487L19.6985 37.3023C19.7755 37.4584 19.8893 37.5934 20.0301 37.6958C20.1708 37.7982 20.3344 37.8649 20.5066 37.8901L22.5536 38.1877L21.0729 39.6309C20.9481 39.7524 20.8547 39.9025 20.8008 40.0682C20.7469 40.2338 20.734 40.4101 20.7634 40.5819L21.1126 42.6235L19.2859 41.6629C19.1319 41.581 18.9601 41.5382 18.7857 41.5382C18.6113 41.5382 18.4395 41.581 18.2855 41.6629L16.4587 42.6235L16.808 40.5819C16.8373 40.4101 16.8245 40.2338 16.7706 40.0682C16.7167 39.9025 16.6233 39.7524 16.4985 39.6309L15.0188 38.1877L17.0594 37.8901Z" fill="#1090D0"/>
<path d="M36.0196 40.7758L35.3974 44.4024C35.3635 44.6001 35.3856 44.8032 35.4612 44.9889C35.5368 45.1746 35.6628 45.3355 35.825 45.4533C35.9872 45.5711 36.1792 45.6412 36.3791 45.6557C36.5791 45.6701 36.7791 45.6283 36.9566 45.535L40.2136 43.8233L43.4684 45.535C43.6459 45.6283 43.8459 45.6701 44.0459 45.6557C44.2459 45.6412 44.4378 45.5711 44.6 45.4533C44.7622 45.3355 44.8882 45.1746 44.9638 44.9889C45.0394 44.8032 45.0615 44.6001 45.0276 44.4024L44.4054 40.7758L47.0403 38.2076C47.1836 38.0676 47.285 37.8904 47.3329 37.6958C47.3809 37.5013 47.3735 37.2972 47.3115 37.1067C47.2496 36.9161 47.1357 36.7467 46.9825 36.6175C46.8294 36.4883 46.6432 36.4045 46.445 36.3755L42.8033 35.8447L41.1753 32.5457C41.0865 32.3661 40.9493 32.2148 40.779 32.1091C40.6088 32.0033 40.4124 31.9473 40.212 31.9473C40.0116 31.9473 39.8151 32.0033 39.6449 32.1091C39.4747 32.2148 39.3374 32.3661 39.2486 32.5457L37.6196 35.8447L33.9768 36.3755C33.7787 36.4046 33.5926 36.4886 33.4396 36.6178C33.2866 36.7471 33.1728 36.9166 33.111 37.1071C33.0492 37.2976 33.0419 37.5016 33.0899 37.6961C33.1379 37.8905 33.2393 38.0677 33.3826 38.2076L36.0196 40.7758ZM38.4911 37.8906C38.6633 37.8654 38.8268 37.7987 38.9676 37.6964C39.1083 37.594 39.2221 37.4589 39.2991 37.3028L40.2147 35.4492L41.1291 37.3028C41.2062 37.4591 41.3202 37.5942 41.4611 37.6966C41.6021 37.799 41.7658 37.8656 41.9383 37.8906L43.9799 38.1883L42.5013 39.6314C42.3765 39.753 42.2831 39.903 42.2292 40.0687C42.1753 40.2344 42.1625 40.4107 42.1918 40.5824L42.5411 42.624L40.7143 41.6634C40.5604 41.5814 40.3886 41.5385 40.2141 41.5385C40.0397 41.5385 39.8679 41.5814 39.7139 41.6634L37.8872 42.624L38.2364 40.5824C38.2658 40.4107 38.2529 40.2344 38.199 40.0687C38.1451 39.903 38.0517 39.753 37.9269 39.6314L36.4462 38.1883L38.4911 37.8906Z" fill="#1090D0"/>
</svg>
