<svg width="70" height="51" viewBox="0 0 70 51" fill="none" xmlns="http://www.w3.org/2000/svg">
<path fill-rule="evenodd" clip-rule="evenodd" d="M47.9502 29.6483H55.1837C55.8313 29.6483 56.3564 30.1734 56.3564 30.821V48.9191C56.3564 49.5667 55.8313 50.0917 55.1837 50.0917H47.9502C47.3026 50.0917 46.7775 49.5667 46.7775 48.9191V30.821C46.7775 30.1732 47.3026 29.6483 47.9502 29.6483ZM25.5848 21.1726C25.5848 21.8202 25.0597 22.3453 24.4121 22.3453C23.7645 22.3453 23.2394 21.8202 23.2394 21.1726C23.2394 20.091 20.5947 19.276 19.0431 20.3682C18.7111 20.6019 18.5057 20.8886 18.5057 21.1726C18.5057 22.0747 19.7854 22.2924 21.065 22.5099C23.3249 22.8943 25.5849 23.2786 25.5849 26.1559C25.5849 28.0588 23.8737 29.347 22.0454 29.7068V30.6835C22.0454 31.3311 21.5203 31.8562 20.8727 31.8562C20.2251 31.8562 19.7001 31.3311 19.7001 30.6835V29.7068C17.8717 29.347 16.1605 28.0588 16.1605 26.1559C16.1605 25.5083 16.6856 24.9832 17.3332 24.9832C17.9808 24.9832 18.5059 25.5083 18.5059 26.1559C18.5059 27.2375 21.1506 28.0525 22.7022 26.9603C23.0342 26.7267 23.2396 26.4399 23.2396 26.1559C23.2396 25.2538 21.9599 25.0361 20.6803 24.8186C18.4204 24.4343 16.1604 24.0499 16.1604 21.1726C16.1604 19.2697 17.8716 17.9817 19.6999 17.6218V16.6452C19.6999 15.9976 20.225 15.4725 20.8726 15.4725C21.5202 15.4725 22.0452 15.9976 22.0452 16.6452V17.6217C23.8736 17.9816 25.5848 19.2697 25.5848 21.1726ZM0.586023 12.5854C0.0269582 12.2641 -0.165798 11.5504 0.155364 10.9913C0.476673 10.4323 1.19038 10.2395 1.74945 10.5607L3.35467 11.4874C3.91374 11.8087 4.10649 12.5224 3.78533 13.0814C3.46402 13.6405 2.75031 13.8333 2.19125 13.5121L0.586023 12.5854ZM7.769 4.54581C7.4452 3.98675 7.6359 3.27098 8.19497 2.94718C8.75403 2.62338 9.46979 2.81409 9.79359 3.37315L10.7203 4.97838C11.0441 5.53744 10.8534 6.2532 10.2943 6.577C9.73525 6.9008 9.01949 6.7101 8.69569 6.15103L7.769 4.54581ZM28.5699 3.37315C28.8937 2.81409 29.6095 2.62338 30.1685 2.94718C30.7276 3.27098 30.9183 3.98675 30.5945 4.54581L29.6678 6.15103C29.344 6.7101 28.6283 6.9008 28.0692 6.577C27.5101 6.2532 27.3194 5.53744 27.6432 4.97838L28.5699 3.37315ZM18.0091 1.17266C18.0091 0.525058 18.5342 0 19.1818 0C19.8294 0 20.3544 0.525058 20.3544 1.17266V3.02619C20.3544 3.67379 19.8294 4.19885 19.1818 4.19885C18.5342 4.19885 18.0091 3.67379 18.0091 3.02619V1.17266ZM24.1736 44.3539C25.392 44.3539 26.3933 43.3526 26.3933 42.1342V39.9144H15.3085V42.1342C15.3085 43.3526 16.3098 44.3539 17.5282 44.3539H24.1736ZM16.403 46.5582C16.5985 47.4046 17.0295 48.1609 17.623 48.7545C20.1665 51.298 24.499 50.0202 25.2989 46.5582C27.2914 46.0493 28.7386 44.2391 28.7386 42.1342V38.7419C28.7386 32.5359 35.432 30.7111 35.432 21.9736C35.432 13.9328 28.9132 7.41413 20.8726 7.41413H18.4134C17.7658 7.41413 17.2407 7.93919 17.2407 8.58679V11.3858C16.3826 11.6407 15.5515 11.9856 14.7605 12.4161L12.7792 10.4348C12.3213 9.97684 11.5788 9.97684 11.1209 10.4348L7.64308 13.9126C7.18516 14.3705 7.18516 15.1129 7.64308 15.5709L9.62385 17.5516C9.19891 18.3373 8.85107 19.1781 8.59689 20.0324H5.79497C5.14737 20.0324 4.62231 20.5574 4.62231 21.205V26.1233C4.62231 26.7709 5.14737 27.296 5.79497 27.296H8.59411C8.84887 28.1535 9.19422 28.9859 9.62444 29.7762L7.64308 31.7575C7.18516 32.2154 7.18516 32.9579 7.64308 33.4158L11.1209 36.8936C11.5788 37.3515 12.3213 37.3515 12.7792 36.8936L14.7599 34.9128C15.5453 35.3378 16.3867 35.6856 17.2407 35.9398V37.5691H14.1359C13.4883 37.5691 12.9633 38.0941 12.9633 38.7417V42.1342C12.9633 44.2391 14.4105 46.0493 16.403 46.5582ZM19.586 37.5691H26.4543C27.1248 31.2433 33.0867 29.3958 33.0867 21.9734C33.0867 15.2276 27.6184 9.75931 20.8726 9.75931H19.586V12.2936H19.5851C19.5856 12.8339 19.2102 13.3201 18.6608 13.4388C17.5713 13.6744 16.1855 14.2047 15.2665 14.8325C14.8077 15.1698 14.159 15.131 13.744 14.716L11.9501 12.9221L10.1306 14.7418L11.9228 16.534L11.9214 16.5355C12.3026 16.916 12.3815 17.5233 12.0787 17.9952C11.447 18.9783 10.8848 20.2605 10.6603 21.4045C10.5656 21.9572 10.0843 22.3777 9.50468 22.3777H6.96763V24.9507H9.50189V24.9515C10.0422 24.9511 10.5284 25.3265 10.6471 25.8759C10.8827 26.9654 11.413 28.3512 12.0408 29.2701C12.3781 29.729 12.3393 30.3777 11.9243 30.7927L10.1304 32.5866L11.95 34.4061L13.7422 32.6138L13.7437 32.6153C14.1242 32.234 14.7315 32.1553 15.2034 32.458C16.1865 33.0896 17.4686 33.6519 18.6127 33.8764C19.1653 33.971 19.5859 34.4524 19.5859 35.032V37.5691H19.586ZM18.9657 46.6992H22.7361C21.8677 48.0932 19.8343 48.0931 18.9657 46.6992ZM66.8023 18.0938L69.6631 10.9012C70.0054 10.0884 69.4262 9.24143 68.5529 9.25697H60.8427C60.1975 9.25697 59.6745 9.77997 59.6745 10.4251C59.6745 11.0702 60.1975 11.5932 60.8427 11.5932H64.7463L34.3608 31.9113C33.8244 32.2705 33.6809 32.9966 34.0401 33.5328C34.3993 34.0691 35.1254 34.2126 35.6616 33.8535L66.1214 13.4856L64.6309 17.2327C64.3932 17.8322 64.6863 18.511 65.286 18.7489C65.8857 18.9867 66.5645 18.6934 66.8023 18.0938ZM62.0618 24.5232H66.9499V47.7463H62.0618V24.5232ZM59.7166 48.9189V23.3506C59.7166 22.703 60.2417 22.1779 60.8893 22.1779H68.1227C68.7703 22.1779 69.2953 22.703 69.2953 23.3506V48.9189C69.2953 49.5665 68.7703 50.0916 68.1227 50.0916H60.8893C60.2415 50.0916 59.7166 49.5667 59.7166 48.9189ZM35.0112 37.5691H42.2446C42.8922 37.5691 43.4172 38.0941 43.4172 38.7417V48.9189C43.4172 49.5665 42.8922 50.0916 42.2446 50.0916H35.0112C34.3636 50.0916 33.8385 49.5665 33.8385 48.9189V38.7417C33.8387 38.0941 34.3636 37.5691 35.0112 37.5691ZM41.0719 39.9144H36.1838V47.7463H41.0719V39.9144ZM54.011 31.9935H49.1228V47.7463H54.011V31.9935Z" fill="#1090D0"/>
</svg>
