<svg width="78" height="58" viewBox="0 0 78 58" fill="none" xmlns="http://www.w3.org/2000/svg">
<path d="M74.8114 57.59H57.605C56.6264 57.5863 55.6891 57.1952 54.9981 56.5022C54.3072 55.8092 53.9188 54.8708 53.918 53.8922V52.9704C53.918 52.7259 54.0151 52.4915 54.1879 52.3186C54.3608 52.1457 54.5953 52.0486 54.8397 52.0486H58.9109C60.4501 52.047 61.9259 51.4348 63.0143 50.3464C64.1027 49.258 64.7149 47.7823 64.7165 46.243V43.3717C64.7183 42.616 64.5711 41.8674 64.2833 41.1687C64.2251 41.0286 64.2025 40.8764 64.2172 40.7255C64.232 40.5746 64.2838 40.4297 64.368 40.3036C64.4521 40.1775 64.5661 40.0741 64.6998 40.0026C64.8335 39.931 64.9828 39.8936 65.1344 39.8936H74.813C75.3188 39.8929 75.8107 40.0593 76.2121 40.367C76.6136 40.6747 76.9022 41.1063 77.0331 41.5949C77.164 42.0836 77.1298 42.6017 76.9358 43.0689C76.7418 43.536 76.399 43.926 75.9606 44.1783L68.74 48.3493C68.6715 48.3891 68.6146 48.4463 68.575 48.515C68.5355 48.5838 68.5147 48.6617 68.5147 48.741C68.5147 48.8203 68.5355 48.8982 68.575 48.967C68.6146 49.0357 68.6715 49.0929 68.74 49.1328L75.9606 53.3053C76.3991 53.5576 76.742 53.9477 76.936 54.4151C77.1299 54.8824 77.164 55.4007 77.0329 55.8894C76.9018 56.378 76.613 56.8097 76.2112 57.1173C75.8095 57.4248 75.3174 57.591 74.8114 57.59ZM55.7615 53.8906C55.7619 54.3823 55.9574 54.8537 56.3051 55.2014C56.6527 55.549 57.1241 55.7445 57.6158 55.7449H74.8114C74.9109 55.7445 75.0074 55.7113 75.0862 55.6506C75.165 55.5898 75.2215 55.5048 75.2472 55.4087C75.2729 55.3127 75.2663 55.2108 75.2283 55.1188C75.1904 55.0269 75.1232 54.95 75.0373 54.9L67.8167 50.7274C67.4677 50.526 67.1778 50.2363 66.9763 49.8873C66.7748 49.5383 66.6687 49.1425 66.6687 48.7395C66.6687 48.3365 66.7748 47.9406 66.9763 47.5917C67.1778 47.2427 67.4677 46.9529 67.8167 46.7515L75.0373 42.5805C75.1232 42.5305 75.1904 42.4536 75.2283 42.3617C75.2663 42.2697 75.2729 42.1678 75.2472 42.0717C75.2215 41.9756 75.165 41.8907 75.0862 41.8299C75.0074 41.7692 74.9109 41.736 74.8114 41.7356H66.3849C66.502 42.2725 66.5607 42.8206 66.56 43.3702V46.2399C66.558 48.268 65.7515 50.2124 64.3174 51.6465C62.8834 53.0805 60.9389 53.8871 58.9109 53.8891L55.7615 53.8906Z" fill="#1090D0"/>
<path d="M19.4924 57.59H2.2983C1.79248 57.5907 1.30059 57.4243 0.899106 57.1166C0.497618 56.8089 0.209012 56.3772 0.0781464 55.8886C-0.0527196 55.4 -0.0185157 54.8819 0.175442 54.4147C0.3694 53.9475 0.712246 53.5575 1.15069 53.3053L8.37122 49.1328C8.43978 49.0929 8.49667 49.0357 8.53621 48.967C8.57575 48.8982 8.59656 48.8203 8.59656 48.741C8.59656 48.6617 8.57575 48.5838 8.53621 48.515C8.49667 48.4463 8.43978 48.3891 8.37122 48.3493L1.15069 44.1783C0.712246 43.926 0.3694 43.536 0.175442 43.0689C-0.0185157 42.6017 -0.0527196 42.0836 0.0781464 41.5949C0.209012 41.1063 0.497618 40.6747 0.899106 40.367C1.30059 40.0593 1.79248 39.8929 2.2983 39.8936H11.9769C12.1284 39.8935 12.2777 39.9307 12.4114 40.0021C12.5451 40.0734 12.6592 40.1766 12.7435 40.3025C12.8278 40.4285 12.8798 40.5733 12.8948 40.7241C12.9098 40.8749 12.8874 41.0271 12.8295 41.1671C12.5418 41.8664 12.3946 42.6155 12.3963 43.3717V46.2415C12.3979 47.7807 13.0101 49.2565 14.0985 50.3449C15.1869 51.4333 16.6627 52.0455 18.2019 52.0471H22.27C22.5144 52.0471 22.7489 52.1442 22.9218 52.3171C23.0946 52.4899 23.1917 52.7244 23.1917 52.9689V53.8906C23.1913 54.8716 22.8015 55.8124 22.1078 56.506C21.4141 57.1997 20.4734 57.5896 19.4924 57.59ZM2.2983 41.7371C2.19883 41.7375 2.10227 41.7707 2.02352 41.8314C1.94476 41.8922 1.88817 41.9772 1.86249 42.0733C1.83681 42.1694 1.84345 42.2712 1.8814 42.3632C1.91934 42.4551 1.98648 42.532 2.07246 42.5821L9.29299 46.7531C9.64199 46.9547 9.93179 47.2446 10.1333 47.5937C10.3347 47.9428 10.4408 48.3387 10.4408 48.7418C10.4408 49.1448 10.3347 49.5408 10.1333 49.8899C9.93179 50.239 9.64199 50.5289 9.29299 50.7305L2.07246 54.9015C1.98648 54.9515 1.91934 55.0284 1.8814 55.1204C1.84345 55.2123 1.83681 55.3142 1.86249 55.4103C1.88817 55.5064 1.94476 55.5914 2.02352 55.6521C2.10227 55.7129 2.19883 55.746 2.2983 55.7465H19.5047C19.9945 55.7432 20.4631 55.5465 20.8085 55.1991C21.1538 54.8518 21.3478 54.382 21.3482 53.8922H18.1988C16.1708 53.8901 14.2264 53.0836 12.7923 51.6495C11.3582 50.2155 10.5517 48.2711 10.5497 46.243V43.3717C10.5493 42.8222 10.6075 42.2742 10.7233 41.7371H2.2983Z" fill="#1090D0"/>
<path d="M58.3633 37.5653H18.7456C18.5895 37.5651 18.436 37.5253 18.2995 37.4495C18.163 37.3737 18.0479 37.2645 17.9652 37.1321C15.855 33.755 14.6093 29.9101 14.338 25.9372C14.3215 25.6927 14.4028 25.4517 14.564 25.2672C14.7252 25.0827 14.9531 24.9697 15.1976 24.9532C15.4421 24.9367 15.6831 25.018 15.8676 25.1792C16.0521 25.3404 16.1651 25.5683 16.1816 25.8128C16.422 29.3116 17.4791 32.7053 19.268 35.7218H57.8456C59.9034 32.2579 60.9878 28.3025 60.9842 24.2734C60.9842 11.9063 50.9231 1.84369 38.5545 1.84369C33.5071 1.82892 28.6033 3.52356 24.642 6.6516C20.6807 9.77964 17.8952 14.1568 16.7392 19.07C16.7145 19.191 16.6657 19.3057 16.5957 19.4074C16.5257 19.5091 16.436 19.5958 16.332 19.6622C16.2279 19.7285 16.1115 19.7734 15.9898 19.7939C15.8681 19.8145 15.7435 19.8104 15.6234 19.7819C15.5032 19.7534 15.3901 19.701 15.2906 19.628C15.1911 19.5549 15.1073 19.4626 15.0441 19.3565C14.981 19.2504 14.9398 19.1327 14.923 19.0104C14.9062 18.8881 14.9142 18.7637 14.9464 18.6445C16.2089 13.3856 19.1847 8.69605 23.4052 5.31416C27.6955 1.85684 33.0445 -0.019462 38.5545 0.000152232C51.9386 0.000152232 62.8277 10.8893 62.8277 24.2734C62.8315 28.821 61.5536 33.2775 59.1407 37.1321C59.0582 37.2641 58.9436 37.373 58.8077 37.4488C58.6718 37.5245 58.5189 37.5646 58.3633 37.5653Z" fill="#1090D0"/>
<path d="M15.2395 23.9631H15.1888C14.9447 23.95 14.7159 23.8405 14.5525 23.6587C14.3892 23.4769 14.3047 23.2377 14.3177 22.9937C14.3438 22.5067 14.3822 22.0335 14.4329 21.588C14.445 21.4663 14.4811 21.3482 14.5392 21.2406C14.5973 21.133 14.6762 21.038 14.7714 20.9613C14.8666 20.8845 14.976 20.8274 15.0935 20.7933C15.2109 20.7593 15.334 20.7489 15.4555 20.7629C15.577 20.7768 15.6945 20.8148 15.8011 20.8746C15.9078 20.9345 16.0015 21.0149 16.0767 21.1113C16.152 21.2077 16.2073 21.3181 16.2395 21.436C16.2717 21.554 16.2801 21.6772 16.2642 21.7985C16.2181 22.2071 16.1828 22.6419 16.1582 23.092C16.1452 23.3271 16.0428 23.5482 15.872 23.7102C15.7012 23.8722 15.4749 23.9627 15.2395 23.9631Z" fill="#1090D0"/>
<path d="M51.7038 37.5652H25.3903C25.2648 37.565 25.1406 37.5391 25.0255 37.4892C24.9103 37.4392 24.8065 37.3663 24.7205 37.2749C22.1799 34.5758 20.4848 31.1922 19.8443 27.5413C19.2037 23.8903 19.6458 20.1318 21.1158 16.7291C22.5859 13.3264 25.0198 10.4283 28.1173 8.39234C31.2147 6.35637 34.8404 5.27148 38.5471 5.27148C42.2537 5.27148 45.8794 6.35637 48.9769 8.39234C52.0743 10.4283 54.5082 13.3264 55.9783 16.7291C57.4484 20.1318 57.8904 23.8903 57.2499 27.5413C56.6093 31.1922 54.9142 34.5758 52.3736 37.2749C52.2876 37.3663 52.1838 37.4392 52.0687 37.4892C51.9535 37.5391 51.8293 37.565 51.7038 37.5652ZM25.7959 35.7217H51.2982C53.5131 33.2575 54.9665 30.2044 55.4826 26.9316C55.9988 23.6588 55.5556 20.3065 54.2067 17.2803C52.8577 14.2541 50.6608 11.6835 47.8817 9.87963C45.1026 8.0757 41.8603 7.11568 38.5471 7.11568C35.2338 7.11568 31.9915 8.0757 29.2124 9.87963C26.4333 11.6835 24.2364 14.2541 22.8874 17.2803C21.5385 20.3065 21.0953 23.6588 21.6115 26.9316C22.1276 30.2044 23.5811 33.2575 25.7959 35.7217Z" fill="#1090D0"/>
<path d="M58.7471 53.8914H18.3643C16.2928 53.889 14.3068 53.065 12.842 51.6002C11.3772 50.1354 10.5532 48.1494 10.5508 46.0779V43.543C10.5532 41.4715 11.3772 39.4855 12.842 38.0207C14.3068 36.5559 16.2928 35.7319 18.3643 35.7295H58.7471C60.8186 35.7319 62.8046 36.5559 64.2694 38.0207C65.7342 39.4855 66.5582 41.4715 66.5606 43.543V46.0779C66.5582 48.1494 65.7342 50.1354 64.2694 51.6002C62.8046 53.065 60.8186 53.889 58.7471 53.8914ZM18.3643 37.5653C16.7801 37.567 15.2614 38.1975 14.142 39.3184C13.0225 40.4393 12.3939 41.9589 12.3943 43.543V46.0779C12.3964 47.6606 13.026 49.1779 14.1451 50.2971C15.2643 51.4162 16.7816 52.0459 18.3643 52.0479H58.7471C60.3298 52.0459 61.8471 51.4162 62.9662 50.2971C64.0854 49.1779 64.715 47.6606 64.7171 46.0779V43.543C64.7154 41.9602 64.0859 40.4426 62.9667 39.3234C61.8474 38.2042 60.3299 37.5747 58.7471 37.573L18.3643 37.5653Z" fill="#1090D0"/>
<path d="M41.078 49.7081C40.8888 49.7081 40.7041 49.6499 40.5491 49.5413C40.3941 49.4328 40.2762 49.2791 40.2116 49.1012L39.3344 46.6924H36.8671L35.8409 49.1412C35.7456 49.3595 35.5695 49.5325 35.3495 49.6239C35.1295 49.7152 34.8827 49.7179 34.6608 49.6313C34.4389 49.5447 34.2592 49.3755 34.1592 49.1593C34.0593 48.943 34.047 48.6965 34.1248 48.4714L37.1744 40.1063C37.2389 39.9284 37.3567 39.7746 37.5118 39.666C37.6668 39.5573 37.8515 39.499 38.0408 39.499C38.2301 39.499 38.4148 39.5573 38.5699 39.666C38.7249 39.7746 38.8427 39.9284 38.9073 40.1063L41.9368 48.4714C42.0205 48.701 42.0095 48.9544 41.9064 49.1759C41.8033 49.3975 41.6164 49.569 41.3868 49.6528C41.2877 49.6883 41.1833 49.707 41.078 49.7081ZM37.4033 44.8488H38.663L38.0331 43.1174L37.4033 44.8488Z" fill="#1090D0"/>
<path d="M33.3155 49.7086H29.6468C29.3302 49.7078 29.0268 49.5816 28.8031 49.3575C28.5794 49.1335 28.4535 48.83 28.4531 48.5134V40.6952C28.4535 40.3786 28.5794 40.0751 28.8031 39.8511C29.0268 39.627 29.3302 39.5008 29.6468 39.5H33.3216C33.5661 39.5 33.8005 39.5971 33.9734 39.77C34.1463 39.9428 34.2434 40.1773 34.2434 40.4218C34.2434 40.6662 34.1463 40.9007 33.9734 41.0736C33.8005 41.2464 33.5661 41.3435 33.3216 41.3435H30.2905V47.8651H33.3155C33.5599 47.8651 33.7944 47.9622 33.9672 48.135C34.1401 48.3079 34.2372 48.5424 34.2372 48.7868C34.2372 49.0313 34.1401 49.2658 33.9672 49.4386C33.7944 49.6115 33.5599 49.7086 33.3155 49.7086Z" fill="#1090D0"/>
<path d="M33.3138 45.5262H29.3671C29.1226 45.5262 28.8882 45.429 28.7153 45.2562C28.5424 45.0833 28.4453 44.8489 28.4453 44.6044C28.4453 44.3599 28.5424 44.1255 28.7153 43.9526C28.8882 43.7797 29.1226 43.6826 29.3671 43.6826H33.3138C33.5583 43.6826 33.7927 43.7797 33.9656 43.9526C34.1384 44.1255 34.2356 44.3599 34.2356 44.6044C34.2356 44.8489 34.1384 45.0833 33.9656 45.2562C33.7927 45.429 33.5583 45.5262 33.3138 45.5262Z" fill="#1090D0"/>
<path d="M43.4296 49.7086C43.1851 49.7086 42.9507 49.6115 42.7778 49.4386C42.6049 49.2658 42.5078 49.0313 42.5078 48.7868V40.4218C42.5078 40.1773 42.6049 39.9428 42.7778 39.77C42.9507 39.5971 43.1851 39.5 43.4296 39.5C43.6741 39.5 43.9085 39.5971 44.0814 39.77C44.2542 39.9428 44.3514 40.1773 44.3514 40.4218V48.7868C44.3514 49.0313 44.2542 49.2658 44.0814 49.4386C43.9085 49.6115 43.6741 49.7086 43.4296 49.7086Z" fill="#1090D0"/>
<path d="M46.1165 45.2334H43.4296C43.1851 45.2334 42.9507 45.1363 42.7778 44.9634C42.6049 44.7906 42.5078 44.5561 42.5078 44.3116V40.4218C42.5078 40.1773 42.6049 39.9428 42.7778 39.77C42.9507 39.5971 43.1851 39.5 43.4296 39.5H46.1165C46.876 39.5 47.6044 39.8017 48.1414 40.3387C48.6785 40.8758 48.9802 41.6042 48.9802 42.3636C48.9802 43.1231 48.6785 43.8515 48.1414 44.3885C47.6044 44.9256 46.876 45.2273 46.1165 45.2273V45.2334ZM44.3514 43.3899H46.1165C46.3871 43.3899 46.6466 43.2824 46.8379 43.0911C47.0292 42.8998 47.1366 42.6403 47.1366 42.3698C47.1366 42.0992 47.0292 41.8398 46.8379 41.6485C46.6466 41.4572 46.3871 41.3497 46.1165 41.3497H44.3514V43.3899Z" fill="#1090D0"/>
<path d="M47.9263 49.7071C47.7892 49.7073 47.6538 49.677 47.53 49.6182C47.4061 49.5595 47.2969 49.4739 47.2104 49.3676L43.5586 44.8863C43.4042 44.6966 43.3314 44.4534 43.3564 44.2101C43.3813 43.9668 43.5018 43.7433 43.6915 43.5889C43.8812 43.4345 44.1244 43.3617 44.3677 43.3866C44.611 43.4116 44.8345 43.5321 44.9889 43.7218L48.6391 48.2031C48.7491 48.3382 48.8186 48.5016 48.8396 48.6745C48.8605 48.8474 48.8321 49.0227 48.7575 49.1801C48.6829 49.3375 48.5652 49.4706 48.4181 49.5639C48.271 49.6571 48.1005 49.7068 47.9263 49.7071Z" fill="#1090D0"/>
<path d="M51.8851 49.7076C51.8205 49.7076 51.7576 49.7076 51.693 49.7076C51.1867 49.6757 50.6967 49.5163 50.2686 49.2442C49.8404 48.9721 49.488 48.5962 49.2442 48.1513C49.1819 48.0453 49.1415 47.9279 49.1252 47.806C49.109 47.6841 49.1174 47.5602 49.1497 47.4416C49.1821 47.323 49.2379 47.212 49.3138 47.1153C49.3897 47.0186 49.4842 46.938 49.5918 46.8784C49.6993 46.8187 49.8177 46.7812 49.9399 46.7679C50.0622 46.7547 50.1858 46.7661 50.3036 46.8014C50.4214 46.8367 50.5309 46.8952 50.6257 46.9735C50.7206 47.0518 50.7988 47.1482 50.8558 47.2572C50.9509 47.4301 51.0882 47.5762 51.2548 47.682C51.4214 47.7878 51.612 47.8499 51.809 47.8625C52.006 47.8751 52.2029 47.8379 52.3817 47.7542C52.5604 47.6705 52.7152 47.5431 52.8317 47.3837C52.9481 47.2244 53.0225 47.0382 53.0479 46.8425C53.0734 46.6467 53.049 46.4478 52.9772 46.2639C52.9053 46.0801 52.7883 45.9174 52.6369 45.7908C52.4855 45.6642 52.3046 45.5778 52.1109 45.5396C52.0572 45.5434 52.0033 45.5434 51.9496 45.5396C51.8882 45.534 51.8271 45.5248 51.7668 45.512C51.2869 45.4517 50.8286 45.2769 50.4304 45.0024C50.0322 44.7279 49.7058 44.3617 49.4787 43.9347C49.2517 43.5077 49.1306 43.0323 49.1257 42.5487C49.1208 42.0651 49.2323 41.5874 49.4507 41.1558C49.6691 40.7243 49.988 40.3516 50.3805 40.0691C50.7731 39.7866 51.2279 39.6027 51.7064 39.5327C52.185 39.4628 52.6733 39.5089 53.1303 39.6672C53.5873 39.8254 53.9996 40.0913 54.3324 40.4422C54.4158 40.53 54.4811 40.6333 54.5246 40.7463C54.5681 40.8593 54.5889 40.9798 54.5858 41.1008C54.5828 41.2219 54.5559 41.3411 54.5067 41.4518C54.4576 41.5625 54.3871 41.6623 54.2993 41.7458C54.2116 41.8292 54.1082 41.8945 53.9952 41.938C53.8822 41.9815 53.7618 42.0023 53.6407 41.9992C53.5197 41.9962 53.4004 41.9693 53.2898 41.9201C53.1791 41.871 53.0792 41.8005 52.9958 41.7127C52.8661 41.5767 52.7056 41.4739 52.5278 41.4129C52.35 41.3519 52.1601 41.3346 51.9742 41.3624C51.7883 41.3901 51.6118 41.4622 51.4596 41.5725C51.3074 41.6828 51.184 41.8281 51.0997 41.9961C51.0154 42.1642 50.9728 42.35 50.9754 42.5379C50.978 42.7259 51.0258 42.9104 51.1147 43.0761C51.2036 43.2417 51.331 43.3835 51.4862 43.4895C51.6414 43.5956 51.8198 43.6627 52.0064 43.6853L52.1862 43.6945H52.2369C53 43.7862 53.6995 44.1656 54.1924 44.7553C54.6853 45.3451 54.9346 46.1008 54.8893 46.8681C54.844 47.6354 54.5076 48.3565 53.9487 48.8842C53.3898 49.4119 52.6506 49.7064 51.882 49.7076H51.8851Z" fill="#1090D0"/>
<path d="M25.3202 49.7075C25.0757 49.7075 24.8413 49.6104 24.6684 49.4376C24.4956 49.2647 24.3984 49.0302 24.3984 48.7858V44.0663C24.3984 43.8218 24.4956 43.5874 24.6684 43.4145C24.8413 43.2416 25.0757 43.1445 25.3202 43.1445C25.5647 43.1445 25.7991 43.2416 25.972 43.4145C26.1449 43.5874 26.242 43.8218 26.242 44.0663V48.7858C26.242 49.0302 26.1449 49.2647 25.972 49.4376C25.7991 49.6104 25.5647 49.7075 25.3202 49.7075Z" fill="#1090D0"/>
<path d="M25.3219 44.988C25.1626 44.9882 25.006 44.9471 24.8674 44.8688C24.7287 44.7904 24.6127 44.6775 24.5307 44.5409L22.343 40.8953C22.2782 40.7915 22.2347 40.6757 22.215 40.5549C22.1954 40.434 22.2001 40.3104 22.2287 40.1914C22.2574 40.0723 22.3095 39.9602 22.382 39.8615C22.4544 39.7628 22.5459 39.6795 22.6509 39.6166C22.7559 39.5536 22.8724 39.5122 22.9936 39.4947C23.1148 39.4773 23.2383 39.4842 23.3568 39.515C23.4753 39.5458 23.5865 39.5999 23.6838 39.6742C23.7812 39.7484 23.8628 39.8413 23.9239 39.9475L26.1115 43.5915C26.1956 43.7314 26.2409 43.891 26.2431 44.0541C26.2453 44.2172 26.2041 44.3779 26.1238 44.5199C26.0435 44.6619 25.927 44.7801 25.7861 44.8623C25.6452 44.9445 25.485 44.9879 25.3219 44.988Z" fill="#1090D0"/>
<path d="M25.3197 44.9883C25.1566 44.9882 24.9964 44.9448 24.8555 44.8626C24.7147 44.7804 24.5981 44.6622 24.5178 44.5202C24.4375 44.3782 24.3964 44.2175 24.3985 44.0543C24.4007 43.8912 24.4461 43.7316 24.5301 43.5918L26.7254 39.9477C26.7849 39.8386 26.8658 39.7426 26.9633 39.6655C27.0608 39.5884 27.1729 39.5318 27.2928 39.4992C27.4128 39.4665 27.5381 39.4585 27.6612 39.4755C27.7843 39.4925 27.9027 39.5343 28.0093 39.5982C28.1159 39.6622 28.2084 39.747 28.2814 39.8477C28.3543 39.9484 28.4061 40.0627 28.4337 40.1839C28.4613 40.3051 28.4641 40.4306 28.4419 40.5529C28.4198 40.6753 28.3731 40.7918 28.3047 40.8956L26.1109 44.5412C26.0289 44.6777 25.9129 44.7907 25.7742 44.869C25.6356 44.9474 25.479 44.9885 25.3197 44.9883Z" fill="#1090D0"/>
<path d="M37.6799 28.1509C37.6799 28.3191 37.6709 28.4632 37.6528 28.5833C37.6348 28.6974 37.6078 28.7905 37.5718 28.8626C37.5417 28.9286 37.5057 28.9767 37.4637 29.0067C37.4216 29.0367 37.3736 29.0518 37.3195 29.0518H30.8874C30.8394 29.0518 30.7943 29.0367 30.7523 29.0067C30.7102 28.9767 30.6712 28.9286 30.6352 28.8626C30.6051 28.7905 30.5811 28.6974 30.5631 28.5833C30.5451 28.4632 30.5361 28.3191 30.5361 28.1509C30.5361 27.9767 30.5421 27.8326 30.5541 27.7185C30.5721 27.5984 30.5961 27.5023 30.6262 27.4302C30.6622 27.3581 30.7012 27.3071 30.7433 27.2771C30.7853 27.241 30.8334 27.223 30.8874 27.223H33.0585V19.6378L31.1847 20.6738C31.0466 20.7399 30.9325 20.7819 30.8424 20.7999C30.7583 20.8119 30.6892 20.7939 30.6352 20.7459C30.5871 20.6918 30.5541 20.6017 30.5361 20.4756C30.5181 20.3495 30.509 20.1723 30.509 19.9441C30.509 19.8 30.5121 19.6829 30.5181 19.5928C30.5241 19.4967 30.5391 19.4156 30.5631 19.3495C30.5871 19.2835 30.6202 19.2294 30.6622 19.1874C30.7042 19.1453 30.7613 19.1003 30.8334 19.0523L33.3377 17.4307C33.3678 17.4067 33.4038 17.3887 33.4458 17.3767C33.4939 17.3586 33.5539 17.3466 33.626 17.3406C33.6981 17.3286 33.7912 17.3226 33.9053 17.3226C34.0254 17.3166 34.1785 17.3136 34.3647 17.3136C34.5929 17.3136 34.7761 17.3196 34.9142 17.3316C35.0584 17.3376 35.1665 17.3526 35.2385 17.3767C35.3106 17.3947 35.3587 17.4217 35.3827 17.4577C35.4067 17.4938 35.4187 17.5388 35.4187 17.5929V27.223H37.3195C37.3736 27.223 37.4216 27.241 37.4637 27.2771C37.5117 27.3071 37.5507 27.3581 37.5808 27.4302C37.6168 27.5023 37.6408 27.5984 37.6528 27.7185C37.6709 27.8326 37.6799 27.9767 37.6799 28.1509ZM47.0307 25.2682C47.0307 25.8988 46.9196 26.4633 46.6974 26.9618C46.4812 27.4542 46.1719 27.8716 45.7695 28.214C45.3732 28.5503 44.8927 28.8085 44.3282 28.9887C43.7696 29.1689 43.1481 29.259 42.4634 29.259C42.1031 29.259 41.7607 29.2349 41.4364 29.1869C41.1121 29.1448 40.8208 29.0908 40.5626 29.0247C40.3044 28.9527 40.0912 28.8836 39.923 28.8175C39.7608 28.7455 39.6527 28.6884 39.5987 28.6464C39.5506 28.5983 39.5146 28.5473 39.4906 28.4932C39.4666 28.4392 39.4455 28.3761 39.4275 28.304C39.4155 28.226 39.4065 28.1299 39.4005 28.0158C39.3945 27.9017 39.3915 27.7665 39.3915 27.6104C39.3915 27.4422 39.3975 27.3011 39.4095 27.187C39.4215 27.0669 39.4395 26.9708 39.4636 26.8987C39.4936 26.8266 39.5266 26.7756 39.5626 26.7456C39.5987 26.7155 39.6407 26.7005 39.6888 26.7005C39.7488 26.7005 39.8389 26.7366 39.959 26.8086C40.0851 26.8747 40.2473 26.9498 40.4455 27.0338C40.6497 27.1179 40.8959 27.196 41.1842 27.2681C41.4725 27.3341 41.8178 27.3672 42.2202 27.3672C42.5685 27.3672 42.8838 27.3311 43.1661 27.2591C43.4543 27.187 43.6976 27.0729 43.8958 26.9167C44.094 26.7546 44.2471 26.5534 44.3552 26.3132C44.4633 26.0729 44.5174 25.7847 44.5174 25.4483C44.5174 25.1601 44.4723 24.9048 44.3822 24.6826C44.2921 24.4544 44.151 24.2622 43.9588 24.1061C43.7666 23.9499 43.5174 23.8328 43.2111 23.7547C42.9048 23.6767 42.5325 23.6376 42.0941 23.6376C41.7457 23.6376 41.4274 23.6556 41.1391 23.6917C40.8569 23.7277 40.5896 23.7457 40.3374 23.7457C40.1632 23.7457 40.0371 23.7037 39.959 23.6196C39.887 23.5295 39.8509 23.3674 39.8509 23.1331V18.0703C39.8509 17.8301 39.896 17.6589 39.9861 17.5568C40.0821 17.4487 40.2323 17.3947 40.4365 17.3947H45.9587C46.0128 17.3947 46.0638 17.4127 46.1119 17.4487C46.1599 17.4848 46.199 17.5418 46.229 17.6199C46.265 17.698 46.289 17.8031 46.3011 17.9352C46.3191 18.0613 46.3281 18.2145 46.3281 18.3946C46.3281 18.755 46.295 19.0162 46.229 19.1784C46.1689 19.3405 46.0788 19.4216 45.9587 19.4216H41.8148V21.917C42.025 21.893 42.2322 21.8779 42.4364 21.8719C42.6466 21.8659 42.8658 21.8629 43.094 21.8629C43.7246 21.8629 44.2831 21.938 44.7696 22.0881C45.2621 22.2323 45.6735 22.4485 46.0038 22.7368C46.3401 23.019 46.5953 23.3734 46.7695 23.7998C46.9437 24.2202 47.0307 24.7096 47.0307 25.2682Z" fill="#1090D0"/>
</svg>
