<svg width="63" height="60" viewBox="0 0 63 60" fill="none" xmlns="http://www.w3.org/2000/svg">
<path fill-rule="evenodd" clip-rule="evenodd" d="M29.9754 0.641651L30.2852 0.320824C30.5285 0.0774399 30.6945 0 31.0264 0C31.2587 0 31.5574 0.0885038 31.6791 0.199133C31.8118 0.2987 31.9778 0.497832 32.0442 0.630587C32.1327 0.807594 32.1659 2.33428 32.1659 10.1779L31.845 10.5098C31.5906 10.7753 31.4246 10.8417 31.0706 10.8417C30.7166 10.8417 30.5507 10.7753 29.9533 10.1779L29.9754 0.641651ZM19.3218 5.3434C19.3107 5.11108 19.4103 4.87876 19.6094 4.6575C19.8528 4.36986 19.9856 4.31455 20.3949 4.31455C20.7489 4.31455 20.9591 4.38092 21.1472 4.55793C21.3131 4.71281 21.7667 5.65316 22.3088 6.99178C22.8066 8.19763 23.2049 9.2818 23.2049 9.4035C23.2049 9.52519 23.1385 9.75751 23.05 9.92345C22.9726 10.1005 22.7734 10.2996 22.6075 10.366C22.4526 10.4434 22.2203 10.5098 22.0986 10.5098C21.9769 10.5098 21.7446 10.4434 21.5786 10.3549C21.4016 10.2775 21.2025 10.0894 21.1361 9.94558C21.0587 9.80176 20.6161 8.78397 20.1626 7.68874C19.709 6.59351 19.3218 5.54253 19.3218 5.3434ZM39.7993 6.96965C40.2971 5.78592 40.806 4.70175 40.9277 4.55793C41.1047 4.38092 41.2928 4.31455 41.6468 4.31455C42.0229 4.31455 42.1889 4.38092 42.4544 4.64643C42.6756 4.86769 42.7863 5.08895 42.7863 5.31021C42.7863 5.48722 42.4323 6.50501 42.0008 7.54492C41.5694 8.5959 41.1268 9.63582 41.0162 9.84601C40.9056 10.0562 40.6954 10.2996 40.5294 10.366C40.3745 10.4434 40.1422 10.5098 40.0205 10.5098C39.8988 10.5098 39.6665 10.4434 39.5116 10.366C39.3457 10.2996 39.1466 10.1005 39.0691 9.92345C38.9806 9.75751 38.9142 9.51412 38.9142 9.37031C38.9142 9.23755 39.3125 8.15338 39.7993 6.96965ZM8.94475 9.41456C9.05538 9.20436 9.26557 8.96098 9.39833 8.88354C9.54215 8.8061 9.80766 8.73972 9.98466 8.73972C10.2723 8.73972 10.7591 9.1933 13.7129 12.1471C16.9654 15.3885 17.1203 15.5656 17.1203 15.9528C17.1203 16.2625 17.0318 16.4727 16.7994 16.7272C16.5339 17.0259 16.3901 17.0922 16.025 17.0922C15.5825 17.0922 15.5161 17.0369 12.1973 13.718C10.04 11.5497 8.81199 10.2443 8.7788 10.0673C8.74562 9.91239 8.82306 9.62475 8.94475 9.41456ZM50.2727 10.2713C50.4585 10.0893 50.6214 9.92963 50.7516 9.80176L51.8689 8.70653L52.3336 8.77291C52.6433 8.81716 52.8867 8.92779 53.0527 9.11586C53.2186 9.31499 53.2961 9.54731 53.2961 9.86814C53.2961 10.333 53.2749 10.3542 50.3724 13.2564L50.1653 13.4636C48.2735 15.3664 46.9349 16.6165 46.7689 16.6497C46.614 16.6829 46.3375 16.6608 46.1605 16.6055C45.9835 16.5502 45.7401 16.3731 45.6405 16.2183C45.5299 16.0523 45.4414 15.7647 45.4414 15.5656C45.4414 15.3775 45.5299 15.0898 45.6405 14.935C45.7401 14.7801 46.6804 13.8065 47.7314 12.7777C48.5528 11.9563 49.5743 10.9555 50.2727 10.2713ZM22.6296 13.9614C22.884 13.8287 23.3598 13.6406 23.6806 13.5521C24.0678 13.4415 24.5546 13.4083 25.1409 13.4415C25.6277 13.4636 26.3025 13.5853 26.6344 13.6959C26.9663 13.8065 27.5194 14.0831 27.8513 14.3044C28.1832 14.5256 28.5704 14.8243 28.9576 15.2669L29.5439 14.8796C29.8648 14.6584 30.44 14.3818 30.8383 14.2601C31.3361 14.1052 31.8672 14.0278 32.5531 14.0389C33.239 14.0389 33.781 14.1052 34.301 14.2601C34.7103 14.3929 35.352 14.7137 35.7392 14.9682C36.1264 15.2447 36.6463 15.7315 36.9229 16.1187C37.1995 16.4838 37.4761 16.871 37.5314 16.9816C37.642 17.1697 37.6863 17.1697 38.4496 16.9927C38.8921 16.8931 39.5559 16.8157 39.9431 16.8157C40.3192 16.8157 40.9277 16.8931 41.2928 16.9927C41.6579 17.0812 42.1999 17.3024 42.4986 17.4573C42.7973 17.6233 43.273 17.9662 43.5496 18.2096C43.8373 18.453 44.2355 18.9287 44.4457 19.2606C44.6559 19.5814 44.9435 20.1788 45.0763 20.5771C45.3086 21.263 45.3418 21.2962 45.6848 21.3293C45.8839 21.3404 46.3264 21.4068 46.6583 21.4732C46.9902 21.5506 47.5433 21.7387 47.8752 21.8935C48.2071 22.0484 48.8045 22.4799 49.1806 22.845C49.601 23.2322 50.0104 23.7632 50.1874 24.1172C50.3533 24.4491 50.5635 25.0797 50.641 25.5001C50.7516 26.1528 50.7516 26.5953 50.5967 28.3211C50.4971 29.4495 50.3091 31.1422 50.1984 32.0825C50.0767 33.0229 49.8444 34.6159 49.6895 35.6227C49.5347 36.6294 49.236 38.3994 49.0258 39.55C48.8156 40.7116 48.4947 42.2494 48.3177 42.9795C48.1407 43.7097 47.5765 45.5793 47.0566 47.1281C46.5477 48.6769 46.0056 50.4691 45.8728 51.1108C45.6516 52.1286 45.6184 52.7149 45.4967 59.3969L45.2201 59.6735C45.0652 59.8284 44.8219 59.9722 44.667 59.9943C44.5121 60.0164 44.2355 59.9722 44.0364 59.8947C43.8372 59.8062 43.5939 59.6292 43.5054 59.4965C43.3615 59.2752 43.3394 58.7221 43.3726 55.5359C43.4058 52.1728 43.4279 51.7303 43.6602 50.6682C43.8041 50.0266 44.3572 48.168 44.8882 46.5196C45.4303 44.8823 45.9724 43.1344 46.0941 42.6476C46.2158 42.1608 46.4592 40.9882 46.6472 40.0478C46.8353 39.1075 47.1119 37.5587 47.2668 36.6183C47.4216 35.678 47.5433 34.7819 47.5433 34.627C47.5544 34.3947 47.477 34.461 47.0898 35.0142C46.8353 35.3793 46.3485 35.9656 46.0056 36.3196C45.6626 36.6736 45.2422 37.0608 45.0542 37.1715C44.8772 37.2932 44.4236 37.4591 44.0585 37.5587C43.5275 37.7025 43.262 37.7135 42.6756 37.614C42.2774 37.5587 41.7132 37.3927 41.4034 37.2489C41.1047 37.1161 40.6069 36.7732 40.3192 36.5077C40.0205 36.2311 39.6776 35.8218 39.567 35.6005C39.4121 35.2908 39.3125 35.2023 39.1687 35.2465C39.1282 35.2587 39.0536 35.2797 38.9591 35.3064C38.7953 35.3526 38.5715 35.4157 38.3611 35.4788C37.9628 35.5895 37.4871 35.6337 36.9782 35.6005C36.4251 35.5673 35.9936 35.4567 35.4847 35.2244C35.0865 35.0363 34.5776 34.7155 34.3342 34.5053C34.1019 34.3062 33.7921 33.919 33.6483 33.6645C33.5045 33.399 33.3275 33.2109 33.25 33.2441C33.2183 33.2532 33.1421 33.2771 33.0404 33.309C32.8937 33.355 32.6938 33.4176 32.4977 33.4764C32.0552 33.6092 31.6127 33.6535 30.8383 33.6203C29.9422 33.5871 29.6878 33.5318 29.0682 33.2331C28.6036 33.0007 28.1611 32.6799 27.8071 32.2927C27.5084 31.9608 27.1875 31.5294 27.088 31.3302C26.9884 31.1311 26.8667 30.9762 26.8003 30.9762C26.745 30.9762 26.3467 31.0537 25.9153 31.1422C25.4949 31.2307 24.6431 31.3634 24.0346 31.4298C23.782 31.462 23.5466 31.4922 23.3568 31.5166C23.0894 31.5509 22.9126 31.5736 22.9062 31.5736C22.8951 31.5847 22.7845 31.9829 22.6628 32.4697C22.5079 33.1114 22.3752 33.4211 22.165 33.6092C21.9769 33.7641 21.7335 33.8526 21.468 33.8636C21.2135 33.8636 20.9259 33.7751 20.7489 33.6424C20.5608 33.4986 20.417 33.2662 20.3838 33.056C20.3506 32.8459 20.4391 32.1268 20.6051 31.3634C20.771 30.6333 20.948 29.9474 21.0033 29.8478C21.0587 29.7372 21.2799 29.5712 21.4901 29.4827C21.7003 29.3942 22.1428 29.3168 22.4637 29.3168C22.7845 29.3168 23.5368 29.2393 24.1452 29.1619C24.7537 29.0734 25.5945 28.9296 26.0038 28.83C26.4131 28.7304 27.0326 28.5202 27.3756 28.3543C27.7186 28.1884 28.2606 27.7901 28.5925 27.4693C28.9134 27.1484 29.3337 26.6285 29.5107 26.3077C29.6988 25.9868 29.8426 25.6439 29.8537 25.5554C29.8537 25.4669 29.7873 25.3341 29.7099 25.2567C29.6324 25.1903 27.442 24.6703 24.8422 24.1283C21.9879 23.5198 19.8528 23.1215 19.4767 23.1215C19.0452 23.1215 18.658 23.21 18.2819 23.387C17.9832 23.5198 17.5628 23.8074 17.3526 24.0176C17.1534 24.2278 16.899 24.5708 16.7884 24.781C16.6888 24.9912 16.3459 25.9647 16.0361 26.9382C15.9276 27.2919 15.8045 27.688 15.6832 28.0781C15.4706 28.7617 15.2638 29.4272 15.1511 29.8146C14.963 30.4231 14.6864 31.4298 14.5315 32.0604C14.3656 32.7352 14.2439 33.4986 14.2439 33.9632C14.2439 34.3947 14.2992 35.0031 14.3656 35.324C14.432 35.6448 14.6532 36.2532 14.8524 36.6736C15.0515 37.1051 15.3723 37.6472 15.5714 37.8906C15.7595 38.1339 17.4743 39.9261 19.3771 41.8732C21.2799 43.8203 23.1053 45.7121 23.4372 46.0771C23.7691 46.4422 24.2669 47.0617 24.5324 47.46C24.7979 47.8583 25.1298 48.4335 25.2736 48.7322C25.4064 49.042 25.6277 49.6836 25.7493 50.1704C25.9042 50.801 25.9706 51.3984 25.9706 52.2171C25.9706 52.8587 25.871 54.6952 25.7604 56.3103C25.6277 58.3238 25.517 59.3195 25.4064 59.4854C25.3179 59.6292 25.1519 59.7952 25.0303 59.8615C24.9086 59.9279 24.6652 59.9832 24.4771 59.9832C24.3001 59.9832 24.0346 59.9279 23.9018 59.8615C23.758 59.7952 23.5699 59.596 23.4814 59.408C23.3376 59.1093 23.3376 58.7331 23.5478 55.7351C23.6806 53.8876 23.747 52.029 23.7138 51.5865C23.6806 51.144 23.5478 50.4912 23.4151 50.1483C23.2823 49.7943 22.9615 49.1747 22.696 48.7654C22.3862 48.2786 20.9038 46.6745 18.5916 44.296C16.6003 42.2494 14.6532 40.2248 14.266 39.7934C13.8788 39.3509 13.3699 38.676 13.1376 38.2778C12.9053 37.8795 12.5845 37.1825 12.4296 36.7289C12.2747 36.2754 12.1087 35.4788 12.0424 34.9589C11.976 34.3836 11.976 33.6756 12.0424 33.1335C12.0977 32.6467 12.3411 31.5294 12.5845 30.6443C12.8168 29.7593 13.3478 28.0003 13.7571 26.717C14.1554 25.4448 14.62 24.1172 14.7749 23.7853C14.9409 23.4313 15.3502 22.8782 15.7816 22.4467C16.2684 21.971 16.7662 21.6059 17.2309 21.3736C17.6292 21.1855 18.3151 20.9643 18.7576 20.8868C19.5209 20.7541 19.5652 20.7319 19.6094 20.4111C19.6389 20.2539 19.7207 19.6256 19.8084 18.9522C19.8195 18.8674 19.8306 18.7818 19.8417 18.6964C19.9413 17.933 20.0962 17.0922 20.1847 16.8157C20.2843 16.5391 20.5166 16.0744 20.7157 15.7647C20.9148 15.466 21.3131 14.9903 21.6118 14.7026C21.9105 14.4261 22.3641 14.0942 22.6296 13.9614ZM4.50851 19.7695C4.64127 19.5925 4.85146 19.4155 4.98422 19.3601C5.11697 19.3048 5.3161 19.2606 5.42673 19.2606C5.5263 19.2495 6.62153 19.6699 7.86058 20.1899C9.27663 20.7762 10.1727 21.2187 10.2944 21.3736C10.4051 21.5174 10.4936 21.805 10.4936 22.0484C10.4825 22.325 10.394 22.5684 10.2059 22.7896C9.98466 23.0552 9.84085 23.1215 9.48683 23.1215C9.18813 23.1215 8.36947 22.845 6.92023 22.2365C5.58161 21.6834 4.69658 21.2519 4.5417 21.0749C4.38682 20.9089 4.28725 20.6545 4.28725 20.4443C4.28725 20.2452 4.38682 19.9354 4.50851 19.7695ZM52.0017 21.1634C52.0791 21.1191 53.108 20.6656 54.2917 20.1677C55.9954 19.4486 56.5375 19.2716 56.8362 19.3048C57.1017 19.338 57.334 19.4708 57.5442 19.7142C57.8208 20.035 57.854 20.1456 57.7987 20.5217C57.7655 20.7651 57.6438 21.0528 57.5332 21.1523C57.4225 21.263 56.3826 21.7497 55.2099 22.2365C53.8713 22.7896 52.9199 23.1215 52.6655 23.1326C52.3557 23.1326 52.1676 23.0552 51.9464 22.8228C51.7804 22.6569 51.6145 22.3914 51.5924 22.2365C51.5702 22.0816 51.6145 21.805 51.703 21.6059C51.7915 21.4068 51.9243 21.2076 52.0017 21.1634ZM0.32672 30.2461C0.470538 30.1133 0.658608 29.9806 0.747112 29.9474C0.835615 29.9142 2.81588 29.8921 9.36514 29.9252L9.64171 30.2018C9.80766 30.3567 9.96254 30.6001 9.99573 30.755C10.0289 30.9098 10.0068 31.1864 9.94041 31.3634C9.8851 31.5515 9.70809 31.7838 9.55321 31.8944C9.2877 32.0714 8.87837 32.0825 5.00634 32.0825C2.39549 32.0825 0.658608 32.0383 0.525853 31.9719C0.404161 31.9166 0.227153 31.7064 0.127587 31.5072C0.0169574 31.286 -0.0272943 31.0094 0.0169574 30.8103C0.0501462 30.6333 0.193965 30.3788 0.32672 30.2461ZM52.754 30.9098C52.765 30.7439 52.9199 30.4673 53.1301 30.2461L53.4952 29.8699H57.3562C60.1883 29.8699 61.2835 29.9142 61.4826 30.0137C61.6265 30.0912 61.8477 30.3235 61.9694 30.5337C62.1464 30.8656 62.1575 30.9873 62.0579 31.3081C62.0026 31.5183 61.8145 31.7838 61.6596 31.8944C61.4052 32.0714 61.0069 32.0825 57.4447 32.0825C55.0551 32.0825 53.4288 32.0383 53.2961 31.9719C53.1744 31.9166 52.9974 31.7174 52.9089 31.5294C52.8204 31.3524 52.754 31.0647 52.754 30.9098ZM6.0162 40.1604C6.47373 39.9657 7.04189 39.7239 7.55082 39.5057C8.40266 39.1407 9.21026 38.842 9.35408 38.842C9.48683 38.842 9.75234 38.9083 9.92935 38.9968C10.1174 39.0854 10.3166 39.2624 10.3719 39.3841C10.4382 39.5057 10.4825 39.7823 10.4825 39.9925C10.4825 40.2359 10.394 40.4793 10.2391 40.6563C10.0732 40.8444 9.22132 41.2537 7.86058 41.8179C6.57728 42.3489 5.57055 42.7029 5.33823 42.7029C5.06166 42.7029 4.86252 42.6144 4.61914 42.371C4.39788 42.1498 4.28725 41.9285 4.28725 41.7073C4.28725 41.5303 4.35363 41.2426 4.44213 41.0767C4.5417 40.8665 4.80721 40.6784 5.29398 40.4682C5.44985 40.4014 5.70791 40.2916 6.0162 40.1604ZM51.6809 39.5611C51.7473 39.373 51.9574 39.1407 52.1345 39.03C52.3447 38.8973 52.5991 38.842 52.7982 38.8752C52.9863 38.8973 54.0483 39.3066 55.1768 39.7602C56.6371 40.3687 57.3119 40.7005 57.5332 40.9329C57.6991 41.1209 57.8319 41.3864 57.8319 41.5413C57.8319 41.6962 57.7544 41.9728 57.6659 42.1498C57.5774 42.3379 57.4004 42.537 57.2787 42.5923C57.157 42.6587 56.9136 42.7029 56.7256 42.7029C56.5486 42.7029 55.4644 42.3268 54.3249 41.8621C53.1191 41.3643 52.1234 40.8886 51.9464 40.7227C51.7804 40.5678 51.6256 40.3133 51.6034 40.1585C51.5813 40.0036 51.6145 39.7381 51.6809 39.5611ZM23.5039 16.0738C23.8026 15.9079 24.1898 15.7419 24.3668 15.6977C24.5438 15.6534 24.92 15.6424 25.1965 15.6755C25.4731 15.7087 25.8714 15.8083 26.0816 15.8968C26.2918 15.9853 26.6126 16.1623 26.7896 16.2951C26.9666 16.4278 27.2321 16.6933 27.6304 17.2022L27.3317 19.7246C27.1547 21.1185 26.9777 22.2359 26.9113 22.2359C26.8449 22.2359 25.7054 22.0035 24.3668 21.727C23.0282 21.4504 21.8998 21.1849 21.8666 21.1406C21.8223 21.1074 21.8777 20.3994 21.9883 19.5808C22.0879 18.7621 22.2095 17.9434 22.2538 17.7554C22.287 17.5784 22.464 17.1912 22.6521 16.9035C22.8623 16.5716 23.1831 16.2619 23.5039 16.0738ZM30.7833 16.7265C30.9603 16.627 31.2701 16.4721 31.4471 16.4057C31.6462 16.3172 32.133 16.284 32.664 16.2951C33.3057 16.3283 33.6818 16.4057 34.0137 16.5716C34.2792 16.7044 34.6664 16.981 34.8877 17.1801C35.1089 17.3682 35.4076 17.8107 35.8501 18.751L34.423 24.5038C33.5048 28.1767 32.9185 30.3671 32.7747 30.5884C32.6419 30.7654 32.3764 31.0309 32.1662 31.1747C31.8786 31.3517 31.6241 31.4181 31.1927 31.4181C30.8829 31.4181 30.4293 31.3407 30.197 31.2411C29.9757 31.1526 29.666 30.9645 29.5332 30.8318C29.3894 30.699 29.2013 30.4667 29.1239 30.3118C28.9801 30.0574 28.9911 30.0242 29.2677 29.8582C29.4336 29.7587 29.8872 29.3272 30.2855 28.9179C30.6838 28.4975 31.2148 27.8116 31.4692 27.3801C31.7237 26.9597 31.9892 26.3734 32.0556 26.0858C32.133 25.7207 32.133 25.3888 32.0556 25.0348C32.0002 24.7361 31.8343 24.3268 31.7015 24.1276C31.5577 23.9174 31.248 23.5855 31.0046 23.3975C30.728 23.1762 30.3297 22.9992 29.9204 22.9218C29.3783 22.8111 29.2898 22.7558 29.2898 22.5456C29.2898 22.4018 29.4226 21.2181 29.5775 19.9127C29.854 17.7001 29.8872 17.512 30.1638 17.2244C30.3187 17.0474 30.6063 16.8261 30.7833 16.7265ZM38.1623 19.448C38.3061 19.3816 38.638 19.2599 38.9146 19.1825C39.1912 19.094 39.7111 19.0497 40.0762 19.0719C40.4745 19.094 40.9391 19.2046 41.2378 19.3595C41.5144 19.4923 41.9016 19.7578 42.1007 19.9569C42.3109 20.145 42.5985 20.5543 42.7534 20.853C42.9083 21.1628 43.0632 21.6274 43.0964 21.904C43.1517 22.3576 42.9747 22.8443 41.1935 27.3248C39.6779 31.1083 39.1469 32.3363 38.8814 32.624C38.6823 32.8231 38.3282 33.0886 38.0849 33.1992C37.8415 33.3099 37.5206 33.4094 37.3658 33.4094C37.2109 33.4094 36.8901 33.3541 36.6467 33.2877C36.4033 33.2214 36.0272 32.978 35.8059 32.7567C35.5846 32.5355 35.3412 32.1593 35.2749 31.9159C35.2085 31.6726 35.1532 31.3517 35.1532 31.1968C35.1532 31.042 35.7727 28.3647 36.536 25.256C37.764 20.2113 37.9521 19.5697 38.1623 19.448ZM44.3985 25.3591C44.7565 24.462 44.9935 23.868 45.0213 23.7957C45.132 23.5524 45.1762 23.5413 45.7847 23.6077C46.1497 23.6409 46.6033 23.7515 46.7914 23.8511C46.9905 23.9506 47.3224 24.1498 47.5105 24.2936C47.7096 24.4374 47.9972 24.8135 48.1521 25.1122C48.3623 25.5326 48.4287 25.8424 48.4287 26.4177C48.4287 26.8823 48.3513 27.4023 48.2074 27.8227C48.0747 28.1877 47.5326 29.4046 46.9795 30.5331C46.4263 31.6615 45.663 33.0665 45.2647 33.6639C44.8222 34.3277 44.3797 34.8697 44.081 35.0689C43.7601 35.3012 43.4946 35.4008 43.1959 35.4008C42.9747 35.4008 42.5985 35.3123 42.3662 35.1906C42.145 35.0799 41.8241 34.8366 41.6471 34.6374C41.4701 34.4383 41.3263 34.1064 41.2821 33.8298C41.2157 33.3984 41.3927 32.9116 43.0632 28.7077C43.5698 27.4355 44.0436 26.2484 44.3985 25.3591Z" fill="#EF1649"/>
</svg>
