<svg width="41" height="39" viewBox="0 0 41 39" fill="none" xmlns="http://www.w3.org/2000/svg">
<path d="M17.1461 1.0261C16.6711 1.08403 15.8022 1.21146 15.2345 1.32731C14.6668 1.43158 13.6705 1.69804 13.0333 1.90657C12.3961 2.11511 11.4809 2.47425 11.0059 2.69437C10.5309 2.9029 9.71996 3.33155 9.21022 3.64435C8.70047 3.94556 7.86634 4.52482 7.35659 4.9303C6.84684 5.3242 5.97795 6.11199 5.42186 6.66808C4.86578 7.23575 4.25176 7.90769 4.04323 8.16257C3.84628 8.41744 3.40604 9.04304 3.07007 9.55279C2.7341 10.0625 2.27069 10.8619 2.03899 11.3137C1.80729 11.7771 1.47132 12.5534 1.27437 13.0283C1.07742 13.5033 0.799377 14.407 0.637185 15.021C0.474992 15.6466 0.266459 16.6777 0.173778 17.3149C0.0810962 17.952 0 19.1106 0 19.8868C0 20.6746 0.0579259 21.7172 0.115852 22.2038C0.185363 22.702 0.347555 23.6056 0.474992 24.208C0.614014 24.8105 0.903643 25.8068 1.12376 26.4092C1.35547 27.0117 1.74936 27.9269 2.00424 28.4366C2.25911 28.9464 2.69935 29.7226 2.98898 30.1744C3.26702 30.6262 3.7536 31.2982 4.05481 31.6805C4.36761 32.0628 5.07431 32.8274 5.64198 33.3835C6.19807 33.9396 7.05537 34.7042 7.53037 35.0634C8.01694 35.4341 8.81632 35.9786 9.32607 36.2798C9.83582 36.581 10.751 37.0444 11.3535 37.2993C11.9559 37.5657 12.9522 37.9249 13.5547 38.1103C14.1571 38.284 15.1998 38.5273 15.8717 38.6316C16.6942 38.7706 17.7022 38.8401 18.9997 38.8285C20.1814 38.8285 21.282 38.759 21.896 38.6548C22.4405 38.5505 23.2978 38.3651 23.8075 38.2377C24.3173 38.1103 25.0935 37.867 25.5453 37.7048C25.9971 37.531 26.8313 37.1603 27.3989 36.8822C27.9666 36.5926 28.9282 36.0365 29.5074 35.6426C30.0983 35.2487 30.9324 34.6115 31.3611 34.2292C31.8013 33.8469 32.5543 33.0939 33.0525 32.5494C33.5507 32.0049 34.2458 31.1476 34.5933 30.6378C34.9409 30.1281 35.5086 29.1665 35.8561 28.4946C36.1921 27.8226 36.6671 26.7104 36.8988 26.0037C37.1421 25.297 37.4317 24.2312 37.5591 23.6288C37.6982 22.9337 37.8024 21.8099 37.8488 20.5587C37.8951 19.041 37.8719 18.288 37.7213 17.2569C37.6055 16.5271 37.4549 15.7972 37.3854 15.6466C37.3043 15.4844 37.1768 15.3454 37.1073 15.3222C37.0262 15.299 36.6323 15.5655 36.2384 15.8899C35.833 16.2259 35.1842 16.8051 34.7903 17.1643L34.0604 17.8362C34.0836 20.8715 34.0141 21.8215 33.8982 22.4934C33.794 23.0611 33.5623 23.9995 33.3653 24.5788C33.1799 25.1696 32.7976 26.0964 32.5312 26.6409C32.2531 27.1854 31.7666 28.008 31.4538 28.483C31.1294 28.958 30.4574 29.7921 29.9477 30.325C29.4379 30.8695 28.5806 31.6341 28.0361 32.0396C27.4916 32.4451 26.5532 33.0359 25.9508 33.3487C25.3484 33.6615 24.3752 34.0786 23.8075 34.2756C23.2399 34.4725 22.371 34.7158 21.896 34.8201C21.282 34.9591 20.4478 35.017 19.0576 35.0286C17.5747 35.0402 16.8448 34.9823 16.1034 34.8316C15.5589 34.7158 14.6437 34.4609 14.076 34.264C13.5083 34.0786 12.5352 33.6615 11.9327 33.3487C11.3303 33.0359 10.3687 32.4219 9.80106 31.9933C9.23339 31.5646 8.37608 30.8 7.90109 30.2903C7.4261 29.7805 6.70782 28.8653 6.30234 28.2629C5.90844 27.6604 5.39869 26.7684 5.17857 26.2934C4.95846 25.8184 4.63407 24.9958 4.47188 24.4629C4.30969 23.9416 4.08957 23.0611 3.99689 22.4934C3.89262 21.9142 3.82311 20.7904 3.82311 19.8288C3.82311 18.6587 3.89262 17.8594 4.05481 17.0484C4.17066 16.4344 4.43712 15.4496 4.64566 14.882C4.84261 14.3027 5.16699 13.5265 5.35235 13.1442C5.5493 12.7619 6.02429 11.9857 6.41819 11.418C6.8005 10.8387 7.51878 9.95827 7.99377 9.46011C8.46876 8.95036 9.3029 8.20891 9.8474 7.80343C10.3919 7.39795 11.3303 6.8071 11.9327 6.4943C12.5352 6.16992 13.5778 5.74127 14.2498 5.52115C14.9217 5.30103 15.8369 5.04616 16.2772 4.96506C16.7753 4.86079 17.8296 4.80287 18.9997 4.80287C20.4131 4.80287 21.1661 4.86079 21.896 5.02299C22.4405 5.13884 23.321 5.39371 23.8655 5.57907C24.41 5.77602 25.2093 6.11199 25.6612 6.33211C26.113 6.56381 26.8197 6.9693 27.2599 7.24734C27.6886 7.52538 28.1172 7.75709 28.2099 7.75709C28.3026 7.75709 28.9861 7.25892 29.716 6.6565C30.4458 6.05407 31.0483 5.49798 31.0483 5.44005C31.0483 5.37054 30.7471 5.0925 30.3763 4.79128C30.0172 4.50165 29.241 3.98032 28.6733 3.64435C28.1056 3.29679 27.1441 2.79863 26.5532 2.54376C25.974 2.28888 24.9776 1.92974 24.3636 1.74438C23.738 1.55902 22.7301 1.32731 22.1277 1.22305C21.5253 1.13037 20.3436 1.01451 19.521 0.991343C18.6869 0.956588 17.6211 0.979759 17.1461 1.0261ZM37.536 5.19676C37.1768 5.25469 36.6323 5.54432 35.7403 6.13516C35.0336 6.59857 33.9909 7.32844 33.4232 7.75709C32.8556 8.18574 31.8824 8.93878 31.28 9.42535C30.6775 9.92352 29.5538 10.8967 28.7892 11.5918C28.0245 12.2869 26.8197 13.4686 26.113 14.2216C25.4063 14.9631 24.3636 16.0984 23.8075 16.7356C23.2515 17.3728 22.3131 18.5197 21.7222 19.2843C21.1429 20.049 20.3783 21.08 20.0308 21.5782C19.6832 22.0648 19.382 22.4703 19.3472 22.4703C19.3125 22.4703 19.104 22.1459 18.8607 21.7404C18.629 21.3465 17.7601 20.0605 16.9144 18.8789C16.0686 17.6972 15.0607 16.3649 14.6668 15.9246C14.2845 15.4728 13.879 15.0442 13.7864 14.9631C13.6937 14.882 13.4156 14.7198 13.1723 14.5923C12.9406 14.4649 12.5236 14.3143 12.2455 14.2564C11.9443 14.1869 11.5273 14.1869 11.1449 14.2564C10.7742 14.3143 10.2876 14.5228 9.89374 14.7893C9.5346 15.0326 9.1407 15.3801 9.02485 15.5771C8.909 15.7624 8.80474 16.0984 8.80474 16.2954C8.80474 16.5039 8.87425 16.8515 8.96693 17.0484C9.05961 17.2569 9.55777 17.9636 10.0907 18.6008C10.6236 19.2496 12.5467 21.5898 14.3656 23.8026C16.1845 26.0153 17.8759 28.008 18.1308 28.2165C18.3857 28.4366 18.8259 28.6683 19.1155 28.7494C19.4052 28.8305 19.9033 28.8885 20.2161 28.8885C20.5521 28.8769 21.0271 28.7726 21.3515 28.622C21.7801 28.425 21.9887 28.2397 22.3246 27.672C22.5679 27.2897 23.2283 26.2586 23.796 25.3897C24.3636 24.5093 25.2557 23.2233 25.777 22.5282C26.2984 21.8215 27.2599 20.605 27.9203 19.8057C28.569 19.0063 29.9477 17.5234 30.9788 16.5039C32.0098 15.4844 33.4464 14.1405 34.1763 13.5033C34.9061 12.8777 36.3195 11.754 37.3043 11.0125C38.289 10.2711 39.4244 9.46011 39.8183 9.20523C40.2932 8.90402 40.6292 8.57963 40.7914 8.27842C40.9884 7.91928 41.0347 7.69916 40.9768 7.29368C40.9304 6.99247 40.7682 6.5754 40.5829 6.33211C40.3743 6.04248 40.0152 5.76444 39.5634 5.5559C39.1811 5.37054 38.6829 5.19676 38.4628 5.16201C38.2427 5.13884 37.8256 5.15042 37.536 5.19676Z" fill="#BFBFBF"/>
</svg>
