<svg width="32" height="31" viewBox="0 0 32 31" fill="none" xmlns="http://www.w3.org/2000/svg">
<path d="M7.94375 28.9375V4.71875C7.94375 3.14453 9.21523 1.8125 10.85 1.8125H20.5375C22.1117 1.8125 23.4438 3.14453 23.4438 4.71875V28.9375H7.94375ZM11.8188 5.6875V7.625H19.5688V5.6875H11.8188ZM31.1938 10.5312V26.0312C31.1938 27.666 29.8617 28.9375 28.2875 28.9375H25.3813V7.625H28.2875C29.8617 7.625 31.1938 8.95703 31.1938 10.5312ZM6.00625 28.9375H3.1C1.46523 28.9375 0.19375 27.666 0.19375 26.0312V10.5312C0.19375 8.95703 1.46523 7.625 3.1 7.625H6.00625V28.9375Z" fill="#BFBFBF"/>
</svg>
