<svg width="23" height="31" viewBox="0 0 23 31" fill="none" xmlns="http://www.w3.org/2000/svg">
<g clip-path="url(#clip0_2465_935)">
<path d="M22.1516 24.2014C22.1516 25.4584 21.7912 26.5368 21.0705 27.4363C20.3497 28.3359 19.4818 28.7856 18.4669 28.7856H3.6935C2.67862 28.7856 1.81078 28.3359 1.08998 27.4363C0.369187 26.5368 0.00878906 25.4584 0.00878906 24.2014C0.00878906 23.2211 0.0578032 22.2956 0.155831 21.4249C0.25386 20.5542 0.4355 19.6777 0.700753 18.7954C0.966006 17.9132 1.30334 17.1578 1.71275 16.5292C2.12216 15.9007 2.6642 15.3875 3.33887 14.9896C4.01353 14.5917 4.78911 14.3928 5.6656 14.3928C7.17639 15.869 8.98126 16.6071 11.0802 16.6071C13.1792 16.6071 14.984 15.869 16.4948 14.3928C17.3713 14.3928 18.1469 14.5917 18.8216 14.9896C19.4962 15.3875 20.0383 15.9007 20.4477 16.5292C20.8571 17.1578 21.1944 17.9132 21.4597 18.7954C21.7249 19.6777 21.9066 20.5542 22.0046 21.4249C22.1026 22.2956 22.1516 23.2211 22.1516 24.2014ZM15.7769 4.16037C15.7769 4.16037 16.1013 4.48472 16.75 5.13344C17.3987 5.78216 17.7231 7.02337 17.7231 8.85707C17.7231 10.6908 17.0744 12.2563 15.7769 13.5538C14.4795 14.8512 12.9139 15.4999 11.0802 15.4999C9.24651 15.4999 7.68094 14.8512 6.38351 13.5538C5.08608 12.2563 4.43736 10.6908 4.43736 8.85707C4.43736 7.02337 5.08608 5.4578 6.38351 4.16037C7.68094 2.86293 9.24651 2.21422 11.0802 2.21422C12.9139 2.21422 14.4795 2.86293 15.7769 4.16037Z" fill="#BFBFBF"/>
</g>
<defs>
<clipPath id="clip0_2465_935">
<rect width="22.16" height="31" fill="white" transform="matrix(1 0 0 -1 0 31)"/>
</clipPath>
</defs>
</svg>
