<svg width="32" height="31" viewBox="0 0 32 31" fill="none" xmlns="http://www.w3.org/2000/svg">
<g clip-path="url(#clip0_2465_3870)">
<path d="M5.54576 4.4285C5.54576 5.25886 5.17671 5.89316 4.43862 6.3314V28.2321C4.43862 28.382 4.38384 28.5117 4.27427 28.6213C4.16471 28.7309 4.03497 28.7856 3.88504 28.7856H2.7779C2.62798 28.7856 2.49823 28.7309 2.38867 28.6213C2.27911 28.5117 2.22433 28.382 2.22433 28.2321V6.3314C1.48624 5.89316 1.11719 5.25886 1.11719 4.4285C1.11719 3.81727 1.33343 3.29541 1.7659 2.86293C2.19838 2.43046 2.72024 2.21422 3.33147 2.21422C3.94271 2.21422 4.46456 2.43046 4.89704 2.86293C5.32952 3.29541 5.54576 3.81727 5.54576 4.4285ZM31.01 5.53565V18.7349C31.01 19.0232 30.938 19.2452 30.7938 19.4009C30.6496 19.5566 30.4219 19.7151 30.1105 19.8766C27.631 21.2144 25.5032 21.8833 23.7271 21.8833C23.0236 21.8833 22.3115 21.7564 21.5907 21.5027C20.8699 21.249 20.2442 20.9722 19.7137 20.6724C19.1832 20.3725 18.5172 20.0957 17.7157 19.842C16.9142 19.5883 16.0924 19.4614 15.2506 19.4614C13.0363 19.4614 10.3607 20.3033 7.22377 21.9871C7.02772 22.0909 6.83743 22.1428 6.6529 22.1428C6.35305 22.1428 6.09356 22.0332 5.87444 21.8141C5.65532 21.595 5.54576 21.3355 5.54576 21.0356V8.19971C5.54576 7.83066 5.72452 7.51351 6.08203 7.24826C6.32422 7.0868 6.77976 6.83884 7.44866 6.5044C10.1704 5.12047 12.598 4.4285 14.7316 4.4285C15.9656 4.4285 17.1189 4.59573 18.1914 4.93018C19.264 5.26463 20.5268 5.77207 21.9799 6.4525C22.4182 6.67162 22.9256 6.78118 23.5022 6.78118C24.125 6.78118 24.8025 6.66009 25.5349 6.4179C26.2672 6.17571 26.9015 5.90469 27.4378 5.60484C27.9741 5.30499 28.4815 5.03397 28.9601 4.79178C29.4387 4.5496 29.753 4.4285 29.9029 4.4285C30.2028 4.4285 30.4622 4.53806 30.6814 4.75718C30.9005 4.97631 31.01 5.23579 31.01 5.53565Z" fill="#BFBFBF"/>
</g>
<defs>
<clipPath id="clip0_2465_3870">
<rect width="31.02" height="31" fill="white" transform="matrix(1 0 0 -1 0 31)"/>
</clipPath>
</defs>
</svg>
