<svg width="34" height="31" viewBox="0 0 34 31" fill="none" xmlns="http://www.w3.org/2000/svg">
<path d="M27.8199 13.424C27.8199 13.424 27.9813 13.2626 28.3043 12.9397C28.6272 12.6167 28.7886 11.994 28.7886 11.0714C28.7886 10.1487 28.4657 9.36452 27.8199 8.71868C27.1741 8.07285 26.3898 7.74993 25.4672 7.74993H24.3601V14.3928H25.4672C26.3898 14.3928 27.1741 14.0699 27.8199 13.424ZM0.00292969 24.3571H31.0029C31.0029 25.5795 30.5704 26.6233 29.7055 27.4882C28.8405 28.3532 27.7968 28.7856 26.5744 28.7856H4.4315C3.20903 28.7856 2.16532 28.3532 1.30036 27.4882C0.435407 26.6233 0.00292969 25.5795 0.00292969 24.3571ZM30.1639 6.37465C30.1639 6.37465 30.4883 6.69901 31.137 7.34773C31.7857 7.99644 32.1101 9.23765 32.1101 11.0714C32.1101 12.9051 31.4614 14.4706 30.1639 15.7681C28.8665 17.0655 27.3009 17.7142 25.4672 17.7142H24.3601V18.2678C24.3601 19.3288 23.9795 20.2399 23.2183 21.001C22.4572 21.7622 21.5461 22.1428 20.4851 22.1428H8.3065C7.24549 22.1428 6.3344 21.7622 5.57324 21.001C4.81208 20.2399 4.4315 19.3288 4.4315 18.2678V5.53565C4.4315 5.23579 4.54106 4.97631 4.76018 4.75718C4.97931 4.53806 5.23879 4.4285 5.53864 4.4285H25.4672C27.3009 4.4285 28.8665 5.07722 30.1639 6.37465Z" fill="#BFBFBF"/>
</svg>
