<svg width="107" height="107" viewBox="0 0 107 107" fill="none" xmlns="http://www.w3.org/2000/svg">
<path d="M91.599 6.5H11.6416C5.93633 6.5 1.29688 11.1395 1.29688 16.8447V96.426C1.29688 102.131 5.93633 106.771 11.6416 106.771H91.6199C97.3252 106.771 101.965 102.131 101.965 96.426V16.8447C101.965 11.1395 97.3252 6.5 91.599 6.5ZM51.8293 71.2643H49.6141L56.009 62.3197L62.383 71.2643H60.1678C59.0184 71.2643 58.0779 72.2047 58.0779 73.3541V102.612H53.8982V73.3541C53.9191 72.2047 52.9787 71.2643 51.8293 71.2643ZM97.785 96.426C97.785 99.8324 95.0264 102.591 91.6199 102.591H62.2576V75.4439H66.4373C68.1301 75.4439 69.1123 73.5213 68.1301 72.142L57.6809 57.5131C56.8449 56.3428 55.1104 56.3428 54.2744 57.5131L43.8252 72.142C42.843 73.5213 43.8252 75.4439 45.518 75.4439H49.6977V102.612H32.9789V92.1627C32.9789 91.0133 32.0385 90.0729 30.8891 90.0729C29.7396 90.0729 28.7992 91.0133 28.7992 92.1627V102.612H24.6195V60.815C24.6195 59.6656 23.6791 58.7252 22.5297 58.7252H20.3145L26.7094 49.7807L33.1043 58.7252H30.9309C29.7814 58.7252 28.841 59.6656 28.841 60.815V79.6236C28.841 80.773 29.7814 81.7135 30.9309 81.7135C32.0803 81.7135 33.0207 80.773 33.0207 79.6236V62.9049H37.2004C38.8932 62.9049 39.8754 60.9822 38.8932 59.6029L28.4439 44.974C27.608 43.8037 25.8734 43.8037 25.0375 44.974L14.5883 59.6029C13.6061 60.9822 14.5883 62.9049 16.2811 62.9049H20.4607V102.591H11.6416C8.23516 102.591 5.45566 99.8115 5.45566 96.426V16.8447C5.45566 13.4383 8.23516 10.6797 11.6416 10.6797H91.6199C95.0264 10.6797 97.785 13.4592 97.785 16.8447V96.426Z" fill="#1090D0"/>
<path d="M91.5143 23.1992H12.1211C10.9717 23.1992 10.0312 24.1396 10.0312 25.2891C10.0312 26.4385 10.9717 27.3789 12.1211 27.3789H91.5143C92.6637 27.3789 93.6041 26.4385 93.6041 25.2891C93.6041 24.1396 92.6637 23.1992 91.5143 23.1992Z" fill="#1090D0"/>
<path d="M58.0938 35.7383C53.4961 35.7383 49.7344 39.4791 49.7344 44.0977C49.7344 48.7162 53.4752 52.457 58.0938 52.457C62.7123 52.457 66.4531 48.7162 66.4531 44.0977C66.4531 39.4791 62.6914 35.7383 58.0938 35.7383ZM58.0938 48.2773C55.7949 48.2773 53.9141 46.3965 53.9141 44.0977C53.9141 41.7988 55.7949 39.918 58.0938 39.918C60.3926 39.918 62.2734 41.7988 62.2734 44.0977C62.2525 46.3965 60.3926 48.2773 58.0938 48.2773Z" fill="#1090D0"/>
<path d="M89.4219 37.8281H74.793C73.6436 37.8281 72.7031 38.7686 72.7031 39.918C72.7031 41.0674 73.6436 42.0078 74.793 42.0078H89.4219C90.5713 42.0078 91.5117 41.0674 91.5117 39.918C91.5117 38.7686 90.5713 37.8281 89.4219 37.8281Z" fill="#1090D0"/>
<path d="M83.1523 48.2773H74.793C73.6436 48.2773 72.7031 49.2178 72.7031 50.3672C72.7031 51.5166 73.6436 52.457 74.793 52.457H83.1523C84.3018 52.457 85.2422 51.5166 85.2422 50.3672C85.2422 49.2178 84.3018 48.2773 83.1523 48.2773Z" fill="#1090D0"/>
<path d="M16.3008 19.0391H20.4805C21.6299 19.0391 22.5703 18.0986 22.5703 16.9492C22.5703 15.7998 21.6299 14.8594 20.4805 14.8594H16.3008C15.1514 14.8594 14.2109 15.7998 14.2109 16.9492C14.2109 18.0986 15.1514 19.0391 16.3008 19.0391Z" fill="#1090D0"/>
<path d="M33.0195 19.0391H37.1992C38.3486 19.0391 39.2891 18.0986 39.2891 16.9492C39.2891 15.7998 38.3486 14.8594 37.1992 14.8594H33.0195C31.8701 14.8594 30.9297 15.7998 30.9297 16.9492C30.9297 18.0986 31.8701 19.0391 33.0195 19.0391Z" fill="#1090D0"/>
<path d="M83.1523 19.0391H87.332C88.4814 19.0391 89.4219 18.0986 89.4219 16.9492C89.4219 15.7998 88.4814 14.8594 87.332 14.8594H83.1523C82.0029 14.8594 81.0625 15.7998 81.0625 16.9492C81.0625 18.0986 82.0029 19.0391 83.1523 19.0391Z" fill="#1090D0"/>
</svg>
