<svg width="107" height="107" viewBox="0 0 107 107" fill="none" xmlns="http://www.w3.org/2000/svg">
<g clip-path="url(#clip0_1317_15085)">
<path d="M101.253 13.5993H73.0582C73.0285 13.5993 72.9997 13.602 72.9704 13.6037C71.9372 12.6338 70.8271 11.7333 69.6432 10.914C68.931 10.4219 67.955 10.5997 67.4622 11.3111C66.9699 12.0229 67.1475 12.9995 67.8593 13.4921C74.7823 18.2816 78.9152 26.1597 78.9152 34.5656C78.9152 48.6852 67.428 60.1725 53.3084 60.1725C39.189 60.1725 27.7017 48.6852 27.7017 34.5656C27.7017 20.4462 39.189 8.95898 53.3084 8.95898C56.1113 8.95898 58.8659 9.40851 61.4955 10.2952C62.316 10.5726 63.2052 10.1312 63.4815 9.31091C63.7582 8.49065 63.3175 7.60142 62.4972 7.32494C59.544 6.32912 56.4525 5.82422 53.3084 5.82422C37.4602 5.82422 24.5669 18.7175 24.5669 34.5656C24.5669 50.4138 37.4602 63.3073 53.3084 63.3073C69.1565 63.3073 82.05 50.4138 82.05 34.5656C82.05 28.0148 79.8122 21.7511 75.8448 16.734H101.253C102.693 16.734 103.865 17.9058 103.865 19.3463V68.6779H91.4679C90.602 68.6779 89.9005 69.3795 89.9005 70.2453C89.9005 71.1111 90.602 71.8127 91.4679 71.8127H103.865V80.0442C103.865 81.4847 102.693 82.6565 101.253 82.6565H5.74707C4.30654 82.6565 3.13477 81.4847 3.13477 80.0442V71.8127H83.5741C84.4399 71.8127 85.1415 71.1111 85.1415 70.2453C85.1415 69.3795 84.4399 68.6779 83.5741 68.6779H3.13477V19.3463C3.13477 17.9058 4.30654 16.734 5.74707 16.734H24.4382C25.304 16.734 26.0056 16.0325 26.0056 15.1667C26.0056 14.3008 25.304 13.5993 24.4382 13.5993H5.74707C2.57803 13.5993 0 16.1775 0 19.3463V80.044C0 83.2128 2.57803 85.791 5.74707 85.791H40.1033V98.0405H35.3714C34.5056 98.0405 33.8041 98.742 33.8041 99.6078C33.8041 100.474 34.5056 101.175 35.3714 101.175H71.2453C72.1111 101.175 72.8127 100.474 72.8127 99.6078C72.8127 98.742 72.1111 98.0405 71.2453 98.0405H66.5135V85.791H101.253C104.422 85.791 107 83.2128 107 80.044V19.3463C107 16.1775 104.422 13.5993 101.253 13.5993ZM63.3789 98.0407H43.238V85.7913H63.3789V98.0407Z" fill="#1090D0"/>
<path d="M42.136 22.0468C41.8016 20.2748 40.2501 18.9883 38.4466 18.9883H36.7705C35.9047 18.9883 35.2031 19.6898 35.2031 20.5557C35.2031 21.4215 35.9047 22.123 36.7705 22.123H38.4466C38.7444 22.123 39.0004 22.3354 39.0555 22.6282L43.6942 47.1972C43.834 47.9376 44.481 48.4737 45.2344 48.4737H46.2918C45.8289 48.9911 45.5449 49.6722 45.5449 50.4212C45.5449 52.0367 46.8546 53.3464 48.4701 53.3464C50.0855 53.3464 51.3952 52.0367 51.3952 50.4212C51.3952 49.6722 51.1114 48.9911 50.6483 48.4737H57.0963C56.6334 48.9911 56.3494 49.6722 56.3494 50.4212C56.3494 52.0367 57.6591 53.3464 59.2746 53.3464C60.89 53.3464 62.1997 52.0367 62.1997 50.4212C62.1997 49.6722 61.9159 48.9911 61.4528 48.4737H62.8633C63.7291 48.4737 64.4306 47.7721 64.4306 46.9063C64.4306 46.0405 63.7291 45.3389 62.8633 45.3389H46.533L45.8935 41.9519H63.4102C64.1633 41.9519 64.8097 41.4165 64.9502 40.6763L67.7322 25.9999C67.7338 25.9905 67.7357 25.9811 67.7372 25.9717C67.8306 25.4231 67.6787 24.8647 67.3198 24.4394C66.961 24.0141 66.436 23.7703 65.8795 23.7703H42.4614L42.136 22.0468ZM44.4737 34.4285H48.7499L49.0707 38.8171H45.3025L44.4737 34.4285ZM55.6665 34.4285L55.3457 38.8171H52.2138L51.893 34.4285H55.6665ZM51.664 31.2937L51.3432 26.9052H56.2163L55.8955 31.2937H51.664ZM58.489 38.8171L58.8098 34.4285H62.9443L62.1124 38.8171H58.489ZM63.5387 31.2937H59.039L59.3598 26.9052H64.3707L63.5387 31.2937ZM48.1999 26.9052L48.5207 31.2937H43.8818L43.0532 26.9052H48.1999Z" fill="#1090D0"/>
<path d="M10.208 57.4902H19.4788C20.3446 57.4902 21.0461 56.7887 21.0461 55.9229C21.0461 55.057 20.3446 54.3555 19.4788 54.3555H10.208C9.34219 54.3555 8.64062 55.057 8.64062 55.9229C8.64062 56.7887 9.34219 57.4902 10.208 57.4902Z" fill="#1090D0"/>
<path d="M10.208 64.5605H27.5065C28.3723 64.5605 29.0739 63.859 29.0739 62.9932C29.0739 62.1273 28.3723 61.4258 27.5065 61.4258H10.208C9.34219 61.4258 8.64062 62.1273 8.64062 62.9932C8.64062 63.859 9.34219 64.5605 10.208 64.5605Z" fill="#1090D0"/>
<path d="M92.9795 22.6484C92.1137 22.6484 91.4121 23.35 91.4121 24.2158V28.1387H87.4893C86.6234 28.1387 85.9219 28.8402 85.9219 29.706C85.9219 30.5719 86.6234 31.2734 87.4893 31.2734H91.4121V35.1963C91.4121 36.0621 92.1137 36.7637 92.9795 36.7637C93.8453 36.7637 94.5469 36.0621 94.5469 35.1963V31.2734H98.4695C99.3353 31.2734 100.037 30.5719 100.037 29.706C100.037 28.8402 99.3353 28.1387 98.4695 28.1387H94.5469V24.2158C94.5469 23.3502 93.8451 22.6484 92.9795 22.6484Z" fill="#1090D0"/>
</g>
<defs>
<clipPath id="clip0_1317_15085">
<rect width="107" height="107" fill="white"/>
</clipPath>
</defs>
</svg>
