<svg width="107" height="107" viewBox="0 0 107 107" fill="none" xmlns="http://www.w3.org/2000/svg">
<path d="M88.1245 78.528C85.8842 76.622 82.6909 76.4381 80.25 77.8759L75.7025 73.3284C79.5645 68.9147 81.9219 63.1634 81.9219 56.8438C81.9219 43.0173 70.6702 31.7656 56.8438 31.7656C43.0173 31.7656 31.7656 43.0173 31.7656 56.8438C31.7656 70.6702 43.0173 81.9219 56.8438 81.9219C63.1634 81.9219 68.9147 79.5645 73.3284 75.7025L77.8759 80.25C76.4381 82.6909 76.6053 85.8842 78.528 88.1413L89.7295 101.282C90.95 102.72 92.7389 103.589 94.6448 103.673H94.9123C96.718 103.673 98.4567 102.954 99.7273 101.683L101.65 99.7608C102.987 98.4233 103.706 96.5675 103.64 94.6783C103.573 92.7891 102.687 91.0002 101.249 89.763L88.1078 78.5614L88.1245 78.528ZM35.1094 56.8438C35.1094 44.8564 44.8564 35.1094 56.8438 35.1094C68.8311 35.1094 78.5781 44.8564 78.5781 56.8438C78.5781 68.8311 68.8311 78.5781 56.8438 78.5781C44.8564 78.5781 35.1094 68.8311 35.1094 56.8438ZM99.2927 97.37L97.37 99.2927C96.6845 99.9781 95.7483 100.346 94.7786 100.296C93.8089 100.262 92.9061 99.8277 92.2875 99.0753L81.0859 85.9511C79.9156 84.5802 79.9992 82.5237 81.2698 81.2531C81.9386 80.5844 82.8247 80.25 83.7108 80.25C84.5133 80.25 85.3158 80.5175 85.9511 81.0692L99.092 92.2708C99.8444 92.9061 100.262 93.7922 100.312 94.7619C100.363 95.7316 99.9948 96.6511 99.3094 97.3533L99.2927 97.37Z" fill="#1090D0"/>
<path d="M56.8438 85.2672C55.9242 85.2672 55.1719 86.0195 55.1719 86.9391V96.9703C55.1719 98.8094 53.6672 100.314 51.8281 100.314H10.0312C8.19219 100.314 6.6875 98.8094 6.6875 96.9703V70.5547L25.9475 87.6412C27.3686 88.8952 29.1408 89.5138 30.9297 89.5138C32.7186 89.5138 34.4908 88.8952 35.9119 87.6412L41.1281 83.0436C41.8136 82.425 41.8805 81.3717 41.2786 80.6862C40.6767 79.9841 39.6067 79.9172 38.9212 80.5358L33.705 85.1334C32.1167 86.5211 29.7427 86.5211 28.1544 85.1334L7.90797 67.1775C7.82438 67.0939 7.70734 67.0605 7.60703 67.0103C8.20891 66.375 9.07828 65.957 10.0312 65.957H27.6862C28.6058 65.957 29.3581 65.2047 29.3581 64.2852C29.3581 63.3656 28.6058 62.6133 27.6862 62.6133H10.0312C6.33641 62.6133 3.34375 65.6059 3.34375 69.3008V96.9703C3.34375 100.665 6.33641 103.658 10.0312 103.658H51.8281C55.523 103.658 58.5156 100.665 58.5156 96.9703V86.9391C58.5156 86.0195 57.7633 85.2672 56.8438 85.2672Z" fill="#1090D0"/>
<path d="M98.6406 3.34375H65.2031C62.4445 3.34375 60.1875 5.60078 60.1875 8.35938V27.1847C60.1875 28.1042 60.9398 28.8566 61.8594 28.8566C62.7789 28.8566 63.5312 28.1042 63.5312 27.1847V8.35938C63.5312 7.43984 64.2836 6.6875 65.2031 6.6875H98.6406C99.5602 6.6875 100.312 7.43984 100.312 8.35938V38.4531C100.312 39.3727 99.5602 40.125 98.6406 40.125H82.8916C81.972 40.125 81.2197 40.8773 81.2197 41.7969C81.2197 42.7164 81.972 43.4688 82.8916 43.4688H98.6406C101.399 43.4688 103.656 41.2117 103.656 38.4531V8.35938C103.656 5.60078 101.399 3.34375 98.6406 3.34375Z" fill="#1090D0"/>
<path d="M75.2333 33.4361C75.4841 33.4361 75.7516 33.3692 75.9856 33.2521L92.7044 24.8928C93.2728 24.6086 93.6239 24.0234 93.6239 23.4048C93.6239 22.7862 93.2728 22.2011 92.7044 21.9168L75.9856 13.5575C75.4673 13.3067 74.8488 13.3234 74.3639 13.6243C73.8791 13.9253 73.5781 14.4603 73.5781 15.0454V31.7642C73.5781 32.3493 73.8791 32.8843 74.3639 33.1853C74.6314 33.3525 74.9323 33.4361 75.25 33.4361H75.2333ZM76.9052 17.7539L88.207 23.4048L76.9052 29.0557V17.7539Z" fill="#1090D0"/>
<path d="M21.7344 40.125C31.8827 40.125 40.125 31.8827 40.125 21.7344C40.125 11.5861 31.8827 3.34375 21.7344 3.34375C11.5861 3.34375 3.34375 11.5861 3.34375 21.7344C3.34375 31.8827 11.5861 40.125 21.7344 40.125ZM21.7344 6.6875C30.0269 6.6875 36.7812 13.4419 36.7812 21.7344C36.7812 30.0269 30.0269 36.7812 21.7344 36.7812C13.4419 36.7812 6.6875 30.0269 6.6875 21.7344C6.6875 13.4419 13.4419 6.6875 21.7344 6.6875Z" fill="#1090D0"/>
<path d="M20.5343 31.2473C20.8519 31.5817 21.2866 31.7656 21.738 31.7656C22.1894 31.7656 22.6241 31.5817 22.9418 31.2473L30.0472 23.8577C32.3377 21.4669 32.3377 17.5881 30.0472 15.1973C28.9104 14.0103 27.4057 13.375 25.8007 13.375C24.2793 13.375 22.8582 13.9602 21.738 15.0134C19.4643 12.84 15.6357 12.9236 13.4288 15.1973C11.1383 17.5881 11.1383 21.4669 13.4288 23.8577L20.5343 31.2473ZM15.853 17.5212C16.3546 17.003 17.0066 16.7188 17.6921 16.7188C18.3775 16.7188 19.0296 17.003 19.5311 17.5212C19.8154 17.8055 20.016 18.1733 20.1664 18.608C20.3838 19.2934 21.0358 19.7616 21.7547 19.7616C22.4736 19.7616 23.1257 19.2934 23.343 18.608C23.4768 18.1733 23.6941 17.8055 23.9783 17.5212C24.4799 17.003 25.1319 16.7188 25.8174 16.7188C26.5029 16.7188 27.1549 17.003 27.6564 17.5212C28.7264 18.6247 28.7264 20.4303 27.6564 21.5505L21.7714 27.6862L15.8864 21.5505C14.8164 20.447 14.8164 18.6414 15.8864 17.5212H15.853Z" fill="#1090D0"/>
<path d="M68.5481 46.8125H61.8606C60.9411 46.8125 60.1887 47.5648 60.1887 48.4844C60.1887 49.4039 60.9411 50.1562 61.8606 50.1562H64.9201L58.4333 57.7298L54.6883 53.9848C54.3539 53.6505 53.9025 53.4666 53.4344 53.5C52.9662 53.5167 52.5315 53.7341 52.2306 54.1019L43.8712 64.1331C43.2861 64.8353 43.3697 65.9053 44.0886 66.4905C44.4062 66.758 44.774 66.875 45.1586 66.875C45.6434 66.875 46.1115 66.6744 46.4459 66.2731L53.635 57.6462L57.3633 61.3745C57.6976 61.7089 58.1323 61.8928 58.6172 61.8594C59.0853 61.8427 59.52 61.6253 59.8209 61.2742L66.9097 52.9984V55.1719C66.9097 56.0914 67.662 56.8438 68.5815 56.8438C69.5011 56.8438 70.2534 56.0914 70.2534 55.1719V48.4844C70.2534 47.5648 69.5011 46.8125 68.5815 46.8125H68.5481Z" fill="#1090D0"/>
</svg>
