<svg width="107" height="107" viewBox="0 0 107 107" fill="none" xmlns="http://www.w3.org/2000/svg">
<mask id="mask0_1317_15100" style="mask-type:luminance" maskUnits="userSpaceOnUse" x="0" y="0" width="107" height="107">
<path d="M0 7.62939e-06H107V107H0V7.62939e-06Z" fill="white"/>
</mask>
<g mask="url(#mask0_1317_15100)">
<path d="M2.08594 32.4609H34.8745H97.2823" stroke="#1090D0" stroke-width="3.7832" stroke-miterlimit="10" stroke-linecap="round" stroke-linejoin="round"/>
<path d="M19.5423 23.5664C22.2792 23.5664 24.5124 21.3403 24.5124 18.6049C24.5124 15.8695 22.2792 13.6434 19.5423 13.6434C16.8115 13.6434 14.5781 15.8695 14.5781 18.6049C14.5781 21.3403 16.8115 23.5664 19.5423 23.5664Z" stroke="#1090D0" stroke-width="3.7832" stroke-miterlimit="10" stroke-linecap="round" stroke-linejoin="round"/>
<path d="M62.683 13.6434H81.3787C84.1095 13.6434 86.3429 15.8756 86.3429 18.6049C86.3429 21.3345 84.1095 23.5664 81.3787 23.5664H62.683C59.9522 23.5664 57.7188 21.3345 57.7188 18.6049C57.7188 15.8756 59.9522 13.6434 62.683 13.6434Z" stroke="#1090D0" stroke-width="3.7832" stroke-miterlimit="10" stroke-linecap="round" stroke-linejoin="round"/>
<path d="M37.8705 23.5664C40.6073 23.5664 42.8405 21.3403 42.8405 18.6049C42.8405 15.8695 40.6073 13.6434 37.8705 13.6434C35.1397 13.6434 32.9062 15.8695 32.9062 18.6049C32.9062 21.3403 35.1397 23.5664 37.8705 23.5664Z" stroke="#1090D0" stroke-width="3.7832" stroke-miterlimit="10" stroke-linecap="round" stroke-linejoin="round"/>
<path d="M33.9402 48.5353L29.7578 66.0371" stroke="#1090D0" stroke-width="3.7832" stroke-miterlimit="10" stroke-linecap="round" stroke-linejoin="round"/>
<path d="M43.5703 64.457L49.4881 57.8138C49.7487 57.5238 49.7487 57.0502 49.4881 56.7601L43.5703 50.1169" stroke="#1090D0" stroke-width="3.7832" stroke-miterlimit="10" stroke-linecap="round" stroke-linejoin="round"/>
<path d="M20.129 64.457L14.2112 57.8138C13.9504 57.5238 13.9504 57.0502 14.2112 56.7601L20.129 50.1169" stroke="#1090D0" stroke-width="3.7832" stroke-miterlimit="10" stroke-linecap="round" stroke-linejoin="round"/>
<path d="M84.5356 57.7716C86.8221 58.2809 88.9606 59.1808 90.886 60.3885L92.598 58.6834C93.6109 57.6651 95.2755 57.6651 96.2945 58.6834L98.9898 61.3775C100.009 62.3958 100.009 64.0596 98.9898 65.0721L97.2836 66.783C98.4863 68.6896 99.3747 70.8093 99.8903 73.071H102.289C103.729 73.071 104.908 74.2492 104.908 75.682V79.501C104.908 80.9336 103.729 82.1118 102.289 82.1118H99.8784C99.3628 84.3618 98.4744 86.4696 97.2836 88.3642L98.9898 90.0693C100.009 91.0877 100.009 92.7514 98.9898 93.764L96.2945 96.4638C95.2755 97.4822 93.6109 97.4822 92.598 96.4638L90.886 94.7585C88.9844 95.9545 86.8695 96.8427 84.6066 97.3579V99.7852C84.6066 101.224 83.4277 102.402 81.9943 102.402H78.1734C76.7396 102.402 75.5609 101.224 75.5609 99.7852V97.352C73.3098 96.8427 71.195 95.9487 69.2933 94.7585L67.5873 96.4638C66.5683 97.4822 64.904 97.4822 63.8908 96.4638L61.1897 93.764C60.1765 92.7514 60.1765 91.0877 61.1897 90.0693L62.9015 88.3642C61.7051 86.4696 60.8165 84.3618 60.3011 82.1118H57.8781C56.4389 82.1118 55.2656 80.9336 55.2656 79.501V75.682C55.2656 74.2492 56.4389 73.071 57.8781 73.071H60.2953C60.8045 70.833 61.6814 68.7371 62.8601 66.8483L61.1423 65.1254C60.1235 64.1129 60.1235 62.4491 61.1423 61.4308L63.8375 58.7367C64.8565 57.7184 66.5211 57.7184 67.5341 58.7367L69.2341 60.4301C71.13 59.2283 73.2387 58.334 75.4899 57.8072V55.3976C75.4899 53.9587 76.6627 52.7805 78.1022 52.7805H81.9172C83.3567 52.7805 84.5356 53.9587 84.5356 55.3976V57.7716Z" stroke="#1090D0" stroke-width="3.7832" stroke-miterlimit="10" stroke-linecap="round" stroke-linejoin="round"/>
<path d="M80.0882 66.8256C86.0356 66.8256 90.8577 71.6452 90.8577 77.5954C90.8577 83.54 86.0356 88.3594 80.0882 88.3594C74.1348 88.3594 69.3125 83.54 69.3125 77.5954C69.3125 71.6452 74.1348 66.8256 80.0882 66.8256Z" stroke="#1090D0" stroke-width="3.7832" stroke-miterlimit="10" stroke-linecap="round" stroke-linejoin="round"/>
<path d="M22.2389 82.1133H9.86977C5.59311 82.1133 2.08594 77.9275 2.08594 72.8179V13.8945C2.08594 8.77921 5.58684 4.59911 9.86977 4.59911H18.886H89.4985C93.7814 4.59911 97.2823 8.78506 97.2823 13.8945V59.6738M57.8768 82.1133H40.9169" stroke="#1090D0" stroke-width="3.7832" stroke-miterlimit="10" stroke-linecap="round" stroke-linejoin="round"/>
<path d="M31.5938 82.1133H31.6351" stroke="#1090D0" stroke-width="3.7832" stroke-miterlimit="10" stroke-linecap="round" stroke-linejoin="round"/>
</g>
</svg>
