<svg width="107" height="107" viewBox="0 0 107 107" fill="none" xmlns="http://www.w3.org/2000/svg">
<path fill-rule="evenodd" clip-rule="evenodd" d="M87.1706 91.4835H69.7199C69.1195 91.4835 68.6327 90.9966 68.6327 90.3963C68.6327 89.796 69.1195 89.309 69.7199 89.309L87.1706 89.309C90.7564 89.309 93.6736 86.3927 93.6736 82.8062L93.6737 14.6971C93.6737 11.1106 90.7563 8.19421 87.1706 8.19421L19.818 8.19402C16.2324 8.19402 13.3152 11.1106 13.3152 14.6971V82.806C13.3152 86.3925 16.2324 89.3091 19.818 89.3091L37.2688 89.309C37.8692 89.309 38.356 89.7961 38.356 90.3964C38.356 90.9964 37.8692 91.4836 37.2688 91.4836L19.818 91.4836C15.0333 91.4836 11.1406 87.5913 11.1406 82.8062V14.6971C11.1406 9.91183 15.0333 6.01972 19.818 6.01972L87.1706 6.01953C91.9553 6.01953 95.8481 9.91202 95.8481 14.6971L95.8482 82.8061C95.8482 87.5913 91.9553 91.4836 87.1706 91.4835Z" fill="#1090D0"/>
<path fill-rule="evenodd" clip-rule="evenodd" d="M94.7609 26.1335H12.2279C11.6274 26.1335 11.1406 25.6466 11.1406 25.0464C11.1406 24.4461 11.6274 23.9592 12.2279 23.9592L94.7609 23.959C95.3613 23.959 95.8481 24.4462 95.8481 25.0464C95.8482 25.6466 95.3613 26.1337 94.7609 26.1335Z" fill="#1090D0"/>
<path fill-rule="evenodd" clip-rule="evenodd" d="M22.69 17.454H28.8817V14.7019H22.69V17.454ZM29.969 19.6286H21.6028C21.0024 19.6286 20.5156 19.1418 20.5156 18.5415V13.6146C20.5156 13.0145 21.0024 12.5275 21.6028 12.5275L29.969 12.5273C30.5694 12.5273 31.0562 13.0145 31.0562 13.6148V18.5413C31.0562 19.1416 30.5694 19.6288 29.969 19.6286Z" fill="#1090D0"/>
<path fill-rule="evenodd" clip-rule="evenodd" d="M37.3542 17.454H43.546V14.7019H37.3542V17.454ZM44.6331 19.6286H36.267C35.6665 19.6286 35.1797 19.1418 35.1797 18.5415V13.6146C35.1797 13.0145 35.6665 12.5275 36.267 12.5275L44.6331 12.5273C45.2337 12.5273 45.7203 13.0145 45.7203 13.6148L45.7204 18.5413C45.7204 19.1416 45.2337 19.6288 44.6331 19.6286Z" fill="#1090D0"/>
<path fill-rule="evenodd" clip-rule="evenodd" d="M52.026 17.454H58.2179V14.7019H52.026V17.454ZM59.305 19.6286H50.9389C50.3382 19.6286 49.8516 19.1418 49.8516 18.5415V13.6146C49.8516 13.0145 50.3382 12.5275 50.9389 12.5275L59.305 12.5273C59.9056 12.5273 60.3922 13.0145 60.3922 13.6148V18.5413C60.3922 19.1416 59.9056 19.6288 59.305 19.6286Z" fill="#1090D0"/>
<path fill-rule="evenodd" clip-rule="evenodd" d="M53.4943 67.8874C47.6231 67.8874 42.8464 72.6651 42.8464 78.5356C42.8464 84.4078 47.6231 89.1836 53.4943 89.1836C59.3653 89.1835 64.142 84.408 64.142 78.5356C64.142 72.6649 59.3653 67.8874 53.4943 67.8874ZM53.4943 91.3581C46.424 91.3581 40.6719 85.6066 40.6719 78.5356C40.6719 71.4663 46.424 65.7129 53.4943 65.7129C60.5644 65.7129 66.3163 71.4664 66.3163 78.5356C66.3164 85.6066 60.5644 91.3581 53.4943 91.3581Z" fill="#1090D0"/>
<path fill-rule="evenodd" clip-rule="evenodd" d="M51.4894 98.803H55.4887V95.2579C55.4887 94.7332 55.8636 94.2841 56.3796 94.1897C58.5907 93.7837 60.6538 92.9288 62.512 91.6471C62.9439 91.3489 63.5271 91.4018 63.8981 91.7735L66.4066 94.2822L69.2343 91.4525L66.7263 88.9458C66.3551 88.574 66.3019 87.9908 66.5999 87.5586C67.8814 85.701 68.7368 83.638 69.1426 81.4257C69.2374 80.9102 69.6871 80.5347 70.2119 80.5347L73.7567 80.5345V76.5368H70.2119C69.6872 76.5368 69.2371 76.1611 69.1424 75.6458C68.7368 73.4334 67.8815 71.3703 66.6002 69.5129C66.3021 69.0805 66.3553 68.4973 66.7262 68.1255L69.2342 65.6186L66.4065 62.7911L63.8985 65.2996C63.5275 65.6696 62.9442 65.7226 62.5123 65.4243C60.6545 64.1444 58.5911 63.2875 56.3796 62.8836C55.8633 62.7892 55.4885 62.3381 55.4885 61.8133V58.2683H51.4894V61.8132C51.4894 62.3379 51.1145 62.7891 50.5982 62.8836C48.3878 63.2873 46.3247 64.1445 44.4659 65.4262C44.0338 65.7244 43.4509 65.6697 43.08 65.2997L40.5716 62.7911L37.7437 65.6186L40.2518 68.1271C40.6229 68.4973 40.6759 69.0806 40.3781 69.5129C39.0968 71.3703 38.2413 73.4335 37.8355 75.6458C37.7407 76.1611 37.2909 76.5368 36.7659 76.5368H33.2214V80.5345H36.7665C37.2914 80.5345 37.7413 80.9103 37.8361 81.4275C38.2415 83.638 39.0968 85.7011 40.3783 87.5586C40.6762 87.9907 40.6231 88.5741 40.2522 88.946L37.7437 91.4525L40.5716 94.2821L43.0797 91.7735C43.4506 91.4017 44.034 91.3489 44.4657 91.6471C46.3233 92.9288 48.3866 93.7839 50.5984 94.1897C51.1147 94.2841 51.4894 94.7334 51.4894 95.2581L51.4894 98.803ZM56.576 100.978H50.4023C49.8017 100.978 49.315 100.491 49.315 99.8904V96.1415C47.4284 95.6979 45.6448 94.958 43.9929 93.9349L41.3405 96.5868C41.1366 96.7907 40.8601 96.9061 40.5716 96.9061C40.2832 96.9058 40.0067 96.7909 39.8028 96.587L35.4375 92.2227C35.0128 91.798 35.0128 91.1091 35.4373 90.6844L38.0902 88.0322C37.0675 86.3787 36.3279 84.5969 35.8837 82.7092L32.1342 82.7091C31.5337 82.7091 31.0469 82.2242 31.0469 81.622V75.4495C31.0469 74.8491 31.5337 74.3622 32.1342 74.3622H35.8831C36.3277 72.4745 37.067 70.6927 38.0898 69.0391L35.4373 66.3869C35.2335 66.183 35.1189 65.9075 35.1189 65.6187C35.1189 65.3298 35.2335 65.0543 35.4373 64.8505L39.8028 60.4842C40.2274 60.0595 40.9159 60.0597 41.3405 60.4844L43.9933 63.1364C45.6458 62.1134 47.4292 61.3754 49.3149 60.9299L49.3149 57.181C49.3149 56.5806 49.8017 56.0938 50.4022 56.0938L56.5758 56.0938C57.1763 56.0938 57.6631 56.5808 57.6631 57.181V60.9297C59.5496 61.3753 61.333 62.1134 62.9852 63.1365L65.6378 60.4842C66.0623 60.0595 66.7507 60.0597 67.1752 60.4844L71.5407 64.8502C71.9652 65.275 71.9652 65.9622 71.5407 66.387L68.8884 69.039C69.9111 70.6925 70.6507 72.4746 71.0948 74.3622H74.8439C75.4445 74.3622 75.9311 74.8492 75.9311 75.4495L75.9312 81.6218C75.9312 82.2241 75.4445 82.7092 74.8438 82.7092L71.0951 82.7091C70.6505 84.5968 69.9111 86.3806 68.8882 88.0323L71.5407 90.6844C71.7448 90.8883 71.8591 91.1658 71.8591 91.4526C71.8594 91.7413 71.7447 92.0189 71.5407 92.2228L67.1752 96.5868C66.7507 97.0116 66.0623 97.0117 65.6377 96.587L62.9849 93.9347C61.3327 94.9578 59.549 95.6979 57.6632 96.1415L57.6633 99.8903C57.6633 100.49 57.1764 100.978 56.576 100.978Z" fill="#1090D0"/>
<path fill-rule="evenodd" clip-rule="evenodd" d="M54.2545 82.951C53.7607 82.951 53.3139 82.6113 53.1967 82.1091L51.6772 75.6062C51.5407 75.0211 51.9038 74.4379 52.4886 74.3001C53.0739 74.164 53.658 74.5266 53.7947 75.1118L55.3142 81.6146C55.4509 82.1996 55.0875 82.785 54.5029 82.9209C54.4197 82.9414 54.3365 82.951 54.2545 82.951Z" fill="#1090D0"/>
<path fill-rule="evenodd" clip-rule="evenodd" d="M49.6743 82.6429C49.4403 82.6429 49.2049 82.5674 49.0061 82.4126L45.1371 79.3923C44.873 79.1865 44.7188 78.8714 44.7188 78.5355C44.7186 78.2012 44.873 77.8842 45.1371 77.6784L49.0061 74.6601C49.4793 74.2902 50.1626 74.3751 50.532 74.8471C50.9016 75.3208 50.8173 76.0042 50.3439 76.3742L47.5732 78.5354L50.3439 80.6985C50.8173 81.0667 50.9016 81.7501 50.532 82.2239C50.3178 82.4995 49.9976 82.6429 49.6743 82.6429Z" fill="#1090D0"/>
<path fill-rule="evenodd" clip-rule="evenodd" d="M57.3068 82.6428C56.9834 82.6428 56.6632 82.4995 56.4489 82.2239C56.0796 81.75 56.1637 81.0667 56.6371 80.6986L59.4076 78.5354L56.6372 76.374C56.1637 76.0041 56.0795 75.3208 56.4489 74.847C56.8184 74.3751 57.5017 74.2902 57.9749 74.6601L61.844 77.6783C62.1081 77.8841 62.2624 78.2013 62.2622 78.5355C62.2623 78.8713 62.108 79.1866 61.844 79.3924L57.9749 82.4126C57.7763 82.5672 57.5405 82.6429 57.3068 82.6428Z" fill="#1090D0"/>
<path fill-rule="evenodd" clip-rule="evenodd" d="M77.2428 73.3088H69.289C68.6885 73.3088 68.2016 72.8239 68.2016 72.2218C68.2017 71.6214 68.6884 71.1364 69.2889 71.1364L77.2428 71.1361C81.9726 71.1361 85.8205 67.2875 85.8205 62.5571C85.8205 59.2915 84.0061 56.3525 81.0852 54.8858C80.8269 54.7575 80.6306 54.5291 80.5403 54.2554C80.4498 53.9815 80.4725 53.6815 80.6031 53.423C81.2149 52.2167 81.525 50.9143 81.525 49.5514C81.5251 44.8209 77.677 40.9741 72.9471 40.9741C70.5687 40.974 68.2758 41.9745 66.6566 43.7205C66.3658 44.0339 65.9182 44.1472 65.5125 44.0112C65.1073 43.8752 64.8196 43.5129 64.7775 43.0882C64.3424 38.6843 60.6731 35.3659 56.2421 35.3659C52.1637 35.3659 48.6261 38.2634 47.8303 42.2558C47.7606 42.6049 47.5241 42.8994 47.1973 43.041C46.8704 43.1825 46.4946 43.1562 46.1918 42.9674C44.8403 42.1312 43.2817 41.6895 41.6845 41.6895C36.9548 41.6895 33.1066 45.5364 33.1066 50.2668C33.1066 51.1842 33.2509 52.0865 33.535 52.9511C33.6614 53.334 33.5642 53.757 33.2824 54.0477C33.0007 54.3364 32.5811 54.446 32.1932 54.3328C31.4035 54.0985 30.5823 53.9797 29.7525 53.9797C25.0225 53.9796 21.1746 57.8287 21.1746 62.5571C21.1746 67.2874 25.0225 71.1364 29.7525 71.1364L37.7062 71.1361C38.3068 71.1361 38.7935 71.6214 38.7935 72.2217C38.7935 72.8238 38.3069 73.309 37.7062 73.309L29.7525 73.3088C23.8235 73.3088 19 68.4861 19 62.5571C19.0001 56.6279 23.8235 51.8052 29.7525 51.8052C30.1886 51.8051 30.6227 51.8317 31.0533 51.8826C30.9727 51.3502 30.9321 50.8105 30.9321 50.2668C30.9321 44.3377 35.7557 39.5149 41.6845 39.5149C43.205 39.5149 44.6978 39.8339 46.071 40.4493C47.5407 36.1681 51.6136 33.1914 56.242 33.1914C61.1128 33.1913 65.2496 36.3928 66.5616 40.9024C68.3984 39.5508 70.6404 38.7995 72.9471 38.7995C78.8759 38.7995 83.6995 43.6224 83.6995 49.5514C83.6995 50.9066 83.4543 52.2148 82.9695 53.455C86.0937 55.4143 87.995 58.8159 87.995 62.5571C87.995 68.486 83.1716 73.309 77.2428 73.3088Z" fill="#1090D0"/>
<path fill-rule="evenodd" clip-rule="evenodd" d="M41.4323 52.13C41.0534 52.13 40.6855 51.932 40.4854 51.579C40.1892 51.056 40.3725 50.3917 40.8949 50.0953C41.4357 49.7895 54.2118 42.6543 60.6746 48.557C61.1181 48.9609 61.1494 49.648 60.7445 50.0915C60.3394 50.5351 59.6519 50.5673 59.2085 50.1614C53.8981 45.3138 42.0861 51.9207 41.9676 51.9887C41.7981 52.0829 41.6138 52.1302 41.4323 52.13Z" fill="#1090D0"/>
</svg>
