<svg width="107" height="107" viewBox="0 0 107 107" fill="none" xmlns="http://www.w3.org/2000/svg">
<g clip-path="url(#clip0_1317_15148)">
<mask id="mask0_1317_15148" style="mask-type:luminance" maskUnits="userSpaceOnUse" x="0" y="0" width="107" height="107">
<path d="M0 1.52588e-05H107V107H0V1.52588e-05Z" fill="white"/>
</mask>
<g mask="url(#mask0_1317_15148)">
<path d="M1.5625 23.9688H79.0063" stroke="#1090D0" stroke-width="4.15039" stroke-miterlimit="10" stroke-linecap="round" stroke-linejoin="round"/>
<path d="M85.8359 23.9688H105.426" stroke="#1090D0" stroke-width="4.15039" stroke-miterlimit="10" stroke-linecap="round" stroke-linejoin="round"/>
<path d="M31.3538 1.56837H100.203C103.089 1.56837 105.428 3.90753 105.428 6.79298V100.209C105.428 103.094 103.089 105.434 100.203 105.434H6.78711C3.90187 105.434 1.5625 103.094 1.5625 100.209V6.79298C1.5625 3.90753 3.90187 1.56837 6.78711 1.56837H24.5228" stroke="#1090D0" stroke-width="4.15039" stroke-miterlimit="10" stroke-linecap="round" stroke-linejoin="round"/>
<path d="M46.5767 12.7683C46.5767 14.8218 44.9121 16.4863 42.8587 16.4863C40.8054 16.4863 39.1406 14.8218 39.1406 12.7683C39.1406 10.7148 40.8054 9.05025 42.8587 9.05025C44.9121 9.05025 46.5767 10.7148 46.5767 12.7683Z" stroke="#1090D0" stroke-width="4.15039" stroke-miterlimit="10" stroke-linecap="round" stroke-linejoin="round"/>
<path d="M31.655 12.7683C31.655 14.8218 29.9903 16.4863 27.937 16.4863C25.8835 16.4863 24.2188 14.8218 24.2188 12.7683C24.2188 10.7148 25.8835 9.05025 27.937 9.05025C29.9903 9.05025 31.655 10.7148 31.655 12.7683Z" stroke="#1090D0" stroke-width="4.15039" stroke-miterlimit="10" stroke-linecap="round" stroke-linejoin="round"/>
<path d="M16.7332 12.7683C16.7332 14.8218 15.0684 16.4863 13.0151 16.4863C10.9616 16.4863 9.29688 14.8218 9.29688 12.7683C9.29688 10.7148 10.9616 9.05025 13.0151 9.05025C15.0684 9.05025 16.7332 10.7148 16.7332 12.7683Z" stroke="#1090D0" stroke-width="4.15039" stroke-miterlimit="10" stroke-linecap="round" stroke-linejoin="round"/>
<path d="M39.2804 61.2837C40.9847 55.0313 46.7038 50.4347 53.496 50.4347C61.6328 50.4347 68.2289 57.0307 68.2289 65.1675C68.2289 73.3043 61.6328 79.9003 53.496 79.9003C46.3765 79.9003 40.4363 74.8501 39.0627 68.1367M84.1818 58.9038H76.1007C75.5469 56.7371 74.6888 54.6921 73.5758 52.8159L79.2924 47.0995C79.7948 46.5971 79.7948 45.7825 79.2924 45.2799L72.9156 38.9032C72.4132 38.4008 71.5986 38.4008 71.096 38.9032L65.3796 44.6197C63.5034 43.5069 61.4587 42.6486 59.2917 42.0948V34.0138C59.2917 33.3032 58.7158 32.727 58.0052 32.727H48.9869C48.2764 32.727 47.7004 33.3032 47.7004 34.0138V42.0948C45.5334 42.6486 43.4887 43.5069 41.6125 44.6197L35.8961 38.9032C35.3935 38.4008 34.5789 38.4008 34.0765 38.9032L27.6998 45.2799C27.1974 45.7825 27.1974 46.5971 27.6998 47.0995L33.4161 52.8159C32.3033 54.6921 31.4452 56.7371 30.8912 58.9038H22.8102C22.0996 58.9038 21.5234 59.48 21.5234 60.1905V69.2086C21.5234 69.9192 22.0996 70.4953 22.8102 70.4953H30.8912C31.4452 72.6621 32.3033 74.7068 33.4161 76.583L27.6998 82.2996C27.1974 82.802 27.1974 83.6166 27.6998 84.1192L34.0765 90.496C34.5789 90.9984 35.3935 90.9984 35.8961 90.496L41.6125 84.7794C43.4887 85.8923 45.5334 86.7506 47.7004 87.3046V95.3854C47.7004 96.0959 48.2764 96.6719 48.9869 96.6719H58.0052C58.7158 96.6719 59.2917 96.0959 59.2917 95.3854V87.3046C61.4587 86.7506 63.5034 85.8923 65.3796 84.7794L71.096 90.496C71.5986 90.9984 72.4132 90.9984 72.9156 90.496L79.2924 84.1192C79.7948 83.6166 79.7948 82.802 79.2924 82.2996L73.5758 76.583C74.6888 74.7068 75.5469 72.6621 76.1007 70.4953H84.1818C84.8925 70.4953 85.4687 69.9192 85.4687 69.2086V60.1905C85.4687 59.48 84.8925 58.9038 84.1818 58.9038Z" stroke="#1090D0" stroke-width="4.15039" stroke-miterlimit="10" stroke-linecap="round" stroke-linejoin="round"/>
<path d="M58.3863 68.793C58.3863 68.2858 58.2728 67.7848 58.0542 67.3269L54.5207 59.9302C54.1098 59.0702 52.8858 59.0702 52.475 59.9302L48.9415 67.3269C48.7229 67.7848 48.6094 68.2858 48.6094 68.793H58.3863Z" stroke="#1090D0" stroke-width="4.15039" stroke-miterlimit="10" stroke-linecap="round" stroke-linejoin="round"/>
<path d="M48.6094 78.8711V68.792" stroke="#1090D0" stroke-width="4.15039" stroke-miterlimit="10" stroke-linecap="round" stroke-linejoin="round"/>
<path d="M58.3828 68.7926V78.7305" stroke="#1090D0" stroke-width="4.15039" stroke-miterlimit="10" stroke-linecap="round" stroke-linejoin="round"/>
</g>
</g>
<defs>
<clipPath id="clip0_1317_15148">
<rect width="107" height="107" fill="white"/>
</clipPath>
</defs>
</svg>
