<svg width="107" height="107" viewBox="0 0 107 107" fill="none" xmlns="http://www.w3.org/2000/svg">
<path d="M9.91319 89.1675H19.8206C20.9149 89.1675 21.8021 88.2813 21.8021 87.1861C21.8021 86.0908 20.9149 85.2046 19.8206 85.2046H9.91319C8.82086 85.2046 7.93171 84.3164 7.93171 83.2231V21.7972H99.0799V83.2231C99.0799 84.3164 98.1907 85.2046 97.0984 85.2046H87.191C86.0967 85.2046 85.2095 86.0908 85.2095 87.1861C85.2095 88.2813 86.0967 89.1675 87.191 89.1675H97.0984C100.376 89.1675 103.043 86.5011 103.043 83.2231V11.8898C103.043 8.6118 100.376 5.94531 97.0984 5.94531H9.91319C6.63524 5.94531 3.96875 8.6118 3.96875 11.8898V83.2231C3.96875 86.5011 6.63524 89.1675 9.91319 89.1675ZM9.91319 9.90828H97.0984C98.1907 9.90828 99.0799 10.7965 99.0799 11.8898V17.8342H7.93171V11.8898C7.93171 10.7965 8.82086 9.90828 9.91319 9.90828ZM89.1725 13.8712C89.1725 12.776 90.0597 11.8898 91.1539 11.8898H93.1354C94.2297 11.8898 95.1169 12.776 95.1169 13.8712C95.1169 14.9665 94.2297 15.8527 93.1354 15.8527H91.1539C90.0597 15.8527 89.1725 14.9665 89.1725 13.8712ZM79.265 13.8712C79.265 12.776 80.1523 11.8898 81.2465 11.8898H83.228C84.3223 11.8898 85.2095 12.776 85.2095 13.8712C85.2095 14.9665 84.3223 15.8527 83.228 15.8527H81.2465C80.1523 15.8527 79.265 14.9665 79.265 13.8712ZM69.3576 13.8712C69.3576 12.776 70.2449 11.8898 71.3391 11.8898H73.3206C74.4149 11.8898 75.3021 12.776 75.3021 13.8712C75.3021 14.9665 74.4149 15.8527 73.3206 15.8527H71.3391C70.2449 15.8527 69.3576 14.9665 69.3576 13.8712ZM53.5058 37.649C36.0246 37.649 21.8021 51.8716 21.8021 69.3527C21.8021 86.8339 36.0246 101.056 53.5058 101.056C70.9869 101.056 85.2095 86.8339 85.2095 69.3527C85.2095 51.8716 70.9869 37.649 53.5058 37.649ZM53.5058 97.0935C38.2093 97.0935 25.765 84.6492 25.765 69.3527C25.765 54.0562 38.2093 41.612 53.5058 41.612C68.8023 41.612 81.2465 54.0562 81.2465 69.3527C81.2465 84.6492 68.8023 97.0935 53.5058 97.0935ZM70.5467 77.6753C71.4223 78.3313 71.5994 79.5736 70.9424 80.4482L64.998 88.3742C64.6245 88.8734 64.0372 89.1675 63.4132 89.1675H53.5058H43.5984C42.9743 89.1675 42.387 88.8734 42.0136 88.3742L36.0691 80.4482C35.4122 79.5736 35.5892 78.3313 36.4649 77.6753C37.3443 77.0194 38.5847 77.1954 39.2387 78.072L44.5891 85.2046H53.5058H62.4225L67.7728 78.072C68.4288 77.1954 69.6692 77.0194 70.5467 77.6753ZM55.4873 73.3157V75.2972C55.4873 76.3924 54.6001 77.2786 53.5058 77.2786C52.4115 77.2786 51.5243 76.3924 51.5243 75.2972V73.3157C51.5243 72.2205 52.4115 71.3342 53.5058 71.3342C54.6001 71.3342 55.4873 72.2205 55.4873 73.3157ZM46.3723 61.0301C45.4967 60.3741 45.3196 59.1318 45.9765 58.2572L51.921 50.3313C51.9437 50.3008 51.9827 50.2912 52.0071 50.2627C52.3706 49.8291 52.8958 49.5379 53.5058 49.5379C54.1158 49.5379 54.6409 49.8291 55.0045 50.2627C55.0289 50.2912 55.0678 50.3008 55.0906 50.3313L61.035 58.2572C61.692 59.1318 61.5149 60.3741 60.6393 61.0301C60.2823 61.2971 59.8653 61.4268 59.4522 61.4268C58.8494 61.4268 58.2544 61.154 57.8654 60.6334L55.4873 57.4636V67.3712C55.4873 68.4665 54.6001 69.3527 53.5058 69.3527C52.4115 69.3527 51.5243 68.4665 51.5243 67.3712V57.4636L49.1461 60.6334C48.4921 61.51 47.2508 61.688 46.3723 61.0301Z" fill="#1090D0"/>
</svg>
