<svg width="107" height="107" viewBox="0 0 107 107" fill="none" xmlns="http://www.w3.org/2000/svg">
<path d="M24.526 33.4388C25.7572 33.4388 26.7552 32.4408 26.7552 31.2096C26.7552 29.9785 25.7572 28.9805 24.526 28.9805C23.2949 28.9805 22.2969 29.9785 22.2969 31.2096C22.2969 32.4408 23.2949 33.4388 24.526 33.4388Z" fill="#1090D0"/>
<path d="M33.4323 28.9805C32.9914 28.9805 32.5604 29.1112 32.1938 29.3562C31.8272 29.6011 31.5415 29.9492 31.3728 30.3566C31.2041 30.7639 31.1599 31.2121 31.246 31.6445C31.332 32.0769 31.5443 32.4741 31.856 32.7859C32.1678 33.0976 32.565 33.31 32.9974 33.396C33.4298 33.482 33.878 33.4378 34.2854 33.2691C34.6927 33.1004 35.0408 32.8147 35.2858 32.4481C35.5307 32.0815 35.6615 31.6505 35.6615 31.2096C35.6615 30.6184 35.4266 30.0514 35.0086 29.6334C34.5905 29.2153 34.0235 28.9805 33.4323 28.9805Z" fill="#1090D0"/>
<path d="M42.3542 33.4388C43.5853 33.4388 44.5833 32.4408 44.5833 31.2096C44.5833 29.9785 43.5853 28.9805 42.3542 28.9805C41.123 28.9805 40.125 29.9785 40.125 31.2096C40.125 32.4408 41.123 33.4388 42.3542 33.4388Z" fill="#1090D0"/>
<path d="M93.625 28.9792C93.625 26.6143 92.6856 24.3463 91.0134 22.6741C89.3412 21.0019 87.0732 20.0625 84.7083 20.0625H22.2917C19.9268 20.0625 17.6588 21.0019 15.9866 22.6741C14.3144 24.3463 13.375 26.6143 13.375 28.9792V82.4792C13.375 84.844 14.3144 87.112 15.9866 88.7842C17.6588 90.4564 19.9268 91.3958 22.2917 91.3958H84.7083C87.0732 91.3958 89.3412 90.4564 91.0134 88.7842C92.6856 87.112 93.625 84.844 93.625 82.4792V40.281C93.625 40.281 93.625 40.281 93.625 40.125C93.625 39.969 93.625 40.125 93.625 39.969V28.9792ZM84.7083 86.9375H22.2917C21.1092 86.9375 19.9752 86.4678 19.1392 85.6317C18.3031 84.7956 17.8333 83.6616 17.8333 82.4792V42.3542H35.6667C36.2579 42.3542 36.8249 42.1193 37.2429 41.7013C37.661 41.2832 37.8958 40.7162 37.8958 40.125C37.8958 39.5338 37.661 38.9668 37.2429 38.5487C36.8249 38.1307 36.2579 37.8958 35.6667 37.8958H17.8333V28.9792C17.8333 27.7967 18.3031 26.6627 19.1392 25.8266C19.9752 24.9905 21.1092 24.5208 22.2917 24.5208H84.7083C85.8908 24.5208 87.0248 24.9905 87.8609 25.8266C88.697 26.6627 89.1667 27.7967 89.1667 28.9792V37.8958H71.3333C70.7421 37.8958 70.1751 38.1307 69.7571 38.5487C69.339 38.9668 69.1042 39.5338 69.1042 40.125C69.1042 40.7162 69.339 41.2832 69.7571 41.7013C70.1751 42.1193 70.7421 42.3542 71.3333 42.3542H89.1667V82.4792C89.1667 83.6616 88.697 84.7956 87.8609 85.6317C87.0248 86.4678 85.8908 86.9375 84.7083 86.9375Z" fill="#1090D0"/>
<path d="M48.2795 68.055C46.336 67.2319 44.6148 65.9605 43.2568 64.3448C41.8988 62.7291 40.9424 60.8149 40.4659 58.7587C39.9894 56.7026 40.0062 54.5629 40.5151 52.5145C41.0239 50.4661 42.0103 48.5672 43.3936 46.9731C44.7769 45.379 46.5179 44.1348 48.4741 43.3424C50.4304 42.55 52.5464 42.2318 54.6491 42.4139C56.7519 42.5959 58.7818 43.273 60.5727 44.3898C62.3637 45.5066 63.8649 47.0315 64.9537 48.8396C65.2589 49.3442 65.7517 49.7073 66.3241 49.8494C66.8965 49.9914 67.5019 49.9009 68.0076 49.5975C68.2605 49.4463 68.4809 49.2465 68.6561 49.0097C68.8312 48.7728 68.9577 48.5035 69.0282 48.2175C69.0987 47.9314 69.1118 47.6342 69.0667 47.3431C69.0216 47.0519 68.9192 46.7726 68.7655 46.5213C67.3089 44.1215 65.3063 42.0995 62.9206 40.6198C60.535 39.1401 57.8337 38.2445 55.0366 38.0059C52.2395 37.7673 49.4255 38.1924 46.8237 39.2467C44.2219 40.3009 41.9058 41.9545 40.0637 44.0729C38.2216 46.1913 36.9057 48.7146 36.2229 51.4376C35.5402 54.1606 35.51 57.0063 36.1346 59.7432C36.7593 62.48 38.0213 65.0308 39.818 67.1879C41.6146 69.3449 43.8951 71.0474 46.4739 72.1567C46.7384 72.2815 47.0285 72.3426 47.321 72.335C47.7623 72.3391 48.1949 72.212 48.564 71.9699C48.9331 71.7279 49.222 71.3817 49.3941 70.9752C49.6284 70.4396 49.6428 69.8333 49.4344 69.2871C49.2259 68.7408 48.8111 68.2984 48.2795 68.055Z" fill="#1090D0"/>
<path d="M37.3428 68.8357L27.6013 78.5772C27.1862 78.9948 26.9531 79.5598 26.9531 80.1488C26.9531 80.7377 27.1862 81.3026 27.6013 81.7203C27.8096 81.9269 28.0567 82.0904 28.3283 82.2013C28.5999 82.3122 28.8907 82.3685 29.1841 82.3668C29.7689 82.3643 30.3293 82.1321 30.7445 81.7203L40.4859 72.0011C40.6949 71.7939 40.8607 71.5474 40.9739 71.2757C41.087 71.0041 41.1453 70.7127 41.1453 70.4184C41.1453 70.1242 41.087 69.8328 40.9739 69.5611C40.8607 69.2895 40.6949 69.043 40.4859 68.8357C40.0683 68.4205 39.5033 68.1875 38.9144 68.1875C38.3255 68.1875 37.7605 68.4205 37.3428 68.8357Z" fill="#1090D0"/>
<path d="M55.7292 33.4388H82.4792C83.0704 33.4388 83.6374 33.2039 84.0554 32.7859C84.4735 32.3678 84.7083 31.8008 84.7083 31.2096C84.7083 30.6184 84.4735 30.0514 84.0554 29.6334C83.6374 29.2153 83.0704 28.9805 82.4792 28.9805H55.7292C55.138 28.9805 54.571 29.2153 54.1529 29.6334C53.7349 30.0514 53.5 30.6184 53.5 31.2096C53.5 31.8008 53.7349 32.3678 54.1529 32.7859C54.571 33.2039 55.138 33.4388 55.7292 33.4388Z" fill="#1090D0"/>
<path d="M82.4792 66.875H80.0271C79.7466 65.4803 79.1936 64.1546 78.3998 62.974L80.1385 61.2129C80.5537 60.7953 80.7868 60.2303 80.7868 59.6414C80.7868 59.0524 80.5537 58.4875 80.1385 58.0698C79.7209 57.6546 79.1559 57.4216 78.567 57.4216C77.9781 57.4216 77.4131 57.6546 76.9954 58.0698L75.2344 59.8085C74.0555 59.0069 72.7297 58.4462 71.3333 58.159V55.7292C71.3333 55.138 71.0985 54.571 70.6804 54.1529C70.2624 53.7349 69.6954 53.5 69.1042 53.5C68.513 53.5 67.946 53.7349 67.5279 54.1529C67.1099 54.571 66.875 55.138 66.875 55.7292V58.1813C65.4803 58.4617 64.1546 59.0147 62.974 59.8085L61.2129 57.9583C61.0046 57.7517 60.7576 57.5883 60.486 57.4773C60.2144 57.3664 59.9236 57.3102 59.6302 57.3119C59.322 57.2981 59.0142 57.3484 58.7264 57.4597C58.4386 57.5709 58.1771 57.7407 57.9583 57.9583C57.5431 58.376 57.3101 58.941 57.3101 59.5299C57.3101 60.1188 57.5431 60.6838 57.9583 61.1015L59.6971 62.8625C58.929 64.0876 58.4065 65.4504 58.159 66.875H55.7292C55.138 66.875 54.571 67.1099 54.1529 67.5279C53.7349 67.946 53.5 68.513 53.5 69.1042C53.5 69.6954 53.7349 70.2624 54.1529 70.6804C54.571 71.0985 55.138 71.3333 55.7292 71.3333H58.1813C58.4761 72.7237 59.028 74.0467 59.8085 75.2344L58.0698 76.9731C57.8609 77.1804 57.695 77.4269 57.5818 77.6985C57.4687 77.9702 57.4104 78.2616 57.4104 78.5558C57.4104 78.8501 57.4687 79.1415 57.5818 79.4131C57.695 79.6848 57.8609 79.9313 58.0698 80.1385C58.2781 80.3451 58.5251 80.5086 58.7967 80.6195C59.0683 80.7305 59.3591 80.7867 59.6525 80.785C59.9459 80.7867 60.2367 80.7305 60.5083 80.6195C60.7799 80.5086 61.0269 80.3451 61.2352 80.1385L62.974 78.3775C64.1534 79.1782 65.479 79.7387 66.875 80.0271V82.4792C66.875 83.0704 67.1099 83.6374 67.5279 84.0554C67.946 84.4735 68.513 84.7083 69.1042 84.7083C69.6954 84.7083 70.2624 84.4735 70.6804 84.0554C71.0985 83.6374 71.3333 83.0704 71.3333 82.4792V80.0271C72.7294 79.7387 74.0549 79.1782 75.2344 78.3775L76.9954 80.1385C77.2033 80.3449 77.4497 80.5083 77.7207 80.6195C77.9917 80.7306 78.282 80.7873 78.5749 80.7862C78.8678 80.7852 79.1576 80.7265 79.4278 80.6134C79.698 80.5004 79.9433 80.3352 80.1497 80.1274C80.3561 79.9196 80.5195 79.6731 80.6306 79.4021C80.7418 79.1311 80.7984 78.8409 80.7974 78.548C80.7964 78.2551 80.7376 77.9652 80.6246 77.695C80.5115 77.4248 80.3464 77.1795 80.1385 76.9731L78.3998 75.2344C79.1817 74.0499 79.7267 72.7251 80.0048 71.3333H82.4792C83.0704 71.3333 83.6374 71.0985 84.0554 70.6804C84.4735 70.2624 84.7083 69.6954 84.7083 69.1042C84.7083 68.513 84.4735 67.946 84.0554 67.5279C83.6374 67.1099 83.0704 66.875 82.4792 66.875ZM69.1042 75.7917C67.7815 75.7917 66.4885 75.3995 65.3888 74.6646C64.289 73.9298 63.4319 72.8853 62.9257 71.6634C62.4196 70.4414 62.2871 69.0967 62.5452 67.7995C62.8032 66.5023 63.4401 65.3107 64.3754 64.3754C65.3107 63.4401 66.5023 62.8032 67.7995 62.5452C69.0967 62.2871 70.4414 62.4196 71.6634 62.9257C72.8853 63.4319 73.9298 64.289 74.6646 65.3888C75.3995 66.4885 75.7917 67.7815 75.7917 69.1042C75.7917 70.8778 75.0871 72.5788 73.8329 73.8329C72.5788 75.0871 70.8778 75.7917 69.1042 75.7917Z" fill="#1090D0"/>
</svg>
