<svg width="111" height="111" viewBox="0 0 111 111" fill="none" xmlns="http://www.w3.org/2000/svg">
<path d="M55.5 109C85.0472 109 109 85.0472 109 55.5C109 25.9528 85.0472 2 55.5 2C25.9528 2 2 25.9528 2 55.5C2 85.0472 25.9528 109 55.5 109Z" stroke="#1090D0" stroke-width="3.9875" stroke-linecap="round" stroke-linejoin="round"/>
<path d="M60.8464 32.3158C65.7709 32.3158 69.763 28.3236 69.763 23.3991C69.763 18.4745 65.7709 14.4824 60.8464 14.4824C55.9218 14.4824 51.9297 18.4745 51.9297 23.3991C51.9297 28.3236 55.9218 32.3158 60.8464 32.3158Z" stroke="#1090D0" stroke-width="3.9875" stroke-linecap="round" stroke-linejoin="round"/>
<path d="M57.311 39.4492C45.154 39.4492 30.5931 51.9326 37.8013 51.9326C40.9596 51.9326 48.4425 47.7096 48.4425 51.9326C48.4425 53.7159 43.0158 66.1992 43.0158 80.4659C42.9964 81.8805 43.2616 83.2845 43.7955 84.5946C44.3294 85.9047 45.1211 87.0941 46.1237 88.0922C47.1263 89.0903 48.3193 89.8767 49.6318 90.4047C50.9442 90.9327 52.3495 91.1916 53.7639 91.1659C72.4283 91.1659 76.1893 80.4659 71.501 80.4659C71.3226 80.4659 59.0658 85.5698 59.0658 78.6826C59.0658 62.6326 66.1991 48.3659 66.1991 44.7992C66.1991 41.2326 62.6324 39.4492 57.311 39.4492Z" stroke="#1090D0" stroke-width="3.9875" stroke-linecap="round" stroke-linejoin="round"/>
</svg>
