<svg width="107" height="107" viewBox="0 0 107 107" fill="none" xmlns="http://www.w3.org/2000/svg">
<path d="M29.1732 49.4311H2.0888C1.39685 49.4311 0.835938 48.8702 0.835938 48.1783V39.393C0.835938 39.3777 0.835938 39.3625 0.836773 39.3474C1.0817 32.6173 6.98781 27.5973 16.25 26.246C16.934 26.1469 17.5706 26.6203 17.6707 27.3049C17.7706 27.9895 17.2964 28.6257 16.6117 28.7256C10.3589 29.6378 3.5937 32.9258 3.34187 39.4166V46.9254H29.1734C29.8653 46.9254 30.4262 47.4863 30.4262 48.1783C30.4262 48.8702 29.8651 49.4311 29.1732 49.4311ZM35.5585 32.8085C35.2812 32.8085 35.002 32.717 34.77 32.5285C32.4457 30.643 29.0221 29.2923 25.1302 28.7256C24.4455 28.6259 23.9713 27.99 24.071 27.3051C24.1707 26.6205 24.8062 26.1448 25.4915 26.246C29.886 26.8859 33.6404 28.3856 36.3487 30.5826C36.8859 31.0186 36.9683 31.8075 36.5324 32.345C36.2847 32.6501 35.9232 32.8087 35.5587 32.8087L35.5585 32.8085Z" fill="#1090D0"/>
<path d="M20.8749 29.7868C14.7061 29.7868 9.6875 24.7683 9.6875 18.5995C9.6875 12.4307 14.7061 7.41797 20.8749 7.41797C27.0437 7.41797 32.0564 12.4338 32.0564 18.5995C32.0564 24.7651 27.0405 29.7868 20.8749 29.7868ZM20.8749 9.92369C16.0879 9.92369 12.1932 13.8156 12.1932 18.5995C12.1932 23.3833 16.0879 27.2811 20.8749 27.2811C25.6618 27.2811 29.5506 23.3865 29.5506 18.5995C29.5506 13.8125 25.6587 9.92369 20.8749 9.92369Z" fill="#1090D0"/>
<path d="M104.911 49.4311H77.8264C77.1344 49.4311 76.5735 48.8702 76.5735 48.1782C76.5735 47.4863 77.1344 46.9254 77.8264 46.9254H103.658V39.4166C103.406 32.9257 96.6408 29.6378 90.388 28.7256C89.7032 28.6257 89.2292 27.9897 89.3291 27.3049C89.429 26.62 90.0647 26.1461 90.7498 26.246C100.012 27.5973 105.918 32.6173 106.163 39.3474C106.164 39.3627 106.164 39.3779 106.164 39.393V48.1782C106.164 48.8702 105.603 49.4311 104.911 49.4311H104.911ZM71.4411 32.8085C71.0764 32.8085 70.7148 32.6501 70.4674 32.3448C70.0315 31.8075 70.1138 31.0183 70.6511 30.5824C73.3587 28.3858 77.111 26.8863 81.5022 26.2458C82.1866 26.1457 82.823 26.62 82.9229 27.3047C83.0228 27.9893 82.5486 28.6255 81.864 28.7254C77.9754 29.2925 74.5539 30.6432 72.2298 32.5282C71.9978 32.7165 71.7186 32.8083 71.4413 32.8083L71.4411 32.8085Z" fill="#1090D0"/>
<path d="M86.1268 29.7868C79.9614 29.7868 74.9453 24.7683 74.9453 18.5995C74.9453 12.4307 79.9611 7.41797 86.1268 7.41797C92.2925 7.41797 97.3142 12.4338 97.3142 18.5995C97.3142 24.7651 92.2956 29.7868 86.1268 29.7868ZM86.1268 9.92369C81.343 9.92369 77.451 13.8156 77.451 18.5995C77.451 23.3833 81.343 27.2811 86.1268 27.2811C90.9107 27.2811 94.8084 23.3865 94.8084 18.5995C94.8084 13.8125 90.9138 9.92369 86.1268 9.92369Z" fill="#1090D0"/>
<path d="M77.8284 55.1538H69.8606C69.1687 55.1538 68.6078 54.5929 68.6078 53.9009C68.6078 53.209 69.1687 52.6481 69.8606 52.6481H76.5755V42.5447C76.2426 33.9074 67.3202 29.5442 59.0758 28.3409C58.3912 28.2408 57.9172 27.6048 58.0171 26.9202C58.1172 26.2356 58.7523 25.7614 59.438 25.8613C71.2402 27.5841 78.7667 33.9502 79.0806 42.4751C79.0812 42.4906 79.0815 42.5058 79.0815 42.5213V53.9013C79.0815 54.5933 78.5205 55.1542 77.8286 55.1542L77.8284 55.1538ZM37.1425 55.1538H29.1747C28.4828 55.1538 27.9219 54.5929 27.9219 53.9009V42.5209C27.9219 42.5054 27.9219 42.4902 27.9227 42.4747C28.2366 33.9498 35.7632 27.5839 47.5654 25.8609C48.2515 25.7614 48.8861 26.2349 48.9862 26.9198C49.0861 27.6044 48.6122 28.2406 47.9275 28.3405C39.6831 29.5438 30.7607 33.907 30.4278 42.5443V52.6476H37.1427C37.8346 52.6476 38.3955 53.2085 38.3955 53.9005C38.3955 54.5924 37.8346 55.1534 37.1427 55.1534L37.1425 55.1538Z" fill="#1090D0"/>
<path d="M53.4966 29.7101C45.7142 29.7101 39.3828 23.3788 39.3828 15.5962C39.3828 7.8136 45.7142 1.47656 53.4966 1.47656C61.2789 1.47656 67.6162 7.81067 67.6162 15.5962C67.6162 23.3817 61.2821 29.7101 53.4966 29.7101ZM53.4966 3.98229C47.096 3.98229 41.8885 9.19227 41.8885 15.5962C41.8885 22.0001 47.0958 27.2042 53.4966 27.2042C59.8973 27.2042 65.1105 21.9969 65.1105 15.5962C65.1105 9.1954 59.9005 3.98229 53.4966 3.98229Z" fill="#1090D0"/>
<path d="M76.2524 97.1901C75.9318 97.1901 75.611 97.0678 75.3665 96.8231L66.2732 87.7298C65.7839 87.2405 65.7839 86.4472 66.2732 85.9578C66.7624 85.4683 67.5559 85.4683 68.0452 85.9578L77.1385 95.0511C77.6277 95.5403 77.6277 96.3336 77.1385 96.8231C76.894 97.0678 76.5732 97.1901 76.2526 97.1901H76.2524ZM80.2866 93.1558C79.9658 93.1558 79.645 93.0336 79.4003 92.7886L70.313 83.6953C69.824 83.2059 69.8242 82.4126 70.3137 81.9233C70.8031 81.4343 71.5964 81.4343 72.0857 81.924L81.1729 91.0173C81.6619 91.5067 81.6617 92.3 81.1723 92.7893C80.9278 93.0336 80.6072 93.1558 80.2866 93.1558Z" fill="#1090D0"/>
<path d="M53.4966 92.7616C47.1886 92.7616 41.2582 90.3037 36.7985 85.8408C32.339 81.3813 29.8828 75.4516 29.8828 69.144C29.8828 62.8365 32.339 56.9067 36.7987 52.447C46.0041 43.2417 60.9872 43.2417 70.1984 52.4468C74.6585 56.9069 77.1147 62.8367 77.1147 69.144C77.1147 75.4514 74.6586 81.3813 70.1988 85.841C65.7391 90.3008 59.8046 92.7613 53.4966 92.7613V92.7616ZM53.4966 48.0477C48.0904 48.0477 42.685 50.1047 38.5707 54.219C30.3409 62.4488 30.3409 75.8395 38.5707 84.0693C42.5575 88.0588 47.8582 90.2556 53.4966 90.2556C59.135 90.2556 64.4375 88.0586 68.4268 84.0693C76.6567 75.8395 76.6567 62.4488 68.4268 54.219C64.3099 50.1047 58.9028 48.0477 53.4966 48.0477Z" fill="#1090D0"/>
<path d="M53.4976 88.031C48.6569 88.031 43.8187 86.1898 40.1352 82.5062C32.7674 75.1385 32.7674 63.1503 40.1352 55.7826C47.5015 48.4165 59.4922 48.4161 66.8643 55.7822C74.2324 63.1503 74.2324 75.1385 66.8647 82.5062C63.1788 86.189 58.3371 88.031 53.4976 88.031ZM41.9072 57.5543C35.5164 63.9451 35.5164 74.3435 41.9072 80.7343C45.1017 83.9286 49.3 85.5261 53.4979 85.5263C57.6968 85.5265 61.8953 83.929 65.0934 80.7339C71.4837 74.3435 71.4837 63.9451 65.0929 57.5543C58.6984 51.1655 48.2969 51.1661 41.9072 57.5543Z" fill="#1090D0"/>
<path d="M83.2086 105.522H83.2011C82.4976 105.52 81.8385 105.245 81.3455 104.746L75.3729 98.7738C74.8772 98.2837 74.6016 97.6212 74.6016 96.9134C74.6016 96.2056 74.8772 95.5431 75.3777 95.048L79.4069 91.0186C80.4345 89.9912 82.1064 89.9912 83.1338 91.0186L89.1053 96.9901C89.6027 97.4875 89.8766 98.1491 89.8766 98.8536C89.8766 99.5581 89.6027 100.22 89.1053 100.717L85.071 104.751C84.5735 105.249 83.9124 105.523 83.2088 105.523L83.2086 105.522ZM81.2705 92.7534C81.237 92.7534 81.2038 92.7659 81.1789 92.7906L77.1449 96.8248C77.1131 96.8561 77.1075 96.8898 77.1075 96.9134C77.1075 96.937 77.1131 96.9704 77.1399 96.997L83.1221 102.979C83.1482 103.005 83.1754 103.016 83.208 103.016C83.2399 103.026 83.2742 103.004 83.2993 102.979L87.3335 98.9447C87.383 98.8952 87.383 98.8112 87.3335 98.7617L81.3622 92.7903C81.3373 92.7655 81.3041 92.7531 81.2707 92.7531L81.2705 92.7534Z" fill="#1090D0"/>
<path d="M59.2352 79.23C59.0154 79.23 58.7949 79.1723 58.5976 79.0557L53.495 76.0384L48.3925 79.0557C47.9622 79.31 47.4222 79.2845 47.018 78.9905C46.6138 78.6966 46.4228 78.1907 46.5321 77.7031L47.8272 71.922L43.3775 67.9989C43.0026 67.6683 42.86 67.1467 43.0147 66.6713C43.1693 66.196 43.5917 65.8581 44.0895 65.8115L49.9966 65.2585L52.3446 59.8153C52.5425 59.3562 52.9945 59.0588 53.4944 59.0586H53.4948C53.9947 59.0586 54.4465 59.3556 54.6449 59.8143L56.9984 65.2585L62.9004 65.8115C63.398 65.8581 63.8203 66.196 63.975 66.6713C64.1296 67.1465 63.9871 67.6683 63.6122 67.9987L59.1625 71.9218L60.4576 77.7029C60.5669 78.1905 60.3758 78.6964 59.9717 78.9903C59.7529 79.1493 59.4941 79.2298 59.2348 79.2298L59.2352 79.23ZM53.495 73.3297C53.7155 73.3297 53.936 73.3878 54.1329 73.504L57.3794 75.424L56.5556 71.7465C56.4555 71.3003 56.6066 70.8351 56.9495 70.5327L59.7811 68.0364L56.0262 67.6846C55.5707 67.642 55.1746 67.3542 54.993 66.9344L53.4963 63.4723L52.0033 66.9335C51.8219 67.354 51.4255 67.6422 50.9697 67.6848L47.2092 68.0368L50.0405 70.5329C50.3835 70.8353 50.5346 71.3005 50.4345 71.7467L49.6106 75.4242L52.8572 73.5042C53.0539 73.388 53.2746 73.3299 53.495 73.3299V73.3297Z" fill="#1090D0"/>
</svg>
