<svg width="107" height="107" viewBox="0 0 107 107" fill="none" xmlns="http://www.w3.org/2000/svg">
<path d="M22.7426 47.6543C21.9743 47.6543 21.3516 48.2771 21.3516 49.0453V54.3798C21.3516 55.148 21.9743 55.7708 22.7426 55.7708C23.5108 55.7708 24.1336 55.148 24.1336 54.3798V49.0453C24.1336 48.2771 23.5108 47.6543 22.7426 47.6543Z" fill="#1090D0"/>
<path d="M48.7786 51.712C48.7786 49.0211 46.8086 46.7826 44.2353 46.3603V41.6255C44.2353 41.151 43.9934 40.7092 43.5938 40.4536C43.194 40.1979 42.6914 40.1635 42.2608 40.3628L26.698 47.5552C26.2058 47.7827 25.8906 48.2756 25.8906 48.8179V54.6062C25.8906 55.1485 26.2058 55.6414 26.698 55.8688L27.7563 56.3579V58.4709C27.7563 60.0698 28.6986 61.5265 30.157 62.1821C30.6926 62.4227 31.2611 62.5417 31.8273 62.5417C32.598 62.5416 33.3641 62.3211 34.0351 61.8871C34.7555 61.421 35.2957 60.7537 35.6032 59.9843L42.2608 63.0612C42.4467 63.1471 42.6457 63.1895 42.8443 63.1895C43.1059 63.1895 43.3664 63.1157 43.5938 62.9704C43.9935 62.7148 44.2354 62.273 44.2354 61.7985V57.0638C46.8086 56.6414 48.7786 54.4029 48.7786 51.712ZM32.524 59.5512C32.1503 59.7929 31.7031 59.827 31.2976 59.6445C30.8363 59.4372 30.5383 58.9765 30.5383 58.4709V57.6436L33.0665 58.812C32.9858 59.1137 32.7984 59.3737 32.524 59.5512ZM41.4534 59.6232L28.6726 53.7166V49.7074L41.4534 43.8007V59.6232ZM44.2354 54.2001V49.2239C45.2598 49.5879 45.9966 50.5643 45.9966 51.712C45.9966 52.8597 45.2597 53.8361 44.2354 54.2001Z" fill="#1090D0"/>
<path d="M88.982 17.4785H18.0189C14.5493 17.4785 11.7266 20.3012 11.7266 23.7707V83.2297C11.7266 86.6992 14.5493 89.5219 18.0189 89.5219H88.982C92.4516 89.5219 95.2743 86.6992 95.2743 83.2297V23.7707C95.2743 20.3012 92.4516 17.4785 88.982 17.4785ZM18.0189 20.2605H88.982C90.9176 20.2605 92.4923 21.8352 92.4923 23.7707V31.5903H14.5086V23.7707C14.5086 21.8352 16.0833 20.2605 18.0189 20.2605ZM88.982 86.7399H18.0189C16.0833 86.7399 14.5086 85.1652 14.5086 83.2297V34.3723H92.4923V83.2297C92.4923 85.1652 90.9176 86.7399 88.982 86.7399Z" fill="#1090D0"/>
<path d="M20.8598 27.3484H21.4027C22.1709 27.3484 22.7937 26.7256 22.7937 25.9574C22.7937 25.1892 22.1709 24.5664 21.4027 24.5664H20.8598C20.0915 24.5664 19.4688 25.1892 19.4688 25.9574C19.4688 26.7256 20.0915 27.3484 20.8598 27.3484Z" fill="#1090D0"/>
<path d="M32.5316 27.3484H33.0747C33.8429 27.3484 34.4657 26.7256 34.4657 25.9574C34.4657 25.1892 33.8429 24.5664 33.0747 24.5664H32.5316C31.7634 24.5664 31.1406 25.1892 31.1406 25.9574C31.1406 26.7256 31.7634 27.3484 32.5316 27.3484Z" fill="#1090D0"/>
<path d="M26.7035 27.3484H27.2465C28.0148 27.3484 28.6375 26.7256 28.6375 25.9574C28.6375 25.1892 28.0148 24.5664 27.2465 24.5664H26.7035C25.9353 24.5664 25.3125 25.1892 25.3125 25.9574C25.3125 26.7256 25.9353 27.3484 26.7035 27.3484Z" fill="#1090D0"/>
<path d="M84.3615 48.8992C85.1297 48.8992 85.7525 48.2764 85.7525 47.5082C85.7525 46.74 85.1297 46.1172 84.3615 46.1172H78.8285C78.0603 46.1172 77.4375 46.74 77.4375 47.5082V52.7874C77.4375 53.5557 78.0603 54.1784 78.8285 54.1784H82.9705V56.6614H78.8285C78.0603 56.6614 77.4375 57.2842 77.4375 58.0524C77.4375 58.8206 78.0603 59.4434 78.8285 59.4434H84.3615C85.1297 59.4434 85.7525 58.8206 85.7525 58.0524V52.7874C85.7525 52.0192 85.1297 51.3964 84.3615 51.3964H80.2195V48.8992H84.3615Z" fill="#1090D0"/>
<path d="M68.641 59.4434H72.2233C74.2783 59.4434 75.9503 57.7714 75.9503 55.7163V49.8442C75.9503 47.7892 74.2783 46.1172 72.2233 46.1172H68.641C67.8728 46.1172 67.25 46.74 67.25 47.5082V58.0524C67.25 58.8206 67.8728 59.4434 68.641 59.4434ZM70.032 48.8992H72.2233C72.7444 48.8992 73.1683 49.3231 73.1683 49.8442V55.7163C73.1683 56.2375 72.7444 56.6614 72.2233 56.6614H70.032V48.8992Z" fill="#1090D0"/>
<path d="M53.8554 59.6294C54.5527 59.9511 55.3792 59.6468 55.7012 58.9493L56.9768 56.1855H62.0862L63.3618 58.9493C63.5966 59.4581 64.0998 59.7577 64.6256 59.7577C64.8207 59.7577 65.0189 59.7164 65.2076 59.6294C65.9052 59.3075 66.2097 58.481 65.8878 57.7835L60.7945 46.7476C60.5671 46.2549 60.074 45.9395 59.5315 45.9395C58.989 45.9395 58.4959 46.2549 58.2685 46.7476L53.1752 57.7835C52.8533 58.481 53.1578 59.3075 53.8554 59.6294ZM59.5315 50.65L60.8023 53.4035H58.2607L59.5315 50.65Z" fill="#1090D0"/>
<path d="M84.3685 68.6836H77.9066C77.1384 68.6836 76.5156 69.3064 76.5156 70.0746C76.5156 70.8428 77.1384 71.4656 77.9066 71.4656H84.3685C85.1367 71.4656 85.7595 70.8428 85.7595 70.0746C85.7595 69.3064 85.1368 68.6836 84.3685 68.6836Z" fill="#1090D0"/>
<path d="M22.7426 71.4656H71.655C72.4233 71.4656 73.046 70.8428 73.046 70.0746C73.046 69.3064 72.4233 68.6836 71.655 68.6836H22.7426C21.9743 68.6836 21.3516 69.3064 21.3516 70.0746C21.3516 70.8428 21.9743 71.4656 22.7426 71.4656Z" fill="#1090D0"/>
<path d="M84.366 76.9609H22.7426C21.9743 76.9609 21.3516 77.5837 21.3516 78.3519C21.3516 79.1202 21.9743 79.7429 22.7426 79.7429H84.366C85.1342 79.7429 85.757 79.1202 85.757 78.3519C85.757 77.5837 85.1342 76.9609 84.366 76.9609Z" fill="#1090D0"/>
<path d="M54.4379 27.3484H84.3629C85.1311 27.3484 85.7539 26.7256 85.7539 25.9574C85.7539 25.1892 85.1311 24.5664 84.3629 24.5664H54.4379C53.6697 24.5664 53.0469 25.1892 53.0469 25.9574C53.0469 26.7256 53.6697 27.3484 54.4379 27.3484Z" fill="#1090D0"/>
</svg>
