<svg width="107" height="107" viewBox="0 0 107 107" fill="none" xmlns="http://www.w3.org/2000/svg">
<path d="M53.3147 56.3851C38.8948 56.3851 27.1641 44.6603 27.1641 30.2502C27.1641 15.8323 38.8948 4.10156 53.3147 4.10156C67.7248 4.10156 79.4476 15.8323 79.4476 30.2502C79.4476 44.6603 67.7248 56.3851 53.3147 56.3851ZM53.3147 7.12986C40.5647 7.12986 30.1924 17.5022 30.1924 30.2502C30.1924 42.9904 40.5647 53.3568 53.3147 53.3568C66.0549 53.3568 76.4193 42.9904 76.4193 30.2502C76.4193 17.5022 66.0549 7.12986 53.3147 7.12986Z" fill="#1090D0"/>
<path d="M53.3051 56.3904C52.4948 56.3904 51.6845 56.347 50.9195 56.2819L49.3462 56.0926C48.9361 56.0315 48.5477 55.9546 48.1593 55.8797C47.6093 55.7693 47.1775 55.6609 46.7654 55.5524C44.4134 54.9491 42.1264 53.9969 39.9774 52.7252C39.6107 52.5044 39.2854 52.3073 38.9818 52.0904C38.6308 51.8578 38.3528 51.6705 38.0926 51.4851C37.787 51.2663 37.4854 51.0317 37.1857 50.7951C36.8012 50.4915 36.5508 50.2943 36.3162 50.0932C35.9633 49.7935 35.7681 49.3499 35.7819 48.8886C35.9968 42.5422 39.6698 36.7991 45.3716 33.9009C46.1207 33.5263 47.0277 33.82 47.4082 34.5653C47.7867 35.3105 47.489 36.2214 46.7438 36.6019C42.2486 38.885 39.2755 43.3032 38.8536 48.2538C38.8792 48.2735 38.9049 48.2932 38.9285 48.3129C39.3268 48.6264 39.5929 48.8334 39.8571 49.0246C40.0878 49.1883 40.3402 49.3559 40.5925 49.5254C40.9809 49.7975 41.2392 49.9513 41.4975 50.105C43.4217 51.2446 45.4425 52.0865 47.5245 52.6207C47.8873 52.7154 48.2638 52.812 48.6364 52.8869C49.086 52.9756 49.431 53.0427 49.778 53.0959L51.1916 53.2674C52.5263 53.3778 54.0562 53.3798 55.4639 53.2654L56.8677 53.09C57.1871 53.0427 57.54 52.9717 57.8889 52.9027C58.3503 52.812 58.7249 52.7154 59.0817 52.6227C60.2154 52.3408 61.3273 51.9662 62.3998 51.5048C62.9874 51.2485 63.567 50.9686 64.1269 50.6512C64.5173 50.4619 64.7874 50.3101 65.0595 50.1405L65.8363 49.6496C66.1576 49.4604 66.4553 49.2474 66.7373 49.0384C67.0192 48.8334 67.2853 48.6264 67.5495 48.4174C67.6245 48.3583 67.6935 48.305 67.7585 48.2538C67.3346 43.3032 64.3615 38.885 59.8684 36.6019C59.1231 36.2214 58.8254 35.3105 59.204 34.5653C59.5825 33.82 60.4914 33.5263 61.2406 33.9009C66.9403 36.7971 70.6133 42.5402 70.8302 48.8886C70.846 49.3499 70.6488 49.7935 70.2959 50.0932C70.0613 50.2943 69.8109 50.4915 69.5566 50.6906C69.1268 51.0317 68.8251 51.2663 68.5255 51.4812C68.1785 51.7395 67.7901 52.0115 67.4017 52.2422L66.6505 52.7154C66.2937 52.9401 65.9171 53.1511 65.5188 53.3384C64.9707 53.6538 64.2965 53.9811 63.6045 54.2847C62.3703 54.8131 61.1045 55.239 59.8309 55.5564C59.4346 55.6609 59.0009 55.7693 58.5691 55.8561C58.0782 55.9527 57.6839 56.0296 57.2876 56.0887L55.7735 56.276C54.9237 56.347 54.1154 56.3904 53.3051 56.3904Z" fill="#1090D0"/>
<path d="M53.301 41.169C46.8067 41.169 41.5781 33.2315 41.5781 26.6584C41.5781 20.1956 46.8363 14.9375 53.301 14.9375C59.7637 14.9375 65.0218 20.1956 65.0218 26.6584C65.0218 33.2315 59.7933 41.169 53.301 41.169ZM53.301 17.9658C48.5062 17.9658 44.6064 21.8655 44.6064 26.6584C44.6064 31.7193 48.6994 38.1407 53.301 38.1407C57.9006 38.1407 61.9935 31.7193 61.9935 26.6584C61.9935 21.8655 58.0938 17.9658 53.301 17.9658Z" fill="#1090D0"/>
<path d="M53.311 102.897C52.4751 102.897 51.7969 102.218 51.7969 101.382V54.8696C51.7969 54.0337 52.4751 53.3555 53.311 53.3555C54.147 53.3555 54.8252 54.0337 54.8252 54.8696V101.382C54.8252 102.218 54.147 102.897 53.311 102.897Z" fill="#1090D0"/>
<path d="M70.5404 79.4854H60.6235C59.7876 79.4854 59.1094 78.8072 59.1094 77.9713V68.0544C59.1094 62.7706 63.4074 58.4727 68.6891 58.4727H78.608C79.4439 58.4727 80.1222 59.1509 80.1222 59.9868V69.9037C80.1222 75.1875 75.8242 79.4854 70.5404 79.4854ZM62.1377 76.4571H70.5404C74.1543 76.4571 77.0939 73.5176 77.0939 69.9037V61.501H68.6891C65.0773 61.501 62.1377 64.4405 62.1377 68.0544V76.4571Z" fill="#1090D0"/>
<path d="M53.686 86.3778C53.2976 86.3778 52.9112 86.23 52.6155 85.9342C52.024 85.3428 52.024 84.3846 52.6155 83.7931L69.9513 66.4553C70.5428 65.8639 71.501 65.8639 72.0924 66.4553C72.6839 67.0468 72.6839 68.005 72.0924 68.5964L54.7566 85.9342C54.4608 86.23 54.0744 86.3778 53.686 86.3778Z" fill="#1090D0"/>
<path d="M46.3756 86.3644H36.4567C31.173 86.3644 26.875 82.0664 26.875 76.7826V66.8638C26.875 66.0278 27.5532 65.3496 28.3892 65.3496H38.308C43.5918 65.3496 47.8898 69.6476 47.8898 74.9313V84.8502C47.8898 85.6862 47.2115 86.3644 46.3756 86.3644ZM29.9033 68.3779V76.7826C29.9033 80.3965 32.8429 83.3361 36.4567 83.3361H44.8615V74.9313C44.8615 71.3175 41.9219 68.3779 38.308 68.3779H29.9033Z" fill="#1090D0"/>
<path d="M53.3129 93.2548C52.9245 93.2548 52.5381 93.1069 52.2424 92.8112L34.9045 75.4753C34.3131 74.8839 34.3131 73.9257 34.9045 73.3342C35.496 72.7428 36.4542 72.7428 37.0456 73.3342L54.3835 90.6701C54.9749 91.2615 54.9749 92.2197 54.3835 92.8112C54.0877 93.1069 53.7013 93.2548 53.3129 93.2548Z" fill="#1090D0"/>
<path d="M68.0135 102.899H38.6157C37.7798 102.899 37.1016 102.221 37.1016 101.385C37.1016 100.549 37.7798 99.8711 38.6157 99.8711H68.0135C68.8494 99.8711 69.5277 100.549 69.5277 101.385C69.5277 102.221 68.8494 102.899 68.0135 102.899Z" fill="#1090D0"/>
<path d="M92.3267 75.9198C91.4907 75.9198 90.8125 75.2416 90.8125 74.4056V70.7622C90.8125 69.9263 91.4907 69.248 92.3267 69.248C93.1626 69.248 93.8408 69.9263 93.8408 70.7622V74.4056C93.8408 75.2416 93.1626 75.9198 92.3267 75.9198Z" fill="#1090D0"/>
<path d="M92.3267 65.4268C91.4907 65.4268 90.8125 64.7486 90.8125 63.9126V46.354C90.8125 45.5181 91.4907 44.8398 92.3267 44.8398C93.1626 44.8398 93.8408 45.5181 93.8408 46.354V63.9126C93.8408 64.7486 93.1626 65.4268 92.3267 65.4268Z" fill="#1090D0"/>
<path d="M98.1364 53.6842C97.748 53.6842 97.3597 53.5364 97.0639 53.2406L92.3302 48.4971L87.5847 53.2406C86.9932 53.8321 86.0351 53.8321 85.4436 53.2406C84.8521 52.6492 84.8521 51.691 85.4436 51.0995L91.2597 45.2834C91.5436 44.9995 91.928 44.8398 92.3302 44.8398C92.7324 44.8398 93.1188 44.9995 93.4027 45.2834L99.209 51.0995C99.7985 51.693 99.7985 52.6511 99.207 53.2426C98.9113 53.5364 98.5229 53.6842 98.1364 53.6842Z" fill="#1090D0"/>
<path d="M14.6704 58.7284C13.8345 58.7284 13.1562 58.0501 13.1562 57.2142V53.5727C13.1562 52.7368 13.8345 52.0586 14.6704 52.0586C15.5063 52.0586 16.1846 52.7368 16.1846 53.5727V57.2142C16.1846 58.0501 15.5063 58.7284 14.6704 58.7284Z" fill="#1090D0"/>
<path d="M14.6704 48.2354C13.8345 48.2354 13.1562 47.5572 13.1562 46.7212V29.1626C13.1562 28.3267 13.8345 27.6484 14.6704 27.6484C15.5063 27.6484 16.1846 28.3267 16.1846 29.1626V46.7212C16.1846 47.5572 15.5063 48.2354 14.6704 48.2354Z" fill="#1090D0"/>
<path d="M20.486 36.4928C20.0976 36.4928 19.7092 36.3449 19.4135 36.0492L14.6798 31.3057L9.93627 36.0492C9.3448 36.6407 8.38663 36.6407 7.79516 36.0492C7.2037 35.4577 7.2037 34.4996 7.79516 33.9081L13.6093 28.092C13.8932 27.8081 14.2776 27.6484 14.6798 27.6484C15.082 27.6484 15.4684 27.8081 15.7523 28.092L21.5586 33.9081C22.1481 34.5015 22.1481 35.4597 21.5566 36.0512C21.2609 36.3449 20.8725 36.4928 20.486 36.4928Z" fill="#1090D0"/>
</svg>
