<svg width="107" height="107" viewBox="0 0 107 107" fill="none" xmlns="http://www.w3.org/2000/svg">
<path d="M103.655 41.7296C103.655 20.5639 86.4349 3.34375 65.2688 3.34375C59.2835 3.34375 53.3549 4.76771 48.0429 7.43807C45.8229 4.9336 42.5927 3.34375 38.9906 3.34375C32.3144 3.34375 26.8825 8.77601 26.8825 15.4518C26.8825 19.0538 28.4721 22.284 30.9764 24.5041C28.3062 29.8161 26.883 35.7443 26.883 41.7296C26.883 45.9109 27.547 50.0034 28.8592 53.9206H16.4667L15.9753 50.1749C15.8057 48.4336 14.3161 47.1195 12.5105 47.1195H4.567C3.89129 47.1195 3.34375 47.6679 3.34375 48.3432V52.6472C3.34375 53.3224 3.89129 53.8708 4.567 53.8708H9.44465L13.8192 87.2284C14.0353 88.9158 15.5198 90.1884 17.2724 90.1884H57.6462C59.8234 91.6626 62.4472 92.5246 65.2688 92.5246C72.7854 92.5246 78.9008 86.4088 78.9008 78.8917C78.9008 78.4695 78.8752 78.0534 78.8375 77.6408C93.7207 72.0178 103.655 57.7152 103.655 41.7296ZM29.329 15.4518C29.329 10.1249 33.6633 5.79108 38.9906 5.79108C44.3179 5.79108 48.6526 10.1249 48.6526 15.4518C48.6526 20.7787 44.3183 25.1134 38.9906 25.1134C33.6629 25.1134 29.329 20.7795 29.329 15.4518ZM76.1432 43.234C77.8288 42.2708 79.7222 41.7636 81.7082 41.7636C87.6677 41.7636 92.5619 46.4118 92.9539 52.2738C89.8248 53.721 86.6955 54.5805 83.6265 54.8455C82.6948 50.0828 79.9503 45.964 76.1432 43.234ZM81.5133 57.682C75.2481 60.6314 68.9936 61.9002 62.8869 61.5011L63.6996 55.3036C63.7452 54.9543 63.6386 54.6025 63.4063 54.3371C63.174 54.0724 62.8389 53.9206 62.4867 53.9206H49.6458C51.6299 47.0366 57.977 42.1817 65.2688 42.1817C73.9805 42.1817 81.1142 49.0674 81.5133 57.682ZM56.2707 68.6784H50.1727L51.787 56.3679H61.0925L59.7736 66.4263C58.4882 66.9954 57.3116 67.7602 56.2707 68.6784ZM32.1113 83.4363L30.4969 71.1258H47.3842L45.77 83.4363H32.1113ZM29.6438 83.4363H20.3382L18.7234 71.1258H28.0293L29.6438 83.4363ZM49.8518 71.1258H54.0803C52.5444 73.3317 51.6371 76.0062 51.6371 78.8917C51.6371 80.4869 51.9268 82.0123 52.4326 83.4363H48.2375L49.8518 71.1258ZM47.129 53.9206H37.5717C37.7093 47.8248 42.701 42.9059 48.8293 42.9059C50.4539 42.9059 52.0369 43.2545 53.492 43.9168C50.4085 46.4146 48.1305 49.8868 47.129 53.9206ZM49.3194 56.3679L47.7052 68.6784H30.1759L28.5615 56.3679H49.3194ZM26.0939 56.3679L27.7084 68.6784H18.4024L16.7877 56.3679H26.0939ZM16.2453 86.914L11.731 52.4879C11.6514 51.8789 11.1325 51.4235 10.5182 51.4235H5.79025V49.5668H12.5105C13.0418 49.5668 13.494 49.9377 13.545 50.4528L18.0518 84.8192C18.1314 85.4282 18.6504 85.8836 19.2647 85.8836H53.5882C53.9825 86.5398 54.4244 87.1625 54.9198 87.7411H17.2724C16.7473 87.7411 16.3059 87.3877 16.2453 86.914ZM65.2688 90.0773C59.1015 90.0773 54.0836 85.0598 54.0836 78.8917C54.0836 72.7236 59.1015 67.707 65.2688 67.707C71.4361 67.707 76.4543 72.7244 76.4543 78.8917C76.4543 85.059 71.4365 90.0773 65.2688 90.0773ZM78.3796 75.2021C76.7649 69.475 71.5054 65.2597 65.2688 65.2597C64.2669 65.2597 63.2928 65.3755 62.3519 65.5817L62.5667 63.9437C63.396 64.0017 64.2266 64.0415 65.0605 64.041C71.0772 64.041 77.1943 62.5336 83.2928 59.5412C83.7117 59.3354 83.9772 58.909 83.9772 58.4428C83.9772 58.0497 83.961 57.6605 83.937 57.2733C87.5084 56.9516 91.1366 55.901 94.7413 54.1322C95.1603 53.9264 95.4258 53.5009 95.4258 53.0338C95.4258 45.4703 89.2722 39.3162 81.7082 39.3162C78.8456 39.3162 76.1413 40.184 73.8283 41.816C71.2612 40.4889 68.3523 39.7344 65.2688 39.7344C61.8235 39.7344 58.5659 40.6837 55.7593 42.343C53.6617 41.1116 51.2838 40.4586 48.8293 40.4586C41.3521 40.4586 35.2633 46.4757 35.1252 53.9206H31.4594C30.052 50.0183 29.3295 45.9234 29.3295 41.7296C29.3295 36.2565 30.6005 30.8352 32.9873 25.9531C34.759 26.9702 36.8054 27.5607 38.9907 27.5607C45.6673 27.5607 51.0991 22.1285 51.0991 15.4518C51.0991 13.2666 50.5086 11.2202 49.4914 9.44839C54.3738 7.06208 59.7955 5.79108 65.2688 5.79108C85.0856 5.79108 101.208 21.9128 101.208 41.7296C101.208 56.5516 92.0896 69.8325 78.3796 75.2021ZM81.7082 24.7973C78.1173 24.7973 75.1963 27.7192 75.1963 31.3097C75.1963 34.9002 78.1173 37.8221 81.7082 37.8221C85.2992 37.8221 88.2202 34.9002 88.2202 31.3097C88.2202 27.7192 85.2992 24.7973 81.7082 24.7973ZM81.7082 35.3748C79.4666 35.3748 77.6427 33.5513 77.6427 31.3097C77.6427 29.0681 79.4666 27.2447 81.7082 27.2447C83.9498 27.2447 85.7737 29.0681 85.7737 31.3097C85.7737 33.5513 83.9498 35.3748 81.7082 35.3748ZM48.8293 25.9397C45.2384 25.9397 42.3173 28.8616 42.3173 32.4521C42.3173 36.0426 45.2384 38.9645 48.8293 38.9645C52.4203 38.9645 55.3413 36.0426 55.3413 32.4521C55.3413 28.8616 52.4203 25.9397 48.8293 25.9397ZM48.8293 36.5171C46.5877 36.5171 44.7638 34.6937 44.7638 32.4521C44.7638 30.2105 46.5877 28.387 48.8293 28.387C51.0709 28.387 52.8948 30.2105 52.8948 32.4521C52.8948 34.6937 51.0709 36.5171 48.8293 36.5171ZM65.2688 19.4157C60.5131 19.4157 56.6442 23.2849 56.6442 28.0402C56.6442 32.7955 60.5131 36.6656 65.2688 36.6656C70.0245 36.6656 73.8933 32.7963 73.8933 28.0402C73.8933 23.2841 70.0245 19.4157 65.2688 19.4157ZM65.2688 34.2183C61.862 34.2183 59.0907 31.4474 59.0907 28.0402C59.0907 24.6331 61.862 21.863 65.2688 21.863C68.6755 21.863 71.4468 24.6339 71.4468 28.0402C71.4468 31.4466 68.6755 34.2183 65.2688 34.2183ZM26.7374 91.9887C23.5214 91.9887 20.9048 94.6053 20.9048 97.8216C20.9048 101.038 23.5214 103.655 26.7374 103.655C29.9533 103.655 32.5699 101.038 32.5699 97.8216C32.5699 94.6053 29.9533 91.9887 26.7374 91.9887ZM26.7374 101.208C24.8703 101.208 23.3513 99.6891 23.3513 97.8217C23.3513 95.9542 24.8703 94.436 26.7374 94.436C28.6044 94.436 30.1234 95.9542 30.1234 97.8217C30.1234 99.6891 28.6044 101.208 26.7374 101.208ZM51.1435 91.9887C47.9275 91.9887 45.3109 94.6053 45.3109 97.8216C45.3109 101.038 47.9275 103.655 51.1435 103.655C54.3595 103.655 56.9764 101.038 56.9764 97.8216C56.9764 94.6053 54.3599 91.9887 51.1435 91.9887ZM51.1435 101.208C49.2765 101.208 47.7575 99.6891 47.7575 97.8217C47.7575 95.9542 49.2765 94.436 51.1435 94.436C53.0105 94.436 54.5299 95.9542 54.5299 97.8217C54.5299 99.6891 53.0109 101.208 51.1435 101.208ZM62.792 75.8786C62.792 77.0235 63.3358 77.2798 65.4969 77.6905C67.3668 78.0455 70.192 78.5823 70.192 81.9057C70.192 83.8779 68.6158 85.5348 66.492 86.0047V86.9406C66.492 87.6158 65.9445 88.1642 65.2687 88.1642C64.593 88.1642 64.0455 87.6158 64.0455 86.9406V86.0047C61.9216 85.5348 60.3454 83.8779 60.3454 81.9057C60.3454 81.2304 60.893 80.682 61.5687 80.682C62.2444 80.682 62.7919 81.2304 62.7919 81.9057C62.7919 82.8755 63.926 83.6951 65.2687 83.6951C66.6114 83.6951 67.7455 82.8755 67.7455 81.9057C67.7455 80.7608 67.2017 80.5045 65.0406 80.0938C63.1706 79.7388 60.3454 79.202 60.3454 75.8786C60.3454 73.9064 61.9216 72.2495 64.0455 71.7796V70.8437C64.0455 70.1684 64.593 69.6201 65.2687 69.6201C65.9444 69.6201 66.492 70.1684 66.492 70.8437V71.7796C68.6158 72.2495 70.192 73.9064 70.192 75.8786C70.192 76.5539 69.6445 77.1023 68.9688 77.1023C68.2931 77.1023 67.7455 76.5539 67.7455 75.8786C67.7455 74.9088 66.6114 74.0892 65.2687 74.0892C63.926 74.0892 62.792 74.9088 62.792 75.8786ZM32.1908 14.9839C31.7129 14.5061 31.7129 13.7312 32.1908 13.2534C32.6686 12.7755 33.4426 12.7755 33.9205 13.2534L37.9013 17.2346L44.0612 11.0748C44.539 10.597 45.313 10.597 45.7909 11.0748C46.2687 11.5527 46.2687 12.3275 45.7909 12.8054L38.7662 19.8297C38.5273 20.0686 38.2145 20.188 37.9013 20.188C37.5882 20.188 37.2754 20.0686 37.0365 19.8297L32.1908 14.9839Z" fill="#1090D0"/>
</svg>
