<svg width="107" height="107" viewBox="0 0 107 107" fill="none" xmlns="http://www.w3.org/2000/svg">
<path d="M64.9473 44.4219H42.0574C39.9686 44.4219 38.2656 46.1203 38.2656 48.2093V60.8102C38.2656 62.899 39.9686 64.5976 42.0574 64.5976H64.9473C67.0361 64.5976 68.7362 62.8992 68.7362 60.8102V48.2093C68.736 46.1203 67.0361 44.4219 64.9473 44.4219ZM66.2643 60.81C66.2643 61.5364 65.6735 62.1287 64.9471 62.1287H42.0574C41.3281 62.1287 40.7373 61.5364 40.7373 60.81V48.2091C40.7373 47.4827 41.3281 46.8904 42.0574 46.8904H64.9473C65.6737 46.8904 66.2645 47.4827 66.2645 48.2091V60.81H66.2643Z" fill="#1090D0"/>
<path d="M52.2087 49.2195C51.835 48.9376 51.3315 48.8939 50.9157 49.105C50.4998 49.3144 50.2344 49.741 50.2344 50.2082V58.8123C50.2344 59.2796 50.4996 59.706 50.9157 59.9156C51.0935 60.0044 51.2803 60.0466 51.4703 60.0466C51.7326 60.0466 51.9917 59.9636 52.2089 59.8008L57.9689 55.4981C58.2824 55.2659 58.4663 54.8983 58.4663 54.5094C58.4663 54.1204 58.2824 53.7528 57.9689 53.5207L52.2087 49.2195ZM52.706 56.3497V52.6709L55.1656 54.5096L52.706 56.3497Z" fill="#1090D0"/>
<path d="M93.2352 23.3507H62.7842C62.6457 16.6208 61.3573 6.64453 57.2065 6.64453C56.2641 6.64453 55.4773 7.18183 54.81 8.05664C54.8029 8.06416 54.7931 8.06709 54.7862 8.07482C53.4569 9.56843 46.1083 16.9849 30.8717 16.4904H27.529C27.356 16.4904 27.1917 16.5276 27.0421 16.592C26.3217 16.7575 25.7135 17.2377 25.2406 17.9905L24.5992 17.9569C21.6147 17.9569 19.161 20.3109 18.7539 23.3507H13.769C11.7826 23.3507 10.1641 24.9664 10.1641 26.9528V82.4576C10.1641 84.444 11.7826 86.0596 13.769 86.0596H93.2352C95.2215 86.0596 96.8372 84.444 96.8372 82.4576V26.9526C96.837 24.9662 95.2215 23.3507 93.2352 23.3507ZM60.3262 24.585L60.3201 25.4517C60.1874 35.2342 58.0292 39.8655 57.2186 40.0599C57.1078 40.0336 56.981 39.9136 56.8516 39.7702C56.8198 39.7311 56.8039 39.6841 56.7665 39.6486C56.7492 39.6321 56.7308 39.6185 56.7135 39.6018C55.8907 38.4733 54.8491 35.1972 54.3655 30.2121C57.2723 29.9695 59.5728 27.5534 59.5728 24.5852C59.5728 21.6168 57.2723 19.2007 54.3651 18.9583C54.8249 14.2119 55.7847 11.0428 56.5776 9.77512C56.5927 9.7584 56.6169 9.73332 56.6307 9.71765C56.7074 9.63134 56.7494 9.52956 56.7977 9.43071C56.9396 9.26018 57.0752 9.14106 57.1943 9.1118C58.2585 9.36028 60.3262 15.0465 60.3262 24.585ZM54.0899 24.585C54.0899 23.4784 54.1233 22.436 54.1743 21.4356C55.8046 21.5836 57.1011 22.9156 57.1011 24.585C57.1011 26.2544 55.8046 27.5866 54.1745 27.7344C54.1235 26.734 54.0899 25.6916 54.0899 24.585ZM32.3666 18.9846C42.2507 18.9846 48.9196 15.7441 52.7791 13.0374C52.2625 15.2388 51.9503 17.7456 51.7816 20.1276C51.7816 20.1338 51.7781 20.1389 51.7781 20.1451C51.7781 20.1481 51.7795 20.1501 51.7795 20.1531C51.6686 21.7294 51.6182 23.2508 51.6182 24.585C51.6182 25.9102 51.6677 27.4199 51.777 28.985C51.7764 28.999 51.7689 29.0109 51.7689 29.0249C51.7689 29.0564 51.7848 29.0832 51.7871 29.1141C51.9662 31.6052 52.307 34.2204 52.8698 36.4833C43.0375 29.6765 31.7685 29.9703 27.6109 30.102C27.2021 29.8581 26.269 27.971 26.269 24.5323C26.269 21.0525 27.2276 19.1489 27.529 18.9591H30.8295C31.3507 18.9757 31.8602 18.9846 32.3666 18.9846ZM35.0129 36.5995C34.3197 36.9838 33.8917 37.7525 33.9519 38.5692L34.3498 43.4899C34.3891 44.0295 34.6633 44.5252 35.1095 44.8659L31.5196 44.5675L31.0734 38.0929C31.0132 37.2309 30.4916 36.4894 29.5603 36.09V32.5287C31.0178 32.5155 32.8708 32.5607 34.9534 32.7693L35.0129 36.5995ZM24.2605 20.4864C23.9533 21.7399 23.7972 23.1514 23.7972 24.5321C23.7972 25.6767 23.9127 26.8356 24.123 27.9166C22.45 27.651 21.1418 26.1327 21.1418 24.2247C21.1416 22.2389 22.5468 20.6528 24.2605 20.4864ZM94.3653 82.4574C94.3653 83.0829 93.859 83.5907 93.2349 83.5907H13.769C13.1421 83.5907 12.6357 83.0829 12.6357 82.4574V26.9526C12.6357 26.3271 13.1421 25.8193 13.769 25.8193H18.8885C19.5592 28.4987 21.8423 30.4899 24.5297 30.4899H24.5326L24.9543 30.5128C25.4766 31.5716 26.1846 32.2953 27.0885 32.4825V36.5891C27.0885 37.4014 27.64 38.1082 28.6076 38.2635L29.0537 44.7395C29.1472 46.0536 30.2111 47.0769 31.4861 47.1146L35.7603 47.3965H35.8204C36.3419 47.3965 36.8393 47.1796 37.1949 46.7952C37.5657 46.3959 37.7435 45.8577 37.6833 45.3152L37.5749 44.3355C37.5147 43.8066 37.2374 43.3363 36.7883 43.0153L36.4355 38.6568C37.1136 38.28 37.5237 37.555 37.4875 36.797L37.43 33.0838C42.9161 33.9582 49.4939 36.1372 55.0196 41.3974C55.6407 42.1102 56.3636 42.5271 57.2062 42.5271C61.3567 42.5271 62.6566 32.1856 62.783 25.8195H93.2347C93.8588 25.8195 94.3651 26.3273 94.3651 26.9528V82.4574H94.3653Z" fill="#1090D0"/>
<path d="M95.0051 92.9797H29.2233V90.0077C29.2233 88.9407 28.3552 88.0742 27.2881 88.0742H23.3757C22.3118 88.0742 21.4437 88.9409 21.4437 90.0077V92.9797H12.7357C12.0544 92.9797 11.5 93.5329 11.5 94.214C11.5 94.8951 12.0546 95.4482 12.7357 95.4482H21.4437V98.4202C21.4437 99.4873 22.3118 100.354 23.3757 100.354H27.2881C28.3552 100.354 29.2233 99.4871 29.2233 98.4202V95.4482H95.0051C95.6864 95.4482 96.2409 94.8951 96.2409 94.214C96.2409 93.5329 95.6862 92.9797 95.0051 92.9797ZM26.7517 97.8854H23.9153V90.5427H26.7517V97.8854Z" fill="#1090D0"/>
<path d="M32.086 23.1863L32.6496 23.1953H32.6586C33.3367 23.1953 33.8884 22.6496 33.8943 21.9715C33.9004 21.2902 33.3518 20.7326 32.6676 20.7265L32.1461 20.7176C31.4709 20.6935 30.8983 21.2404 30.8832 21.9217C30.8653 22.603 31.4049 23.1696 32.086 23.1863Z" fill="#1090D0"/>
<path d="M36.4596 23.1843H36.4928C44.396 22.9778 48.6672 20.348 48.8451 20.2364C49.4208 19.8746 49.5926 19.1152 49.234 18.5379C48.8693 17.9622 48.1157 17.7829 47.5339 18.1432C47.4977 18.1672 43.5973 20.5289 36.4266 20.7158C35.7453 20.734 35.2088 21.3005 35.227 21.9818C35.2418 22.6524 35.7936 23.1843 36.4596 23.1843Z" fill="#1090D0"/>
</svg>
