<svg width="49" height="49" viewBox="0 0 49 49" fill="none" xmlns="http://www.w3.org/2000/svg">
<path d="M26.9668 48H22.0332C21.1583 48 20.3801 47.3669 20.1828 46.4943L19.5658 43.7289C17.7538 43.2705 16.0182 42.5534 14.3968 41.5934L12.0137 43.1142C11.2508 43.5844 10.2786 43.4758 9.6413 42.8551L6.1503 39.3638C5.509 38.7398 5.39759 37.7611 5.88449 36.9892L7.40633 34.5927C6.44778 32.9835 5.73068 31.2516 5.27089 29.4345L2.4964 28.8175C1.6272 28.6168 1 27.8389 1 26.9668V22.0326C1 21.1368 1.63168 20.3532 2.50203 20.1692L5.27085 19.5437C5.73062 17.7255 6.44772 15.9925 7.40686 14.383L5.88501 11.9766C5.40429 11.2143 5.51345 10.2379 6.15024 9.60113L9.63671 6.12567C10.2724 5.50699 11.2383 5.39728 11.991 5.85561L14.3962 7.38395C16.0187 6.42283 17.7543 5.70573 19.5657 5.24795L20.1821 2.47263C20.3789 1.61757 21.1571 1 22.0331 1H26.9668C27.8801 1 28.647 1.60794 28.8308 2.47857L29.4568 5.24823C30.9984 5.64071 32.4688 6.20935 33.8311 6.94055C34.1004 7.08846 34.3622 7.23237 34.6178 7.38308L37.023 5.86097C37.7633 5.38536 38.7338 5.49028 39.3818 6.12112L42.8734 9.61298C43.4933 10.2498 43.6018 11.216 43.1432 11.9684L41.6163 14.3829C42.576 15.9924 43.2931 17.7255 43.7523 19.544L46.5177 20.1711C47.3864 20.3507 48 21.1173 48 22.0325V26.9668C48 27.8586 47.3904 28.6193 46.5177 28.8169L43.7523 29.4339C43.2931 31.2512 42.576 32.9835 41.6168 34.5927L43.1376 36.9874C43.6047 37.7531 43.4955 38.7244 42.8791 39.3581L39.387 42.8497C38.7344 43.4856 37.7639 43.5911 37.0191 43.1127L34.6247 41.5809C32.9643 42.5573 31.2287 43.2786 29.4563 43.7291L28.8291 46.4948C28.6493 47.3627 27.8649 48 26.9668 48ZM14.3889 40.3326C14.4941 40.3326 14.5999 40.3615 14.6932 40.4189C16.4005 41.473 18.2481 42.2362 20.1839 42.6872C20.4011 42.7378 20.5696 42.908 20.6177 43.1252L21.3127 46.2407C21.3902 46.5828 21.7001 46.8418 22.0332 46.8418H26.9668C27.3186 46.8418 27.6257 46.5927 27.6969 46.2491L28.4061 43.1232C28.4553 42.9069 28.6238 42.7375 28.8399 42.6872C30.7259 42.2477 32.5741 41.48 34.3323 40.4055C34.5212 40.2902 34.7598 40.2924 34.9464 40.4121L37.6451 42.1381C37.9302 42.321 38.3192 42.2732 38.5732 42.0255L42.0546 38.545C42.2972 38.2956 42.3402 37.9045 42.1547 37.5994L40.4462 34.9098C40.3269 34.722 40.3258 34.4825 40.4428 34.2933C41.4958 32.601 42.2581 30.7582 42.7106 28.8162C42.7609 28.5993 42.9312 28.4308 43.1483 28.3822L46.2638 27.6871C46.5981 27.6114 46.8418 27.3085 46.8418 26.9669V22.0327C46.8418 21.6724 46.6077 21.3724 46.2723 21.3029L43.1466 20.5942C42.93 20.5453 42.7609 20.3768 42.7106 20.1608C42.2581 18.2181 41.4953 16.3751 40.4428 14.6831C40.3257 14.4945 40.3269 14.2552 40.4456 14.0675L42.1597 11.3574C42.3379 11.0648 42.2943 10.6785 42.0489 10.4263L38.5681 6.94549C38.3192 6.70345 37.9296 6.65566 37.6462 6.83748L34.9328 8.55469C34.7428 8.67458 34.5019 8.67403 34.313 8.55441C33.9788 8.34264 33.6338 8.15373 33.29 7.96486C31.9061 7.22204 30.4109 6.65963 28.8381 6.28918C28.6227 6.23854 28.4553 6.0692 28.4061 5.85342L27.6991 2.72607C27.6279 2.38846 27.3276 2.15826 26.9668 2.15826H22.0331C21.691 2.15826 21.3879 2.39777 21.3121 2.72805L20.6181 5.8512C20.5695 6.06864 20.401 6.23916 20.1838 6.28976C18.2491 6.73993 16.4021 7.50312 14.6931 8.5581C14.5036 8.67431 14.265 8.67233 14.0784 8.55414L11.3797 6.83946C11.0879 6.66216 10.7016 6.70543 10.4499 6.95088L6.96909 10.4201C6.71345 10.6757 6.67162 11.0527 6.8639 11.3583L8.57745 14.0675C8.69623 14.2553 8.69735 14.4942 8.5803 14.6828C7.52841 16.3751 6.76551 18.2182 6.31252 20.1611C6.2622 20.3772 6.09255 20.5457 5.8765 20.5946L2.7497 21.3009C2.40361 21.3739 2.15816 21.681 2.15816 22.0327V26.967C2.15816 27.2998 2.41376 27.61 2.75196 27.6883L5.87424 28.3823C6.09196 28.4306 6.2622 28.5991 6.31252 28.816C6.76551 30.7583 7.52786 32.6011 8.5803 34.2937C8.69738 34.4826 8.69624 34.7221 8.5769 34.9099L6.86279 37.6086C6.67165 37.9117 6.7129 38.2954 6.96343 38.5397L10.455 42.031C10.7101 42.2787 11.0906 42.3225 11.3977 42.1331L14.0772 40.4235C14.1723 40.3629 14.2809 40.3326 14.3889 40.3326Z" fill="#1090D0" stroke="#1090D0" stroke-width="0.534091"/>
<path d="M24.5085 36.6701C17.7923 36.6701 12.3281 31.2059 12.3281 24.4894C12.3281 17.7732 17.7923 12.3091 24.5085 12.3091C31.2247 12.3091 36.6889 17.7732 36.6889 24.4894C36.6889 31.2059 31.2247 36.6701 24.5085 36.6701ZM24.5085 13.4673C18.4307 13.4673 13.4863 18.4117 13.4863 24.4894C13.4863 30.5672 18.4307 35.5119 24.5085 35.5119C30.5862 35.5119 35.5306 30.5672 35.5306 24.4894C35.5306 18.4117 30.5862 13.4673 24.5085 13.4673Z" fill="#1090D0" stroke="#1090D0" stroke-width="0.534091"/>
<path d="M16.59 25.5772C16.6097 25.9271 16.6922 26.211 16.8378 26.4293C17.1147 26.838 17.6032 27.0422 18.3028 27.0422C18.6161 27.0422 18.9015 26.9975 19.1591 26.9079C19.6572 26.7344 19.9063 26.4238 19.9063 25.976C19.9063 25.6402 19.8013 25.4009 19.5914 25.2582C19.3786 25.1183 19.0457 24.9965 18.5922 24.8929L17.7569 24.7041C17.2112 24.581 16.8252 24.4453 16.5983 24.2969C16.2066 24.0395 16.0107 23.6547 16.0107 23.1425C16.0107 22.5885 16.2024 22.1337 16.5857 21.7782C16.9693 21.4229 17.512 21.2451 18.2146 21.2451C18.861 21.2451 19.4102 21.4012 19.862 21.7132C20.3141 22.0253 20.5401 22.524 20.5401 23.2097H19.755C19.713 22.8795 19.6234 22.6261 19.4864 22.4499C19.2317 22.1281 18.7993 21.9672 18.1892 21.9672C17.6967 21.9672 17.3427 22.0707 17.1272 22.2778C16.9118 22.4849 16.8039 22.7255 16.8039 22.9998C16.8039 23.302 16.93 23.5231 17.1818 23.663C17.3469 23.7527 17.7206 23.8645 18.3027 23.9988L19.1674 24.1961C19.5842 24.2913 19.9062 24.4214 20.1328 24.5866C20.5245 24.8748 20.7204 25.2932 20.7204 25.8416C20.7204 26.5245 20.4721 27.0129 19.9753 27.3066C19.4786 27.6005 18.9013 27.7474 18.2438 27.7474C17.4769 27.7474 16.8768 27.5515 16.443 27.1597C16.0092 26.7708 15.7966 26.2433 15.8049 25.5771L16.59 25.5772Z" fill="#1090D0" stroke="#1090D0" stroke-width="0.534091"/>
<path d="M21.8594 21.4004H26.355V22.1561H22.6738V24.0282H26.0781V24.7418H22.6738V26.8323H26.4181V27.5669H21.8594L21.8594 21.4004Z" fill="#1090D0" stroke="#1090D0" stroke-width="0.534091"/>
<path d="M32.5936 22.2818C33.0022 22.8275 33.2065 23.5258 33.2065 24.3766C33.2065 25.2973 32.9727 26.0626 32.5054 26.6727C31.957 27.3892 31.1748 27.7472 30.1589 27.7472C29.2102 27.7472 28.4645 27.4339 27.9215 26.8071C27.4375 26.2025 27.1953 25.4386 27.1953 24.515C27.1953 23.6811 27.4025 22.9676 27.8166 22.3742C28.3482 21.6131 29.1348 21.2324 30.1756 21.2324C31.2643 21.2324 32.0703 21.5822 32.5936 22.2818ZM31.8569 26.2088C32.1857 25.6813 32.3502 25.0748 32.3502 24.3891C32.3502 23.6644 32.1606 23.0809 31.7815 22.6387C31.4021 22.1965 30.8837 21.9754 30.2262 21.9754C29.5881 21.9754 29.0676 22.1944 28.6646 22.6324C28.2616 23.0704 28.06 23.7161 28.06 24.5696C28.06 25.2524 28.2328 25.8283 28.5784 26.297C28.9241 26.7658 29.4844 27.0001 30.2597 27.0001C30.9957 27.0001 31.528 26.7363 31.8569 26.2088Z" fill="#1090D0" stroke="#1090D0" stroke-width="0.534091"/>
</svg>
