<svg width="42" height="45" viewBox="0 0 42 45" fill="none" xmlns="http://www.w3.org/2000/svg">
<path d="M21.0692 44.3511H20.9352C11.3448 44.3511 3.54238 36.5507 3.54238 26.9627V15.4881H1.54615C1.32791 15.4881 1.13077 15.3581 1.04453 15.1578C0.958308 14.9574 0.99942 14.7249 1.14943 14.5665L6.10488 9.33008C6.31135 9.11184 6.69206 9.11251 6.89808 9.32987L11.8577 14.5662C12.008 14.7247 12.0493 14.9572 11.9631 15.1576C11.8769 15.3581 11.6795 15.4881 11.4613 15.4881H9.46926V22.7078C9.46926 23.0094 9.22457 23.2541 8.92298 23.2541C8.62138 23.2541 8.37669 23.0094 8.37669 22.7078V14.9418C8.37669 14.6402 8.62138 14.3955 8.92298 14.3955H10.1916L6.50182 10.5L2.81495 14.3955H4.08865C4.39024 14.3955 4.63493 14.6402 4.63493 14.9418V26.9627C4.63493 35.9484 11.9471 43.2586 20.9352 43.2586H21.0692C30.0549 43.2586 37.3651 35.9484 37.3651 26.9627V14.9418C37.3651 14.6402 37.6097 14.3955 37.9113 14.3955H39.185L35.4984 10.5L31.8084 14.3955H33.077C33.3786 14.3955 33.6233 14.6402 33.6233 14.9418V22.7078C33.6233 23.0094 33.3786 23.2541 33.077 23.2541C32.7754 23.2541 32.5307 23.0094 32.5307 22.7078V15.4881H30.5387C30.3205 15.4881 30.1231 15.3581 30.0369 15.1576C29.9507 14.9572 29.9922 14.7247 30.1422 14.5662L35.1021 9.32987C35.2053 9.22097 35.3486 9.15918 35.4986 9.15918C35.4986 9.15918 35.4986 9.15918 35.4988 9.15918C35.6489 9.15941 35.7922 9.22097 35.8953 9.33008L40.8506 14.5665C41.0006 14.7249 41.0417 14.9574 40.9555 15.1578C40.8692 15.3581 40.6721 15.4881 40.4538 15.4881H38.4576V26.9627C38.4576 36.5507 30.6572 44.3511 21.0692 44.3511Z" fill="#1090D0" stroke="#1090D0" stroke-width="0.444444"/>
<path d="M17.2894 15.0556C16.9878 15.0556 16.7432 14.8109 16.7432 14.5093V6.89845C16.7432 6.59686 16.9878 6.35217 17.2894 6.35217H18.6191L14.8132 2.33327L11.0072 6.35217H12.3418C12.6434 6.35217 12.8881 6.59686 12.8881 6.89845V11.9148C12.8881 12.2164 12.6434 12.4611 12.3418 12.4611C12.0402 12.4611 11.7955 12.2164 11.7955 11.9148V7.44473H9.7377C9.51946 7.44473 9.32233 7.31472 9.23587 7.11425C9.14964 6.91378 9.19097 6.68132 9.34121 6.52285L14.4167 1.16336C14.6229 0.945547 15.0034 0.945547 15.2097 1.16336L20.2851 6.52285C20.4354 6.68132 20.4767 6.91379 20.3905 7.11425C20.304 7.31472 20.1069 7.44473 19.8886 7.44473H17.8357V14.5093C17.8357 14.8109 17.591 15.0556 17.2894 15.0556Z" fill="#1090D0" stroke="#1090D0" stroke-width="0.444444"/>
<path d="M24.7519 15.0556C24.4503 15.0556 24.2056 14.8109 24.2056 14.5093V7.44473H22.1479C21.9296 7.44473 21.7325 7.31472 21.646 7.11425C21.5598 6.91378 21.6011 6.68132 21.7514 6.52285L26.8268 1.16336C27.0331 0.945547 27.4136 0.945547 27.6198 1.16336L32.6953 6.52285C32.8455 6.68132 32.8868 6.91379 32.8006 7.11425C32.7142 7.31472 32.517 7.44473 32.2988 7.44473H30.2459V11.9148C30.2459 12.2164 30.0012 12.4611 29.6996 12.4611C29.398 12.4611 29.1533 12.2164 29.1533 11.9148V6.89845C29.1533 6.59686 29.398 6.35217 29.6996 6.35217H31.0293L27.2233 2.33327L23.4173 6.35217H24.7519C25.0535 6.35217 25.2982 6.59686 25.2982 6.89845V14.5093C25.2982 14.8109 25.0535 15.0556 24.7519 15.0556Z" fill="#1090D0" stroke="#1090D0" stroke-width="0.444444"/>
<path d="M21.0088 37.8304C21.0086 37.8304 21.0084 37.8304 21.0082 37.8304C18.0501 37.8304 15.2689 36.6783 13.1773 34.5867C11.0855 32.4949 9.93338 29.7135 9.93359 26.7552C9.93359 23.7966 11.086 21.0152 13.1782 18.9229C15.2697 16.8316 18.0507 15.6797 21.0091 15.6797C23.9674 15.6797 26.7486 16.8316 28.8406 18.9234C33.1587 23.2419 33.1589 30.268 28.8411 34.5858C26.7486 36.678 23.9672 37.8304 21.0088 37.8304ZM21.0091 16.772C18.3425 16.772 15.8358 17.8101 13.9507 19.6955C12.0647 21.5812 11.0262 24.0886 11.0259 26.7552C11.0257 29.4217 12.0643 31.9286 13.9498 33.8142C15.8352 35.6995 18.3419 36.7381 21.0084 36.7381C23.6751 36.7383 26.1823 35.6995 28.0685 33.8133C31.9605 29.9213 31.9603 23.5884 28.0681 19.6959C26.1825 17.8104 23.6756 16.772 21.0091 16.772Z" fill="#1090D0" stroke="#1090D0" stroke-width="0.444444"/>
<path d="M21.0151 34.2082C16.9058 34.2082 13.5625 30.8647 13.5625 26.7554C13.5625 22.646 16.9058 19.3027 21.0151 19.3027C22.5408 19.3027 24.009 19.7628 25.2607 20.6329C25.5083 20.8051 25.5696 21.1454 25.3974 21.3932C25.2251 21.6412 24.8849 21.7023 24.6371 21.5299C23.5694 20.7876 22.3168 20.3953 21.0151 20.3953C17.5081 20.3953 14.6551 23.2483 14.6551 26.7554C14.6551 30.2624 17.5081 33.1156 21.0151 33.1156C24.5222 33.1156 27.3754 30.2624 27.3754 26.7554C27.3754 26.4538 27.6201 26.2091 27.9217 26.2091C28.2233 26.2091 28.468 26.4538 28.468 26.7554C28.468 30.8647 25.1245 34.2082 21.0151 34.2082Z" fill="#1090D0" stroke="#1090D0" stroke-width="0.444444"/>
<path d="M20.4191 30.0599C20.2742 30.0599 20.1353 30.0023 20.0329 29.8999L16.2069 26.0736C15.9935 25.8603 15.9935 25.5145 16.2069 25.3011C16.4203 25.0878 16.7661 25.0878 16.9794 25.3011L20.4191 28.741L27.277 21.8832C27.4904 21.6698 27.8362 21.6698 28.0496 21.8832C28.2629 22.0965 28.2629 22.4423 28.0496 22.6557L20.8054 29.8999C20.7029 30.0023 20.564 30.0599 20.4191 30.0599Z" fill="#1090D0" stroke="#1090D0" stroke-width="0.444444"/>
</svg>
