<svg width="42" height="54" viewBox="0 0 42 54" fill="none" xmlns="http://www.w3.org/2000/svg">
<path d="M10.078 31.4652C9.8469 31.6488 9.5157 31.7381 9.07866 31.7381C8.59446 31.7381 8.21034 31.6269 7.92918 31.3986C7.64514 31.1704 7.50331 30.8169 7.50331 30.3381H5.92219L5.91103 30.3716C5.89159 31.2345 6.19759 31.8857 6.82399 32.3199C7.45291 32.7569 8.20458 32.974 9.07866 32.974C9.97218 32.974 10.6933 32.7735 11.2358 32.3699C11.7815 31.9692 12.0515 31.4181 12.0515 30.7222C12.0515 30.054 11.8175 29.5169 11.3474 29.1105C10.8797 28.7012 10.1979 28.37 9.30438 28.1169C8.71722 27.9221 8.30502 27.7328 8.0685 27.5574C7.8291 27.3792 7.70959 27.1539 7.70959 26.8781C7.70959 26.5746 7.82083 26.327 8.04079 26.1351C8.26075 25.9403 8.5725 25.8428 8.97318 25.8428C9.41562 25.8428 9.76086 25.9515 10.006 26.1711C10.2537 26.3882 10.3761 26.6999 10.3761 27.1064H11.9572L11.9684 27.0729C11.9878 26.3352 11.7236 25.7394 11.1724 25.2858C10.6241 24.8294 9.89766 24.604 8.9955 24.604C8.14663 24.604 7.44787 24.8157 6.89959 25.2358C6.35131 25.6588 6.07843 26.2046 6.07843 26.8724C6.07843 27.5348 6.32071 28.0582 6.80779 28.4423C7.29487 28.8264 8.00731 29.1605 8.94547 29.4417C9.49374 29.6116 9.87498 29.7894 10.0949 29.9788C10.312 30.1682 10.4207 30.4212 10.4207 30.733C10.4204 31.0394 10.3063 31.2845 10.078 31.4652Z" fill="#1090D0"/>
<path d="M19.0206 25.9789V24.7207H13.8125V32.8571H19.0318V31.6046H15.4437V29.2805H18.4612V28.0223H15.4437V25.9789H19.0206Z" fill="#1090D0"/>
<path d="M40.822 48.584L36.0037 43.7658C35.0573 42.8193 33.6655 42.5994 32.5078 43.0951L29.073 39.6603C34.7207 33.1609 34.4565 23.2735 28.2771 17.0941C27.417 16.2341 26.4871 15.4907 25.5047 14.8618C25.0453 15.4882 24.3052 15.8723 23.5146 15.8723H21.8694C23.5369 16.5541 25.0957 17.5704 26.4483 18.9204C31.9012 24.3733 31.9012 33.2444 26.4483 38.6973C20.9954 44.1503 12.1242 44.1503 6.67133 38.6973C1.2213 33.2444 1.2213 24.3733 6.67133 18.9204C8.14373 17.448 9.86669 16.3734 11.7038 15.697L10.006 13.5928C8.13005 14.397 6.37361 15.5634 4.84541 17.0945C-1.61514 23.5522 -1.61514 34.0656 4.84541 40.5261C11.0248 46.7055 20.9118 46.9701 27.4116 41.3221L30.8464 44.7569C30.351 45.9146 30.571 47.3064 31.5171 48.2528L36.3353 53.071C37.5741 54.3098 39.5836 54.3098 40.8223 53.071C42.0607 51.8326 42.0607 49.8228 40.822 48.584Z" fill="#1090D0"/>
<path d="M20.532 29.5194C20.532 30.5188 20.8466 31.3454 21.4726 31.997C22.099 32.6482 22.9144 32.974 23.9192 32.974C24.9297 32.974 25.748 32.6482 26.3798 31.9998C27.0087 31.3486 27.3234 30.5217 27.3234 29.5198V28.0557C27.3234 27.0621 27.0058 26.238 26.374 25.5839C25.7394 24.9298 24.9182 24.604 23.9077 24.604C22.9054 24.604 22.0929 24.9298 21.4694 25.5839C20.8459 26.238 20.5312 27.0621 20.5312 28.0557V29.5194H20.532ZM22.1602 28.0442C22.1602 27.4124 22.3132 26.8918 22.6196 26.4854C22.9285 26.0789 23.3572 25.8759 23.9084 25.8759C24.4678 25.8759 24.9049 26.0793 25.222 26.4854C25.5396 26.8918 25.698 27.4124 25.698 28.0442V29.5194C25.698 30.1653 25.5392 30.6912 25.2274 31.0977C24.9157 31.5012 24.4786 31.7046 23.9192 31.7046C23.3652 31.7046 22.931 31.5016 22.6221 31.0977C22.3132 30.6912 22.1599 30.1653 22.1599 29.5194L22.1602 28.0442Z" fill="#1090D0"/>
<path d="M20.3668 22.8874C20.5363 23.0973 20.8693 22.9097 20.7775 22.6559L17.5192 13.6462H23.5103C23.7112 13.6462 23.8224 13.4136 23.6968 13.2574L13.1074 0.0907671C12.9382 -0.119473 12.6045 0.0680865 12.6963 0.321886L15.9867 9.4288H10.0053C9.80439 9.4288 9.69279 9.66171 9.81915 9.81796L20.3668 22.8874Z" fill="#1090D0"/>
</svg>
