<svg width="67" height="65" viewBox="0 0 67 65" fill="none" xmlns="http://www.w3.org/2000/svg">
<path fill-rule="evenodd" clip-rule="evenodd" d="M64.4987 30.0553C64.4962 25.5485 61.0007 21.8585 56.5725 21.5473C56.3165 21.5295 56.0789 21.4076 55.9149 21.2101C55.7508 21.0125 55.6747 20.7567 55.704 20.5017C55.754 20.0672 55.7797 19.6254 55.7797 19.1777C55.7797 12.8461 50.6391 7.70552 44.3075 7.70552C42.8019 7.70552 41.3634 7.99603 40.0456 8.52425C39.6617 8.67824 39.2225 8.56335 38.963 8.24112C36.1827 4.78802 31.9212 2.57652 27.1471 2.57652C19.0172 2.57652 12.3729 8.98877 12.0011 17.0275C11.9796 17.4921 11.6216 17.8713 11.1589 17.9196C5.94517 18.4627 1.88121 22.8713 1.88121 28.2286V28.229C1.88121 33.9537 6.52203 38.5945 12.2467 38.5945H15.6322C16.1514 38.5945 16.5728 39.0159 16.5728 39.5351C16.5728 40.0542 16.1514 40.4757 15.6322 40.4757H12.2467C5.48306 40.4757 0 34.9926 0 28.229V28.2286C0 22.1708 4.39868 17.1407 10.1761 16.1565C10.9758 7.49066 18.2741 0.695312 27.1471 0.695312C32.2682 0.695312 36.865 2.95855 39.9903 6.5389C41.3447 6.07585 42.7969 5.8243 44.3075 5.8243C51.6774 5.8243 57.6609 11.8078 57.6609 19.1777C57.6609 19.3796 57.6563 19.5805 57.6475 19.7802C62.5994 20.5851 66.3799 24.881 66.3799 30.0601V30.0661C66.3768 35.8157 61.7149 40.4757 55.9647 40.4757H50.9149C50.3957 40.4757 49.9743 40.0542 49.9743 39.5351C49.9743 39.0159 50.3957 38.5945 50.9149 38.5945H55.9647C60.6778 38.5945 64.4987 34.7736 64.4987 30.0604C64.4988 30.7334 64.4987 30.1984 64.4987 30.0604C64.4987 30.0604 64.4987 30.0569 64.4987 30.0553C64.4987 30.0253 64.4987 30.0184 64.4987 30.0553ZM11.1502 49.9205C13.6302 50.365 15.5148 52.5353 15.5148 55.1424C15.5148 58.0704 13.1376 60.4476 10.2096 60.4476C7.2815 60.4476 4.90432 58.0704 4.90432 55.1424C4.90432 52.5353 6.78889 50.365 9.269 49.9205V43.8936C9.269 43.3741 9.69013 42.953 10.2096 42.953H17.4035V27.6066C17.4035 27.0871 17.8246 26.666 18.3441 26.666H22.5689V22.2258C22.5689 21.7067 22.9904 21.2852 23.5095 21.2852C24.0287 21.2852 24.4501 21.7067 24.4501 22.2258V26.666H29.0225V22.2258C29.0225 21.7067 29.4441 21.2852 29.9631 21.2852C30.4824 21.2852 30.9037 21.7067 30.9037 22.2258V26.666H35.4762V22.2258C35.4762 21.7067 35.8976 21.2852 36.4168 21.2852C36.9359 21.2852 37.3574 21.7067 37.3574 22.2258V26.666H41.9298V22.2258C41.9298 21.7067 42.3512 21.2852 42.8704 21.2852C43.3895 21.2852 43.811 21.7067 43.811 22.2258V26.666H48.0358C48.5553 26.666 48.9764 27.0871 48.9764 27.6066V42.953H56.1703C56.6898 42.953 57.1109 43.3741 57.1109 43.8936V49.9205C59.591 50.365 61.4756 52.5353 61.4756 55.1424C61.4756 58.0704 59.0984 60.4476 56.1703 60.4476C53.2423 60.4476 50.8652 58.0704 50.8652 55.1424C50.8652 52.5353 52.7497 50.365 55.2297 49.9205C55.2297 48.2747 55.2297 44.8342 55.2297 44.8342H48.9764V48.7174C48.9764 49.2369 48.5553 49.658 48.0358 49.658H41.303V53.891C43.7532 54.3596 45.6074 56.5159 45.6074 59.1018C45.6074 62.0298 43.2303 64.4071 40.3023 64.4071C37.3742 64.4071 34.997 62.0298 34.997 59.1018C34.997 56.4737 36.9121 54.2894 39.4217 53.8694V49.658H26.9582V53.8694C29.4678 54.2894 31.3829 56.4737 31.3829 59.1018C31.3829 62.0298 29.0057 64.4071 26.0776 64.4071C23.1497 64.4071 20.7725 62.0298 20.7725 59.1018C20.7725 56.5159 22.6267 54.3596 25.077 53.891V49.658H18.3441C17.8246 49.658 17.4035 49.2369 17.4035 48.7174V44.8342H11.1502V49.9205ZM10.2096 51.7184C8.3198 51.7184 6.78553 53.2526 6.78553 55.1424C6.78553 57.0321 8.3198 58.5664 10.2096 58.5664C12.0993 58.5664 13.6335 57.0321 13.6335 55.1424C13.6335 53.2526 12.0993 51.7184 10.2096 51.7184ZM47.0952 28.5472H19.2847V47.7768H47.0952V28.5472ZM56.1703 51.7184C54.2806 51.7184 52.7464 53.2526 52.7464 55.1424C52.7464 57.0321 54.2806 58.5664 56.1703 58.5664C58.0601 58.5664 59.5944 57.0321 59.5944 55.1424C59.5944 53.2526 58.0601 51.7184 56.1703 51.7184ZM40.3378 55.6779C40.3259 55.6779 40.3141 55.6778 40.3023 55.6778C38.4125 55.6778 36.8782 57.212 36.8782 59.1018C36.8782 60.9917 38.4125 62.5259 40.3023 62.5259C42.192 62.5259 43.7262 60.9917 43.7262 59.1018C43.7262 57.2322 42.2245 55.7104 40.3624 55.6783C40.3542 55.6782 40.346 55.678 40.3378 55.6779ZM26.0176 55.6783C24.1554 55.7104 22.6537 57.2322 22.6537 59.1018C22.6537 60.9917 24.188 62.5259 26.0776 62.5259C27.9674 62.5259 29.5017 60.9917 29.5017 59.1018C29.5017 57.212 27.9674 55.6778 26.0776 55.6778C26.0658 55.6778 26.054 55.6779 26.0422 55.6779C26.034 55.678 26.0258 55.6782 26.0176 55.6783ZM32.4455 41.9348C32.2236 42.4041 31.6623 42.6048 31.1931 42.3828C30.7237 42.1607 30.5229 41.5996 30.7451 41.1302L33.9344 34.389C34.1564 33.9198 34.7176 33.7191 35.1869 33.941C35.6562 34.1632 35.857 34.7243 35.6349 35.1937L32.4455 41.9348ZM38.7035 42.2744C38.2941 42.5935 37.7026 42.5203 37.3835 42.1109C37.0642 41.7014 37.1375 41.1099 37.547 40.7907L40.9191 38.1619L37.547 35.5332C37.1375 35.2139 37.0642 34.6224 37.3835 34.213C37.7026 33.8036 38.2941 33.7303 38.7035 34.0495L43.0272 37.4201C43.2559 37.5984 43.3896 37.8721 43.3896 38.1619C43.3896 38.4518 43.2559 38.7255 43.0272 38.9038L38.7035 42.2744ZM28.8329 40.7907C29.2424 41.1099 29.3157 41.7014 28.9965 42.1109C28.6773 42.5203 28.0858 42.5935 27.6764 42.2744L23.3527 38.9038C23.124 38.7255 22.9903 38.4518 22.9903 38.1619C22.9903 37.8721 23.124 37.5984 23.3527 37.4201L27.6764 34.0495C28.0858 33.7303 28.6773 33.8036 28.9965 34.213C29.3157 34.6224 29.2424 35.2139 28.8329 35.5332L25.4609 38.1619L28.8329 40.7907Z" fill="#1090D0"/>
</svg>
