<svg width="74" height="64" viewBox="0 0 74 64" fill="none" xmlns="http://www.w3.org/2000/svg">
<path d="M29.1678 24.643C24.2339 29.5768 24.2339 37.6051 29.1678 42.539C31.6348 45.0059 34.8753 46.2394 38.1158 46.2394C41.3564 46.2394 44.5969 45.0059 47.0638 42.539C51.9977 37.6051 51.9977 29.5768 47.0638 24.643C42.1299 19.7091 34.1017 19.7091 29.1678 24.643ZM45.771 41.2461C43.6604 43.3567 40.8889 44.412 38.1158 44.412C35.3443 44.412 32.5698 43.3567 30.4607 41.2461C26.2395 37.0249 26.2395 30.1555 30.4607 25.9343C32.5713 23.8237 35.3428 22.7684 38.1158 22.7684C40.8873 22.7684 43.6604 23.8237 45.771 25.9343C49.9937 30.1555 49.9937 37.0249 45.771 41.2461ZM68.0207 12.2595C65.0543 12.2595 62.6421 14.6716 62.6421 17.6381C62.6421 18.3949 62.8005 19.1152 63.0838 19.77L53.9165 25.7531C53.787 25.4912 53.6515 25.2308 53.5084 24.9765L55.7956 22.5415C56.2601 22.0466 56.2494 21.2821 55.7682 20.8009L50.9059 15.9386C50.4247 15.4589 49.6602 15.4467 49.1653 15.9112L46.7319 18.1984C45.5228 17.5208 44.239 16.9893 42.9035 16.6147L42.803 13.2767C42.7832 12.5976 42.2335 12.0646 41.5528 12.0646H34.6773C33.9966 12.0646 33.4484 12.5976 33.4271 13.2767L33.3266 16.6147C31.9896 16.9909 30.7043 17.5223 29.4952 18.2015L27.0648 15.9127C26.5699 15.4467 25.8039 15.4574 25.3227 15.9386L23.538 17.7233L15.1519 9.33724C15.8463 8.43117 16.259 7.29972 16.259 6.07386C16.259 3.10744 13.8469 0.695312 10.8804 0.695312C7.91402 0.695312 5.50342 3.10591 5.50342 6.07234C5.50342 9.03877 7.91555 11.4509 10.882 11.4509C11.9616 11.4509 12.9682 11.1296 13.8118 10.5798L22.2482 19.0162L20.4635 20.8009C19.9823 21.2821 19.9701 22.0466 20.4376 22.5415L22.7264 24.9719C22.0487 26.181 21.5157 27.4662 21.1396 28.8033L17.8031 28.9038C17.1224 28.9236 16.5894 29.4733 16.5894 30.154V32.6773H10.6779C10.2424 30.1449 8.0328 28.2124 5.37855 28.2124C2.41212 28.2124 0 30.6245 0 33.591C0 36.5574 2.41212 38.9695 5.37855 38.9695C8.0328 38.9695 10.2424 37.0371 10.6779 34.5047H16.5894V37.0295C16.5894 37.7102 17.1224 38.2584 17.8016 38.2797L21.1396 38.3802C21.5157 39.7172 22.0472 41.0025 22.7264 42.2116L20.4376 44.642C19.9716 45.1369 19.9823 45.9029 20.4635 46.3825L25.3258 51.2449C25.807 51.7261 26.5714 51.7367 27.0664 51.2707L29.4968 48.982C29.6384 49.0611 29.7815 49.1388 29.9247 49.2134L25.9242 54.129C25.0014 53.3859 23.8304 52.9382 22.5558 52.9382C19.5894 52.9382 17.1773 55.3503 17.1773 58.3168C17.1773 61.2832 19.5894 63.6953 22.5558 63.6953C25.5222 63.6953 27.9344 61.2832 27.9344 58.3168C27.9344 57.2934 27.6465 56.3356 27.1486 55.5209L31.6439 49.9977C32.1936 50.2139 32.7556 50.4058 33.3266 50.5672L33.4302 53.9067C33.4515 54.5859 33.9997 55.1189 34.6789 55.1189H34.6804H41.5559C42.235 55.1189 42.7848 54.5859 42.8061 53.9067L42.9096 50.5672C44.2436 50.1926 45.5258 49.6611 46.7349 48.9835L49.1684 51.2707C49.6633 51.7367 50.4292 51.7245 50.9089 51.2433L52.6937 49.4586L57.3047 54.0697C56.787 54.8965 56.4854 55.8727 56.4854 56.9173C56.4854 59.8837 58.8976 62.2959 61.864 62.2959C64.8304 62.2959 67.2425 59.8837 67.2425 56.9173C67.2425 53.9509 64.8304 51.5388 61.864 51.5388C60.6031 51.5388 59.4427 51.9758 58.5245 52.7052L53.985 48.1657L55.7697 46.381C56.2509 45.8998 56.2616 45.1354 55.7956 44.6404L53.5084 42.207C54.1845 40.9994 54.7159 39.7172 55.0921 38.3817L58.4316 38.2782C59.1108 38.2568 59.6437 37.7086 59.6437 37.0279V30.1525C59.6437 29.4733 59.1108 28.9236 58.4316 28.9022L55.0921 28.7987C54.9642 28.3434 54.8164 27.8957 54.6535 27.4541L64.0858 21.2989C65.068 22.3557 66.469 23.0181 68.0222 23.0181C70.9886 23.0181 73.4008 20.606 73.4008 17.6396C73.4008 14.6731 70.9871 12.2595 68.0207 12.2595ZM7.33079 6.07234C7.33079 4.11401 8.92364 2.52116 10.882 2.52116C12.8403 2.52116 14.4332 4.11401 14.4332 6.07234C14.4332 8.03067 12.8403 9.62352 10.882 9.62352C8.92364 9.62352 7.33079 8.03067 7.33079 6.07234ZM5.37855 37.1421C3.42022 37.1421 1.82737 35.5493 1.82737 33.591C1.82737 31.6326 3.42022 30.0398 5.37855 30.0398C7.33688 30.0398 8.92973 31.6326 8.92973 33.591C8.92973 35.5493 7.33688 37.1421 5.37855 37.1421ZM22.5543 61.8679C20.596 61.8679 19.0031 60.2751 19.0031 58.3168C19.0031 56.3584 20.596 54.7656 22.5543 54.7656C23.3918 54.7656 24.1624 55.058 24.77 55.5453L24.6634 55.6762L25.5268 56.3798C25.8907 56.9371 26.1039 57.6026 26.1039 58.3168C26.1055 60.2751 24.5126 61.8679 22.5543 61.8679ZM61.8625 53.3661C63.8208 53.3661 65.4137 54.959 65.4137 56.9173C65.4137 58.8756 63.8208 60.4685 61.8625 60.4685C59.9041 60.4685 58.3113 58.8756 58.3113 56.9173C58.3113 54.959 59.9041 53.3661 61.8625 53.3661ZM57.8149 30.7113V36.4691L54.6063 36.5681C54.0429 36.5848 53.5723 36.964 53.4322 37.5091C53.0607 38.9665 52.4835 40.3598 51.7175 41.6512C51.4297 42.1354 51.4967 42.7354 51.882 43.1466L54.0794 45.4856L50.0089 49.5561L47.6699 47.3587C47.2603 46.9734 46.6588 46.9079 46.1745 47.1942C44.8832 47.9602 43.4898 48.5373 42.0325 48.9089C41.4873 49.0474 41.1081 49.5195 41.0914 50.0814L40.9924 53.29H35.2347L35.1357 50.0814C35.1174 49.518 34.7398 49.0474 34.1946 48.9089C32.7358 48.5373 31.3409 47.9602 30.0495 47.1927C29.5653 46.9049 28.9638 46.9703 28.5541 47.3571L26.2212 49.5545L22.1507 45.4841L24.3497 43.1496C24.7349 42.74 24.8019 42.1385 24.5141 41.6542C23.7466 40.3598 23.168 38.9649 22.7964 37.5046C22.6578 36.9594 22.1858 36.5802 21.6223 36.5635L18.4153 36.4675V30.7113L21.6223 30.6154C22.1858 30.5987 22.6578 30.2195 22.7964 29.6743C23.168 28.2139 23.7466 26.8175 24.5141 25.5247C24.8019 25.0404 24.7349 24.4389 24.3497 24.0293L22.1507 21.6948L26.2212 17.6243L28.5557 19.8233C28.9653 20.2101 29.5668 20.2755 30.0511 19.9877C31.3454 19.2187 32.7403 18.6416 34.2007 18.27C34.7459 18.1299 35.1235 17.6594 35.1418 17.0959L35.2377 13.8889H40.9939L41.0899 17.0959C41.1066 17.6594 41.4843 18.1314 42.031 18.27C43.4898 18.6416 44.8847 19.2187 46.176 19.9847C46.6603 20.2725 47.2603 20.2055 47.6714 19.8202L50.0105 17.6228L54.0809 21.6933L51.882 24.0323C51.4967 24.4419 51.4312 25.0435 51.7175 25.5262C52.4835 26.8175 53.0607 28.2109 53.4322 29.6682C53.5708 30.2134 54.0429 30.5926 54.6048 30.6093L57.8149 30.7113ZM68.0207 21.1892C66.0624 21.1892 64.4695 19.5964 64.4695 17.6381C64.4695 15.6797 66.0624 14.0869 68.0207 14.0869C69.979 14.0869 71.5719 15.6797 71.5719 17.6381C71.5719 19.5964 69.979 21.1892 68.0207 21.1892ZM32.8743 29.3713C31.2465 29.3713 29.9231 30.6946 29.9231 32.3225V36.897C29.9231 37.401 30.3328 37.8107 30.8368 37.8107C31.3409 37.8107 31.7505 37.401 31.7505 36.897V35.5234H33.9982V36.897C33.9982 37.401 34.4078 37.8107 34.9118 37.8107C35.4159 37.8107 35.8255 37.401 35.8255 36.897V32.3225C35.8255 30.6946 34.5007 29.3713 32.8743 29.3713ZM31.749 33.696V32.3225C31.749 31.7027 32.253 31.1986 32.8728 31.1986C33.4926 31.1986 33.9966 31.7027 33.9966 32.3225V33.696H31.749ZM40.898 29.3713H38.4158C37.9118 29.3713 37.5021 29.7809 37.5021 30.285V36.897C37.5021 37.401 37.9118 37.8107 38.4158 37.8107C38.9199 37.8107 39.3295 37.401 39.3295 36.897V34.5047H40.898C42.3127 34.5047 43.4639 33.3534 43.4639 31.9387C43.4639 30.524 42.3127 29.3713 40.898 29.3713ZM40.898 32.6773H39.3295V31.1986H40.898C41.3061 31.1986 41.6366 31.5306 41.6366 31.9372C41.6366 32.3438 41.3061 32.6773 40.898 32.6773ZM45.3964 29.3713C45.9004 29.3713 46.3101 29.7809 46.3101 30.285V36.897C46.3101 37.401 45.9004 37.8107 45.3964 37.8107C44.8923 37.8107 44.4827 37.401 44.4827 36.897V30.285C44.4827 29.7794 44.8908 29.3713 45.3964 29.3713Z" fill="#1090D0"/>
</svg>
