<svg width="62" height="66" viewBox="0 0 62 66" fill="none" xmlns="http://www.w3.org/2000/svg">
<path d="M20.2253 1.69531H51.3867C52.5288 1.69531 53.4555 2.62193 53.4555 3.76403V21.6815M53.4555 26.1181V34.1103C53.4555 35.2537 52.5288 36.179 51.3867 36.179H10.6469C9.50478 36.179 8.57812 35.2537 8.57812 34.1103V3.76403C8.57812 2.62193 9.50478 1.69531 10.6469 1.69531H15.7885" stroke="#1090D0" stroke-width="1.90144" stroke-miterlimit="10" stroke-linecap="round" stroke-linejoin="round"/>
<path d="M53.1109 9.76953H8.92188" stroke="#1090D0" stroke-width="1.90144" stroke-miterlimit="10" stroke-linecap="round" stroke-linejoin="round"/>
<ellipse cx="21.6226" cy="5.73195" rx="0.950737" ry="0.950698" fill="#1090D0"/>
<ellipse cx="17.2945" cy="5.73195" rx="0.950737" ry="0.950698" fill="#1090D0"/>
<ellipse cx="12.9664" cy="5.73195" rx="0.950737" ry="0.950698" fill="#1090D0"/>
<path d="M24.949 26.6107L21.0625 22.7243L24.949 18.8379" stroke="#1090D0" stroke-width="1.90144" stroke-miterlimit="10" stroke-linecap="round" stroke-linejoin="round"/>
<path d="M37.0859 26.6107L40.9724 22.7243L37.0859 18.8379" stroke="#1090D0" stroke-width="1.90144" stroke-miterlimit="10" stroke-linecap="round" stroke-linejoin="round"/>
<path d="M29.2734 27.5652L32.7686 17.8848" stroke="#1090D0" stroke-width="1.90144" stroke-miterlimit="10" stroke-linecap="round" stroke-linejoin="round"/>
<path d="M30.4237 63.906V57.5898H23.6562" stroke="#1090D0" stroke-width="1.90144" stroke-miterlimit="10" stroke-linecap="round" stroke-linejoin="round"/>
<path d="M30.918 64.5773H38.0229C38.3445 64.5773 38.6051 64.3167 38.6051 63.9951V45.8947C38.6051 45.5731 38.3445 45.3125 38.0229 45.3125H24.0275C23.7059 45.3125 23.4453 45.5731 23.4453 45.8947V57.105C23.4453 57.4137 23.568 57.71 23.7864 57.9283L30.0946 64.2362C30.3129 64.4547 30.6092 64.5773 30.918 64.5773Z" stroke="#1090D0" stroke-width="1.90144" stroke-miterlimit="10" stroke-linecap="round" stroke-linejoin="round"/>
<path d="M52.869 64.0193V57.7031H46.1016" stroke="#1090D0" stroke-width="1.90144" stroke-miterlimit="10" stroke-linecap="round" stroke-linejoin="round"/>
<path d="M61.0348 59.9234V64.1128C61.0348 64.4335 60.775 64.6946 60.453 64.6946H53.3478C53.0398 64.6946 52.7431 64.5717 52.5251 64.3537L46.2173 58.0461C45.998 57.8268 45.875 57.5314 45.875 57.2221V46.0115C45.875 45.6908 46.1361 45.4297 46.4581 45.4297H60.453C60.775 45.4297 61.0348 45.6908 61.0348 46.0115V55.4868" stroke="#1090D0" stroke-width="1.90144" stroke-miterlimit="10" stroke-linecap="round" stroke-linejoin="round"/>
<path d="M7.99391 63.906V57.5898H1.22656" stroke="#1090D0" stroke-width="1.90144" stroke-miterlimit="10" stroke-linecap="round" stroke-linejoin="round"/>
<path d="M16.1598 53.4061V63.9956C16.1598 64.3176 15.8987 64.5774 15.5767 64.5774H8.47153C8.16349 64.5774 7.86686 64.4545 7.64882 64.2365L1.341 57.9289C1.12169 57.7096 1 57.4143 1 57.105V45.8956C1 45.5736 1.25987 45.3125 1.58185 45.3125H15.5767C15.8987 45.3125 16.1598 45.5736 16.1598 45.8956V48.9695" stroke="#1090D0" stroke-width="1.90144" stroke-miterlimit="10" stroke-linecap="round" stroke-linejoin="round"/>
<path d="M31.0156 45.0008V36.709" stroke="#1090D0" stroke-width="1.90144" stroke-miterlimit="10" stroke-linecap="round" stroke-linejoin="round"/>
<path d="M8.57812 44.9234V42.2874C8.57812 41.4372 9.26735 40.748 10.1176 40.748H51.916C52.7662 40.748 53.4555 41.4372 53.4555 42.2874V45.0034" stroke="#1090D0" stroke-width="1.90144" stroke-miterlimit="10" stroke-linecap="round" stroke-linejoin="round"/>
<path d="M4.22656 53.8116L6.55042 51.4878L4.22656 49.1641" stroke="#1090D0" stroke-width="1.90144" stroke-miterlimit="10" stroke-linecap="round" stroke-linejoin="round"/>
<path d="M9.8125 51.4902H12.8658" stroke="#1090D0" stroke-width="1.90144" stroke-miterlimit="10" stroke-linecap="round" stroke-linejoin="round"/>
<path d="M26.7031 53.8116L29.027 51.4878L26.7031 49.1641" stroke="#1090D0" stroke-width="1.90144" stroke-miterlimit="10" stroke-linecap="round" stroke-linejoin="round"/>
<path d="M32.2812 51.4902H35.3344" stroke="#1090D0" stroke-width="1.90144" stroke-miterlimit="10" stroke-linecap="round" stroke-linejoin="round"/>
<path d="M49.1328 53.8116L51.4567 51.4878L49.1328 49.1641" stroke="#1090D0" stroke-width="1.90144" stroke-miterlimit="10" stroke-linecap="round" stroke-linejoin="round"/>
<path d="M54.7266 51.4902H57.7797" stroke="#1090D0" stroke-width="1.90144" stroke-miterlimit="10" stroke-linecap="round" stroke-linejoin="round"/>
</svg>
