<svg width="69" height="65" viewBox="0 0 69 65" fill="none" xmlns="http://www.w3.org/2000/svg">
<path d="M53.8259 22.6651C52.9937 22.6761 52.1642 22.7612 51.3471 22.9194C49.9003 14.6753 42.7053 8.38477 34.0531 8.38477C25.4009 8.38477 18.2059 14.6753 16.7591 22.9194C15.942 22.7612 15.1125 22.6761 14.2803 22.6651C10.493 22.6651 6.8607 24.1696 4.18261 26.8477C1.50453 29.5258 0 33.1581 0 36.9454C0 40.7328 1.50453 44.3651 4.18261 47.0432C6.8607 49.7213 10.493 51.2258 14.2803 51.2258H16.4773C16.7686 51.2258 17.0481 51.1101 17.2541 50.904C17.4601 50.698 17.5758 50.4186 17.5758 50.1273C17.5758 49.836 17.4601 49.5566 17.2541 49.3506C17.0481 49.1445 16.7686 49.0288 16.4773 49.0288H14.2803C11.0756 49.0288 8.00218 47.7557 5.73611 45.4897C3.47004 43.2236 2.19697 40.1502 2.19697 36.9454C2.19697 33.7407 3.47004 30.6673 5.73611 28.4012C8.00218 26.1351 11.0756 24.8621 14.2803 24.8621C15.0332 24.8726 15.7833 24.9548 16.5206 25.1076C16.5068 25.3921 16.4773 25.6726 16.4773 25.9606C16.4748 27.9561 16.8133 29.9373 17.4782 31.8188C17.5818 32.0845 17.7847 32.2995 18.044 32.4183C18.3033 32.5371 18.5986 32.5503 18.8675 32.4553C19.1364 32.3603 19.3579 32.1644 19.4849 31.9091C19.612 31.6538 19.6348 31.359 19.5485 31.0872C18.7313 28.768 18.482 26.2867 18.8217 23.8513C19.1615 21.4159 20.0802 19.0974 21.5009 17.0904C22.9216 15.0834 24.8029 13.4463 26.987 12.3165C29.171 11.1867 31.5941 10.597 34.0531 10.597C36.5121 10.597 38.9352 11.1867 41.1192 12.3165C43.3033 13.4463 45.1846 15.0834 46.6053 17.0904C48.026 19.0974 48.9448 21.4159 49.2845 23.8513C49.6242 26.2867 49.3749 28.768 48.5577 31.0872C48.5042 31.2244 48.4788 31.3709 48.483 31.5181C48.4873 31.6653 48.5211 31.8101 48.5824 31.9439C48.6437 32.0778 48.7313 32.198 48.84 32.2973C48.9487 32.3966 49.0762 32.4731 49.2151 32.5221C49.3539 32.5712 49.5012 32.5918 49.6481 32.5829C49.7951 32.5739 49.9387 32.5354 50.0706 32.4698C50.2024 32.4042 50.3196 32.3128 50.4154 32.2009C50.5112 32.0891 50.5835 31.9591 50.628 31.8188C51.2929 29.9373 51.6314 27.9561 51.6289 25.9606C51.6289 25.6722 51.5994 25.3921 51.5856 25.1076C52.3229 24.9548 53.073 24.8726 53.8259 24.8621C57.0306 24.8621 60.104 26.1351 62.3701 28.4012C64.6362 30.6673 65.9092 33.7407 65.9092 36.9454C65.9092 40.1502 64.6362 43.2236 62.3701 45.4897C60.104 47.7557 57.0306 49.0288 53.8259 49.0288H51.6289C51.3376 49.0288 51.0582 49.1445 50.8522 49.3506C50.6461 49.5566 50.5304 49.836 50.5304 50.1273C50.5304 50.4186 50.6461 50.698 50.8522 50.904C51.0582 51.1101 51.3376 51.2258 51.6289 51.2258H53.8259C57.6133 51.2258 61.2455 49.7213 63.9236 47.0432C66.6017 44.3651 68.1062 40.7328 68.1062 36.9454C68.1062 33.1581 66.6017 29.5258 63.9236 26.8477C61.2455 24.1696 57.6133 22.6651 53.8259 22.6651Z" fill="#1090D0"/>
<path d="M44.8583 23.9623C44.9789 24.6217 45.0395 25.2906 45.0396 25.9609C45.0396 26.2522 45.1553 26.5316 45.3613 26.7376C45.5673 26.9436 45.8467 27.0593 46.1381 27.0593C46.4294 27.0593 46.7088 26.9436 46.9148 26.7376C47.1208 26.5316 47.2365 26.2522 47.2365 25.9609C47.2367 25.1574 47.1638 24.3557 47.0188 23.5655C46.9615 23.2834 46.7958 23.0351 46.5574 22.874C46.319 22.7128 46.0268 22.6516 45.7438 22.7036C45.4607 22.7556 45.2094 22.9166 45.0438 23.152C44.8782 23.3874 44.8116 23.6783 44.8583 23.9623Z" fill="#1090D0"/>
<path d="M38.8427 13.677C38.5713 13.5709 38.2688 13.5769 38.0019 13.6938C37.7349 13.8107 37.5253 14.0288 37.4192 14.3003C37.3131 14.5717 37.3191 14.8741 37.436 15.1411C37.5529 15.408 37.771 15.6176 38.0424 15.7238C40.1778 16.5653 41.9997 18.0484 43.257 19.9686C43.3357 20.0895 43.4375 20.1937 43.5565 20.2752C43.6755 20.3567 43.8094 20.414 43.9506 20.4438C44.0917 20.4736 44.2374 20.4753 44.3792 20.4488C44.521 20.4223 44.6562 20.3682 44.7771 20.2894C44.8979 20.2107 45.0021 20.1089 45.0837 19.9899C45.1652 19.8709 45.2225 19.737 45.2523 19.5958C45.2821 19.4547 45.2838 19.309 45.2573 19.1672C45.2308 19.0254 45.1766 18.8902 45.0979 18.7693C43.5897 16.4657 41.4043 14.6866 38.8427 13.677Z" fill="#1090D0"/>
<path d="M60.4176 13.8782C61.0001 13.8789 61.5584 14.1106 61.9703 14.5225C62.3821 14.9343 62.6138 15.4927 62.6146 16.0751C62.6146 16.3665 62.7303 16.6459 62.9363 16.8519C63.1424 17.0579 63.4218 17.1736 63.7131 17.1736C64.0044 17.1736 64.2838 17.0579 64.4898 16.8519C64.6959 16.6459 64.8116 16.3665 64.8116 16.0751C64.8137 15.0066 64.4256 13.9741 63.7201 13.1715C63.0146 12.3689 62.0404 11.8516 60.9804 11.7167C59.9204 11.5818 58.8476 11.8387 57.9636 12.4389C57.0796 13.0392 56.4452 13.9416 56.1797 14.9767H51.6297C51.3384 14.9767 51.059 15.0924 50.853 15.2984C50.647 15.5044 50.5312 15.7838 50.5312 16.0751C50.5312 16.3665 50.647 16.6459 50.853 16.8519C51.059 17.0579 51.3384 17.1736 51.6297 17.1736H56.1797C56.4217 18.1145 56.9691 18.9485 57.736 19.5449C58.503 20.1413 59.4461 20.4663 60.4176 20.4691C60.709 20.4691 60.9884 20.3534 61.1944 20.1474C61.4004 19.9413 61.5161 19.6619 61.5161 19.3706C61.5161 19.0793 61.4004 18.7999 61.1944 18.5939C60.9884 18.3878 60.709 18.2721 60.4176 18.2721C59.835 18.2721 59.2762 18.0406 58.8641 17.6286C58.4521 17.2166 58.2207 16.6578 58.2207 16.0751C58.2207 15.4925 58.4521 14.9337 58.8641 14.5216C59.2762 14.1096 59.835 13.8782 60.4176 13.8782Z" fill="#1090D0"/>
<path d="M48.3329 12.7787C48.6242 12.7787 48.9036 12.663 49.1096 12.4569C49.3156 12.2509 49.4313 11.9715 49.4313 11.6802V8.38474C49.4321 7.8023 49.6638 7.24393 50.0757 6.83208C50.4875 6.42024 51.0459 6.18852 51.6283 6.18776H59.4737C59.7411 7.22326 60.3769 8.1257 61.2621 8.72593C62.1472 9.32616 63.2209 9.58296 64.2818 9.4482C65.3427 9.31345 66.3181 8.79638 67.0251 7.99393C67.732 7.19148 68.1221 6.15873 68.1221 5.08927C68.1221 4.01982 67.732 2.98707 67.0251 2.18462C66.3181 1.38216 65.3427 0.865101 64.2818 0.730344C63.2209 0.595588 62.1472 0.852391 61.2621 1.45262C60.3769 2.05285 59.7411 2.95529 59.4737 3.99079H51.6283C50.4633 3.99195 49.3464 4.45526 48.5226 5.27903C47.6988 6.1028 47.2355 7.21975 47.2344 8.38474V11.6802C47.2344 11.9715 47.3501 12.2509 47.5561 12.4569C47.7621 12.663 48.0415 12.7787 48.3329 12.7787ZM63.7117 2.8923C64.1462 2.8923 64.571 3.02115 64.9323 3.26256C65.2935 3.50396 65.5751 3.84708 65.7414 4.24853C65.9077 4.64997 65.9512 5.09171 65.8664 5.51788C65.7817 5.94405 65.5724 6.33552 65.2652 6.64277C64.9579 6.95002 64.5665 7.15926 64.1403 7.24404C63.7141 7.32881 63.2724 7.2853 62.8709 7.11901C62.4695 6.95273 62.1264 6.67114 61.885 6.30985C61.6436 5.94856 61.5147 5.52379 61.5147 5.08927C61.5155 4.50683 61.7472 3.94847 62.159 3.53662C62.5709 3.12477 63.1292 2.89306 63.7117 2.8923Z" fill="#1090D0"/>
<path d="M4.39404 9.4826C5.36556 9.47983 6.30871 9.15478 7.07565 8.5584C7.84259 7.96203 8.38997 7.12803 8.632 6.18714H16.4774C17.0598 6.1879 17.6182 6.41961 18.0301 6.83146C18.4419 7.24331 18.6736 7.80167 18.6744 8.38411V11.6796C18.6744 11.9709 18.7901 12.2503 18.9961 12.4563C19.2021 12.6623 19.4815 12.7781 19.7729 12.7781C20.0642 12.7781 20.3436 12.6623 20.5496 12.4563C20.7556 12.2503 20.8714 11.9709 20.8714 11.6796V8.38411C20.8702 7.21912 20.4069 6.10218 19.5831 5.27841C18.7593 4.45463 17.6424 3.99133 16.4774 3.99016H8.632C8.42524 3.19625 7.99998 2.47623 7.40454 1.91187C6.8091 1.34751 6.06734 0.96143 5.26349 0.797478C4.45965 0.633526 3.62593 0.698272 2.85703 0.984362C2.08814 1.27045 1.41487 1.76642 0.913702 2.41594C0.412531 3.06547 0.10354 3.84251 0.0218199 4.65882C-0.0598999 5.47514 0.0889267 6.29802 0.451398 7.034C0.813868 7.76997 1.37546 8.38956 2.07238 8.82239C2.76931 9.25522 3.57365 9.48395 4.39404 9.4826ZM4.39404 2.89167C4.82856 2.89167 5.25332 3.02053 5.61461 3.26193C5.9759 3.50334 6.2575 3.84646 6.42378 4.2479C6.59006 4.64935 6.63357 5.09109 6.5488 5.51726C6.46403 5.94343 6.25479 6.33489 5.94754 6.64215C5.64028 6.9494 5.24882 7.15864 4.82265 7.24341C4.39648 7.32818 3.95474 7.28467 3.55329 7.11839C3.15185 6.95211 2.80873 6.67051 2.56732 6.30922C2.32592 5.94793 2.19707 5.52317 2.19707 5.08865C2.19783 4.50621 2.42954 3.94784 2.84139 3.536C3.25324 3.12415 3.8116 2.89244 4.39404 2.89167Z" fill="#1090D0"/>
<path d="M11.9296 14.9771C11.6623 13.9416 11.0264 13.0392 10.1413 12.4389C9.25614 11.8387 8.18248 11.5819 7.12154 11.7167C6.06061 11.8514 5.08524 12.3685 4.37827 13.1709C3.67129 13.9734 3.28125 15.0061 3.28125 16.0756C3.28125 17.1451 3.67129 18.1778 4.37827 18.9803C5.08524 19.7827 6.06061 20.2998 7.12154 20.4345C8.18248 20.5693 9.25614 20.3125 10.1413 19.7123C11.0264 19.112 11.6623 18.2096 11.9296 17.1741H16.4796C16.7709 17.1741 17.0503 17.0584 17.2563 16.8524C17.4623 16.6463 17.578 16.3669 17.578 16.0756C17.578 15.7843 17.4623 15.5049 17.2563 15.2989C17.0503 15.0928 16.7709 14.9771 16.4796 14.9771H11.9296ZM7.69166 18.2726C7.25714 18.2726 6.83238 18.1437 6.47108 17.9023C6.10979 17.6609 5.8282 17.3178 5.66192 16.9163C5.49563 16.5149 5.45213 16.0732 5.5369 15.647C5.62167 15.2208 5.83091 14.8294 6.13816 14.5221C6.44541 14.2149 6.83688 14.0056 7.26305 13.9208C7.68922 13.8361 8.13096 13.8796 8.5324 14.0459C8.93385 14.2121 9.27697 14.4937 9.51838 14.855C9.75978 15.2163 9.88863 15.6411 9.88863 16.0756C9.88787 16.658 9.65616 17.2164 9.24431 17.6283C8.83246 18.0401 8.2741 18.2718 7.69166 18.2726Z" fill="#1090D0"/>
<path d="M47.643 46.911L45.4049 46.0014C45.2868 45.6817 45.1539 45.3609 45.0036 45.0424L46.0228 42.9097C46.1206 42.7048 46.1525 42.4746 46.1141 42.2508C46.0757 42.027 45.9688 41.8206 45.8082 41.6601L42.5127 38.3647C42.3521 38.2042 42.1458 38.0973 41.922 38.0589C41.6983 38.0205 41.4681 38.0523 41.2632 38.1501L39.1307 39.1686C38.8122 39.0184 38.4914 38.8855 38.1717 38.7674L37.2621 36.5292C37.1795 36.327 37.0386 36.154 36.8573 36.0322C36.676 35.9105 36.4624 35.8455 36.244 35.8457H31.8501C31.6316 35.8456 31.418 35.9106 31.2366 36.0325C31.0553 36.1545 30.9144 36.3277 30.8321 36.5301L29.9224 38.7682C29.6027 38.8863 29.282 39.0192 28.9634 39.1695L26.8307 38.1503C26.6258 38.0526 26.3956 38.0207 26.1718 38.0592C25.9481 38.0976 25.7417 38.2044 25.5812 38.3649L22.2857 41.6604C22.1251 41.8209 22.0182 42.0273 21.9797 42.2511C21.9413 42.4748 21.9732 42.705 22.0711 42.9099L23.0902 45.0427C22.94 45.3612 22.8071 45.682 22.689 46.0016L20.4508 46.9113C20.2485 46.9937 20.0754 47.1346 19.9535 47.3158C19.8317 47.4971 19.7666 47.7106 19.7667 47.9291L19.7656 52.323C19.7656 52.5415 19.8307 52.7551 19.9527 52.9364C20.0746 53.1177 20.2478 53.2586 20.4501 53.341L22.6883 54.2507C22.8064 54.5715 22.9393 54.8911 23.0895 55.2097L22.0704 57.3424C21.9725 57.5473 21.9406 57.7775 21.9791 58.0013C22.0175 58.2251 22.1244 58.4315 22.285 58.592L25.5805 61.8874C25.741 62.0479 25.9474 62.1548 26.1711 62.1932C26.3949 62.2316 26.6251 62.1998 26.83 62.102L28.9627 61.0829C29.2813 61.2331 29.602 61.366 29.9217 61.4841L30.8314 63.7223C30.9138 63.9247 31.0548 64.098 31.2363 64.2198C31.4178 64.3417 31.6315 64.4067 31.8501 64.4064H36.244C36.4625 64.4065 36.6761 64.3414 36.8575 64.2195C37.0388 64.0976 37.1797 63.9244 37.2621 63.722L38.1717 61.4839C38.4914 61.3658 38.8122 61.2329 39.1307 61.0826L41.2634 62.1018C41.4684 62.1995 41.6985 62.2313 41.9223 62.1929C42.146 62.1545 42.3524 62.0477 42.513 61.8871L45.8084 58.5917C45.969 58.4312 46.0759 58.2248 46.1144 58.001C46.1528 57.7772 46.1209 57.547 46.023 57.3421L45.0045 55.2097C45.1547 54.8911 45.2876 54.5704 45.4057 54.2507L47.6423 53.341C47.8447 53.2586 48.0178 53.1177 48.1396 52.9364C48.2614 52.755 48.3264 52.5415 48.3263 52.323L48.3274 47.9291C48.3274 47.7106 48.2623 47.4971 48.1404 47.3157C48.0185 47.1344 47.8453 46.9935 47.643 46.911ZM46.1293 51.5839L44.1136 52.4035C43.9639 52.4646 43.8296 52.5578 43.72 52.6767C43.6104 52.7955 43.5284 52.937 43.4796 53.0911C43.3035 53.644 43.0791 54.1803 42.8091 54.6938C42.7303 54.8449 42.6877 55.0122 42.6848 55.1826C42.6818 55.3529 42.7186 55.5216 42.7921 55.6753L43.7061 57.5881L41.5091 59.785L39.5963 58.8711C39.4426 58.7978 39.2739 58.7612 39.1036 58.7642C38.9333 58.7671 38.766 58.8096 38.6148 58.8881C38.1013 59.1581 37.565 59.3825 37.0121 59.5586C36.858 59.6074 36.7165 59.6894 36.5977 59.799C36.4788 59.9085 36.3856 60.0429 36.3245 60.1926L35.5049 62.2094H32.5892L31.7696 60.1926C31.7085 60.0429 31.6153 59.9085 31.4964 59.799C31.3776 59.6894 31.2361 59.6074 31.082 59.5586C30.5291 59.3825 29.9928 59.1581 29.4793 58.8881C29.3281 58.8096 29.1608 58.7671 28.9905 58.7642C28.8202 58.7612 28.6515 58.7978 28.4978 58.8711L26.585 59.785L24.3881 57.5881L25.302 55.6753C25.3755 55.5216 25.4123 55.3529 25.4093 55.1826C25.4064 55.0122 25.3638 54.8449 25.285 54.6938C25.015 54.1803 24.7906 53.644 24.6145 53.0911C24.5657 52.937 24.4837 52.7955 24.3741 52.6767C24.2646 52.5578 24.1302 52.4646 23.9805 52.4035L21.9621 51.5839L21.9637 48.6682L23.9805 47.8486C24.1302 47.7875 24.2646 47.6943 24.3741 47.5754C24.4837 47.4566 24.5657 47.3151 24.6145 47.161C24.7906 46.6081 25.015 46.0718 25.285 45.5583C25.3638 45.4072 25.4064 45.2399 25.4093 45.0695C25.4123 44.8992 25.3755 44.7305 25.302 44.5768L24.3881 42.664L26.585 40.467L28.4978 41.381C28.6515 41.4543 28.8202 41.4909 28.9905 41.4879C29.1608 41.4849 29.3281 41.4425 29.4793 41.364C29.9928 41.094 30.5291 40.8696 31.082 40.6935C31.2361 40.6447 31.3776 40.5627 31.4964 40.4531C31.6153 40.3435 31.7085 40.2092 31.7696 40.0595L32.5892 38.0427H35.5049L36.3245 40.0595C36.3856 40.2092 36.4788 40.3435 36.5977 40.4531C36.7165 40.5627 36.858 40.6447 37.0121 40.6935C37.565 40.8696 38.1013 41.094 38.6148 41.364C38.7658 41.443 38.9332 41.4858 39.1036 41.4887C39.274 41.4917 39.4427 41.4548 39.5963 41.381L41.5091 40.467L43.7061 42.664L42.7921 44.5768C42.7186 44.7305 42.6818 44.8992 42.6848 45.0695C42.6877 45.2399 42.7303 45.4072 42.8091 45.5583C43.0791 46.0718 43.3035 46.6081 43.4796 47.161C43.5284 47.3151 43.6104 47.4566 43.72 47.5754C43.8296 47.6943 43.9639 47.7875 44.1136 47.8486L46.1304 48.6682L46.1293 51.5839Z" fill="#1090D0"/>
<path d="M40.6475 49.0279C40.3562 49.0279 40.0768 49.1436 39.8708 49.3496C39.6648 49.5556 39.549 49.835 39.549 50.1264C39.5493 51.4105 39.0997 52.6542 38.2783 53.6413C37.457 54.6284 36.3158 55.2966 35.053 55.5297C33.7902 55.7629 32.4856 55.5463 31.3659 54.9176C30.2462 54.2889 29.3821 53.2878 28.9238 52.0883C28.4655 50.8887 28.4418 49.5665 28.857 48.3513C29.2722 47.1362 30.1 46.1049 31.1965 45.4366C32.293 44.7683 33.589 44.5052 34.8594 44.6931C36.1297 44.881 37.294 45.508 38.1501 46.4651C38.3444 46.6822 38.617 46.8132 38.9079 46.8293C39.1988 46.8454 39.4842 46.7453 39.7013 46.5509C39.9184 46.3566 40.0494 46.084 40.0655 45.7931C40.0816 45.5022 39.9815 45.2168 39.7871 44.9997C38.5887 43.6603 36.9589 42.7829 35.1809 42.5202C33.4029 42.2574 31.589 42.6257 30.0543 43.5612C28.5196 44.4967 27.3611 45.9403 26.7801 47.6411C26.199 49.3419 26.2322 51.1926 26.8737 52.8715C27.5152 54.5505 28.7246 55.9516 30.2918 56.8316C31.8589 57.7116 33.6848 58.0149 35.4523 57.6886C37.2198 57.3624 38.8172 56.4273 39.9669 55.0458C41.1166 53.6643 41.7461 51.9237 41.746 50.1264C41.746 49.835 41.6303 49.5556 41.4243 49.3496C41.2183 49.1436 40.9389 49.0279 40.6475 49.0279Z" fill="#1090D0"/>
</svg>
