<svg width="64" height="64" viewBox="0 0 64 64" fill="none" xmlns="http://www.w3.org/2000/svg">
<path d="M7.47774 9.92609C8.96694 9.92609 10.18 8.71303 10.18 7.22384C10.18 5.72477 8.96694 4.51172 7.47774 4.51172C5.97868 4.51172 4.76562 5.72477 4.76562 7.22384C4.76562 8.71303 5.97868 9.92609 7.47774 9.92609ZM7.47774 5.96147C8.1681 5.96147 8.73025 6.53348 8.73025 7.22384C8.73025 7.91419 8.1681 8.47634 7.47774 8.47634C6.77752 8.47634 6.21537 7.91419 6.21537 7.22384C6.20551 6.51375 6.76766 5.96147 7.47774 5.96147Z" fill="#1090D0"/>
<path d="M14.7199 9.92609C16.2091 9.92609 17.4222 8.71303 17.4222 7.22384C17.4222 5.72477 16.2091 4.51172 14.7199 4.51172C13.2209 4.51172 12.0078 5.72477 12.0078 7.22384C12.0078 8.71303 13.2209 9.92609 14.7199 9.92609ZM14.7199 5.96147C15.4103 5.96147 15.9724 6.53348 15.9724 7.22384C15.9724 7.91419 15.4103 8.47634 14.7199 8.47634C14.0197 8.47634 13.4576 7.91419 13.4576 7.22384C13.4576 6.51375 14.0098 5.96147 14.7199 5.96147Z" fill="#1090D0"/>
<path d="M21.9699 9.92609C23.4591 9.92609 24.6722 8.71303 24.6722 7.22384C24.6722 5.72477 23.4591 4.51172 21.9699 4.51172C20.4709 4.51172 19.2578 5.72477 19.2578 7.22384C19.2578 8.71303 20.4807 9.92609 21.9699 9.92609ZM21.9699 5.96147C22.6603 5.96147 23.2224 6.53348 23.2224 7.22384C23.2224 7.91419 22.6603 8.47634 21.9699 8.47634C21.2697 8.4862 20.7076 7.92405 20.7076 7.22384C20.7076 6.51375 21.2598 5.96147 21.9699 5.96147Z" fill="#1090D0"/>
<path d="M18.4576 40.3428C19.9172 40.3428 21.1007 39.1593 21.1007 37.6997C21.1007 36.2401 19.9172 35.0566 18.4576 35.0566C16.998 35.0566 15.8047 36.2401 15.8047 37.6997C15.8047 39.1593 16.998 40.3428 18.4576 40.3428ZM18.4576 36.5064C19.1184 36.5064 19.6608 37.0488 19.6608 37.7096C19.6608 38.3704 19.1184 38.9128 18.4576 38.9128C17.787 38.9128 17.2544 38.3704 17.2544 37.7096C17.2544 37.0389 17.7969 36.5064 18.4576 36.5064Z" fill="#1090D0"/>
<path d="M25.4264 40.3428C26.886 40.3428 28.0695 39.1593 28.0695 37.6997C28.0695 36.2401 26.886 35.0566 25.4264 35.0566C23.9668 35.0566 22.7734 36.2401 22.7734 37.6997C22.7734 39.1593 23.9668 40.3428 25.4264 40.3428ZM25.4264 36.5064C26.0872 36.5064 26.6296 37.0488 26.6296 37.7096C26.6296 38.3704 26.0872 38.9128 25.4264 38.9128C24.7557 38.9128 24.2232 38.3704 24.2232 37.7096C24.2232 37.0389 24.7656 36.5064 25.4264 36.5064Z" fill="#1090D0"/>
<path d="M38.4856 40.8149C38.8801 40.8149 39.2055 40.4894 39.2055 40.0949V35.3117C39.2055 34.9173 38.8801 34.5918 38.4856 34.5918C38.0911 34.5918 37.7656 34.9173 37.7656 35.3117V40.0949C37.7656 40.4894 38.0911 40.8149 38.4856 40.8149Z" fill="#1090D0"/>
<path d="M42.3684 40.8149C42.7629 40.8149 43.0883 40.4894 43.0883 40.0949V35.3117C43.0883 34.9173 42.7629 34.5918 42.3684 34.5918C41.9739 34.5918 41.6484 34.9173 41.6484 35.3117V40.0949C41.6484 40.4894 41.964 40.8149 42.3684 40.8149Z" fill="#1090D0"/>
<path d="M46.2514 40.8149C46.6459 40.8149 46.9714 40.4894 46.9714 40.0949V35.3117C46.9714 34.9173 46.6459 34.5918 46.2514 34.5918C45.8569 34.5918 45.5315 34.9173 45.5315 35.3117V40.0949C45.5216 40.4894 45.8471 40.8149 46.2514 40.8149Z" fill="#1090D0"/>
<path d="M18.4576 53.4082C16.998 53.4082 15.8047 54.5917 15.8047 56.0513C15.8047 57.5109 16.998 58.6944 18.4576 58.6944C19.9172 58.6944 21.1007 57.5109 21.1007 56.0513C21.1007 54.5917 19.9172 53.4082 18.4576 53.4082ZM18.4576 57.2446C17.787 57.2446 17.2544 56.7022 17.2544 56.0414C17.2544 55.3807 17.7969 54.8382 18.4576 54.8382C19.1184 54.8382 19.6608 55.3807 19.6608 56.0414C19.6608 56.7121 19.1184 57.2446 18.4576 57.2446Z" fill="#1090D0"/>
<path d="M25.4264 53.4082C23.9668 53.4082 22.7734 54.5917 22.7734 56.0513C22.7734 57.5109 23.9668 58.6944 25.4264 58.6944C26.886 58.6944 28.0695 57.5109 28.0695 56.0513C28.0793 54.5917 26.886 53.4082 25.4264 53.4082ZM25.4264 57.2446C24.7557 57.2446 24.2232 56.7022 24.2232 56.0414C24.2232 55.3807 24.7656 54.8382 25.4264 54.8382C26.0872 54.8382 26.6296 55.3807 26.6296 56.0414C26.6296 56.7121 26.097 57.2446 25.4264 57.2446Z" fill="#1090D0"/>
<path d="M38.4856 52.9355C38.0911 52.9355 37.7656 53.261 37.7656 53.6555V58.4387C37.7656 58.8332 38.0911 59.1586 38.4856 59.1586C38.8801 59.1586 39.2055 58.8332 39.2055 58.4387V53.6555C39.2154 53.261 38.8899 52.9355 38.4856 52.9355Z" fill="#1090D0"/>
<path d="M42.3684 52.9355C41.9739 52.9355 41.6484 53.261 41.6484 53.6555V58.4387C41.6484 58.8332 41.9739 59.1586 42.3684 59.1586C42.7629 59.1586 43.0883 58.8332 43.0883 58.4387V53.6555C43.0883 53.261 42.7629 52.9355 42.3684 52.9355Z" fill="#1090D0"/>
<path d="M46.2512 52.9355C45.8567 52.9355 45.5312 53.261 45.5312 53.6555V58.4387C45.5312 58.8332 45.8567 59.1586 46.2512 59.1586C46.6457 59.1586 46.9711 58.8332 46.9711 58.4387V53.6555C46.9711 53.261 46.6457 52.9355 46.2512 52.9355Z" fill="#1090D0"/>
<path d="M55.485 0.695312H7.63337C3.4222 0.695312 0 4.11751 0 8.32869V45.2924C0 49.5035 3.4222 52.9257 7.63337 52.9257H12.4166V60.5197C12.4166 62.2751 13.8466 63.6953 15.5922 63.6953H47.5163C49.2718 63.6953 50.6919 62.2653 50.6919 60.5197V52.9257H55.4751C59.6863 52.9257 63.1085 49.5035 63.1085 45.2924V8.32869C63.1183 4.11751 59.6961 0.695312 55.485 0.695312ZM7.63337 2.1352H55.485C58.8973 2.1352 61.6686 4.90649 61.6686 8.31883V11.5734H1.44975V8.32869C1.44975 4.91635 4.22104 2.1352 7.63337 2.1352ZM49.252 60.5197C49.252 61.4763 48.4729 62.2554 47.5163 62.2554H15.6021C14.6454 62.2554 13.8663 61.4763 13.8663 60.5197V51.5845C13.8663 50.6278 14.6454 49.8487 15.6021 49.8487H47.5261C48.4828 49.8487 49.2619 50.6278 49.2619 51.5845V60.5197H49.252ZM33.9853 25.7158H36.1155C36.3818 25.7158 36.5002 25.9032 36.5396 25.992C36.5791 26.0709 36.6481 26.2878 36.4706 26.4949L31.1351 32.6095C31.0167 32.7476 30.859 32.7673 30.7801 32.7673C30.7012 32.7673 30.5532 32.7476 30.425 32.6095L25.0895 26.4949C24.912 26.2878 24.9811 26.0807 25.0205 25.992C25.06 25.9131 25.1783 25.7158 25.4446 25.7158H27.5748C27.9693 25.7158 28.2948 25.3904 28.2948 24.9959V18.6643C28.2948 18.3586 28.5413 18.1022 28.8569 18.1022H32.6933C32.9991 18.1022 33.2555 18.3487 33.2555 18.6643V24.9959C33.2653 25.3904 33.5809 25.7158 33.9853 25.7158ZM29.3402 33.5563C29.7051 33.9705 30.2278 34.2072 30.7801 34.2072C31.3323 34.2072 31.855 33.9705 32.2199 33.5563L34.0149 31.4951H47.5163C48.4729 31.4951 49.252 32.2742 49.252 33.2308V42.166C49.252 43.1227 48.4729 43.9018 47.5163 43.9018H15.6021C14.6454 43.9018 13.8663 43.1227 13.8663 42.166V33.2308C13.8663 32.2742 14.6454 31.4951 15.6021 31.4951H27.5551L29.3402 33.5563ZM19.1722 45.3515H43.9461V48.399H19.1722V45.3515ZM55.485 51.4859H50.6919C50.6426 49.7797 49.2422 48.4088 47.5261 48.4088H45.3959V45.3515H47.5261C49.2816 45.3515 50.7018 43.9215 50.7018 42.1759V33.2407C50.7018 31.4852 49.2718 30.0651 47.5261 30.0651H35.2772L37.5554 27.4516C38.0584 26.8796 38.1669 26.1004 37.8513 25.4002C37.5357 24.7 36.8749 24.2759 36.1155 24.2759H34.7052V18.6643C34.7052 17.5597 33.8078 16.6623 32.7032 16.6623H28.8668C27.7622 16.6623 26.8647 17.5597 26.8647 18.6643V24.2759H25.4544C24.6951 24.2759 24.0244 24.7099 23.7187 25.4002C23.4031 26.0906 23.5214 26.8796 24.0146 27.4516L26.2927 30.0651H15.6021C13.8466 30.0651 12.4264 31.4951 12.4264 33.2407V42.1759C12.4264 43.9314 13.8564 45.3515 15.6021 45.3515H17.7323V48.4088H15.6021C13.886 48.4088 12.4856 49.7797 12.4363 51.4859H7.63337C4.22104 51.4859 1.44975 48.7146 1.44975 45.3022V13.0231H61.6785V45.2924C61.6686 48.7047 58.8973 51.4859 55.485 51.4859Z" fill="#1090D0"/>
</svg>
