<svg width="44" height="65" viewBox="0 0 44 65" fill="none" xmlns="http://www.w3.org/2000/svg">
<path fill-rule="evenodd" clip-rule="evenodd" d="M41.5421 32.9443H1.6796C0.746489 32.9443 0 32.1978 0 31.2274V18.9103C0 17.9772 0.746489 17.1934 1.6796 17.1934H41.5421C42.4379 17.1934 43.2217 17.9772 43.2217 18.9103V31.2274C43.1844 32.1605 42.4379 32.9443 41.5421 32.9443ZM1.8289 31.1154H41.3555V19.0596H1.8289V31.1154Z" fill="#1090D0"/>
<path fill-rule="evenodd" clip-rule="evenodd" d="M8.29058 29.4017C5.86449 29.4017 3.96094 27.4608 3.96094 25.072C3.96094 22.6833 5.90181 20.7051 8.29058 20.7051C10.6793 20.7051 12.6575 22.6833 12.6575 25.072C12.6575 27.4981 10.7167 29.4017 8.29058 29.4017ZM8.29058 22.534C6.90957 22.534 5.75251 23.691 5.75251 25.072C5.75251 26.453 6.90957 27.6101 8.29058 27.6101C9.7089 27.6101 10.8286 26.453 10.8286 25.072C10.8286 23.691 9.7089 22.534 8.29058 22.534Z" fill="#1090D0"/>
<path fill-rule="evenodd" clip-rule="evenodd" d="M38.3723 26.0049H21.427C20.9418 26.0049 20.5312 25.5943 20.5312 25.0718C20.5312 24.5492 20.9418 24.1387 21.427 24.1387H38.335C38.8202 24.1387 39.2308 24.5492 39.2308 25.0718C39.2308 25.5943 38.8202 26.0049 38.3723 26.0049Z" fill="#1090D0"/>
<path fill-rule="evenodd" clip-rule="evenodd" d="M41.5421 53.0259H1.6796C0.746489 53.0259 0 52.2794 0 51.309V38.9919C0 38.0588 0.746489 37.3496 1.6796 37.3496H41.5421C42.4379 37.3496 43.2217 38.0961 43.2217 38.9919V51.3463C43.1844 52.2794 42.4379 53.0259 41.5421 53.0259ZM1.8289 51.197H41.3555V39.1412H1.8289V51.197Z" fill="#1090D0"/>
<path fill-rule="evenodd" clip-rule="evenodd" d="M8.29058 49.4796C5.86449 49.4796 3.96094 47.5387 3.96094 45.15C3.96094 42.7612 5.90181 40.8203 8.29058 40.8203C10.6793 40.8203 12.6575 42.7612 12.6575 45.15C12.6575 47.576 10.7167 49.4796 8.29058 49.4796ZM8.29058 42.6119C6.90957 42.6119 5.75251 43.7689 5.75251 45.15C5.75251 46.531 6.90957 47.688 8.29058 47.688C9.7089 47.688 10.8286 46.531 10.8286 45.15C10.8286 43.7689 9.7089 42.6119 8.29058 42.6119Z" fill="#1090D0"/>
<path fill-rule="evenodd" clip-rule="evenodd" d="M38.3723 46.083H21.427C20.9418 46.083 20.5312 45.6725 20.5312 45.1499C20.5312 44.6274 20.9418 44.2168 21.427 44.2168H38.335C38.8202 44.2168 39.2308 44.6274 39.2308 45.1499C39.2308 45.6725 38.8202 46.083 38.3723 46.083Z" fill="#1090D0"/>
<path fill-rule="evenodd" clip-rule="evenodd" d="M21.6128 59.3696C21.0903 59.3696 20.6797 58.959 20.6797 58.4365V52.0913C20.6797 51.5688 21.0903 51.1582 21.6128 51.1582C22.1353 51.1582 22.5459 51.5688 22.5459 52.0913V58.4365C22.5459 58.959 22.1353 59.3696 21.6128 59.3696Z" fill="#1090D0"/>
<path fill-rule="evenodd" clip-rule="evenodd" d="M27.2572 63.5131H15.9479C15.3507 63.5131 14.8281 62.9906 14.8281 62.3188V58.6983C14.8281 58.1011 15.3507 57.5039 15.9479 57.5039H27.2572C27.929 57.5039 28.4516 58.0264 28.4516 58.6983V62.3188C28.4516 62.9906 27.929 63.5131 27.2572 63.5131ZM16.657 61.7216H26.5853V59.3701H16.657V61.7216Z" fill="#1090D0"/>
<path fill-rule="evenodd" clip-rule="evenodd" d="M35.8719 61.46H27.5112C26.9887 61.46 26.5781 61.0494 26.5781 60.5269C26.5781 60.0043 26.9887 59.5938 27.5112 59.5938H35.8719C36.3945 59.5938 36.805 60.0043 36.805 60.5269C36.805 61.0494 36.3945 61.46 35.8719 61.46Z" fill="#1090D0"/>
<path fill-rule="evenodd" clip-rule="evenodd" d="M15.7669 61.46H7.33155C6.80901 61.46 6.39844 61.0494 6.39844 60.5269C6.39844 60.0043 6.80901 59.5938 7.33155 59.5938H15.7669C16.2894 59.5938 16.7 60.0043 16.7 60.5269C16.7 61.0494 16.2148 61.46 15.7669 61.46Z" fill="#1090D0"/>
<path fill-rule="evenodd" clip-rule="evenodd" d="M4.30362 64.4089C4.117 64.4089 3.85573 64.2969 3.70643 64.1476L0.683146 61.1243C0.533848 60.975 0.421875 60.7138 0.421875 60.5271C0.421875 60.2659 0.533848 60.0419 0.683146 59.8926L3.70643 56.944C4.07967 56.5708 4.63954 56.5708 5.01278 56.944L7.99874 59.8926C8.14804 60.0419 8.26001 60.3032 8.26001 60.5271C8.26001 60.7884 8.14804 60.975 7.99874 61.1243L5.01278 64.1476C4.78884 64.3342 4.56489 64.4089 4.30362 64.4089ZM2.66134 60.5271L4.37827 62.2441L6.09519 60.5271L4.37827 58.8475L2.66134 60.5271Z" fill="#1090D0"/>
<path fill-rule="evenodd" clip-rule="evenodd" d="M38.8974 64.4089C38.6734 64.4089 38.4122 64.2969 38.2629 64.1476L35.2769 61.1243C35.1276 60.975 35.0156 60.7138 35.0156 60.5271C35.0156 60.2659 35.1276 60.0419 35.2769 59.8926L38.2629 56.944C38.6361 56.5708 39.196 56.5708 39.5692 56.944L42.5552 59.8926C42.7045 60.0419 42.8164 60.3032 42.8164 60.5271C42.8164 60.7884 42.7045 60.975 42.5552 61.1243L39.5692 64.1476C39.3453 64.3342 39.084 64.4089 38.8974 64.4089ZM37.1804 60.5271L38.8974 62.2441L40.6143 60.5271L38.8974 58.8475L37.1804 60.5271Z" fill="#1090D0"/>
<path fill-rule="evenodd" clip-rule="evenodd" d="M12.6519 39.1422C12.1293 39.1422 11.7188 38.7316 11.7188 38.209V32.0132C11.7188 31.4906 12.1293 31.0801 12.6519 31.0801C13.1744 31.0801 13.585 31.4906 13.585 32.0132V38.209C13.5103 38.7316 13.1744 39.1422 12.6519 39.1422Z" fill="#1090D0"/>
<path fill-rule="evenodd" clip-rule="evenodd" d="M30.5659 39.1422C30.0434 39.1422 29.6328 38.7316 29.6328 38.209V32.0132C29.6328 31.4906 30.0434 31.0801 30.5659 31.0801C31.0511 31.0801 31.4617 31.4906 31.4617 32.0132V38.209C31.4617 38.7316 31.0511 39.1422 30.5659 39.1422Z" fill="#1090D0"/>
<path fill-rule="evenodd" clip-rule="evenodd" d="M38.0798 19.0589H5.15967C4.63713 19.0589 4.22656 18.6484 4.22656 18.1258V15.3265C4.22656 14.8786 4.52516 14.5054 5.01038 14.468L9.97453 13.7215C10.0492 13.4603 10.1612 13.2737 10.2731 13.0124L7.28717 8.98134C7.0259 8.6081 7.06322 8.08556 7.36182 7.78696L11.3182 3.83057C11.6168 3.53197 12.1393 3.49465 12.5126 3.75592L16.469 6.74187C16.7303 6.6299 16.9915 6.55525 17.2155 6.44328L17.9246 1.47913C17.9993 0.993908 18.4099 0.695312 18.8204 0.695312H24.3444C24.8297 0.695312 25.1656 0.993908 25.2402 1.47913L26.024 6.4806C26.248 6.59258 26.5093 6.70455 26.7705 6.7792L30.7643 3.79324C31.1375 3.53197 31.66 3.53197 31.9586 3.90522L35.8777 7.82428C36.2136 8.1602 36.251 8.64542 35.9897 9.01867L33.0037 13.0497C33.0784 13.2737 33.1903 13.5349 33.3023 13.7962L38.2291 14.5054C38.677 14.5427 39.013 14.9906 39.013 15.4011V18.2005C38.9383 18.6484 38.5277 19.0589 38.0798 19.0589ZM6.09279 17.2674H37.1841V16.1476L32.4812 15.4758C32.1079 15.4385 31.8467 15.1772 31.7347 14.8786C31.5481 14.2441 31.3241 13.7962 31.1375 13.3856C30.9882 13.0497 30.9882 12.6391 31.1748 12.3779L34.0115 8.57077L31.1748 5.69679L27.4051 8.57077C27.1438 8.7574 26.7705 8.83204 26.4719 8.64542C26.024 8.38415 25.5015 8.19753 24.9043 8.04823C24.6057 7.93626 24.3444 7.63766 24.3071 7.30174L23.6353 2.59886H19.6416L18.9697 7.30174C18.9324 7.67499 18.7085 7.93626 18.3352 8.04823C17.8127 8.19753 17.3274 8.38415 16.7303 8.64542C16.4317 8.83204 16.0584 8.7574 15.7971 8.57077L12.0274 5.69679L9.22804 8.57077L12.0647 12.3779C12.2886 12.6391 12.326 13.0124 12.1767 13.311C11.9901 13.7962 11.7661 14.3187 11.5795 14.804C11.4675 15.1399 11.1689 15.4011 10.833 15.4385L6.13011 16.1103V17.2674H6.09279Z" fill="#1090D0"/>
<path fill-rule="evenodd" clip-rule="evenodd" d="M27.8153 19.0601H15.3862C14.8637 19.0601 14.4531 18.6496 14.4531 18.127C14.4531 14.208 17.663 10.998 21.6194 10.998C25.5385 10.998 28.7111 14.208 28.7111 18.127C28.7111 18.6496 28.3378 19.0601 27.8153 19.0601ZM16.394 17.2686H26.8448C26.4343 14.7678 24.2321 12.8643 21.6194 12.8643C19.0067 12.7896 16.8046 14.7305 16.394 17.2686Z" fill="#1090D0"/>
</svg>
