<svg width="50" height="64" viewBox="0 0 50 64" fill="none" xmlns="http://www.w3.org/2000/svg">
<path fill-rule="evenodd" clip-rule="evenodd" d="M2.17239 48.6736V3.9539C2.17239 2.15407 3.63115 0.695312 5.43097 0.695312H44.534C46.3338 0.695312 47.7926 2.15407 47.7926 3.9539V57.3643C48.2466 57.5239 48.6637 57.7846 49.0102 58.1322C49.6217 58.7426 49.9649 59.5714 49.9649 60.436C49.9649 62.2358 48.5062 63.6946 46.7064 63.6946H3.25858C1.45876 63.6946 0 62.2358 0 60.436C0 58.0247 0 54.1578 0 51.7465C0 50.3279 0.906972 49.12 2.17239 48.6736ZM46.7064 61.5222C47.3059 61.5222 47.7926 61.0356 47.7926 60.436C47.7926 60.1482 47.6785 59.8712 47.4743 59.6681C47.2712 59.4639 46.9942 59.3498 46.7064 59.3498C41.8576 59.3498 30.2712 59.3498 26.325 59.3498C25.0911 59.3498 23.9625 58.6525 23.4107 57.5489C22.582 55.8903 21.095 52.9185 20.2662 51.2609C20.0827 50.8927 19.7068 50.6603 19.2952 50.6603C15.9692 50.6603 7.32421 50.6603 3.25858 50.6603C2.659 50.6603 2.17239 51.1469 2.17239 51.7465V60.436C2.17239 61.0356 2.659 61.5222 3.25858 61.5222H46.7064ZM45.6202 57.1774V3.9539C45.6202 3.35432 45.1336 2.8677 44.534 2.8677C37.1174 2.8677 12.8475 2.8677 5.43097 2.8677C4.83139 2.8677 4.34478 3.35432 4.34478 3.9539V48.4879H19.2952C20.5291 48.4879 21.6576 49.1852 22.2094 50.2888C23.0382 51.9474 24.5252 54.9192 25.354 56.5768C25.5375 56.945 25.9133 57.1774 26.325 57.1774H45.6202Z" fill="#1090D0"/>
<path fill-rule="evenodd" clip-rule="evenodd" d="M20.6409 11.5572H33.6752C34.2748 11.5572 34.7614 11.0705 34.7614 10.471C34.7614 9.87138 34.2748 9.38477 33.6752 9.38477H20.6409C20.0413 9.38477 19.5547 9.87138 19.5547 10.471C19.5547 11.0705 20.0413 11.5572 20.6409 11.5572Z" fill="#1090D0"/>
<path fill-rule="evenodd" clip-rule="evenodd" d="M11.9456 11.5572H16.2903C16.8899 11.5572 17.3765 11.0705 17.3765 10.471C17.3765 9.87138 16.8899 9.38477 16.2903 9.38477H11.9456C11.346 9.38477 10.8594 9.87138 10.8594 10.471C10.8594 11.0705 11.346 11.5572 11.9456 11.5572Z" fill="#1090D0"/>
<path fill-rule="evenodd" clip-rule="evenodd" d="M20.6409 15.9029H38.02C38.6196 15.9029 39.1062 15.4162 39.1062 14.8167C39.1062 14.2171 38.6196 13.7305 38.02 13.7305H20.6409C20.0413 13.7305 19.5547 14.2171 19.5547 14.8167C19.5547 15.4162 20.0413 15.9029 20.6409 15.9029Z" fill="#1090D0"/>
<path fill-rule="evenodd" clip-rule="evenodd" d="M11.9456 15.9029H16.2903C16.8899 15.9029 17.3765 15.4162 17.3765 14.8167C17.3765 14.2171 16.8899 13.7305 16.2903 13.7305H11.9456C11.346 13.7305 10.8594 14.2171 10.8594 14.8167C10.8594 15.4162 11.346 15.9029 11.9456 15.9029Z" fill="#1090D0"/>
<path fill-rule="evenodd" clip-rule="evenodd" d="M20.6409 37.6255H29.3304C29.93 37.6255 30.4166 37.1389 30.4166 36.5393C30.4166 35.9397 29.93 35.4531 29.3304 35.4531H20.6409C20.0413 35.4531 19.5547 35.9397 19.5547 36.5393C19.5547 37.1389 20.0413 37.6255 20.6409 37.6255Z" fill="#1090D0"/>
<path fill-rule="evenodd" clip-rule="evenodd" d="M11.9456 37.6255H16.2903C16.8899 37.6255 17.3765 37.1389 17.3765 36.5393C17.3765 35.9397 16.8899 35.4531 16.2903 35.4531H11.9456C11.346 35.4531 10.8594 35.9397 10.8594 36.5393C10.8594 37.1389 11.346 37.6255 11.9456 37.6255Z" fill="#1090D0"/>
<path fill-rule="evenodd" clip-rule="evenodd" d="M26.1863 20.8466L21.8415 29.5361C21.5732 30.0716 21.7905 30.7255 22.3271 30.9927C22.8626 31.261 23.5164 31.0438 23.7836 30.5072L28.1284 21.8176C28.3967 21.2822 28.1795 20.6283 27.6429 20.3611C27.1074 20.0928 26.4535 20.31 26.1863 20.8466Z" fill="#1090D0"/>
<path fill-rule="evenodd" clip-rule="evenodd" d="M20.6409 41.9712H38.02C38.6196 41.9712 39.1062 41.4846 39.1062 40.885C39.1062 40.2854 38.6196 39.7988 38.02 39.7988H20.6409C20.0413 39.7988 19.5547 40.2854 19.5547 40.885C19.5547 41.4846 20.0413 41.9712 20.6409 41.9712Z" fill="#1090D0"/>
<path fill-rule="evenodd" clip-rule="evenodd" d="M11.9456 41.9712H16.2903C16.8899 41.9712 17.3765 41.4846 17.3765 40.885C17.3765 40.2854 16.8899 39.7988 16.2903 39.7988H11.9456C11.346 39.7988 10.8594 40.2854 10.8594 40.885C10.8594 41.4846 11.346 41.9712 11.9456 41.9712Z" fill="#1090D0"/>
<path fill-rule="evenodd" clip-rule="evenodd" d="M15.6536 25.6765L19.2304 29.2534C19.6541 29.677 19.6541 30.3656 19.2304 30.7892C18.8068 31.2129 18.1182 31.2129 17.6946 30.7892L13.3498 26.4445C12.9251 26.0208 12.9251 25.3322 13.3498 24.9086L17.6946 20.5638C18.1182 20.1402 18.8068 20.1402 19.2304 20.5638C19.6541 20.9874 19.6541 21.6761 19.2304 22.0997L15.6536 25.6765Z" fill="#1090D0"/>
<path fill-rule="evenodd" clip-rule="evenodd" d="M34.3086 25.6765L30.7318 22.0997C30.3082 21.6761 30.3082 20.9874 30.7318 20.5638C31.1554 20.1402 31.844 20.1402 32.2677 20.5638L36.6124 24.9086C37.0371 25.3322 37.0371 26.0208 36.6124 26.4445L32.2677 30.7892C31.844 31.2129 31.1554 31.2129 30.7318 30.7892C30.3082 30.3656 30.3082 29.677 30.7318 29.2534L34.3086 25.6765Z" fill="#1090D0"/>
</svg>
