<svg width="64" height="65" viewBox="0 0 64 65" fill="none" xmlns="http://www.w3.org/2000/svg">
<path d="M62.6521 43.4112H60.4569C60.167 42.4157 59.7683 41.456 59.2654 40.5424L60.8198 38.988C61.2346 38.5732 61.2346 37.9012 60.8198 37.4864L56.6553 33.3219C56.2405 32.9071 55.5686 32.9071 55.1538 33.3219L53.5993 34.8764C52.6858 34.3734 51.726 33.9747 50.7306 33.6849V31.4896C50.7306 30.9032 50.2551 30.4277 49.6687 30.4277H43.7797C43.1933 30.4277 42.7178 30.9032 42.7178 31.4896V33.6849C41.7223 33.9747 40.7626 34.3734 39.849 34.8764L38.2946 33.3219C37.8798 32.9071 37.2079 32.9071 36.7931 33.3219L32.6286 37.4864C32.2138 37.9012 32.2138 38.5732 32.6286 38.988L34.183 40.5424C33.6801 41.456 33.2813 42.4157 32.9915 43.4112H30.7962C30.2098 43.4112 29.7344 43.8866 29.7344 44.4731V50.362C29.7344 50.9485 30.2098 51.4239 30.7962 51.4239H32.9915C33.2813 52.4194 33.6801 53.3791 34.183 54.2927L32.6286 55.8471C32.2138 56.2619 32.2138 56.9339 32.6286 57.3487L36.7931 61.5132C37.2079 61.928 37.8798 61.928 38.2946 61.5132L39.849 59.9587C40.7626 60.4617 41.7223 60.8604 42.7178 61.1502V63.3455C42.7178 63.9319 43.1933 64.4074 43.7797 64.4074H49.6687C50.2551 64.4074 50.7306 63.9319 50.7306 63.3455V61.1502C51.726 60.8604 52.6858 60.4617 53.5993 59.9587L55.1538 61.5132C55.5686 61.928 56.2405 61.928 56.6553 61.5132L60.8198 57.3487C61.2346 56.9339 61.2346 56.2619 60.8198 55.8471L59.2654 54.2927C59.7683 53.3791 60.167 52.4194 60.4569 51.4239H62.6521C63.2386 51.4239 63.714 50.9485 63.714 50.362V44.4731C63.714 43.8866 63.2386 43.4112 62.6521 43.4112ZM61.5903 49.3002H59.6356C59.1399 49.3002 58.7101 49.6434 58.6002 50.1267C58.2974 51.4597 57.7706 52.7279 57.0348 53.8966C56.7704 54.316 56.8321 54.8625 57.1826 55.213L58.5675 56.5979L55.9045 59.2609L54.5197 57.876C54.1692 57.5265 53.6232 57.4638 53.2032 57.7282C52.0345 58.4639 50.7663 58.9907 49.4333 59.2935C48.9501 59.4034 48.6068 59.8333 48.6068 60.3289V62.2836H44.8416V60.3289C44.8416 59.8333 44.4983 59.4034 44.0151 59.2935C42.6821 58.9907 41.4138 58.4639 40.2452 57.7282C39.8268 57.4638 39.2797 57.5265 38.9287 57.876L37.5438 59.2609L34.8809 56.5979L36.2658 55.213C36.6163 54.8625 36.678 54.316 36.4135 53.8966C35.6778 52.7279 35.151 51.4597 34.8482 50.1267C34.7383 49.6434 34.3085 49.3002 33.8128 49.3002H31.8581V45.5349H33.8128C34.3085 45.5349 34.7383 45.1917 34.8482 44.7085C35.151 43.3754 35.6778 42.1072 36.4135 40.9385C36.678 40.5191 36.6163 39.9726 36.2658 39.6221L34.8809 38.2372L37.5438 35.5742L38.9287 36.9591C39.2797 37.3096 39.8267 37.3718 40.2452 37.1069C41.4138 36.3712 42.6821 35.8444 44.0151 35.5416C44.4983 35.4317 44.8416 35.0018 44.8416 34.5062V32.5515H48.6068V34.5062C48.6068 35.0018 48.9501 35.4317 49.4333 35.5416C50.7663 35.8444 52.0346 36.3712 53.2032 37.1069C53.6232 37.3718 54.1692 37.3096 54.5197 36.9591L55.9045 35.5742L58.5675 38.2372L57.1826 39.6221C56.8321 39.9726 56.7704 40.5191 57.0348 40.9385C57.7706 42.1072 58.2974 43.3754 58.6002 44.7085C58.7101 45.1917 59.1399 45.5349 59.6356 45.5349H61.5903V49.3002Z" fill="#1090D0"/>
<path d="M46.7215 39.1152C42.0375 39.1152 38.2266 42.9261 38.2266 47.6101C38.2266 52.2942 42.0375 56.1051 46.7215 56.1051C51.4055 56.1051 55.2164 52.2942 55.2164 47.6101C55.2164 42.9261 51.4055 39.1152 46.7215 39.1152ZM46.7215 53.9813C43.2082 53.9813 40.3503 51.1234 40.3503 47.6101C40.3503 44.0969 43.2082 41.239 46.7215 41.239C50.2347 41.239 53.0927 44.0969 53.0927 47.6101C53.0927 51.1234 50.2347 53.9813 46.7215 53.9813Z" fill="#1090D0"/>
<path d="M60.5262 0.695312H3.18559C1.42895 0.695312 0 2.12426 0 3.8809V48.2381C0 49.9947 1.42895 51.4237 3.18559 51.4237H26.5466C27.133 51.4237 27.6085 50.9482 27.6085 50.3618C27.6085 49.7754 27.133 49.2999 26.5466 49.2999H3.18559C2.60022 49.2999 2.12373 48.8235 2.12373 48.2381V13.9385H12.5007C13.0872 13.9385 13.5626 13.4631 13.5626 12.8767C13.5626 12.2903 13.0872 11.8148 12.5007 11.8148H2.12373V3.8809C2.12373 3.29553 2.60022 2.81904 3.18559 2.81904H60.5262C61.1116 2.81904 61.5881 3.29553 61.5881 3.8809V11.8148H17.3735C16.7871 11.8148 16.3116 12.2903 16.3116 12.8767C16.3116 13.4631 16.7871 13.9385 17.3735 13.9385H61.5881V34.8134C61.5881 35.3998 62.0635 35.8753 62.65 35.8753C63.2364 35.8753 63.7118 35.3998 63.7118 34.8134V3.8809C63.7118 2.12426 62.2829 0.695312 60.5262 0.695312Z" fill="#1090D0"/>
<path d="M6.44468 6.25391C5.85826 6.25391 5.38281 6.72936 5.38281 7.31577C5.38281 7.90218 5.85826 8.37763 6.44468 8.37763H8.08465C8.67106 8.37763 9.14651 7.90218 9.14651 7.31577C9.14651 6.72936 8.67106 6.25391 8.08465 6.25391H6.44468Z" fill="#1090D0"/>
<path d="M12.6947 6.25391C12.1083 6.25391 11.6328 6.72936 11.6328 7.31577C11.6328 7.90218 12.1083 8.37763 12.6947 8.37763H14.3346C14.9211 8.37763 15.3965 7.90218 15.3965 7.31577C15.3965 6.72936 14.9211 6.25391 14.3346 6.25391H12.6947Z" fill="#1090D0"/>
<path d="M20.5695 8.37763C21.156 8.37763 21.6314 7.90218 21.6314 7.31577C21.6314 6.72936 21.156 6.25391 20.5695 6.25391H18.9291C18.3426 6.25391 17.8672 6.72936 17.8672 7.31577C17.8672 7.90218 18.3426 8.37763 18.9291 8.37763H20.5695Z" fill="#1090D0"/>
<path d="M13.4404 19.7017C13.0256 19.2869 12.3537 19.2869 11.9389 19.7017L4.84235 26.7983C4.42755 27.2131 4.42755 27.885 4.84235 28.2998L11.9389 35.3964C12.1463 35.6038 12.418 35.7075 12.6897 35.7075C12.9614 35.7075 13.233 35.6038 13.4404 35.3964C13.8552 34.9816 13.8552 34.3096 13.4404 33.8948L7.09467 27.5491L13.4404 21.2033C13.8552 20.7885 13.8552 20.1165 13.4404 19.7017Z" fill="#1090D0"/>
<path d="M26.0767 35.3964C26.2841 35.6038 26.5558 35.7075 26.8275 35.7075C27.0992 35.7075 27.3709 35.6038 27.5783 35.3964L34.6748 28.2998C35.0896 27.885 35.0896 27.2131 34.6748 26.7983L27.5783 19.7017C27.1635 19.2869 26.4915 19.2869 26.0767 19.7017C25.6619 20.1165 25.6619 20.7885 26.0767 21.2033L32.4225 27.549L26.0767 33.8948C25.6619 34.3096 25.6619 34.9816 26.0767 35.3964Z" fill="#1090D0"/>
<path d="M20.3132 20.2189L17.1276 34.412C16.999 34.9844 17.3589 35.5526 17.9308 35.6807C18.0096 35.6983 18.0873 35.7066 18.1646 35.7066C18.6504 35.7066 19.0885 35.3712 19.1995 34.8776L22.3851 20.6845C22.5137 20.1121 22.1538 19.5438 21.5819 19.4157C21.009 19.2903 20.4418 19.647 20.3132 20.2189Z" fill="#1090D0"/>
</svg>
