<svg width="56" height="66" viewBox="0 0 56 66" fill="none" xmlns="http://www.w3.org/2000/svg">
<path d="M49.1129 37.1889C49.6076 35.9618 49.9985 34.6817 50.2744 33.3593H53.246C54.2024 33.3593 54.9778 32.5839 54.9778 31.6275V25.7408C54.9778 24.7844 54.2024 24.0091 53.246 24.0091H50.2744C49.6861 21.1906 48.5764 18.5641 47.0511 16.2337L49.1543 14.1305C49.8305 13.4542 49.8305 12.3576 49.1543 11.6814L44.9918 7.51887C44.3155 6.84261 43.2189 6.84261 42.5426 7.51887L40.4394 9.62205C38.109 8.09676 35.4825 6.98699 32.664 6.3987V3.42709C32.664 2.4707 31.8887 1.69531 30.9323 1.69531H25.0456C24.0892 1.69531 23.3138 2.4707 23.3138 3.42709V6.3987C20.4953 6.98699 17.8688 8.09676 15.5384 9.62205L13.4352 7.51887C12.7589 6.84261 11.6623 6.84261 10.9861 7.51887L6.82357 11.6814C6.14731 12.3576 6.14731 13.4542 6.82357 14.1305L8.92675 16.2337C7.40146 18.5641 6.29169 21.1906 5.7034 24.0091H2.73178C1.77539 24.0091 1 24.7844 1 25.7408V31.6275C1 32.5839 1.77539 33.3593 2.73178 33.3593H5.7034C6.29169 36.1778 7.40146 38.8042 8.92675 41.1347L6.82357 43.2379C6.14731 43.9141 6.14731 45.0107 6.82357 45.687L10.9861 49.8495C11.6623 50.5258 12.7589 50.5258 13.4352 49.8495L15.5384 47.7463C17.8688 49.2716 20.4953 50.3814 23.3138 50.9697V53.9413C23.3138 54.8977 24.0892 55.673 25.0456 55.673H30.9323C31.8887 55.673 32.664 54.8977 32.664 53.9413V50.9697C35.4825 50.3814 38.109 49.2716 40.4394 47.7463L42.5426 49.8495C43.2189 50.5258 44.3155 50.5258 44.9918 49.8495L49.1543 45.687C49.8305 45.0107 49.8305 43.9141 49.1543 43.2379L47.0511 41.1347" stroke="#1090D0" stroke-width="1.90139" stroke-miterlimit="10" stroke-linecap="round" stroke-linejoin="round"/>
<path d="M30.7969 64.6951V55.6738" stroke="#1090D0" stroke-width="1.90139" stroke-miterlimit="10" stroke-linecap="round" stroke-linejoin="round"/>
<path d="M37.4843 64.6952C38.5241 64.6952 39.3671 63.8523 39.3671 62.8124C39.3671 61.7726 38.5241 60.9297 37.4843 60.9297C36.4445 60.9297 35.6016 61.7726 35.6016 62.8124C35.6016 63.8523 36.4445 64.6952 37.4843 64.6952Z" stroke="#1090D0" stroke-width="1.90139" stroke-miterlimit="10" stroke-linecap="round" stroke-linejoin="round"/>
<path d="M37.4844 60.9302V49.3828" stroke="#1090D0" stroke-width="1.90139" stroke-miterlimit="10" stroke-linecap="round" stroke-linejoin="round"/>
<path d="M25.1328 64.6952C26.1726 64.6952 27.0155 63.8523 27.0155 62.8124C27.0155 61.7726 26.1726 60.9297 25.1328 60.9297C24.0929 60.9297 23.25 61.7726 23.25 62.8124C23.25 63.8523 24.0929 64.6952 25.1328 64.6952Z" stroke="#1090D0" stroke-width="1.90139" stroke-miterlimit="10" stroke-linecap="round" stroke-linejoin="round"/>
<path d="M25.1328 60.9298V55.6738" stroke="#1090D0" stroke-width="1.90139" stroke-miterlimit="10" stroke-linecap="round" stroke-linejoin="round"/>
<path d="M11.4921 64.6952C12.5319 64.6952 13.3749 63.8523 13.3749 62.8124C13.3749 61.7726 12.5319 60.9297 11.4921 60.9297C10.4523 60.9297 9.60938 61.7726 9.60938 62.8124C9.60938 63.8523 10.4523 64.6952 11.4921 64.6952Z" stroke="#1090D0" stroke-width="1.90139" stroke-miterlimit="10" stroke-linecap="round" stroke-linejoin="round"/>
<path d="M18.6981 49.4746V62.8124H13.375" stroke="#1090D0" stroke-width="1.90139" stroke-miterlimit="10" stroke-linecap="round" stroke-linejoin="round"/>
<path d="M4.56244 58.9003C5.60226 58.9003 6.44519 58.0573 6.44519 57.0175C6.44519 55.9777 5.60226 55.1348 4.56244 55.1348C3.52262 55.1348 2.67969 55.9777 2.67969 57.0175C2.67969 58.0573 3.52262 58.9003 4.56244 58.9003Z" stroke="#1090D0" stroke-width="1.90139" stroke-miterlimit="10" stroke-linecap="round" stroke-linejoin="round"/>
<path d="M12.7722 50.2637V57.0171H6.44531" stroke="#1090D0" stroke-width="1.90139" stroke-miterlimit="10" stroke-linecap="round" stroke-linejoin="round"/>
<path d="M51.4062 58.9003C52.446 58.9003 53.2889 58.0573 53.2889 57.0175C53.2889 55.9777 52.446 55.1348 51.4062 55.1348C50.3664 55.1348 49.5234 55.9777 49.5234 57.0175C49.5234 58.0573 50.3664 58.9003 51.4062 58.9003Z" stroke="#1090D0" stroke-width="1.90139" stroke-miterlimit="10" stroke-linecap="round" stroke-linejoin="round"/>
<path d="M43.1953 50.2637V57.0171H49.5222" stroke="#1090D0" stroke-width="1.90139" stroke-miterlimit="10" stroke-linecap="round" stroke-linejoin="round"/>
<path d="M18.7034 26.4265C19.7178 22.2389 23.4909 19.1289 27.9903 19.1289C33.2674 19.1289 37.5454 23.4069 37.5454 28.684C37.5454 33.9611 33.2674 38.2391 27.9903 38.2391C23.4788 38.2391 19.6976 35.1124 18.6953 30.9077" stroke="#1090D0" stroke-width="1.90139" stroke-miterlimit="10" stroke-linecap="round" stroke-linejoin="round"/>
<path d="M24.5064 45.0519C16.9373 43.4498 11.2578 36.7299 11.2578 28.6841C11.2578 20.6384 16.9373 13.9185 24.5064 12.3164" stroke="#1090D0" stroke-width="1.90139" stroke-miterlimit="10" stroke-linecap="round" stroke-linejoin="round"/>
<path d="M31.4688 12.3164C39.0379 13.9185 44.7174 20.6384 44.7174 28.6841C44.7174 36.7299 39.0379 43.4499 31.4688 45.0519" stroke="#1090D0" stroke-width="1.90139" stroke-miterlimit="10" stroke-linecap="round" stroke-linejoin="round"/>
<path d="M23.5859 28.9514L26.161 31.8055L32.4041 25.5625" stroke="#1090D0" stroke-width="1.90139" stroke-miterlimit="10" stroke-linecap="round" stroke-linejoin="round"/>
<path d="M33.0878 15.4781L31.4688 12.3162L34.6305 10.6973" stroke="#1090D0" stroke-width="1.90139" stroke-miterlimit="10" stroke-linecap="round" stroke-linejoin="round"/>
<path d="M21.125 46.1413L24.5055 45.0505L23.4147 41.6699" stroke="#1090D0" stroke-width="1.90139" stroke-miterlimit="10" stroke-linecap="round" stroke-linejoin="round"/>
</svg>
