<svg width="63" height="64" viewBox="0 0 63 64" fill="none" xmlns="http://www.w3.org/2000/svg">
<path d="M3.70463 40.6487C3.92124 40.7181 4.11778 40.8391 4.27737 41.0012C4.43696 41.1632 4.55483 41.3616 4.62088 41.5793C4.96545 42.6093 5.381 43.6142 5.86454 44.5868C5.97103 44.7895 6.0263 45.0151 6.02553 45.244C6.02476 45.473 5.96797 45.6983 5.86012 45.9002C5.33418 46.8752 5.13568 47.9935 5.29394 49.09C5.4522 50.1864 5.95883 51.2029 6.73903 51.9894L11.7059 56.9568C12.4944 57.7383 13.5136 58.245 14.6126 58.402C15.7116 58.5591 16.8319 58.358 17.8077 57.8286C18.0063 57.7248 18.227 57.6703 18.451 57.6696C18.6751 57.6689 18.8961 57.7221 19.0953 57.8248C20.0851 58.3002 21.1007 58.7198 22.1374 59.0816C22.353 59.1495 22.5488 59.269 22.7079 59.4296C22.867 59.5902 22.9845 59.7871 23.0504 60.0034C23.3667 61.0665 24.0169 61.9996 24.9047 62.6645C25.7925 63.3294 26.8708 63.6909 27.98 63.6953H35.02C36.1311 63.6903 37.211 63.3273 38.0996 62.6602C38.9881 61.9931 39.638 61.0574 39.9529 59.9918C40.022 59.7749 40.1428 59.5781 40.3049 59.4183C40.467 59.2585 40.6656 59.1405 40.8834 59.0745C41.9133 58.7304 42.918 58.3152 43.8904 57.8319C44.0931 57.7247 44.3191 57.6691 44.5485 57.6698C44.7778 57.6706 45.0035 57.7278 45.2055 57.8363C46.1805 58.362 47.2987 58.5604 48.395 58.402C49.4914 58.2437 50.5078 57.737 51.2941 56.9568L56.261 51.9894C57.0422 51.2008 57.5489 50.1819 57.7062 49.0831C57.8635 47.9843 57.663 46.8641 57.1344 45.8881C57.0305 45.6895 56.9759 45.4688 56.9751 45.2446C56.9743 45.0204 57.0275 44.7993 57.13 44.6C57.6055 43.6097 58.0251 42.5935 58.3868 41.5562C58.4549 41.341 58.5742 41.1456 58.7346 40.9868C58.895 40.8281 59.0916 40.7107 59.3075 40.6449C60.3708 40.3287 61.304 39.6786 61.969 38.7908C62.634 37.903 62.9955 36.8246 63 35.7153V28.6753C62.9949 27.564 62.6317 26.4839 61.9644 25.5953C61.2971 24.7066 60.3612 24.0567 59.2954 23.7419C59.0788 23.6725 58.8822 23.5515 58.7226 23.3895C58.563 23.2274 58.4452 23.029 58.3791 22.8113C58.0345 21.7813 57.619 20.7764 57.1355 19.8038C57.029 19.6012 56.9737 19.3755 56.9745 19.1466C56.9752 18.9176 57.032 18.6924 57.1399 18.4904C57.6658 17.5154 57.8643 16.3971 57.706 15.3007C57.5478 14.2042 57.0412 13.1877 56.261 12.4012L51.2941 7.43378C50.5055 6.65245 49.4863 6.14579 48.3874 5.98878C47.2884 5.83177 46.1681 6.03277 45.1923 6.56201C44.9937 6.66582 44.773 6.72036 44.5489 6.72103C44.3249 6.7217 44.1039 6.66848 43.9047 6.56585C42.9149 6.09046 41.8993 5.67085 40.8626 5.30902C40.647 5.2411 40.4511 5.12167 40.2921 4.96107C40.133 4.80046 40.0154 4.60352 39.9496 4.38727C39.6333 3.32412 38.9831 2.39105 38.0953 1.72613C37.2075 1.06121 36.1292 0.699774 35.02 0.695312H27.98C26.8689 0.700352 25.789 1.06334 24.9004 1.73045C24.0119 2.39755 23.362 3.33326 23.0471 4.39881C22.978 4.61571 22.8572 4.81254 22.6951 4.97236C22.533 5.13217 22.3344 5.25016 22.1166 5.31617C21.0867 5.66027 20.082 6.07545 19.1096 6.55872C18.9069 6.66603 18.6809 6.72176 18.4515 6.72099C18.2222 6.72023 17.9965 6.66299 17.7946 6.55434C16.8195 6.02875 15.7013 5.83051 14.605 5.98886C13.5087 6.14722 12.4924 6.65377 11.7059 7.43379L6.73905 12.4013C5.95787 13.1898 5.45117 14.2088 5.29388 15.3075C5.13659 16.4063 5.33706 17.5265 5.86565 18.5025C5.96956 18.7012 6.02419 18.9219 6.02496 19.146C6.02572 19.3702 5.97259 19.5913 5.87004 19.7906C5.39455 20.781 4.97493 21.7971 4.61316 22.8344C4.54516 23.0496 4.42581 23.245 4.26541 23.4038C4.10502 23.5626 3.90839 23.6799 3.69251 23.7457C2.62924 24.0619 1.69603 24.712 1.031 25.5998C0.365975 26.4877 0.00447076 27.566 0 28.6753V35.7153C0.0051251 36.8266 0.368269 37.9067 1.03558 38.7953C1.70289 39.684 2.63884 40.3339 3.70463 40.6487ZM2.25 28.6753C2.25191 28.0539 2.45348 27.4495 2.82496 26.9513C3.19645 26.4531 3.71819 26.0875 4.31325 25.9084C4.87369 25.7425 5.38617 25.4447 5.80769 25.0398C6.2292 24.6349 6.54744 24.1348 6.73571 23.5815C7.33731 21.56 9.0719 19.513 7.83537 17.4137C7.54012 16.8657 7.4288 16.2374 7.51783 15.6213C7.60686 15.0052 7.89152 14.4341 8.32984 13.9921L13.2967 9.0246C13.7399 8.5856 14.3126 8.30093 14.9301 8.21268C15.5476 8.12443 16.1772 8.23731 16.7255 8.5346C18.8367 9.77858 20.7476 8.05464 22.8394 7.44693C23.4016 7.26463 23.9111 6.94853 24.324 6.52579C24.737 6.10306 25.0412 5.58634 25.2103 5.02008C25.3879 4.42263 25.7531 3.89824 26.2519 3.52456C26.7508 3.15088 27.3567 2.94777 27.98 2.94531H35.02C35.6414 2.9472 36.2457 3.14876 36.7438 3.52026C37.2419 3.89176 37.6074 4.41352 37.7864 5.00856C37.9527 5.56894 38.2509 6.08131 38.6559 6.50277C39.061 6.92424 39.5611 7.24254 40.1144 7.43102C42.1453 8.03649 44.1787 9.76755 46.2821 8.53068C46.83 8.23536 47.4582 8.12395 48.0742 8.21287C48.6902 8.3018 49.2613 8.58635 49.7032 9.02455L54.6701 13.992C55.1091 14.4353 55.3938 15.0081 55.4821 15.6257C55.5703 16.2433 55.4574 16.8729 55.1601 17.4214C53.9194 19.5395 55.6357 21.4336 56.2489 23.5359C56.4312 24.0976 56.7472 24.6066 57.1697 25.0192C57.5923 25.4318 58.1087 25.7356 58.6746 25.9045C59.2722 26.0823 59.7967 26.4477 60.1705 26.9467C60.5443 27.4457 60.7474 28.0518 60.75 28.6753V35.7153C60.7481 36.3368 60.5465 36.9411 60.175 37.4393C59.8036 37.9375 59.2818 38.3031 58.6868 38.4822C58.1263 38.6481 57.6138 38.946 57.1923 39.3509C56.7708 39.7557 56.4525 40.2558 56.2643 40.8091C55.6628 42.8304 53.928 44.8778 55.1646 46.9769C55.4599 47.5249 55.5712 48.1532 55.4821 48.7693C55.3931 49.3854 55.1085 49.9566 54.6701 50.3986L49.7033 55.366C49.26 55.8049 48.6873 56.0895 48.0698 56.1777C47.4524 56.266 46.8229 56.1532 46.2744 55.856C44.1636 54.6145 42.2521 56.3349 40.1605 56.9437C39.5984 57.126 39.0889 57.4421 38.6759 57.8648C38.263 58.2876 37.9588 58.8043 37.7897 59.3705C37.6121 59.968 37.2469 60.4924 36.748 60.8661C36.2492 61.2397 35.6433 61.4428 35.02 61.4453H27.98C27.3586 61.4434 26.7543 61.2419 26.2562 60.8704C25.7581 60.4989 25.3926 59.9771 25.2136 59.3821C25.0473 58.8217 24.7491 58.3093 24.3441 57.8878C23.939 57.4664 23.4389 57.1481 22.8856 56.9596C21.3428 56.543 20.0389 55.4655 18.4428 55.4236C17.8404 55.4226 17.2474 55.5726 16.7179 55.8598C16.17 56.1552 15.5418 56.2667 14.9258 56.1778C14.3098 56.0888 13.7387 55.8042 13.2967 55.366L8.32987 50.3985C7.89085 49.9552 7.60617 49.3824 7.51792 48.7648C7.42968 48.1472 7.54256 47.5176 7.83988 46.9691C9.08037 44.8514 7.36442 42.9567 6.7511 40.8547C6.56879 40.2929 6.25278 39.7839 5.83023 39.3713C5.40768 38.9587 4.89124 38.6549 4.32532 38.4861C3.72774 38.3083 3.20327 37.9429 2.82951 37.4439C2.45575 36.9449 2.25256 36.3388 2.25 35.7153V28.6753Z" fill="#1090D0"/>
<path d="M28.6385 53.3557C44.7713 55.8321 57.7554 38.7168 51.1776 23.8517C44.8666 8.76743 24.0654 6.20225 14.3622 19.4761C4.56622 32.1929 12.8042 51.4474 28.6385 53.3557ZM31.5005 51.3203C31.2877 51.3203 31.0812 51.2953 30.8701 51.2884L39.2953 36.6953C40.0791 35.3246 40.4943 33.7742 40.5005 32.1953C40.4997 30.9166 40.2257 29.6528 39.6968 28.4887C39.1678 27.3245 38.3961 26.2869 37.4334 25.4453H49.3722C54.251 37.5465 44.5954 51.5852 31.5005 51.3203ZM24.7505 32.1953C25.0338 23.2747 37.9684 23.2768 38.2505 32.1954C37.9671 41.1159 25.0325 41.1138 24.7505 32.1953ZM31.5005 13.0703C34.9649 13.0733 38.3635 14.0167 41.3339 15.7999C44.3042 17.5831 46.7347 20.1391 48.3663 23.1953H31.5005C29.4232 23.1981 27.4107 23.9183 25.8033 25.234C24.1959 26.5497 23.0921 28.3801 22.6788 30.4158L16.7133 20.0833C18.5042 17.8914 20.7599 16.125 23.3174 14.9121C25.8748 13.6992 28.67 13.0701 31.5005 13.0703ZM15.2831 22.1067L23.7057 36.6953C24.5001 38.0596 25.6373 39.1927 27.0046 39.982C28.3718 40.7713 29.9217 41.1896 31.5005 41.1953C32.4785 41.1938 33.4497 41.0319 34.3754 40.716L28.4108 51.0473C15.2343 49.095 7.95401 33.4181 15.2831 22.1067Z" fill="#1090D0"/>
</svg>
