<svg width="14" height="11" viewBox="0 0 14 11" fill="none" xmlns="http://www.w3.org/2000/svg">
<path d="M12.6375 0.917068C13.4387 1.76802 13.8688 2.72243 13.8688 4.26954C13.8688 6.99197 11.9584 9.43204 9.17846 10.6385L8.48386 9.5666C11.0779 8.16339 11.5851 6.34247 11.7881 5.19439C11.3704 5.41063 10.8236 5.48608 10.2869 5.43629C8.88366 5.3064 7.77758 4.15442 7.77758 2.72243C7.77758 2.00039 8.06441 1.30793 8.57496 0.79738C9.08551 0.286826 9.77797 0 10.5 0C11.3346 0 12.1335 0.381139 12.6375 0.917068ZM4.85914 0.917068C5.66031 1.76802 6.09045 2.72243 6.09045 4.26954C6.09045 6.99197 4.18009 9.43204 1.4001 10.6385L0.705497 9.5666C3.29958 8.16339 3.80673 6.34247 4.00897 5.19439C3.59127 5.41063 3.04445 5.48608 2.50852 5.43629C1.1053 5.30717 0 4.1552 0 2.72243C0 2.00039 0.286826 1.30793 0.79738 0.79738C1.30793 0.286826 2.00039 0 2.72243 0C3.55704 0 4.35588 0.381139 4.85992 0.917068" fill="#EF1649"/>
</svg>
