<svg width="39" height="38" viewBox="0 0 39 38" fill="none" xmlns="http://www.w3.org/2000/svg">
<path fill-rule="evenodd" clip-rule="evenodd" d="M10.0313 0.901735C10.4936 0.732575 11.3394 0.507027 11.892 0.382976C12.6025 0.236371 13.4032 0.168707 14.5422 0.168707C15.6023 0.15743 16.5157 0.213816 17.136 0.337867C17.666 0.439364 18.5006 0.642355 18.9968 0.800238C19.493 0.958121 20.3275 1.30772 20.8575 1.5671C21.3876 1.83776 22.2672 2.37907 22.8198 2.7625C23.3724 3.15721 24.2069 3.89024 24.6806 4.38644C25.1542 4.88264 25.8196 5.72844 26.1692 6.2472C26.5188 6.77724 26.9586 7.51027 27.1503 7.88242C27.3307 8.25457 27.6352 9.02143 27.8269 9.57402C28.0074 10.1266 28.2442 11.0739 28.3457 11.6603C28.4472 12.2468 28.5261 13.2843 28.5261 13.9722C28.5261 14.6601 28.4472 15.6751 28.357 16.2277C28.2668 16.7803 28.0525 17.705 27.8721 18.2576C27.6916 18.8102 27.3082 19.7349 27.0262 20.2875C26.7556 20.8401 26.2256 21.7085 25.8534 22.2047C25.4812 22.7009 25.0978 23.1858 24.985 23.276C24.8836 23.3662 24.7933 23.4903 24.7933 23.5579C24.7933 23.6256 24.9399 23.8061 25.1091 23.9752C25.2895 24.1444 25.47 24.291 25.5376 24.2797C25.6053 24.2797 25.8872 24.0542 26.1917 23.7835C26.609 23.3775 26.8007 23.276 27.1165 23.276C27.4322 23.276 27.6352 23.3888 28.1653 23.8624C28.5149 24.1782 29.1915 24.7985 29.6539 25.2383C29.8171 25.3899 30.1719 25.7223 30.6527 26.1727C31.5669 27.0293 32.9367 28.3127 34.3114 29.5913C37.3338 32.422 38.1796 33.2565 38.3938 33.7076C38.5855 34.091 38.687 34.4744 38.687 34.8917C38.6983 35.23 38.6307 35.7375 38.5517 36.0082C38.4615 36.2788 38.1908 36.7299 37.9427 37.0118C37.6946 37.2938 37.2886 37.6208 37.0405 37.7561C36.7022 37.9253 36.3752 37.9817 35.7436 37.993C35.1234 37.993 34.7625 37.9366 34.4016 37.7674C34.0182 37.5983 32.8341 36.3916 29.1577 32.4783C26.5526 29.6928 24.2971 27.2569 24.1505 27.0652C24.0152 26.8735 23.9024 26.5803 23.9024 26.4111C23.9024 26.1856 24.0829 25.9149 25.0865 24.8548L24.6918 24.5165C24.4776 24.3248 24.252 24.1669 24.1844 24.1669C24.1167 24.1669 23.9926 24.2571 23.9024 24.3586C23.8122 24.4714 23.3273 24.8548 22.8311 25.227C22.3349 25.5992 21.4214 26.1405 20.8011 26.445C20.1809 26.7382 19.3464 27.0878 18.9404 27.2118C18.5344 27.3471 17.8578 27.5276 17.4179 27.6178C16.9781 27.708 16.0985 27.8208 15.4444 27.8546C14.7339 27.8997 13.7866 27.8772 13.0762 27.787C12.4221 27.7193 11.4635 27.5276 10.9335 27.381C10.4034 27.2231 9.5689 26.9186 9.07269 26.7043C8.57649 26.4901 7.74196 26.0502 7.21193 25.7232C6.5804 25.3398 5.82481 24.697 4.95646 23.8399C4.2347 23.1294 3.41146 22.1934 3.12952 21.7536C2.84759 21.3138 2.43033 20.592 2.20478 20.1522C1.97923 19.7011 1.67474 18.9568 1.51686 18.517C1.37026 18.0659 1.16726 17.3103 1.06577 16.8479C0.96427 16.3856 0.851497 15.3142 0.817665 14.4797C0.772555 13.3858 0.806386 12.6527 0.941715 11.8633C1.04321 11.2544 1.25748 10.3409 1.41537 9.8334C1.58453 9.31465 1.87774 8.53651 2.06945 8.10797C2.27244 7.67943 2.73482 6.85618 3.09569 6.30359C3.47912 5.72844 4.2347 4.82626 4.84368 4.21728C5.4301 3.61958 6.34357 2.85272 6.87361 2.50312C7.40364 2.15352 8.13667 1.72498 8.50882 1.53327C8.88098 1.35283 9.5689 1.05962 10.0313 0.901735ZM9.80531 3.55338C10.2677 3.33911 11.1811 3.02334 11.8352 2.85418C12.8615 2.58352 13.2336 2.53842 14.5982 2.53842C15.7259 2.52714 16.4477 2.5948 17.1356 2.74141C17.6656 2.85418 18.4776 3.11356 18.94 3.30527C19.4023 3.49699 20.1692 3.86914 20.6316 4.1398C21.0939 4.41046 21.9398 5.06454 22.4923 5.59458C23.0449 6.12461 23.7892 6.95914 24.1276 7.44407C24.4659 7.92899 24.9283 8.74096 25.1538 9.23717C25.3793 9.73337 25.6838 10.5679 25.8304 11.0979C26.0673 11.9437 26.1011 12.2933 26.0898 14.03C26.0898 15.7104 26.056 16.1389 25.8417 16.9058C25.6951 17.402 25.4245 18.1576 25.2215 18.5974C25.0297 19.0372 24.7027 19.6687 24.4997 20.007C24.308 20.3454 23.8456 20.9769 23.4847 21.4054C23.1239 21.834 22.4021 22.5445 21.8721 22.9617C21.3421 23.3903 20.485 23.9541 19.9549 24.2248C19.4249 24.4954 18.6693 24.8225 18.2633 24.9465C17.8573 25.0706 17.2258 25.251 16.8537 25.33C16.459 25.4089 15.5004 25.4653 14.5418 25.4653C13.1547 25.454 12.7374 25.4089 11.7788 25.1495C11.1586 24.9916 10.1436 24.6082 9.52338 24.3037C8.84674 23.9654 8.01221 23.4241 7.43707 22.9617C6.90703 22.5332 6.19656 21.8453 5.85824 21.428C5.51991 21.022 5.00116 20.2664 4.69667 19.7477C4.40346 19.2402 4.05386 18.541 3.92981 18.2027C3.79448 17.8643 3.59149 17.199 3.45616 16.7366C3.26444 16.0374 3.21933 15.5525 3.21933 14.03C3.21933 12.3272 3.24189 12.0678 3.52382 11.0415C3.70426 10.4213 4.06514 9.45144 4.33579 8.89885C4.60645 8.34626 5.0801 7.55684 5.38459 7.15085C5.68908 6.74487 6.29805 6.09078 6.71532 5.6848C7.14386 5.27881 7.8205 4.72622 8.22648 4.44429C8.63247 4.17363 9.34294 3.76765 9.80531 3.55338Z" fill="#100E2E"/>
<path fill-rule="evenodd" clip-rule="evenodd" d="M18.2075 6.14493C18.2977 5.95322 18.512 5.72767 18.6924 5.63745H18.6812C18.8616 5.54723 19.1322 5.47957 19.3014 5.46829C19.4818 5.46829 19.7525 5.53596 19.9217 5.62617C20.1021 5.70512 20.3164 5.89683 20.4179 6.04344C20.5194 6.19004 20.6209 6.43814 20.6434 6.58475C20.6772 6.8103 20.8238 6.90052 21.4215 7.10351C21.9967 7.29522 22.1659 7.39672 22.1771 7.58844C22.1997 7.72376 22.1433 7.87037 22.0644 7.9042C21.9967 7.93803 21.6133 7.85909 20.5194 7.49822L20.0908 7.79143C19.7751 8.0057 19.5721 8.06208 19.2788 8.02825C19.0646 7.99442 18.7826 7.93803 18.6586 7.9042C18.5007 7.84782 18.0722 8.03953 15.8393 9.39281L15.7829 9.97924C15.7378 10.4303 15.6588 10.622 15.4107 10.8363C15.2416 10.9829 14.9709 11.1408 14.7905 11.1746C14.6213 11.2085 14.3845 11.2197 14.2604 11.1859C14.1364 11.1521 13.8995 11.0168 13.7191 10.8927C13.55 10.7574 13.347 10.4529 13.268 10.2048C13.2004 9.95668 13.0537 9.71986 12.9635 9.68602C12.934 9.67496 12.8551 9.64582 12.7059 9.59072C12.3987 9.47727 11.7935 9.25379 10.7081 8.8515L10.5051 9.07705C10.4036 9.21238 10.1329 9.33643 9.91864 9.38154C9.65926 9.41537 9.3886 9.38154 9.15178 9.25749C8.80218 9.07705 8.77963 9.08832 8.08043 9.47176C7.697 9.68602 7.29102 9.86646 7.17824 9.86646C7.07675 9.86646 6.96397 9.77624 6.93014 9.67475C6.89631 9.56197 6.94142 9.39281 7.03164 9.30259C7.12185 9.21238 7.48273 8.98683 7.82105 8.79511C8.41875 8.47935 8.45258 8.43424 8.45258 8.02825C8.45258 7.73504 8.5428 7.50949 8.75707 7.26139C8.97134 7.03584 9.21944 6.90052 9.52393 6.85541C9.86225 6.79902 10.0765 6.84413 10.3923 7.02457C10.7306 7.21628 10.8547 7.38544 11.1028 8.26508L13.3582 9.0996L13.7529 8.86278C13.9672 8.72745 14.3168 8.62595 14.5085 8.62595C14.7115 8.62595 14.9822 8.67106 15.1062 8.73873C15.2867 8.82895 15.5799 8.70489 16.6851 8.06208C18.0045 7.29522 18.0383 7.26139 18.0383 6.87796C18.0383 6.66369 18.1173 6.33665 18.2075 6.14493ZM17.3955 9.61836L17.7113 9.29132C18.0271 8.96427 18.0496 8.96427 19.3127 8.96427H19.3127C20.5419 8.96427 20.5983 8.97555 21.3088 9.58453L21.3313 19.8469L21.0268 20.1514C20.7336 20.4672 20.6998 20.4672 17.9369 20.4672H17.9368L17.373 19.7905L17.3955 9.61836ZM7.7985 10.8701L8.06915 10.5995C8.32853 10.3288 8.40747 10.3176 11.0577 10.3176L11.7343 10.9942V19.7905L11.0802 20.4672H9.71565C8.40747 20.4672 8.33981 20.4559 7.78722 19.9033L7.7985 10.8701ZM12.5801 12.7084L12.8508 12.4151C13.1214 12.1332 13.1665 12.1219 14.486 12.1219C15.5122 12.1219 15.9182 12.167 16.0986 12.2911C16.2452 12.3813 16.4031 12.652 16.4708 12.8888C16.5272 13.1143 16.5723 14.6255 16.5836 16.2382C16.5836 17.8508 16.5385 19.3733 16.4708 19.6214C16.4144 19.8695 16.2565 20.1627 16.1099 20.2755C15.8956 20.4446 15.6363 20.4785 14.5198 20.4672C13.2116 20.4672 13.2004 20.4672 12.5237 19.7905L12.5801 12.7084ZM6.81737 21.4032C6.78353 21.2904 6.78353 21.1325 6.81737 21.0536C6.86248 20.9408 8.49769 20.9183 22.3914 20.9747V21.5385L14.6326 21.5724C7.33612 21.5949 6.88503 21.5836 6.81737 21.4032ZM18.7149 6.76052C18.7149 6.6703 18.8164 6.48987 18.9405 6.36581C19.0645 6.24176 19.2562 6.14027 19.369 6.14027C19.4705 6.14027 19.6509 6.23049 19.7637 6.34326C19.8765 6.44476 19.9667 6.62519 19.9554 6.72669C19.9554 6.83946 19.8539 7.03118 19.7299 7.15523C19.6058 7.27928 19.4254 7.38078 19.3352 7.38078C19.2449 7.38078 19.0645 7.27928 18.9405 7.15523C18.8164 7.03118 18.7149 6.85074 18.7149 6.76052ZM9.1066 8.12508C9.09532 8.00103 9.18554 7.80932 9.29831 7.69654C9.41108 7.58377 9.58024 7.49355 9.68174 7.49355C9.78324 7.49355 9.9524 7.54994 10.0652 7.62888C10.2005 7.7191 10.2794 7.91081 10.2794 8.11381C10.2794 8.3168 10.2005 8.50851 10.0652 8.59873C9.9524 8.67767 9.78324 8.73406 9.69302 8.73406C9.6028 8.73406 9.43364 8.64384 9.32086 8.53107C9.20809 8.42957 9.11787 8.23786 9.1066 8.12508ZM13.9559 9.8618C13.9446 9.63625 14.0122 9.50092 14.1589 9.42198C14.2716 9.35432 14.4633 9.29793 14.5648 9.29793C14.6776 9.29793 14.8468 9.37687 14.937 9.46709C15.0272 9.55731 15.1062 9.7603 15.1062 9.91818C15.1062 10.0986 15.0047 10.2565 14.8242 10.3693C14.5761 10.5159 14.5085 10.5159 14.2603 10.3693C14.0724 10.2565 13.9709 10.0873 13.9559 9.8618Z" fill="#100E2E"/>
</svg>
