<svg width="44" height="44" viewBox="0 0 44 44" fill="none" xmlns="http://www.w3.org/2000/svg">
<path fill-rule="evenodd" clip-rule="evenodd" d="M21.9102 0.618164C22.0698 0.618164 22.2378 0.693764 22.3722 0.828164C22.5822 1.03816 22.5822 1.05496 22.5822 2.49136C22.5906 3.81856 22.5738 3.95296 22.4142 4.16296C22.2798 4.35616 22.179 4.39816 21.9102 4.39816C21.6414 4.39816 21.5406 4.35616 21.4062 4.17136C21.2466 3.95296 21.2298 3.81856 21.2382 2.48296C21.2466 1.06336 21.2466 1.02136 21.4482 0.828164C21.5742 0.693764 21.7422 0.618164 21.9102 0.618164ZM7.16824 5.96896C7.31104 5.99416 7.50424 6.07816 7.61344 6.15376C7.74784 6.24616 7.94104 6.63256 8.20984 7.33815C8.43664 7.91775 8.74744 8.71575 8.89864 9.11895C9.17584 9.82455 9.19264 9.85815 9.47824 9.89175C9.63784 9.91695 10.4526 9.95895 11.2842 9.99255C12.2754 10.0262 12.8886 10.085 13.0734 10.1606C13.2162 10.2277 13.4094 10.379 13.4934 10.5049C13.5774 10.6393 13.6278 10.8661 13.6194 11.0761C13.611 11.3197 13.5438 11.4793 13.3674 11.6473C13.2414 11.7817 12.5442 12.3613 10.5282 13.9741L11.0238 15.8473C11.3598 17.1241 11.4942 17.7793 11.4522 17.9221C11.4186 18.0397 11.2842 18.2329 11.1582 18.3673C10.9734 18.5437 10.839 18.5941 10.5534 18.5941C10.2342 18.5941 10.0242 18.4765 8.65504 17.5861C7.81504 17.0317 7.08424 16.5781 7.04224 16.5781C7.00024 16.5781 6.32824 16.9897 5.54704 17.4853C4.77424 17.9893 4.06024 18.4429 3.95105 18.4933C3.85025 18.5521 3.63185 18.5941 3.47225 18.5941C3.24545 18.5941 3.11105 18.5269 2.88425 18.3001C2.66585 18.0817 2.59025 17.9305 2.59025 17.7289C2.59025 17.5861 2.80025 16.6957 3.05225 15.7633C3.43025 14.3521 3.49745 14.0329 3.40505 13.9237C3.35465 13.8481 2.69945 13.3021 1.96025 12.7141C1.22105 12.1261 0.56585 11.5465 0.50705 11.4205C0.45665 11.3029 0.40625 11.0929 0.40625 10.9501C0.40625 10.7821 0.49865 10.5973 0.985849 10.085L2.87585 9.99255C3.91744 9.94215 4.79944 9.85815 4.84984 9.81615C4.89184 9.77415 5.21944 8.97615 5.57224 8.05215C5.92504 7.12815 6.24424 6.32176 6.28624 6.25456C6.32824 6.18736 6.48784 6.08656 6.63904 6.02776C6.79024 5.96056 7.02544 5.93536 7.16824 5.96896ZM5.97544 10.7149C5.91664 10.8493 5.75704 11.0089 5.61424 11.0761C5.44624 11.1601 4.95904 11.2189 4.11904 11.2609C3.43865 11.2861 2.79185 11.3365 2.68265 11.3617C2.49785 11.4037 2.59865 11.5129 3.62345 12.3361C4.37944 12.9409 4.80784 13.3441 4.87504 13.5121C4.95904 13.7221 4.94224 13.8901 4.79104 14.4781C4.69024 14.8729 4.51384 15.5197 4.39624 15.9229C4.27864 16.3345 4.22824 16.6621 4.27024 16.6621C4.31224 16.6621 4.89184 16.3093 5.54704 15.8809C6.50464 15.2677 6.80704 15.1081 7.04224 15.1165C7.26904 15.1165 7.62184 15.3013 8.57944 15.9313C9.25984 16.3765 9.81424 16.6957 9.81424 16.6369C9.81424 16.5865 9.66304 15.9901 9.47824 15.3181C9.29344 14.6461 9.14224 13.9741 9.14224 13.8229C9.14224 13.6801 9.17584 13.4869 9.21784 13.4029C9.25984 13.3273 9.80584 12.8485 10.4358 12.3361C11.511 11.4625 11.5614 11.4121 11.343 11.3617C11.217 11.3281 10.797 11.3029 10.4022 11.2945C10.0074 11.2861 9.41944 11.2525 9.08344 11.2189C8.58784 11.1685 8.43664 11.1181 8.26864 10.9501C8.15104 10.8241 7.86544 10.2109 7.58824 9.48015C7.32784 8.78295 7.09264 8.19495 7.05904 8.15295C7.02544 8.11935 6.79864 8.63175 6.54664 9.28695C6.29464 9.95055 6.04264 10.5889 5.97544 10.7149ZM36.9462 5.96896C37.0638 5.98576 37.2486 6.06976 37.3662 6.15376C37.5258 6.26296 37.7442 6.75016 38.9286 9.81615L39.2646 9.87495C39.441 9.90855 40.323 9.96735 42.8346 10.0682L43.1286 10.379C43.3218 10.5973 43.4142 10.7821 43.4142 10.9501C43.4142 11.0929 43.3638 11.3029 43.305 11.4205C43.2546 11.5381 42.5658 12.1513 41.7846 12.7897C41.0034 13.4197 40.3566 13.9573 40.3398 13.9909C40.323 14.0329 40.5162 14.8225 40.7682 15.7549C41.0202 16.6957 41.2302 17.5861 41.2302 17.7289C41.2302 17.9305 41.1546 18.0901 40.9446 18.3001C40.7178 18.5353 40.5918 18.5941 40.3398 18.5941C40.0794 18.6025 39.8274 18.4765 39.0462 17.9809C38.517 17.6449 37.8198 17.1913 37.4922 16.9729C37.1646 16.7545 36.8538 16.5781 36.795 16.5781C36.7446 16.5781 36.0054 17.0317 35.157 17.5861C33.813 18.4765 33.5862 18.5941 33.267 18.5941C32.9982 18.5941 32.8554 18.5437 32.6706 18.3589C32.5362 18.2329 32.4018 18.0229 32.3682 17.8801C32.3262 17.6953 32.4354 17.1493 33.2922 13.9825L31.9146 12.8653C31.1502 12.2521 30.4614 11.6725 30.3774 11.5801C30.3018 11.4877 30.2094 11.3029 30.1842 11.1601C30.159 11.0089 30.201 10.7905 30.2934 10.6142C30.369 10.4545 30.5538 10.2614 30.6882 10.1858C30.873 10.0934 31.3518 10.043 32.5362 9.99255C33.4098 9.95895 34.2498 9.91695 34.3842 9.89175C34.6278 9.84975 34.6614 9.79095 35.3082 8.11095C35.6778 7.14495 36.0558 6.28816 36.1566 6.18736C36.2658 6.08656 36.4338 5.98576 36.543 5.96896C36.6522 5.94376 36.8286 5.94376 36.9462 5.96896ZM36.2322 9.48015C35.955 10.2109 35.6694 10.8241 35.5518 10.9501C35.3838 11.1181 35.2326 11.1685 34.737 11.2189C34.401 11.2525 33.813 11.2861 33.4182 11.2945C33.0234 11.3029 32.6034 11.3281 32.4774 11.3617C32.2506 11.4121 32.301 11.4541 33.3006 12.2521C33.8886 12.7141 34.4346 13.1845 34.527 13.3021C34.611 13.4197 34.6782 13.6381 34.6782 13.8061C34.6782 13.9657 34.527 14.6461 34.3422 15.3181C34.1574 15.9901 34.0062 16.5865 34.0062 16.6369C34.0062 16.6957 34.5606 16.3849 35.241 15.9313C36.1986 15.3181 36.5514 15.1249 36.7866 15.1165C37.0302 15.1081 37.3074 15.2509 38.2734 15.8809C38.9286 16.3093 39.4998 16.6621 39.5502 16.6621C39.5922 16.6621 39.5418 16.3345 39.4242 15.9229C39.3066 15.5197 39.1302 14.8729 39.0294 14.4781C38.8782 13.8901 38.8614 13.7221 38.9454 13.5121C39.0126 13.3441 39.441 12.9409 40.197 12.3361C41.2218 11.5129 41.3226 11.4037 41.1378 11.3617C41.0286 11.3365 40.3818 11.2861 39.693 11.2609C38.8614 11.2189 38.3742 11.1601 38.2062 11.0761C38.0718 11.0089 37.9206 10.8829 37.8786 10.7989C37.8366 10.7233 37.5846 10.085 37.3242 9.39615C37.0638 8.69895 36.837 8.12775 36.8286 8.11095C36.8202 8.09415 36.7866 8.11095 36.7614 8.15295C36.7278 8.18655 36.4926 8.78295 36.2322 9.48015ZM21.8682 20.1985C22.3638 20.1901 22.9182 20.2405 23.2122 20.3161C23.4894 20.3833 24.0018 20.5849 24.3462 20.7529C24.8166 20.9797 25.1442 21.2233 25.6566 21.7357C26.0262 22.1137 26.4462 22.6261 26.589 22.8781C26.7318 23.1301 26.9334 23.5837 27.0342 23.8861C27.1434 24.2053 27.2358 24.7597 27.261 25.2301C27.2946 25.8097 27.2694 26.1961 27.1686 26.6581C27.093 27.0025 26.925 27.5149 26.7906 27.7921C26.6646 28.0693 26.379 28.5313 26.1606 28.8253C25.9506 29.1109 25.5894 29.4889 25.3626 29.6653C25.1274 29.8333 24.9426 29.9929 24.9342 30.0181C24.9342 30.0433 25.0938 30.1105 25.287 30.1777C25.4886 30.2365 26.0262 30.4801 26.4882 30.7153C26.9502 30.9589 27.6474 31.4041 28.0422 31.7065C28.437 32.0089 28.9242 32.4457 29.1342 32.6725C29.3442 32.8993 29.6298 33.2353 30.0162 33.7393L30.579 33.1849C30.8982 32.8741 31.4274 32.4457 31.7634 32.2273C32.0994 32.0005 32.5782 31.7317 32.8302 31.6141C33.0822 31.5049 33.309 31.4041 33.3342 31.3873C33.3594 31.3789 33.1746 31.1521 32.9226 30.8833C32.679 30.6145 32.385 30.2197 32.2758 30.0013C32.1666 29.7745 32.0154 29.3797 31.9482 29.1193C31.881 28.8505 31.8222 28.3885 31.8222 28.0861C31.8222 27.7837 31.881 27.3133 31.9566 27.0361C32.0238 26.7589 32.1918 26.3221 32.3262 26.0701C32.469 25.8181 32.7966 25.3897 33.057 25.1209C33.3258 24.8605 33.7542 24.5329 34.0062 24.3901C34.2582 24.2557 34.695 24.0877 34.9722 24.0205C35.2494 23.9449 35.6946 23.8861 35.955 23.8861C36.2238 23.8861 36.6438 23.9281 36.879 23.9785C37.1226 24.0289 37.5678 24.1885 37.8702 24.3313C38.2146 24.4909 38.601 24.7765 38.9286 25.0957C39.2898 25.4485 39.5418 25.8013 39.7518 26.2381C39.9198 26.5909 40.0962 27.1201 40.1466 27.4561C40.2138 27.8929 40.2138 28.2037 40.1466 28.6741C40.0878 29.0521 39.9366 29.5393 39.7686 29.8921C39.609 30.2197 39.2898 30.6901 39.0546 30.9421C38.8194 31.1941 38.6346 31.4041 38.6514 31.4125C38.6598 31.4125 38.8782 31.5049 39.1302 31.6057C39.3822 31.7149 39.8358 31.9585 40.1382 32.1517C40.4406 32.3449 40.9446 32.7481 41.2638 33.0505C41.5746 33.3445 42.0534 33.9073 42.3138 34.3021C42.5742 34.6969 42.9186 35.3185 43.0782 35.6881C43.3302 36.2593 43.3722 36.4525 43.3722 36.9901C43.3638 37.4605 43.3218 37.7041 43.1874 37.9561C43.095 38.1409 42.885 38.4181 42.7338 38.5693C42.5742 38.7289 42.297 38.9305 42.1122 39.0313C41.7762 39.2161 41.7174 39.2161 31.8222 39.2581V40.1233C31.8222 40.6273 31.7718 41.1481 31.7046 41.4001C31.629 41.6353 31.4358 42.0217 31.2594 42.2737C31.083 42.5341 30.7386 42.8617 30.4782 43.0381C30.2262 43.2061 29.8482 43.4077 29.6382 43.4833C29.2938 43.6093 28.5462 43.6261 14.5602 43.6261L14.0982 43.4497C13.8462 43.3489 13.443 43.1221 13.2162 42.9541C12.981 42.7861 12.6702 42.4585 12.5274 42.2317C12.3762 42.0049 12.1914 41.6353 12.1242 41.4001C12.0486 41.1397 11.9982 40.6525 11.9982 39.2581L7.01704 39.2413C2.10305 39.2161 2.04425 39.2161 1.70825 39.0313C1.52345 38.9305 1.24625 38.7289 1.08665 38.5693C0.927049 38.4181 0.70865 38.0821 0.59105 37.8301C0.41465 37.4437 0.38945 37.2841 0.42305 36.8641C0.44825 36.5701 0.58265 36.0829 0.75065 35.6881C0.901849 35.3185 1.24625 34.6969 1.50665 34.3021C1.76705 33.9073 2.24585 33.3445 2.55665 33.0505C2.87585 32.7481 3.37985 32.3533 3.68225 32.1601C3.98464 31.9753 4.43824 31.7233 4.69024 31.6141C4.94224 31.5049 5.16064 31.4125 5.16904 31.4041C5.18584 31.4041 5.00104 31.1941 4.76584 30.9421C4.53064 30.6901 4.21144 30.2197 4.05184 29.8921C3.87545 29.5309 3.73265 29.0605 3.67385 28.6741C3.59825 28.2037 3.59825 27.9013 3.67385 27.4561C3.72425 27.1285 3.90064 26.5825 4.06864 26.2381C4.28704 25.7845 4.52224 25.4569 4.90864 25.0873C5.24464 24.7513 5.63944 24.4657 5.96704 24.3145C6.26104 24.1801 6.69784 24.0289 6.93304 23.9785C7.17664 23.9281 7.59664 23.8861 7.85704 23.8861C8.12584 23.8861 8.57104 23.9449 8.84824 24.0205C9.12544 24.0877 9.56224 24.2557 9.81424 24.3901C10.0662 24.5329 10.4946 24.8605 10.7634 25.1209C11.0238 25.3897 11.3514 25.8181 11.4942 26.0701C11.6286 26.3221 11.7966 26.7589 11.8638 27.0361C11.9394 27.3133 11.9982 27.7837 11.9982 28.0861C11.9982 28.3885 11.9394 28.8589 11.8638 29.1361C11.7966 29.4133 11.637 29.8249 11.511 30.0517C11.385 30.2785 11.091 30.6733 10.8642 30.9169C10.629 31.1689 10.461 31.3789 10.4862 31.3873C10.5114 31.4041 10.7382 31.5049 10.9902 31.6141C11.2422 31.7317 11.721 32.0005 12.057 32.2273C12.393 32.4457 12.9222 32.8741 13.8042 33.7393L14.0562 33.4117C14.1906 33.2353 14.4762 32.8993 14.6862 32.6725C14.8962 32.4457 15.3834 32.0089 15.7782 31.7065C16.173 31.4041 16.8702 30.9589 17.3322 30.7153C17.7942 30.4801 18.3318 30.2365 18.5334 30.1777C18.7266 30.1105 18.8862 30.0433 18.8862 30.0181C18.8778 29.9929 18.693 29.8333 18.4578 29.6653C18.231 29.4889 17.8698 29.1109 17.6598 28.8253C17.4414 28.5313 17.1558 28.0693 17.0298 27.7921C16.8954 27.5149 16.7274 27.0025 16.6518 26.6581C16.551 26.1961 16.5258 25.8097 16.5594 25.2301C16.5846 24.7597 16.677 24.2053 16.7862 23.8861C16.887 23.5837 17.0886 23.1301 17.2314 22.8781C17.3742 22.6261 17.7942 22.1137 18.1638 21.7441C18.6678 21.2485 19.0122 20.9797 19.4742 20.7529C19.8186 20.5849 20.3142 20.3917 20.5662 20.3245C20.8182 20.2573 21.4062 20.1985 21.8682 20.1985ZM19.6506 22.2397C19.3818 22.4413 18.9702 22.8277 18.7434 23.0965C18.5166 23.3737 18.2478 23.8189 18.1386 24.0961C18.021 24.3985 17.9286 24.8689 17.9034 25.2721C17.8698 25.7425 17.895 26.1037 17.9958 26.4733C18.0714 26.7589 18.231 27.1957 18.3486 27.4393C18.4746 27.6745 18.8022 28.1029 19.0878 28.3885C19.407 28.7077 19.8018 28.9933 20.1462 29.1613C20.4486 29.3041 20.9526 29.4637 21.2802 29.5225C21.7422 29.5981 22.0026 29.5981 22.4982 29.5225C22.8426 29.4637 23.3718 29.3041 23.6742 29.1613C24.0102 28.9933 24.4134 28.7077 24.7326 28.3885C25.0686 28.0609 25.3458 27.6829 25.5138 27.3301C25.6566 27.0277 25.8162 26.5741 25.8666 26.3221C25.917 26.0701 25.9422 25.5997 25.917 25.2721C25.8918 24.9445 25.8162 24.4825 25.7406 24.2473C25.665 24.0037 25.4466 23.5669 25.245 23.2813C25.0434 22.9873 24.657 22.5757 24.3798 22.3657C24.111 22.1557 23.6574 21.8953 23.3802 21.7861C23.0022 21.6433 22.6662 21.5845 22.0362 21.5593C21.3726 21.5425 21.087 21.5677 20.667 21.7021C20.3814 21.7945 19.9194 22.0381 19.6506 22.2397ZM6.37024 25.6249C6.21064 25.7173 5.89144 26.0029 5.67304 26.2465C5.43784 26.5153 5.21104 26.8765 5.12704 27.1201C5.05144 27.3553 4.98424 27.8005 4.98424 28.1281C4.98424 28.6153 5.03464 28.8085 5.25304 29.2621C5.40424 29.5813 5.66464 29.9509 5.88304 30.1357C6.07624 30.3205 6.45424 30.5641 6.70624 30.6817C7.07584 30.8497 7.30264 30.8917 7.84024 30.9001C8.40304 30.9001 8.58784 30.8581 8.97424 30.6733C9.22624 30.5557 9.59584 30.2953 9.78904 30.1105C9.99064 29.9173 10.251 29.5645 10.377 29.3293C10.587 28.9345 10.6122 28.7917 10.6122 28.0861C10.6122 27.4309 10.5786 27.2209 10.4274 26.9101C10.3266 26.7001 10.1166 26.3809 9.95704 26.1961C9.79744 26.0113 9.42784 25.7341 9.13384 25.5745C8.68024 25.3309 8.49544 25.2805 7.96624 25.2553C7.60504 25.2385 7.19344 25.2805 7.00024 25.3393C6.81544 25.3981 6.52984 25.5241 6.37024 25.6249ZM34.5102 25.6669C34.2582 25.8181 33.9138 26.1373 33.7374 26.3641C33.561 26.5993 33.351 26.9941 33.2754 27.2461C33.1914 27.5569 33.1578 27.9013 33.183 28.2961C33.2082 28.7077 33.2922 29.0185 33.4434 29.3293C33.5694 29.5645 33.8298 29.9173 34.023 30.1105C34.2246 30.2953 34.5942 30.5557 34.8462 30.6733C35.2326 30.8581 35.4174 30.9001 35.9802 30.9001C36.5178 30.8917 36.7446 30.8497 37.1142 30.6817C37.3662 30.5641 37.7442 30.3205 37.9374 30.1357C38.1558 29.9509 38.4162 29.5813 38.5674 29.2621C38.7858 28.8085 38.8362 28.6153 38.8362 28.1281C38.8362 27.7585 38.769 27.3637 38.6682 27.0781C38.5674 26.7757 38.3574 26.4565 38.0802 26.1709C37.845 25.9105 37.4586 25.6249 37.1982 25.4989C36.8538 25.3309 36.5766 25.2721 36.1062 25.2553C35.7618 25.2469 35.3586 25.2721 35.2242 25.3141C35.0814 25.3561 34.7622 25.5157 34.5102 25.6669ZM19.5162 31.2697C19.1718 31.3705 18.651 31.5553 18.357 31.6813C18.0714 31.8157 17.5506 32.1013 17.2062 32.3197C16.8618 32.5465 16.257 33.0337 15.879 33.4117C15.4926 33.7813 14.9634 34.4113 14.703 34.8061C14.4426 35.2009 14.1066 35.8057 13.9638 36.1501C13.821 36.4945 13.6194 37.0993 13.5186 37.4941C13.3758 38.0821 13.3422 38.4517 13.3422 39.5521C13.3422 40.6609 13.3758 40.9549 13.4934 41.2321C13.5774 41.4169 13.7958 41.6941 13.9806 41.8453C14.157 41.9965 14.4426 42.1561 14.6022 42.1981C14.7786 42.2485 17.6178 42.2821 21.9102 42.2821C26.1186 42.2821 29.0418 42.2485 29.2182 42.1981C29.3778 42.1561 29.6718 41.9881 29.865 41.8201C30.0834 41.6437 30.2766 41.3833 30.3606 41.1649C30.4614 40.8793 30.4866 40.5265 30.4614 39.3001L30.4278 37.7881C29.907 36.2929 29.571 35.5369 29.3442 35.1505C29.0922 34.7221 28.6218 34.1257 28.1682 33.6469C27.7398 33.2017 27.1182 32.6641 26.7402 32.4037C26.3706 32.1601 25.8162 31.8409 25.497 31.7065C25.1862 31.5637 24.5814 31.3453 24.153 31.2277C23.5314 31.0513 23.1534 31.0093 22.1622 30.9841C21.4902 30.9673 20.7678 30.9841 20.5494 31.0177C20.331 31.0597 19.869 31.1689 19.5162 31.2697ZM5.61424 32.6641C5.40424 32.7397 5.00944 32.9245 4.73224 33.0841C4.45504 33.2437 4.03504 33.5293 3.79145 33.7309C3.54785 33.9325 3.17825 34.3021 2.96825 34.5541C2.75825 34.8061 2.41385 35.3605 2.20385 35.7721C2.00225 36.1837 1.80905 36.6625 1.78385 36.8221C1.75865 36.9901 1.78385 37.2253 1.85105 37.3597C1.90985 37.5025 2.06945 37.6789 2.21225 37.7629C2.44745 37.9057 2.78345 37.9141 7.25224 37.9141H12.0402C12.309 36.7717 12.5274 36.1249 12.6954 35.7301L13.0062 35.0161C12.645 34.5121 12.3006 34.1341 11.9982 33.8653C11.6286 33.5293 11.175 33.2353 10.6122 32.9581C10.0998 32.7061 9.52024 32.4961 9.11704 32.4205C8.76424 32.3449 8.15944 32.2861 7.77304 32.2945C7.39504 32.2945 6.84064 32.3533 6.53824 32.4121C6.23584 32.4709 5.82424 32.5885 5.61424 32.6641ZM33.2082 32.9581C32.6454 33.2269 32.1834 33.5293 31.8222 33.8653C31.5198 34.1341 31.1754 34.5121 31.0494 34.6885L30.8142 35.0161C31.293 36.1249 31.5114 36.7717 31.6038 37.1833L31.7802 37.9141C41.037 37.9141 41.373 37.9057 41.6082 37.7629C41.7426 37.6789 41.9106 37.5025 41.9694 37.3597C42.0366 37.2253 42.0618 36.9901 42.0366 36.8221C42.0114 36.6625 41.8182 36.1837 41.6166 35.7721C41.4066 35.3605 41.0538 34.7977 40.8354 34.5373C40.617 34.2685 40.1886 33.8569 39.8862 33.6217C39.5838 33.3865 39.0714 33.0673 38.7522 32.9077C38.4246 32.7565 37.9374 32.5717 37.6602 32.4961C37.383 32.4205 36.7194 32.3449 36.1902 32.3197C35.5182 32.3029 35.0394 32.3281 34.6362 32.4205C34.3086 32.4877 33.6702 32.7313 33.2082 32.9581ZM15.207 4.14616C15.291 4.14616 15.4422 4.18816 15.543 4.24696C15.6522 4.29736 16.299 4.85176 16.9962 5.47336C17.685 6.09496 18.3402 6.69136 18.441 6.80056C18.567 6.92655 18.6342 7.10295 18.6342 7.27095C18.6342 7.43895 18.5586 7.62375 18.441 7.74135C18.3234 7.85895 18.1554 7.92615 17.979 7.92615C17.7858 7.92615 17.6094 7.83375 17.349 7.60695C17.1558 7.43055 16.4586 6.80056 15.795 6.20416C14.6694 5.17936 14.5938 5.09536 14.5938 4.80136C14.5854 4.55776 14.6358 4.45696 14.8206 4.32256C14.9466 4.22176 15.1146 4.14616 15.207 4.14616ZM28.5882 4.14616C28.6806 4.14616 28.857 4.21336 28.983 4.31416C29.1762 4.44856 29.2182 4.54936 29.2182 4.81816C29.2182 5.14576 29.1846 5.18776 28.017 6.22096C27.3618 6.81735 26.6646 7.43895 26.463 7.60695C26.211 7.84215 26.0346 7.92615 25.833 7.92615C25.6734 7.92615 25.4886 7.85055 25.371 7.73295C25.2618 7.62375 25.1862 7.44735 25.1862 7.29615C25.1862 7.15335 25.2282 6.98535 25.287 6.90976C25.3458 6.83416 26.001 6.22936 26.7402 5.55736C27.4794 4.89376 28.1598 4.29736 28.2522 4.24696C28.3446 4.19656 28.4958 4.14616 28.5882 4.14616ZM21.885 5.91016C21.9438 5.91016 22.1202 5.96056 22.263 6.01936C22.4142 6.08656 22.599 6.22936 22.6746 6.33856C22.7418 6.44776 23.0862 7.28775 24.0522 9.84975L24.3462 9.89175C24.5058 9.91695 25.3206 9.95895 26.1522 9.99255C26.9838 10.0178 27.7566 10.085 27.8742 10.127C27.9918 10.169 28.1682 10.2866 28.2774 10.3874C28.3782 10.4882 28.4874 10.6645 28.5126 10.7821C28.5378 10.8997 28.521 11.1265 28.4706 11.2861C28.4034 11.5297 28.1094 11.7985 26.9166 12.7561C26.1102 13.4029 25.4466 13.9657 25.4382 14.0161C25.4382 14.0665 25.6482 14.8897 25.9086 15.8641C26.2362 17.1073 26.3622 17.7121 26.3286 17.8969C26.3034 18.0565 26.169 18.2665 26.0262 18.3841C25.8414 18.5353 25.6734 18.5941 25.413 18.5941C25.1022 18.5941 24.8754 18.4681 23.523 17.5861C22.683 17.0317 21.9522 16.5781 21.9102 16.5781C21.8598 16.5781 21.1374 17.0317 20.289 17.5861C18.945 18.4681 18.7182 18.5941 18.399 18.5941C18.147 18.5941 17.979 18.5353 17.7942 18.3841C17.6514 18.2665 17.517 18.0565 17.4918 17.8969C17.4582 17.7121 17.5842 17.1073 17.9118 15.8641C18.1722 14.8897 18.3822 14.0665 18.3822 14.0161C18.3738 13.9657 17.7102 13.4029 16.9038 12.7561C15.711 11.7985 15.4254 11.5213 15.3498 11.2861C15.2994 11.1265 15.2826 10.8997 15.3078 10.7821C15.333 10.6645 15.4422 10.4882 15.543 10.3874C15.6522 10.2866 15.8286 10.169 15.9462 10.127C16.0638 10.085 16.8366 10.0262 17.6682 9.99255C18.4998 9.95895 19.3146 9.91695 19.7682 9.84975L20.3898 8.19495C20.7342 7.28775 21.0786 6.44776 21.1458 6.33856C21.2214 6.22936 21.3894 6.08656 21.5322 6.02776C21.6666 5.96896 21.8346 5.91856 21.885 5.91016ZM20.9358 10.5134C20.8014 10.8074 20.6502 10.9921 20.4822 11.0761C20.3142 11.1601 19.7598 11.2301 18.819 11.2861C18.0462 11.3281 17.4078 11.3785 17.3994 11.3869C17.3826 11.4037 17.8698 11.8069 18.4746 12.2941C19.0794 12.7813 19.6254 13.2769 19.6926 13.4113C19.7598 13.5373 19.8102 13.7221 19.8102 13.8313C19.8102 13.9321 19.6506 14.5873 19.449 15.2929C19.2558 15.9985 19.1214 16.5949 19.155 16.6201C19.197 16.6453 19.7598 16.3177 20.415 15.8893C21.3474 15.2929 21.6834 15.1165 21.9102 15.1165C22.137 15.1165 22.473 15.2929 23.397 15.8893C24.0606 16.3177 24.6234 16.6453 24.657 16.6201C24.699 16.5949 24.5646 15.9985 24.3714 15.2929C24.1698 14.5873 24.0102 13.9321 24.0102 13.8313C24.0102 13.7221 24.0606 13.5373 24.1278 13.4113C24.195 13.2769 24.741 12.7813 25.3458 12.2941C25.9506 11.8069 26.4378 11.4037 26.421 11.3869C26.4126 11.3785 25.7742 11.3281 24.993 11.2861C24.0578 11.2301 23.5062 11.1601 23.3382 11.0761C23.1702 10.9921 23.019 10.8074 22.8846 10.5134C22.7754 10.2698 22.5402 9.62295 22.3554 9.08535C22.1622 8.53935 21.9774 8.09415 21.9354 8.09415C21.8934 8.09415 21.6918 8.53935 21.4902 9.08535C21.297 9.62295 21.045 10.2698 20.9358 10.5134Z" fill="white"/>
</svg>
