<svg width="44" height="47" viewBox="0 0 44 47" fill="none" xmlns="http://www.w3.org/2000/svg">
<path fill-rule="evenodd" clip-rule="evenodd" d="M2.96886 0.877257L24.6056 0.859375L25.142 1.06501C25.4371 1.18124 25.8752 1.40476 26.1076 1.57464C26.349 1.74451 26.662 2.0485 26.8229 2.2452C26.9749 2.44189 27.2073 2.82635 27.556 3.58632L27.6007 10.9625L42.6928 11.0072L43.0862 11.2843C43.3365 11.4542 43.5511 11.7224 43.9624 12.5271L43.9713 24.2395L43.7299 24.4809C43.5958 24.624 43.3902 24.7313 43.2561 24.7313C43.1309 24.7402 42.9252 24.6598 42.5766 24.3915L42.5319 15.5223H16.4247V16.9081L17.0685 17.0243C17.4261 17.0869 17.9804 17.2478 18.3023 17.373C18.6242 17.5071 19.107 17.7396 19.3752 17.9005C19.6434 18.0615 20.0726 18.3654 20.3229 18.58C20.5733 18.7946 20.9846 19.2059 21.2349 19.5009C21.4942 19.796 21.8607 20.3414 22.0485 20.7079C22.2363 21.0745 22.4866 21.6646 22.585 22.0043C22.6922 22.3441 22.8174 22.9521 22.8621 23.3455C22.9158 23.8014 22.9068 24.3558 22.8532 24.8654C22.8085 25.3035 22.6565 25.9919 22.5224 26.3853C22.3883 26.7787 22.1021 27.4046 21.8786 27.7712C21.6641 28.1377 21.217 28.7189 20.8951 29.0586C20.5733 29.3894 20.0279 29.8544 19.6881 30.0779C19.3394 30.3103 18.803 30.6054 18.4811 30.7306C18.1593 30.8647 17.5692 31.0524 16.4247 31.3028V31.8839C16.4247 32.2058 16.4605 32.5098 16.4963 32.5634C16.532 32.6171 16.6483 32.7065 16.7556 32.7691C16.9076 32.8406 20.2246 32.8674 29.4962 32.8674C39.4294 32.8674 42.0848 32.8406 42.4871 32.6349L42.5319 29.9169C42.5587 28.1645 42.6123 27.1274 42.6749 27.0112C42.7285 26.9128 42.8448 26.8055 42.9252 26.7608C43.0057 26.7251 43.1577 26.6983 43.265 26.6983C43.3812 26.6983 43.5779 26.8055 43.9624 27.19V29.8991C43.9624 32.5724 43.9624 32.5992 43.7478 33.0194C43.6316 33.2608 43.417 33.5558 43.2739 33.69C43.1398 33.8241 42.8984 33.985 42.7554 34.0476C42.5408 34.137 40.0642 34.1728 29.97 34.1906C23.0856 34.2085 17.1937 34.1906 16.8718 34.1549C16.4337 34.1102 16.1923 34.0208 15.8972 33.8151C15.6737 33.6631 15.4144 33.377 15.3161 33.1803C15.182 32.921 15.1194 32.6081 15.0657 31.3028L14.2968 31.1418C13.8677 31.0524 13.2597 30.8736 12.9378 30.7395C12.616 30.6054 12.0706 30.3103 11.7308 30.0779C11.3821 29.8544 10.8099 29.3626 9.80857 28.3076H6.8134C5.1683 28.3076 3.74671 28.2808 3.66624 28.245C3.58578 28.2003 3.46955 28.0483 3.40696 27.9053C3.34438 27.7354 3.32649 27.5566 3.38014 27.4135C3.42484 27.2883 3.55896 27.1364 3.68413 27.0738C3.854 26.9933 4.73914 26.9665 10.4791 26.9754L10.7921 27.3509C10.9619 27.5566 11.3732 27.9947 11.704 28.3255C12.1511 28.7725 12.4997 29.0229 13.0451 29.2911C13.4564 29.4878 14.0286 29.7113 14.3237 29.7828C14.6187 29.8544 15.2446 29.9169 15.7095 29.9169C16.1744 29.9169 16.8003 29.8544 17.0953 29.7828C17.3904 29.7113 17.9715 29.4788 18.3917 29.2732C18.9818 28.9871 19.3037 28.7457 19.8222 28.2271C20.2961 27.7443 20.609 27.3331 20.8683 26.8324C21.074 26.439 21.3064 25.8578 21.3869 25.536C21.4763 25.1873 21.5389 24.6061 21.5389 24.1054C21.5389 23.5958 21.4852 23.0236 21.3958 22.6749C21.3064 22.353 21.0918 21.7898 20.913 21.4232C20.6716 20.9314 20.3945 20.5649 19.867 20.0284C19.4378 19.5903 18.9192 19.1791 18.5705 18.9824C18.2487 18.8125 17.6854 18.5711 17.3188 18.4638C16.7913 18.3029 16.4426 18.2582 15.6648 18.2582C14.8601 18.2671 14.5561 18.3118 13.966 18.4996C13.5726 18.6247 12.9915 18.9019 12.6696 19.1075C12.3477 19.3132 11.8918 19.6708 11.6504 19.8943C11.4179 20.1178 11.0424 20.5649 10.8368 20.8867C10.6222 21.2086 10.345 21.7361 10.2198 22.0669C10.0947 22.4067 9.96056 22.9252 9.93374 23.2292C9.90691 23.5422 9.84433 23.9266 9.79963 24.0786C9.75492 24.2395 9.63869 24.4094 9.54034 24.4631C9.43305 24.5167 8.24393 24.5525 6.56306 24.5525C4.01494 24.5614 3.75565 24.5435 3.5679 24.4005C3.43378 24.3021 3.35332 24.1322 3.34438 23.9534C3.33544 23.7567 3.38908 23.5958 3.53213 23.4617C3.72883 23.2561 3.77353 23.2561 6.14284 23.2292C7.47502 23.2203 8.55686 23.1845 8.55686 23.1398C8.55686 23.1041 8.6105 22.818 8.68203 22.4961C8.74461 22.1742 8.95025 21.5931 9.12907 21.1997C9.31682 20.8063 9.63869 20.243 9.85327 19.948C10.0589 19.6529 10.4702 19.188 10.7563 18.9108C11.0513 18.6337 11.5431 18.2403 11.8649 18.0346C12.1868 17.829 12.7501 17.5429 13.1167 17.3909C13.4832 17.2389 14.0823 17.069 15.0836 16.9081V14.6729C15.0836 12.688 15.1105 12.4019 15.2535 12.0801C15.3429 11.8834 15.5307 11.6151 15.6737 11.481C15.8168 11.3469 16.085 11.177 16.2638 11.1055C16.5589 10.9803 17.2741 10.9625 26.2596 10.9625V7.02852H1.40423V39.8412H26.2596L26.3043 36.4258L26.5457 36.2113C26.6888 36.095 26.8676 35.9967 26.9481 35.9967C27.0375 35.9877 27.2163 36.0682 27.6007 36.3543V39.9574C27.6007 42.8364 27.5739 43.6411 27.4756 43.9987C27.404 44.249 27.1895 44.6871 26.9928 44.9822C26.7961 45.2772 26.4474 45.6706 26.206 45.8494C25.9646 46.0282 25.5086 46.2786 24.6056 46.6362H3.05827L2.47712 46.4127C2.15525 46.2875 1.69927 46.0282 1.46681 45.8494C1.22541 45.6706 0.876719 45.2772 0.680021 44.9822C0.483324 44.6871 0.259804 44.2222 0.179337 43.954C0.0541661 43.5069 0.0362845 41.4953 0.0273438 23.7478C0.0273438 5.69634 0.0362845 3.98865 0.170396 3.54161C0.250863 3.27339 0.483324 2.80847 0.680021 2.51342C0.876719 2.21837 1.22541 1.82498 1.46681 1.64616C1.69927 1.46735 2.13737 1.21701 2.43242 1.09184L2.96886 0.877257ZM2.59335 2.49554C2.45924 2.56707 2.18207 2.80847 1.98538 3.03199C1.78868 3.24657 1.5741 3.58632 1.52046 3.77407C1.45787 3.97077 1.40423 4.48039 1.40423 4.90955V5.69634H26.2596C26.2596 4.48039 26.206 3.97077 26.1434 3.77407C26.0897 3.58632 25.8752 3.24657 25.6785 3.02305C25.4818 2.80847 25.1599 2.54024 24.9632 2.44189L24.6056 2.25414C8.10982 2.22732 3.2192 2.25414 3.08509 2.2899C2.95098 2.32566 2.72746 2.41507 2.59335 2.49554ZM16.4069 13.4122L16.4247 14.1901L37.9273 14.1454L37.972 12.3125C17.1668 12.3125 16.7109 12.3125 16.5589 12.4735C16.4158 12.6076 16.3979 12.7685 16.4069 13.4122ZM39.3132 14.1901H42.5319C42.5319 12.7864 42.4961 12.545 42.3977 12.4466C42.2905 12.3304 41.9775 12.3125 40.7884 12.3125H39.3132V14.1901ZM1.40423 42.2821C1.40423 42.899 1.45787 43.5338 1.52046 43.7305C1.5741 43.9182 1.78868 44.258 1.98538 44.4815C2.18207 44.6961 2.50394 44.9643 2.70064 45.0626L3.05827 45.2593H24.6056C25.1599 44.9643 25.4818 44.6961 25.6785 44.4815C25.8752 44.258 26.0897 43.9182 26.1434 43.7305C26.206 43.5338 26.2596 42.899 26.2596 42.2821V41.1913L18.1682 41.1823C18.0877 42.1211 17.9804 42.5592 17.8821 42.7559C17.7837 42.9526 17.5602 43.2298 17.3993 43.3728C17.2294 43.5159 16.9612 43.6858 16.8003 43.7483C16.5857 43.8377 15.8794 43.8735 13.8319 43.8735C11.7845 43.8735 11.0782 43.8377 10.8546 43.7483C10.7026 43.6858 10.4344 43.5159 10.2645 43.3728C10.1036 43.2298 9.88009 42.9526 9.78174 42.7559C9.6834 42.5592 9.57611 42.1211 9.54928 41.7903L9.49564 41.1823L1.40423 41.1913V42.2821ZM10.8993 41.7009C10.9351 42.1032 10.9977 42.2463 11.1586 42.3715C11.3553 42.5145 11.6057 42.5324 13.8319 42.5324C16.0582 42.5324 16.3085 42.5145 16.5052 42.3715C16.6751 42.2463 16.7198 42.1122 16.7466 41.7009L16.7824 41.1823H10.8546L10.8993 41.7009ZM26.8139 16.8634L32.3483 16.917L32.5271 17.1406C32.6255 17.2568 32.697 17.4714 32.697 17.6055C32.697 17.7396 32.6165 17.9363 32.5182 18.0346C32.3483 18.2045 32.2142 18.2134 29.5409 18.2134C26.9928 18.2134 26.7335 18.2045 26.5368 18.0525C26.3848 17.9452 26.3222 17.8022 26.3133 17.5876C26.3133 17.3641 26.3669 17.23 26.5636 17.078L26.8139 16.8634ZM15.9688 19.3042C16.0939 19.3489 16.2459 19.4562 16.3085 19.5367C16.3622 19.6171 16.4158 19.787 16.4158 19.9033C16.4158 20.0821 16.4873 20.1625 16.8003 20.2877C17.0059 20.3682 17.3367 20.5649 17.5245 20.7347C17.8195 20.9762 17.8732 21.0834 17.8732 21.3338C17.8642 21.5484 17.7927 21.7004 17.6586 21.8076C17.5423 21.8971 17.3546 21.9686 17.2473 21.9686C17.14 21.9686 16.8271 21.8434 16.5589 21.6914C16.2817 21.5484 15.9867 21.4232 15.8883 21.4232C15.79 21.4232 15.5754 21.4768 15.4144 21.5484C15.2535 21.6109 15.0747 21.7719 15.0032 21.9239C14.9406 22.0669 14.9048 22.2904 14.9316 22.4067C14.9585 22.5587 15.1194 22.7107 15.4055 22.8716C15.6469 22.9968 16.1208 23.2113 16.4695 23.3365C16.8092 23.4706 17.2473 23.7031 17.444 23.864C17.6318 24.025 17.891 24.3558 17.9983 24.5972C18.1235 24.8743 18.204 25.223 18.2129 25.4912C18.2129 25.7416 18.1414 26.1439 18.0609 26.3853C17.9626 26.6714 17.7569 26.9844 17.4976 27.2436C17.2741 27.4672 16.9433 27.7086 16.7556 27.7801C16.4695 27.8874 16.4158 27.95 16.4247 28.1735C16.4247 28.3255 16.3443 28.5579 16.2459 28.6921C16.1208 28.8619 15.9867 28.9335 15.7989 28.9335C15.629 28.9335 15.4413 28.853 15.3072 28.7099C15.1641 28.5758 15.0836 28.3881 15.0836 28.2182C15.0836 27.9768 15.0479 27.95 14.7439 27.8963C14.5561 27.8695 14.2611 27.7712 14.0733 27.6728C13.8856 27.5834 13.662 27.4225 13.5637 27.3241C13.4653 27.2258 13.3759 27.038 13.3759 26.9039C13.3759 26.7698 13.4475 26.5641 13.5369 26.4479C13.6352 26.3227 13.7962 26.2423 13.966 26.2333C14.1091 26.2333 14.4131 26.3227 14.6366 26.43C14.9138 26.5731 15.1999 26.6357 15.5754 26.6446C15.9598 26.6446 16.1833 26.5999 16.3622 26.4747C16.5052 26.3764 16.6751 26.1886 16.7466 26.0545C16.8092 25.9204 16.8718 25.679 16.8718 25.5181C16.8718 25.3571 16.8181 25.1426 16.7466 25.0442C16.684 24.9459 16.2459 24.7134 15.781 24.5167C15.325 24.3289 14.7439 24.0428 14.5025 23.8908C14.2521 23.7299 13.9571 23.4527 13.8319 23.2561C13.6978 23.0325 13.5995 22.7107 13.5816 22.4067C13.5458 22.0222 13.5816 21.8166 13.7515 21.4321C13.8766 21.146 14.1091 20.8242 14.3237 20.6453C14.5204 20.4844 14.7707 20.3235 14.878 20.3056C15.021 20.2788 15.0836 20.1983 15.0836 20.0374C15.0836 19.9211 15.1283 19.7155 15.1909 19.5903C15.2535 19.4652 15.3966 19.331 15.5217 19.2953C15.638 19.2506 15.8347 19.2506 15.9688 19.3042ZM5.58851 19.6619C7.22468 19.6797 7.22468 19.6797 7.40349 19.9033C7.50184 20.0284 7.57337 20.243 7.57337 20.3771C7.57337 20.5112 7.4929 20.699 7.39455 20.7973C7.22468 20.9672 7.09057 20.9762 5.44546 20.9851C3.87188 20.9851 3.66624 20.9672 3.52319 20.8242C3.43378 20.7347 3.35332 20.5381 3.34438 20.3861C3.33544 20.2341 3.38014 20.0374 3.44272 19.9569C3.50531 19.8675 3.64836 19.7602 3.75565 19.7244C3.86294 19.6797 4.68549 19.6529 5.58851 19.6619ZM32.7596 20.091C36.917 20.0821 38.0257 20.1089 38.2582 20.2072C38.4191 20.2698 38.6784 20.4755 38.8393 20.6543C39.0002 20.8331 39.1612 21.0924 39.1969 21.2265C39.2327 21.3606 39.2685 21.9954 39.2685 22.6302C39.2685 23.721 39.2506 23.8193 39.036 24.1948C38.8572 24.4988 38.6694 24.6687 37.8379 25.0979H27.7348L27.252 24.8475C26.8944 24.6687 26.7067 24.4988 26.5368 24.1948C26.3133 23.8193 26.3043 23.721 26.3043 22.6302C26.3043 21.9954 26.3311 21.3606 26.3669 21.2265C26.4027 21.0924 26.5457 20.8331 26.6798 20.6543C26.8229 20.4755 27.0732 20.2788 27.2431 20.2072C27.4845 20.1178 28.6826 20.091 32.7596 20.091ZM27.5918 22.5587C27.5918 23.1041 27.6365 23.408 27.7259 23.5511L27.869 23.7478H37.7038C37.9273 23.408 37.972 23.113 37.972 22.5676C37.972 22.1385 37.9273 21.7004 37.8826 21.602C37.7932 21.4321 37.7038 21.4232 32.7864 21.4232C27.9315 21.4232 27.7796 21.4321 27.6812 21.602C27.6276 21.6914 27.5829 22.1295 27.5918 22.5587ZM32.8758 26.287C37.9005 26.2959 38.0168 26.3049 38.3744 26.4837C38.589 26.5999 38.8304 26.8324 39.0002 27.1095C39.2595 27.5297 39.2685 27.5566 39.2685 28.7993C39.2685 29.8901 39.2416 30.0958 39.0896 30.355C38.9913 30.5249 38.7499 30.7842 38.2224 31.2134H27.3415L27.0017 30.9451C26.8139 30.7931 26.5815 30.507 26.4831 30.3193C26.3222 30.0153 26.3043 29.7918 26.3043 28.7546C26.3043 27.6013 26.3133 27.5297 26.5457 27.1274C26.6798 26.895 26.8855 26.6536 26.9928 26.591C27.1001 26.5284 27.3146 26.43 27.4666 26.3764C27.6633 26.2959 29.0849 26.2691 32.8758 26.287ZM27.7259 27.798C27.6186 27.95 27.5829 28.1824 27.5918 28.7815C27.5918 29.2106 27.6365 29.6398 27.6901 29.7381C27.7706 29.9169 27.869 29.9169 32.7864 29.9169C37.7038 29.9169 37.7932 29.9169 37.8826 29.7381C37.9273 29.6398 37.972 29.1927 37.972 28.7368C37.972 28.0573 37.9452 27.8784 37.8111 27.7533C37.6681 27.6102 37.2747 27.6013 32.7685 27.6013L27.8779 27.5923L27.7259 27.798ZM13.5101 3.19292C14.8869 3.18398 15.0479 3.20186 15.2535 3.3628C15.4234 3.48797 15.477 3.62208 15.477 3.86348C15.477 4.10488 15.4234 4.23899 15.2535 4.36416C15.0479 4.5251 14.8869 4.54298 13.5101 4.53404C12.464 4.53404 11.9454 4.49828 11.8381 4.41781C11.7577 4.36416 11.6504 4.21217 11.6057 4.087C11.552 3.95289 11.552 3.78301 11.6057 3.63996C11.6504 3.51479 11.7487 3.37174 11.8381 3.30915C11.9454 3.22868 12.4372 3.19292 13.5101 3.19292Z" fill="white"/>
</svg>
