<svg width="36" height="47" viewBox="0 0 36 47" fill="none" xmlns="http://www.w3.org/2000/svg">
<path fill-rule="evenodd" clip-rule="evenodd" d="M7.07885 1.27143C7.28046 1.15046 7.60305 1.01336 7.80467 0.95691C8.00629 0.900457 8.48211 0.860133 8.89341 0.876262C9.5144 0.892392 9.69182 0.932716 10.1676 1.15853C10.466 1.30369 10.8854 1.58596 11.0951 1.79564C11.3128 2.01339 11.579 2.36018 11.6919 2.58599C11.8048 2.80374 11.9419 3.19085 11.9983 3.43279C12.0629 3.70699 12.0871 4.08603 12.0548 4.44088C12.0145 4.84412 11.9258 5.15865 11.7403 5.52963C11.6032 5.81996 11.3128 6.22319 11.0951 6.43288C10.8854 6.65063 10.466 6.94096 10.1676 7.07806C9.6515 7.32807 9.57085 7.3442 8.73212 7.3442C7.93371 7.3442 7.79661 7.32 7.38531 7.11838C7.12723 6.99741 6.71593 6.70708 6.46592 6.4732C6.19172 6.22319 5.92559 5.86028 5.78042 5.56995C5.65138 5.30381 5.50622 4.86832 5.46589 4.60218C5.41751 4.28765 5.41751 3.94893 5.46589 3.63441C5.51428 3.36827 5.63525 2.95697 5.74816 2.72309C5.86107 2.49728 6.11914 2.11823 6.32882 1.89242C6.54657 1.66661 6.87723 1.38434 7.07885 1.27143ZM15.7888 1.36015C15.942 1.26337 16.2888 1.10208 16.5549 1.01336C16.9259 0.892392 17.2162 0.860132 17.7646 0.868197C18.4179 0.892391 18.5631 0.924651 19.0953 1.18272C19.4986 1.38434 19.8212 1.61016 20.055 1.86823C20.2486 2.08598 20.5228 2.49728 20.6599 2.78761C20.8857 3.26343 20.9099 3.3844 20.9099 4.12636C20.9099 4.89251 20.8938 4.96509 20.6115 5.53769C20.426 5.9248 20.1841 6.26352 19.926 6.4974C19.7163 6.69095 19.305 6.96515 19.0147 7.10225C18.5308 7.32807 18.426 7.3442 17.6437 7.3442C16.934 7.33613 16.7162 7.30387 16.313 7.14258C16.0065 7.02161 15.6597 6.78773 15.3613 6.4974C15.071 6.23126 14.7968 5.86835 14.6516 5.56995C14.5226 5.30381 14.3774 4.86832 14.3452 4.60218C14.3049 4.32798 14.3049 3.90861 14.3452 3.63441C14.3855 3.36827 14.5307 2.93277 14.6597 2.66664C14.7888 2.4005 15.0307 2.03759 15.2001 1.86823C15.3694 1.69887 15.6355 1.46499 15.7888 1.36015ZM25.2649 1.31176C25.4423 1.20692 25.7649 1.05369 25.9907 0.989168C26.2165 0.916586 26.6601 0.860133 26.9827 0.860133C27.3698 0.852068 27.7246 0.908522 28.0714 1.02143C28.3456 1.11821 28.7166 1.28756 28.894 1.4166C29.0714 1.53757 29.3537 1.79564 29.5231 1.9892C29.6924 2.18275 29.9263 2.54567 30.0392 2.78761C30.2005 3.12633 30.265 3.40053 30.2892 3.91667C30.3215 4.43282 30.2892 4.71509 30.1844 5.04574C30.1037 5.28768 29.9666 5.61834 29.8779 5.77157C29.7811 5.9248 29.5795 6.19094 29.4182 6.3603C29.265 6.52966 28.9747 6.7716 28.773 6.90063C28.5714 7.02161 28.2085 7.1829 27.9666 7.25548C27.7246 7.32807 27.2891 7.38452 26.9988 7.38452C26.7004 7.38452 26.2488 7.32 25.9504 7.22322C25.66 7.13451 25.2487 6.92483 25.0229 6.76353C24.8052 6.59417 24.4907 6.27158 24.3213 6.05383C24.1519 5.82802 23.9422 5.41672 23.8535 5.12639C23.7648 4.83606 23.6922 4.38443 23.6922 4.11829C23.6922 3.85216 23.7487 3.43279 23.8213 3.19085C23.8939 2.9489 24.0552 2.58599 24.1761 2.38437C24.3052 2.18275 24.531 1.90855 24.6761 1.77145C24.8213 1.62628 25.0874 1.42467 25.2649 1.31176ZM4.65942 8.73133C4.99007 8.57004 5.42557 8.40068 5.62719 8.36035C5.82881 8.32003 7.15949 8.28777 8.59502 8.27971C10.6515 8.27164 11.3128 8.29584 11.7806 8.39261C12.0951 8.4652 12.5467 8.6023 13.1677 8.90069L13.6516 8.67488C13.9178 8.55391 14.3291 8.40874 14.5629 8.36035C14.821 8.3039 15.9823 8.27164 17.5469 8.27164C19.5066 8.27164 20.2325 8.3039 20.668 8.39261C20.9825 8.4652 21.4744 8.63456 22.3212 9.03779L22.8212 8.77972C23.1035 8.63456 23.5471 8.4652 23.8132 8.39261C24.2003 8.29584 24.8294 8.27164 26.8778 8.27164C28.8456 8.27164 29.5956 8.3039 30.0231 8.39261C30.3376 8.45713 30.8376 8.63456 31.1521 8.77972C31.4667 8.93295 31.9183 9.23135 32.1602 9.45716C32.4022 9.68298 32.7006 10.0378 32.8215 10.2556C32.9425 10.4733 33.0957 10.8685 33.1603 11.1346C33.249 11.4572 33.2893 11.9734 33.2893 13.7557H34.0151C34.4184 13.7557 34.8135 13.7879 34.9022 13.8363C35.0555 13.917 35.0635 13.9976 35.0635 15.667C35.0716 17.2719 35.0555 17.4413 34.9184 17.6268C34.8297 17.7397 34.3861 18.1187 33.9264 18.4655C33.6719 18.662 33.0415 19.1453 32.2584 19.7457C31.6273 20.2296 30.897 20.7895 30.1844 21.3365C30.0364 21.4502 29.8836 21.5674 29.7261 21.6883C28.1836 22.8723 26.1762 24.4132 23.5713 26.4254L21.7002 30.1513C20.668 32.1998 19.7566 33.9256 19.6841 33.9821C19.5792 34.0547 19.0631 34.0789 17.7646 34.0869C16.1759 34.0869 15.9743 34.0708 15.8049 33.9418C15.6839 33.845 15.0549 32.5304 12.3532 26.4577L11.0144 25.4092C10.7777 25.2245 10.4746 24.9878 10.141 24.7271C9.44044 24.1798 8.60514 23.5273 7.96597 23.0301C7.02239 22.2962 5.5788 21.1753 4.74813 20.5381C4.42444 20.2843 4.04705 19.9904 3.67198 19.6984C3.09388 19.2483 2.5213 18.8025 2.15935 18.5139C1.32061 17.8606 1.04641 17.5945 0.973826 17.3848C0.917373 17.2074 0.87705 16.5461 0.87705 15.6267C0.868986 14.1912 0.877051 14.1589 1.04641 14.0379C1.16738 13.9573 1.42545 13.917 2.40129 13.917V12.9089C2.40129 12.3524 2.44161 11.7072 2.49 11.4734C2.53839 11.2475 2.69162 10.8201 2.82872 10.5298C2.98195 10.1911 3.24809 9.82814 3.56261 9.51361C3.89327 9.18296 4.25618 8.92489 4.65942 8.73133ZM16.071 35.9499C16.3856 35.845 16.8372 35.7321 17.0791 35.6918C17.3211 35.6515 17.7969 35.6434 18.1276 35.6676C18.4582 35.6837 18.9502 35.7563 19.2163 35.8208C19.4824 35.8934 19.9502 36.0709 20.2647 36.216C20.5792 36.3692 21.0631 36.6838 21.3535 36.9257C21.6438 37.1677 22.0309 37.579 22.2083 37.837C22.3938 38.1032 22.6196 38.4661 22.7164 38.6596C22.8051 38.8451 22.9583 39.2645 23.0471 39.5871C23.16 39.9661 23.2164 40.4178 23.2164 40.8936C23.2164 41.2968 23.16 41.8694 23.0874 42.1839C23.0148 42.4985 22.8212 43.0146 22.66 43.3291C22.4987 43.6517 22.2003 44.1114 21.9986 44.3453C21.797 44.5872 21.418 44.9502 21.1518 45.1437C20.8857 45.3453 20.4663 45.6115 20.2244 45.7324C19.9825 45.8534 19.5066 46.0228 19.176 46.1034C18.805 46.2002 18.2889 46.2566 17.8453 46.2566C17.3775 46.2566 16.8937 46.2002 16.4743 46.0953C16.1194 45.9986 15.5791 45.7969 15.2646 45.6276C14.8775 45.426 14.4823 45.1195 14.0145 44.6437C13.4984 44.1275 13.2564 43.813 13.0306 43.3533C12.8693 43.0227 12.6758 42.4985 12.6032 42.1839C12.5306 41.8694 12.4661 41.3129 12.4742 40.9339C12.4742 40.5307 12.5387 39.9984 12.6274 39.6435C12.7161 39.3129 12.8774 38.8613 12.9903 38.6354C13.0952 38.4177 13.3532 38.0145 13.5548 37.7483C13.7565 37.4822 14.0952 37.1193 14.3129 36.9418C14.5226 36.7644 14.8855 36.5144 15.1033 36.3773C15.3291 36.2402 15.7565 36.0467 16.071 35.9499ZM7.3695 2.05804C7.53886 1.9532 7.81306 1.8161 7.96629 1.75964C8.12758 1.69512 8.50663 1.66287 8.85341 1.67899C9.27278 1.68706 9.57118 1.75158 9.82118 1.87255C10.0228 1.96933 10.3373 2.2032 10.5309 2.39676C10.7164 2.59031 10.9583 2.90484 11.0551 3.10646C11.1922 3.38872 11.2325 3.61454 11.2245 4.11455C11.2245 4.64682 11.1922 4.83231 11.0148 5.16297C10.9019 5.38072 10.6277 5.7275 10.4099 5.92912C10.1599 6.15493 9.85344 6.34849 9.57117 6.4372C9.32923 6.50978 8.926 6.5743 8.66792 6.5743C8.33727 6.5743 8.06307 6.50978 7.70015 6.34849C7.35337 6.18719 7.0953 5.99364 6.86142 5.71944C6.66786 5.50169 6.45818 5.13877 6.3856 4.92103C6.30495 4.69521 6.2485 4.3323 6.2485 4.11455C6.2485 3.88874 6.30495 3.52582 6.37753 3.30807C6.45011 3.08226 6.6356 2.75967 6.78077 2.58225C6.92594 2.40482 7.19207 2.17094 7.3695 2.05804ZM16.273 2.03384C16.4262 1.93707 16.6843 1.8161 16.8375 1.75964C16.9988 1.69512 17.3779 1.66287 17.7246 1.67899C18.1682 1.69512 18.4343 1.75158 18.7327 1.89674C18.9586 2.00158 19.2731 2.24353 19.4424 2.42095C19.6118 2.59838 19.8295 2.90484 19.9263 3.10646C20.0634 3.38872 20.1037 3.61454 20.1037 4.11455C20.0957 4.63876 20.0634 4.83231 19.9021 5.1549C19.7892 5.37265 19.5553 5.69524 19.3779 5.8646C19.2005 6.04203 18.894 6.25978 18.6924 6.35655C18.4585 6.46946 18.1279 6.54204 17.765 6.55817C17.3375 6.58237 17.0956 6.55011 16.7569 6.42107C16.5149 6.33236 16.1681 6.1388 15.9988 5.99364C15.8214 5.84847 15.6036 5.59846 15.5068 5.44523C15.4101 5.292 15.281 5.0178 15.2246 4.84038C15.1681 4.66295 15.1278 4.30004 15.1359 4.0339C15.1439 3.70325 15.2084 3.41292 15.3536 3.10646C15.4665 2.86451 15.652 2.55805 15.773 2.43708C15.8939 2.30805 16.1198 2.13062 16.273 2.03384ZM25.2249 2.37256C25.4507 2.14675 25.7571 1.93707 26.0313 1.83222C26.3055 1.72738 26.6685 1.66287 26.983 1.66287C27.3136 1.6548 27.6443 1.71125 27.9508 1.83222C28.233 1.94513 28.5395 2.13869 28.7572 2.35643C28.9427 2.54999 29.1766 2.85645 29.2734 3.04194C29.4266 3.3242 29.4589 3.51776 29.4589 4.11455C29.4589 4.7678 29.4347 4.8807 29.2169 5.27587C29.0879 5.51782 28.8298 5.83234 28.6524 5.97751C28.475 6.12267 28.1362 6.31623 27.9104 6.41301C27.6524 6.50978 27.2894 6.5743 26.9991 6.5743C26.6926 6.5743 26.3459 6.50978 26.0555 6.39688C25.7652 6.28397 25.4507 6.08235 25.2249 5.84847C24.991 5.62266 24.7894 5.30813 24.6765 5.0178C24.5716 4.7436 24.499 4.38069 24.499 4.11455C24.499 3.84841 24.5716 3.4855 24.6765 3.20323C24.7894 2.92097 24.9991 2.59838 25.2249 2.37256ZM4.94201 9.48568C5.16782 9.38084 5.50654 9.24373 5.70816 9.18728C5.96623 9.12276 6.83722 9.0905 8.65179 9.08244C10.8696 9.07437 11.3051 9.0905 11.7648 9.21148C12.0632 9.29212 12.3213 9.38084 12.3535 9.41309C12.3777 9.45342 12.2567 9.67117 12.0874 9.89698C11.91 10.1309 11.7003 10.4857 11.6116 10.6873C11.5228 10.8889 11.4099 11.2841 11.3535 11.5744C11.3051 11.8648 11.2728 12.4938 11.3132 13.8729L5.9501 13.9132V13.1229C5.9501 12.5583 5.91784 12.2922 5.82913 12.1551C5.76461 12.0583 5.63558 11.9777 5.55493 11.9777C5.46622 11.9777 5.33718 12.0341 5.27266 12.0987C5.16782 12.1954 5.14363 12.4051 5.14363 13.9132L3.24841 13.8729V12.7035L3.24843 12.7004C3.25647 11.5583 3.2567 11.5256 3.51454 10.9857C3.65971 10.6793 3.94198 10.276 4.15972 10.0583C4.36941 9.84859 4.72426 9.59052 4.94201 9.48568ZM13.8778 9.46955C14.1278 9.34051 14.4745 9.20341 14.6439 9.16309C14.8052 9.12276 16.1762 9.0905 17.6843 9.09857C20.3779 9.1147 20.4344 9.12276 20.9828 9.31632C21.2893 9.42922 21.5554 9.56632 21.5635 9.61471C21.5796 9.67117 21.507 9.84053 21.4022 9.97763C21.2893 10.1228 21.1038 10.4615 20.9747 10.7276C20.7651 11.1793 20.7489 11.3002 20.6683 13.7923L14.8213 13.8326V13.0261C14.8213 12.4132 14.7891 12.1874 14.7004 12.0987C14.6358 12.0341 14.5149 11.9777 14.4423 11.9777C14.3616 11.9777 14.2326 12.0422 14.152 12.1228C14.031 12.2358 14.0068 12.3971 14.0149 13.8326L13.3939 13.8487C13.0471 13.8568 12.6277 13.8648 12.4584 13.8648C12.2971 13.8729 12.16 13.8326 12.1519 13.7923C12.1519 13.7439 12.1358 13.3487 12.1116 12.9051C12.0874 12.4454 12.1116 11.9051 12.168 11.6551C12.2164 11.4132 12.3374 11.0502 12.4422 10.8486C12.539 10.647 12.7971 10.3083 13.0148 10.0905C13.2326 9.87279 13.6197 9.59052 13.8778 9.46955ZM23.1361 9.526C23.378 9.39696 23.7329 9.24373 23.9345 9.18728C24.1845 9.12276 25.1039 9.08244 26.8378 9.08244C29.1524 9.07437 29.4347 9.0905 30.0234 9.23567C30.3782 9.33245 30.8137 9.48568 30.9912 9.59052C31.1686 9.69536 31.4347 9.88085 31.588 10.0099C31.7412 10.1389 31.9509 10.3809 32.0557 10.5422C32.1525 10.7115 32.2977 11.0583 32.3622 11.3083C32.4428 11.6067 32.4831 12.139 32.4831 13.7519H30.8702V13.0422C30.8702 12.5503 30.8379 12.2841 30.7492 12.1551C30.6847 12.0583 30.5557 11.9777 30.475 11.9777C30.3863 11.9777 30.2573 12.0341 30.1928 12.0987C30.096 12.1954 30.0637 12.3971 30.0637 13.7519L27.8056 13.7681C26.5636 13.7842 25.2491 13.7923 24.2168 13.7923L24.1764 12.9616C24.1442 12.3487 24.1039 12.1148 24.0152 12.0583C23.9506 12.018 23.8297 11.9777 23.7571 11.9777C23.6764 11.9777 23.5555 12.0583 23.4909 12.1551C23.4022 12.2922 23.37 12.5583 23.37 13.8326H21.5151V12.7035C21.5151 11.7357 21.5393 11.5099 21.6925 11.1067C21.8054 10.8244 22.0312 10.4776 22.2893 10.2034C22.5151 9.9615 22.9022 9.65504 23.1361 9.526ZM16.3133 14.6713C21.6764 14.6391 26.0878 14.6068 26.1039 14.5907C26.1201 14.5745 27.9669 14.5584 34.2574 14.5584V16.9778H23.9506C15.8133 16.9778 13.6197 17.002 13.5471 17.0746C13.4906 17.1311 13.4503 17.2601 13.4503 17.3569C13.4503 17.4617 13.531 17.5988 13.6358 17.6633C13.7729 17.7601 14.0068 17.7843 14.6197 17.7762C15.0633 17.7682 19.4263 17.7682 24.3216 17.7762C31.9186 17.7843 33.209 17.8004 33.1928 17.8972C33.1767 17.9617 31.0799 19.615 28.5314 21.5828C27.6068 22.2939 26.7193 22.9773 25.9336 23.5823C24.554 24.6447 23.4885 25.4652 23.0877 25.7684H21.9828C21.3699 25.7684 20.8134 25.7845 20.7489 25.8087C20.6763 25.8329 20.628 25.9539 20.628 26.1071C20.628 26.2523 20.6683 26.4217 20.7247 26.4781C20.7973 26.5426 21.0957 26.5749 21.6602 26.5749C22.1522 26.5749 22.4828 26.6071 22.4828 26.6555C22.4828 26.6959 21.749 28.204 19.2166 33.2686H16.273L16.1198 32.9219C16.0423 32.7438 15.4373 31.3841 14.754 29.8487L14.6681 29.6556C13.9584 28.0507 13.3697 26.6959 13.3697 26.6555C13.3697 26.6071 14.1762 26.5749 17.8859 26.5749L18.0069 26.3733C18.1118 26.1958 18.1118 26.1475 17.8859 25.7684L12.7648 25.7603L11.8777 25.0507C11.3938 24.6635 9.75667 23.3893 8.24856 22.2199C6.74045 21.0505 4.86136 19.5908 4.07908 18.9779C3.28873 18.365 2.65162 17.8488 2.66775 17.8246C2.67581 17.8085 3.96617 17.7762 5.53073 17.7682C8.27275 17.744 8.38566 17.7359 8.49856 17.5827C8.56308 17.494 8.61147 17.3811 8.61147 17.3407C8.61147 17.2924 8.57114 17.1956 8.51469 17.123C8.41791 16.994 8.14371 16.9778 5.22427 16.9778C3.47422 16.9698 1.95805 16.9456 1.86127 16.9133C1.69191 16.8569 1.68385 16.8165 1.67578 14.7197H4.11134C5.45815 14.7197 10.9502 14.6955 16.3133 14.6713ZM16.4746 36.6558C16.652 36.5994 16.9827 36.5268 17.2004 36.4865C17.4262 36.4542 17.8375 36.4461 18.1279 36.4623C18.4182 36.4865 18.8537 36.5591 19.0957 36.6316C19.3376 36.6962 19.757 36.8655 20.0231 36.9946C20.3134 37.1478 20.7409 37.4704 21.0796 37.8172C21.4344 38.172 21.749 38.5833 21.9103 38.8898C22.0474 39.172 22.2167 39.6075 22.2812 39.8575C22.3538 40.1156 22.4103 40.6156 22.4103 40.9705C22.4103 41.3253 22.3457 41.8334 22.2812 42.0995C22.2086 42.3657 22.0474 42.785 21.9183 43.027C21.7812 43.2689 21.4909 43.6802 21.257 43.9464C21.0231 44.2044 20.5796 44.5754 20.265 44.769C19.9505 44.9625 19.4344 45.1883 19.0957 45.2771C18.7327 45.3819 18.2489 45.4464 17.8859 45.4464C17.5553 45.4464 17.0553 45.39 16.7811 45.3254C16.4988 45.2609 16.0068 45.0754 15.6923 44.9141C15.2891 44.7125 14.9342 44.4464 14.5794 44.0835C14.2891 43.7931 13.9423 43.3334 13.7971 43.0673C13.66 42.8012 13.4826 42.3495 13.41 42.0592C13.3374 41.7689 13.281 41.2608 13.281 40.9301C13.281 40.5995 13.3374 40.1156 13.41 39.8575C13.4745 39.6075 13.6439 39.172 13.781 38.8898C13.9423 38.5833 14.2568 38.172 14.6116 37.8172C14.9584 37.4704 15.3778 37.1478 15.6681 37.0026C15.9343 36.8655 16.2972 36.7123 16.4746 36.6558Z" fill="white"/>
<path fill-rule="evenodd" clip-rule="evenodd" d="M17.0969 38.2237C17.2905 38.1592 17.3792 38.0705 17.4357 37.885C17.5002 37.6431 17.5244 37.627 17.855 37.627C18.1937 37.627 18.2099 37.635 18.2099 37.8689C18.2099 38.0302 18.2583 38.127 18.355 38.1592C18.4276 38.1834 18.6534 38.2802 18.847 38.377C19.0889 38.4899 19.2825 38.6754 19.4357 38.9173C19.5648 39.1189 19.6615 39.3609 19.6615 39.4577C19.6615 39.5867 19.6051 39.6512 19.4841 39.6673C19.3793 39.6754 19.2018 39.6754 19.0809 39.6673C18.9438 39.6512 18.8551 39.5948 18.8551 39.5222C18.8551 39.4577 18.7502 39.3125 18.6131 39.1996C18.4841 39.0867 18.3389 39.0141 18.2905 39.0383C18.2502 39.0625 18.2099 39.3528 18.2099 39.6835C18.2099 40.0141 18.226 40.3448 18.2502 40.4093C18.2744 40.4738 18.347 40.5303 18.4115 40.5303C18.476 40.5303 18.6696 40.6028 18.8389 40.6835C19.0002 40.7722 19.2422 40.9416 19.3712 41.0706C19.5002 41.1916 19.6615 41.4174 19.718 41.5545C19.7744 41.6997 19.8228 41.9658 19.8228 42.1432C19.8228 42.3206 19.7744 42.5868 19.718 42.7239C19.6535 42.869 19.4518 43.1271 19.2744 43.2884C19.0889 43.4578 18.7905 43.6433 18.6131 43.6916C18.4357 43.7481 18.2905 43.8449 18.2905 43.8933C18.2905 43.9497 18.2825 44.0465 18.2744 44.0949C18.2583 44.1594 18.097 44.2078 17.8712 44.2159C17.605 44.232 17.484 44.2078 17.4679 44.1352C17.4679 44.0868 17.4599 43.99 17.4518 43.9255C17.4437 43.8691 17.2663 43.7481 17.0405 43.6675C16.8227 43.5787 16.5163 43.3933 16.363 43.2481C16.2179 43.111 16.0405 42.869 15.984 42.7239C15.9195 42.5868 15.8711 42.3932 15.8711 42.3045C15.8711 42.1674 15.9275 42.1432 16.234 42.1432C16.5647 42.1432 16.6131 42.1674 16.7582 42.4255C16.8469 42.5787 17.0324 42.7642 17.1615 42.8287C17.3953 42.9416 17.4034 42.9416 17.4115 42.7642C17.4195 42.6674 17.4357 42.3126 17.4437 41.9819C17.4599 41.6513 17.4518 41.3287 17.4357 41.2722C17.4195 41.2238 17.3066 41.1593 17.1856 41.1351C17.0566 41.1109 16.8066 40.99 16.6211 40.8529C16.4114 40.7077 16.2098 40.4738 16.113 40.2641C16.0243 40.0786 15.9517 39.8044 15.9517 39.6593C15.9517 39.5222 16.0163 39.2641 16.0969 39.1028C16.1695 38.9415 16.3711 38.6996 16.5324 38.5625C16.6937 38.4254 16.9518 38.2721 17.0969 38.2237ZM16.7647 39.5929C16.7647 39.5284 16.8696 39.359 16.9986 39.23C17.1276 39.1009 17.2647 38.9961 17.3131 38.9961C17.3696 38.9961 17.4018 39.1896 17.4018 39.48V40.1252V40.3268C17.4018 40.351 17.297 40.3026 17.1599 40.23C17.0308 40.1494 16.8857 40.0042 16.8373 39.9074C16.797 39.8026 16.7566 39.6655 16.7647 39.5929ZM18.2406 42.1817C18.2164 41.8268 18.2164 41.4881 18.2406 41.4397C18.2648 41.3833 18.3212 41.3349 18.3696 41.3349C18.4099 41.3349 18.5793 41.4639 18.7325 41.6171C18.918 41.8026 19.0148 41.972 19.0148 42.1252C19.0148 42.2462 18.9583 42.4236 18.8938 42.5285C18.8293 42.6252 18.6599 42.7623 18.5309 42.8269C18.4019 42.8914 18.2889 42.9236 18.2889 42.8914C18.284 42.8664 18.2759 42.7368 18.2648 42.5576C18.2579 42.4469 18.2498 42.3172 18.2406 42.1817Z" fill="white"/>
</svg>
