<svg width="93" height="107" viewBox="0 0 93 107" fill="none" xmlns="http://www.w3.org/2000/svg">
<path d="M27.0781 34.0781C27.0781 28.9271 29.1244 23.9871 32.7667 20.3448C36.409 16.7025 41.349 14.6562 46.5 14.6562C51.651 14.6562 56.591 16.7025 60.2333 20.3448C63.8756 23.9871 65.9219 28.9271 65.9219 34.0781V51.7344H57.4098L72.9844 76.2095L88.559 51.7344H80.0469V34.0781C80.0469 25.1809 76.5125 16.6482 70.2212 10.3569C63.93 4.06564 55.3972 0.53125 46.5 0.53125C37.6028 0.53125 29.07 4.06564 22.7788 10.3569C16.4875 16.6482 12.9531 25.1809 12.9531 34.0781V55.2656H27.0781V34.0781ZM23.5469 51.7344H16.4844V34.0781C16.4844 26.1175 19.6467 18.4829 25.2757 12.8539C30.9048 7.22485 38.5394 4.0625 46.5 4.0625C54.4606 4.0625 62.0952 7.22485 67.7243 12.8539C73.3533 18.4829 76.5156 26.1175 76.5156 34.0781V55.2656H82.1285L72.9844 69.6343L63.8402 55.2656H69.4531V34.0781C69.4531 27.9906 67.0349 22.1524 62.7303 17.8478C58.4258 13.5433 52.5875 11.125 46.5 11.125C40.4125 11.125 34.5742 13.5433 30.2697 17.8478C25.9651 22.1524 23.5469 27.9906 23.5469 34.0781V51.7344Z" fill="white"/>
<path d="M81.8125 39.375V42.9062H88.875V83.5156C88.8689 88.6648 86.8207 93.6013 83.1798 97.2423C79.5388 100.883 74.6023 102.931 69.4531 102.938H23.5469C18.3977 102.931 13.4612 100.883 9.82024 97.2423C6.17925 93.6013 4.13107 88.6648 4.125 83.5156V42.9062H11.1875V39.375H0.59375V83.5156C0.600759 89.601 3.02128 95.4352 7.32431 99.7382C11.6273 104.041 17.4615 106.462 23.5469 106.469H69.4531C75.5385 106.462 81.3727 104.041 85.6757 99.7382C89.9787 95.4352 92.3992 89.601 92.4062 83.5156V39.375H81.8125Z" fill="white"/>
<path d="M11.1875 83.5156C11.1917 86.7922 12.4952 89.9335 14.8121 92.2504C17.129 94.5673 20.2703 95.8708 23.5469 95.875H30.6094V92.3438H23.5469C21.2064 92.3409 18.9625 91.4099 17.3075 89.755C15.6526 88.1 14.7216 85.8561 14.7188 83.5156V65.8594H11.1875V83.5156Z" fill="white"/>
<path d="M80.0469 83.5156C80.0441 85.8561 79.1131 88.1 77.4581 89.755C75.8031 91.4099 73.5593 92.3409 71.2188 92.3438H62.3906V95.875H71.2188C74.4954 95.8708 77.6366 94.5673 79.9535 92.2504C82.2704 89.9335 83.5739 86.7922 83.5781 83.5156V78.2188H80.0469V83.5156Z" fill="white"/>
<path d="M64.1562 39.375H28.8438V42.9062H64.1562V39.375Z" fill="white"/>
<path d="M46.5006 95.8752C47.9054 95.8752 49.2527 95.3171 50.246 94.3238C51.2394 93.3304 51.7975 91.9831 51.7975 90.5783V77.9806C51.8107 77.6783 51.9038 77.3849 52.0672 77.1303C52.2306 76.8757 52.4586 76.6689 52.7279 76.531C55.0754 75.1615 56.9061 73.0565 57.9365 70.5416C58.967 68.0268 59.1398 65.2425 58.4282 62.6195C57.7167 59.9966 56.1604 57.6813 54.0003 56.032C51.8402 54.3828 49.1967 53.4915 46.4789 53.4961C43.7612 53.5007 41.1207 54.4011 38.9663 56.0577C36.8118 57.7143 35.2634 60.0349 34.5608 62.6602C33.8582 65.2856 34.0405 68.0693 35.0795 70.5806C36.1186 73.0919 37.9564 75.1907 40.3085 76.5522C40.5692 76.6876 40.7893 76.8897 40.9465 77.1378C41.1038 77.3859 41.1925 77.6712 41.2037 77.9647V90.5783C41.2037 91.9831 41.7618 93.3304 42.7551 94.3238C43.7485 95.3171 45.0958 95.8752 46.5006 95.8752ZM37.6725 65.8596C37.6724 64.6982 37.9016 63.5482 38.3468 62.4755C38.792 61.4028 39.4445 60.4285 40.2669 59.6084C41.0893 58.7883 42.0654 58.1385 43.1393 57.6963C44.2133 57.2541 45.3639 57.0282 46.5253 57.0314C47.1583 57.0316 47.7895 57.0967 48.4092 57.2257C50.0654 57.5857 51.5821 58.4169 52.7765 59.6193C53.971 60.8216 54.7924 62.3437 55.1415 64.0021C55.5211 65.8204 55.3212 67.712 54.57 69.4108C53.8188 71.1096 52.554 72.5302 50.9535 73.4729C50.1464 73.9189 49.4724 74.5713 49.0002 75.3633C48.528 76.1553 48.2747 77.0585 48.2662 77.9806V90.5783C48.2662 91.0466 48.0802 91.4957 47.7491 91.8268C47.4179 92.1579 46.9689 92.3439 46.5006 92.3439C46.0323 92.3439 45.5832 92.1579 45.2521 91.8268C44.921 91.4957 44.735 91.0466 44.735 90.5783V77.9735C44.7291 77.0576 44.4796 76.1598 44.012 75.3723C43.5444 74.5847 42.8755 73.9359 42.0742 73.4924C40.7363 72.717 39.6255 71.6039 38.853 70.2644C38.0805 68.9248 37.6734 67.4059 37.6725 65.8596Z" fill="white"/>
<path d="M48.2656 58.7969H44.7344V62.3281H48.2656V58.7969Z" fill="white"/>
<path d="M48.2656 64.0938H44.7344V67.625H48.2656V64.0938Z" fill="white"/>
<path d="M48.2656 69.3906H44.7344V72.9219H48.2656V69.3906Z" fill="white"/>
<path d="M37.6719 92.3438H34.1406V95.875H37.6719V92.3438Z" fill="white"/>
<path d="M58.8594 92.3438H55.3281V95.875H58.8594V92.3438Z" fill="white"/>
<path d="M14.7188 58.7969H11.1875V62.3281H14.7188V58.7969Z" fill="white"/>
<path d="M83.5781 71.1562H80.0469V74.6875H83.5781V71.1562Z" fill="white"/>
</svg>
