<svg width="64" height="64" viewBox="0 0 64 64" fill="none" xmlns="http://www.w3.org/2000/svg">
<g clip-path="url(#clip0_1077_17313)">
<path fill-rule="evenodd" clip-rule="evenodd" d="M28.9967 1.50663C28.5781 1.75287 26.9282 3.1811 25.3276 4.63395C21.2646 8.35226 20.7967 8.72163 20.1318 9.33725C13.2123 9.68199 11.464 9.26338 12.6952 15.4441C12.8922 16.4045 12.8429 16.503 10.8484 19.1132C6.09581 25.3432 6.31743 24.7769 7.81953 26.7222C8.13965 27.1655 13.1138 34.1342 13.1138 34.1342C12.8676 36.5228 12.9414 36.7444 11.9072 37.7294C10.8237 38.739 8.75527 41.1769 7.20392 43.2699C6.61292 44.0826 5.92344 44.969 5.67719 45.2399C4.59371 46.4711 1.63875 51.5684 1.12164 53.0705C-0.380463 57.3799 1.56488 57.6015 7.54866 53.76L9.51863 52.5042C10.1343 60.9258 10.085 61.8861 11.7102 61.8861C12.1781 61.8861 15.3054 57.7985 17.3 54.548C19.5162 50.9775 24.1705 44.8459 24.4906 45.0675C26.4606 46.2495 27.4946 47.2591 30.942 48.5889C31.336 48.7366 31.7793 48.712 32.1486 48.5396C32.7396 48.2441 33.6756 47.7516 35.8179 46.3234C37.9603 44.8952 38.0093 44.8705 38.5018 45.3138C39.6591 46.3726 46.0615 56.0501 47.5636 59.0297C49.5336 62.945 50.6912 63.6837 51.7008 60.5318C52.4149 58.2663 53.0057 54.1786 53.3504 51.7901C53.3504 51.7901 59.2111 55.7054 59.7282 56.0747C60.7624 56.8135 61.6243 56.8135 62.757 56.0994C64.8255 54.7943 56.2807 40.5366 51.0357 36.5721C49.903 35.7102 49.3612 35.1438 49.4597 34.9468C49.5582 34.7745 51.3066 32.8537 53.3258 30.6621C58.694 24.9 58.7434 25.8111 52.5627 19.6303C49.7062 16.7739 49.1889 15.8874 48.9426 15.3949C48.8195 15.1487 48.8687 13.4496 48.6471 11.6766C48.13 7.7859 48.3763 7.9829 44.0916 8.22914C41.4321 8.37689 40.9399 8.35226 40.4966 8.00752C32.863 2.17148 30.7697 0.447762 28.9967 1.50663ZM33.2567 5.32343C37.2213 8.40151 39.1913 9.65737 40.0531 9.70662C40.9889 9.75587 44.9783 9.63275 46.0371 9.60812L46.3078 14.2375C46.3324 14.8285 46.5786 15.3703 46.948 15.8135C51.9222 21.4033 52.0207 21.6742 54.4585 25.1462C49.8291 30.6868 48.524 33.0507 47.4405 34.2081C46.7264 34.9715 46.8249 35.0453 46.9234 40.0687C40.8657 40.5859 41.0135 40.4627 39.0928 41.5216C34.0201 44.3288 31.4345 46.8405 31.4345 46.8405L29.2429 45.6585C27.3468 44.6243 22.9637 41.9402 21.8556 40.9799C21.7078 40.8814 21.0924 40.118 19.9351 40.1672L15.33 40.3889L15.2069 34.8976C15.1577 33.297 14.2466 32.2381 9.3955 26.1312C14.2219 18.6453 13.3108 19.7288 15.0838 16.5769C15.527 15.7643 15.4532 13.3018 15.4532 11.5042C15.4532 11.1841 15.6994 10.9132 16.0195 10.8886C21.0922 10.5438 21.6093 10.5931 23.8009 8.84475C26.6573 6.53004 29.5877 3.91983 29.7354 3.57509C29.9817 2.95948 30.6219 3.2796 33.2567 5.32343ZM37.3198 11.4303C34.9312 10.1991 30.2033 9.65737 27.5192 10.273C8.82913 14.533 12.3505 42.0633 31.5823 42.0141C46.8249 41.9648 54.4093 20.9847 41.9246 13.4003C39.5114 11.9475 38.551 13.2033 40.8904 14.7793C54.163 23.6934 39.8807 46.1264 25.4261 39.0591C10.0357 31.5486 17.8417 9.50962 35.0543 12.4892C37.0489 12.8586 38.6249 12.0952 37.3198 11.4303ZM27.2976 15.7643C22.6189 16.9462 19.7871 27.658 22.1018 27.658C22.545 27.658 22.742 27.1162 22.742 25.8357C22.742 22.7823 26.2387 17.2171 28.6519 16.4538C29.8339 16.0844 28.5781 15.4441 27.2976 15.7643ZM31.1883 18.9162C30.4249 19.458 28.9231 21.9204 27.3225 23.7673C27.0762 24.0628 27.1006 24.506 27.4207 24.7523C27.7408 25.0231 28.775 24.8754 29.4399 24.2844C30.4003 23.4225 30.4495 23.3979 30.3264 23.9889C30.1048 24.9 29.6615 27.6826 29.5877 28.6676C29.5138 29.5294 29.5138 29.5294 27.8886 29.8003C23.4315 30.539 26.1156 32.5583 27.667 32.903C29.0706 33.2231 31.2129 33.1985 34.1925 32.8784C36.778 32.6075 35.7933 29.6525 33.1092 29.6525C31.9026 29.6525 31.9516 29.8742 32.5672 25.7126C33.4291 20.0243 33.4537 19.4087 32.7889 18.9655C32.0994 18.4483 31.8531 18.4483 31.1883 18.9162ZM41.703 24.5553C41.703 27.6826 40.0285 31.1793 37.566 33.1985C35.3744 34.9961 35.2021 35.9318 37.1474 35.7102C40.4225 35.3408 44.781 25.6634 42.6387 23.4964C41.9738 22.8808 41.703 23.2009 41.703 24.5553ZM54.0645 43.8363C56.5762 47.3576 59.2849 51.8886 59.1372 52.2826C59.0879 52.3811 57.6353 51.7654 55.887 50.9036C51.5284 48.7366 51.1588 48.8597 50.7895 52.4796C50.1738 58.5126 50.1738 58.5126 47.5883 54.2033C44.3378 48.7366 43.4516 47.924 39.6348 43.9102C40.7921 42.679 40.9396 42.2111 45.372 42.2603C48.8441 42.3096 48.6717 42.4081 49.0657 39.9456L49.3858 37.9264C50.3216 38.9114 51.0849 39.6255 54.0645 43.8363ZM13.1877 40.8075C13.3108 42.482 14.4435 42.9252 18.3589 42.876C22.6928 42.8267 22.7174 42.8513 20.3288 45.7078C15.5024 51.4699 14.0003 54.5726 12.2273 57.9216C11.5871 50.2387 11.7841 50.1648 10.2327 50.2141C9.34626 50.2387 6.41592 51.8639 5.18469 52.6519C4.10122 53.366 4.10122 52.578 4.27359 52.1348C4.8892 50.485 12.646 39.3793 12.9414 39.6501C13.0153 39.7486 13.1384 40.2904 13.1877 40.8075Z" fill="#EF1649"/>
</g>
<defs>
<clipPath id="clip0_1077_17313">
<rect width="63.7112" height="63.7112" fill="white"/>
</clipPath>
</defs>
</svg>
