<svg width="37" height="49" viewBox="0 0 37 49" fill="none" xmlns="http://www.w3.org/2000/svg">
<path fill-rule="evenodd" clip-rule="evenodd" d="M6.66313 0.442566C6.87968 0.312638 7.22615 0.165388 7.44269 0.104756C7.65924 0.0441229 8.17028 0.000813907 8.61204 0.0181375C9.27899 0.0354611 9.46955 0.0787702 9.9806 0.321301C10.3011 0.477213 10.7515 0.780376 10.9767 1.00558C11.2106 1.23945 11.4964 1.61191 11.6177 1.85444C11.7389 2.08831 11.8862 2.50408 11.9468 2.76393C12.0161 3.05843 12.0421 3.46554 12.0075 3.84666C11.9642 4.27975 11.8689 4.61756 11.6697 5.016C11.5224 5.32783 11.2106 5.76092 10.9767 5.98612C10.7515 6.21999 10.3011 6.53182 9.9806 6.67907C9.42625 6.94758 9.33963 6.96491 8.4388 6.96491C7.58128 6.96491 7.43403 6.93892 6.99228 6.72238C6.7151 6.59245 6.27335 6.28062 6.00483 6.02943C5.71033 5.76092 5.42449 5.37113 5.26858 5.05931C5.12999 4.77347 4.97408 4.30573 4.93077 4.01989C4.8788 3.68208 4.8788 3.31829 4.93077 2.98048C4.98274 2.69464 5.11267 2.25288 5.23393 2.00169C5.3552 1.75916 5.63238 1.35206 5.85758 1.10952C6.09145 0.866994 6.44659 0.563831 6.66313 0.442566ZM16.0179 0.537846C16.1825 0.433904 16.5549 0.260668 16.8408 0.165388C17.2392 0.0354609 17.551 0.000813378 18.14 0.00947519C18.8416 0.0354606 18.9975 0.0701086 19.5692 0.347286C20.0023 0.563832 20.3488 0.806362 20.6 1.08354C20.8079 1.31741 21.1024 1.75916 21.2496 2.07099C21.4921 2.58203 21.5181 2.71196 21.5181 3.50885C21.5181 4.33172 21.5008 4.40967 21.1976 5.02466C20.9984 5.44043 20.7386 5.80422 20.4614 6.05542C20.2362 6.2633 19.7944 6.5578 19.4826 6.70505C18.9629 6.94758 18.8503 6.96491 18.0101 6.96491C17.2479 6.95624 17.014 6.9216 16.5809 6.74836C16.2517 6.61843 15.8793 6.36724 15.5588 6.05542C15.247 5.76958 14.9525 5.3798 14.7966 5.05931C14.658 4.77347 14.5021 4.30573 14.4674 4.01989C14.4241 3.72539 14.4241 3.27498 14.4674 2.98048C14.5107 2.69464 14.6666 2.2269 14.8052 1.94106C14.9438 1.65522 15.2037 1.26544 15.3856 1.08354C15.5675 0.901642 15.8533 0.650449 16.0179 0.537846ZM26.1955 0.485875C26.3861 0.373271 26.7325 0.208697 26.9751 0.139402C27.2176 0.061446 27.694 0.000814171 28.0405 0.000814171C28.4562 -0.00784764 28.8374 0.052785 29.2098 0.17405C29.5043 0.277992 29.9028 0.459889 30.0933 0.598478C30.2839 0.728405 30.587 1.00558 30.7689 1.21347C30.9508 1.42135 31.202 1.81113 31.3233 2.07099C31.4965 2.43478 31.5658 2.72928 31.5918 3.28364C31.6265 3.83799 31.5918 4.14116 31.4792 4.49629C31.3926 4.75615 31.2453 5.11128 31.1501 5.27585C31.0461 5.44043 30.8296 5.72627 30.6563 5.90817C30.4918 6.09006 30.1799 6.34992 29.9634 6.48851C29.7468 6.61843 29.3571 6.79167 29.0972 6.86963C28.8374 6.94758 28.3696 7.00822 28.0578 7.00822C27.7373 7.00822 27.2522 6.93892 26.9318 6.83498C26.6199 6.7397 26.1782 6.51449 25.9356 6.34126C25.7018 6.15936 25.364 5.81289 25.1821 5.57902C25.0002 5.33649 24.775 4.89473 24.6797 4.58291C24.5844 4.27108 24.5065 3.78602 24.5065 3.50018C24.5065 3.21434 24.5671 2.76393 24.645 2.50408C24.723 2.24422 24.8962 1.85444 25.0262 1.6379C25.1647 1.42135 25.4073 1.12685 25.5632 0.979597C25.7191 0.823685 26.0049 0.60714 26.1955 0.485875ZM4.06459 8.45474C4.41972 8.2815 4.88746 8.0996 5.104 8.05629C5.32055 8.01299 6.74975 7.97834 8.29155 7.96968C10.5003 7.96101 11.2106 7.987 11.713 8.09094C12.0508 8.1689 12.5358 8.31615 13.2028 8.63663L13.7225 8.3941C14.0083 8.26418 14.4501 8.10826 14.7013 8.05629C14.9785 7.99566 16.2258 7.96101 17.9062 7.96101C20.011 7.96101 20.7905 7.99566 21.2583 8.09094C21.5961 8.1689 22.1245 8.3508 23.0339 8.78389L23.571 8.50671C23.8741 8.35079 24.3505 8.1689 24.6364 8.09094C25.0521 7.987 25.7278 7.96101 27.9279 7.96101C30.0413 7.96101 30.8469 7.99566 31.306 8.09094C31.6438 8.16024 32.1808 8.35079 32.5186 8.50671C32.8564 8.67128 33.3415 8.99177 33.6013 9.2343C33.8612 9.47683 34.1817 9.85795 34.3116 10.0918C34.4415 10.3257 34.6061 10.7501 34.6754 11.036C34.7707 11.3824 34.814 11.9368 34.814 13.851H35.5936C36.0266 13.851 36.4511 13.8857 36.5464 13.9377C36.7109 14.0243 36.7196 14.1109 36.7196 15.9039C36.7283 17.6276 36.7109 17.8095 36.5637 18.0087C36.4684 18.13 35.992 18.5371 35.4983 18.9095C35.2249 19.1206 34.5479 19.6396 33.707 20.2844C33.0291 20.8041 32.2447 21.4055 31.4792 21.9931C31.3203 22.1151 31.1563 22.241 30.9872 22.3708C29.3305 23.6425 27.1744 25.2974 24.3765 27.4587L22.367 31.4605C21.2583 33.6606 20.2795 35.5142 20.2015 35.5749C20.0889 35.6528 19.5346 35.6788 18.14 35.6875C16.4336 35.6875 16.2171 35.6701 16.0352 35.5315C15.9053 35.4276 15.2297 34.0157 12.328 27.4934L10.8901 26.3674C10.6358 26.169 10.3104 25.9147 9.95205 25.6348C9.19963 25.047 8.30245 24.3461 7.61593 23.8121C6.6025 23.0239 5.05203 21.8199 4.15987 21.1356C3.81222 20.863 3.40691 20.5474 3.00409 20.2337C2.38318 19.7503 1.76819 19.2715 1.37943 18.9615C0.478601 18.2599 0.184099 17.9741 0.106142 17.7489C0.0455098 17.5583 0.00220226 16.848 0.00220226 15.8606C-0.00645954 14.3188 0.00220289 14.2841 0.184101 14.1542C0.314028 14.0676 0.591205 14.0243 1.63928 14.0243V12.9416C1.63928 12.3439 1.68259 11.6509 1.73456 11.3998C1.78653 11.1572 1.95111 10.6981 2.09836 10.3863C2.26293 10.0225 2.54877 9.63274 2.88658 9.29493C3.24172 8.9398 3.6315 8.66262 4.06459 8.45474ZM16.321 37.6883C16.6589 37.5757 17.1439 37.4545 17.4038 37.4112C17.6636 37.3679 18.1747 37.3592 18.5298 37.3852C18.8849 37.4025 19.4133 37.4805 19.6992 37.5497C19.985 37.6277 20.4874 37.8183 20.8252 37.9742C21.163 38.1388 21.6827 38.4766 21.9945 38.7364C22.3064 38.9963 22.7221 39.438 22.9127 39.7152C23.1119 40.001 23.3544 40.3908 23.4584 40.5987C23.5537 40.7979 23.7182 41.2483 23.8135 41.5948C23.9348 42.0019 23.9954 42.487 23.9954 42.998C23.9954 43.4311 23.9348 44.0461 23.8568 44.3839C23.7789 44.7217 23.571 45.2761 23.3977 45.6139C23.2245 45.9604 22.904 46.4541 22.6875 46.7053C22.4709 46.9651 22.0638 47.3549 21.778 47.5628C21.4921 47.7793 21.0417 48.0652 20.7819 48.1951C20.522 48.325 20.011 48.5069 19.6558 48.5936C19.2574 48.6975 18.703 48.7581 18.2266 48.7581C17.7243 48.7581 17.2045 48.6975 16.7541 48.5849C16.373 48.4809 15.7927 48.2644 15.4549 48.0825C15.0391 47.866 14.6147 47.5368 14.1123 47.0258C13.5579 46.4714 13.2981 46.1336 13.0555 45.6399C12.8823 45.2847 12.6744 44.7217 12.5965 44.3839C12.5185 44.0461 12.4492 43.4484 12.4579 43.0413C12.4579 42.6082 12.5272 42.0366 12.6225 41.6554C12.7177 41.3003 12.891 40.8152 13.0122 40.5727C13.1248 40.3388 13.402 39.9058 13.6186 39.6199C13.8351 39.3341 14.1989 38.9443 14.4328 38.7537C14.658 38.5632 15.0478 38.2947 15.2816 38.1474C15.5242 38.0002 15.9832 37.7923 16.321 37.6883ZM6.97461 1.28999C7.15651 1.17738 7.45101 1.03013 7.61558 0.9695C7.78882 0.900205 8.19592 0.865558 8.56838 0.882882C9.0188 0.891543 9.33928 0.960837 9.6078 1.09076C9.82434 1.19471 10.1622 1.4459 10.37 1.65378C10.5693 1.86166 10.8291 2.19948 10.9331 2.41602C11.0803 2.71918 11.1236 2.96171 11.115 3.49875C11.115 4.07043 11.0803 4.26965 10.8897 4.62478C10.7685 4.85865 10.474 5.23111 10.2401 5.44765C9.97159 5.69018 9.64244 5.89807 9.33928 5.99335C9.07943 6.0713 8.64634 6.1406 8.36916 6.1406C8.01403 6.1406 7.71952 6.0713 7.32974 5.89807C6.95729 5.72483 6.68011 5.51695 6.42892 5.22245C6.22103 4.98858 5.99582 4.5988 5.91787 4.36493C5.83125 4.1224 5.77062 3.73261 5.77062 3.49875C5.77062 3.25622 5.83125 2.86643 5.90921 2.63257C5.98716 2.39004 6.18638 2.04356 6.3423 1.853C6.49821 1.66244 6.78405 1.41125 6.97461 1.28999ZM16.5372 1.264C16.7018 1.16006 16.979 1.03013 17.1436 0.9695C17.3168 0.900205 17.7239 0.865558 18.0964 0.882882C18.5728 0.900205 18.8586 0.960837 19.1791 1.11675C19.4216 1.22935 19.7594 1.48921 19.9413 1.67977C20.1232 1.87033 20.3571 2.19948 20.461 2.41602C20.6083 2.71918 20.6516 2.96171 20.6516 3.49875C20.6429 4.06176 20.6083 4.26965 20.4351 4.61612C20.3138 4.84999 20.0626 5.19646 19.872 5.37836C19.6815 5.56892 19.3523 5.80279 19.1358 5.90673C18.8846 6.02799 18.5295 6.10595 18.1397 6.12327C17.6806 6.14926 17.4207 6.11461 17.057 5.97602C16.7971 5.88074 16.4246 5.67286 16.2427 5.51695C16.0522 5.36103 15.8183 5.09252 15.7144 4.92794C15.6104 4.76337 15.4718 4.46887 15.4112 4.27831C15.3506 4.08775 15.3073 3.69797 15.3159 3.41213C15.3246 3.05699 15.3939 2.74517 15.5498 2.41602C15.6711 2.15617 15.8703 1.82702 16.0002 1.69709C16.1301 1.5585 16.3727 1.36794 16.5372 1.264ZM26.1518 1.6278C26.3944 1.38527 26.7235 1.16006 27.018 1.04746C27.3125 0.934852 27.7023 0.865558 28.0401 0.865558C28.3953 0.856896 28.7504 0.917528 29.0795 1.04746C29.3827 1.16872 29.7118 1.3766 29.9457 1.61047C30.1449 1.81836 30.3961 2.1475 30.5001 2.34673C30.6646 2.64989 30.6993 2.85777 30.6993 3.49875C30.6993 4.20035 30.6733 4.32162 30.4394 4.74605C30.3009 5.0059 30.0237 5.34371 29.8331 5.49962C29.6426 5.65554 29.2788 5.86342 29.0362 5.96736C28.759 6.0713 28.3693 6.1406 28.0574 6.1406C27.7283 6.1406 27.3558 6.0713 27.044 5.95004C26.7322 5.82877 26.3944 5.61223 26.1518 5.36103C25.9007 5.1185 25.6841 4.78069 25.5628 4.46887C25.4502 4.17437 25.3723 3.78459 25.3723 3.49875C25.3723 3.21291 25.4502 2.82313 25.5628 2.51996C25.6841 2.2168 25.9093 1.87033 26.1518 1.6278ZM4.3674 9.26751C4.60994 9.15491 4.97373 9.00765 5.19028 8.94702C5.46746 8.87773 6.40293 8.84308 8.35184 8.83442C10.7338 8.82576 11.2016 8.84308 11.6953 8.97301C12.0158 9.05963 12.293 9.15491 12.3276 9.18955C12.3536 9.23286 12.2237 9.46673 12.0418 9.70926C11.8512 9.96045 11.626 10.3416 11.5307 10.5581C11.4354 10.7747 11.3142 11.1991 11.2535 11.5109C11.2016 11.8227 11.1669 12.4984 11.2102 13.9795L5.45013 14.0228V13.174C5.45013 12.5677 5.41548 12.2818 5.3202 12.1346C5.25091 12.0306 5.11232 11.944 5.0257 11.944C4.93042 11.944 4.79183 12.0046 4.72254 12.0739C4.60994 12.1779 4.58395 12.4031 4.58395 14.0228L2.54843 13.9795V12.7236L2.54845 12.7203C2.55709 11.4935 2.55734 11.4584 2.83427 10.8786C2.99018 10.5495 3.29334 10.1164 3.52721 9.8825C3.75242 9.65729 4.13354 9.38011 4.3674 9.26751ZM13.9647 9.25018C14.2332 9.1116 14.6057 8.96435 14.7876 8.92104C14.9608 8.87773 16.4333 8.84308 18.0531 8.85174C20.9461 8.86906 21.0067 8.87773 21.5957 9.08561C21.9249 9.20688 22.2107 9.35413 22.2194 9.4061C22.2367 9.46673 22.1588 9.64863 22.0462 9.79588C21.9249 9.95179 21.7257 10.3156 21.5871 10.6014C21.3619 11.0865 21.3445 11.2164 21.2579 13.8929L14.9781 13.9362V13.07C14.9781 12.4117 14.9435 12.1692 14.8482 12.0739C14.7789 12.0046 14.649 11.944 14.571 11.944C14.4844 11.944 14.3458 12.0133 14.2592 12.0999C14.1293 12.2212 14.1033 12.3944 14.1119 13.9362L13.445 13.9535C13.0725 13.9622 12.6221 13.9709 12.4402 13.9709C12.267 13.9795 12.1197 13.9362 12.1111 13.8929C12.1111 13.8409 12.0937 13.4165 12.0677 12.9401C12.0418 12.4464 12.0678 11.866 12.1284 11.5975C12.1804 11.3377 12.3103 10.9479 12.4229 10.7314C12.5268 10.5148 12.804 10.151 13.0379 9.91714C13.2717 9.68328 13.6875 9.38011 13.9647 9.25018ZM23.9084 9.31082C24.1683 9.17223 24.5494 9.00765 24.766 8.94702C25.0345 8.87773 26.0219 8.83442 27.8842 8.83442C30.3701 8.82576 30.6733 8.84308 31.3056 8.99899C31.6867 9.10293 32.1545 9.26751 32.345 9.38011C32.5356 9.49271 32.8214 9.69194 32.986 9.83053C33.1506 9.96912 33.3758 10.229 33.4884 10.4022C33.5923 10.5841 33.7482 10.9566 33.8175 11.2251C33.9042 11.5456 33.9475 12.1172 33.9475 13.8496H32.2151V13.0874C32.2151 12.559 32.1805 12.2732 32.0852 12.1346C32.0159 12.0306 31.8773 11.944 31.7907 11.944C31.6954 11.944 31.5568 12.0046 31.4875 12.0739C31.3836 12.1779 31.3489 12.3944 31.3489 13.8496L28.9236 13.8669C27.5897 13.8843 26.1778 13.8929 25.0691 13.8929L25.0258 13.0007C24.9912 12.3424 24.9479 12.0913 24.8526 12.0306C24.7833 11.9873 24.6534 11.944 24.5754 11.944C24.4888 11.944 24.3589 12.0306 24.2896 12.1346C24.1943 12.2818 24.1596 12.5677 24.1596 13.9362H22.1674V12.7236C22.1674 11.6842 22.1934 11.4416 22.358 11.0085C22.4792 10.7054 22.7218 10.3329 22.9989 10.0384C23.2415 9.77855 23.6572 9.44941 23.9084 9.31082ZM16.5806 14.837C22.3407 14.8024 27.0787 14.7678 27.096 14.7504C27.1133 14.7331 29.0969 14.7158 35.8531 14.7158V17.3143H24.7833C16.0435 17.3143 13.6875 17.3403 13.6096 17.4183C13.5489 17.4789 13.5056 17.6175 13.5056 17.7214C13.5056 17.834 13.5922 17.9813 13.7048 18.0506C13.8521 18.1545 14.1033 18.1805 14.7616 18.1718C15.238 18.1632 19.924 18.1632 25.1817 18.1718C33.3411 18.1805 34.727 18.1978 34.7097 18.3018C34.6924 18.3711 32.4403 20.1467 29.7032 22.2602C28.7101 23.0239 27.7569 23.7579 26.9131 24.4077C25.4313 25.5488 24.287 26.4301 23.8565 26.7557H22.6698C22.0115 26.7557 21.4138 26.773 21.3445 26.799C21.2666 26.825 21.2146 26.9549 21.2146 27.1195C21.2146 27.2754 21.2579 27.4573 21.3186 27.5179C21.3965 27.5872 21.717 27.6219 22.3233 27.6219C22.8517 27.6219 23.2068 27.6565 23.2068 27.7085C23.2068 27.7518 22.4186 29.3716 19.6988 34.8112H16.5372L16.3727 34.4387C16.2895 34.2474 15.6391 32.7859 14.9049 31.136L14.8135 30.9307C14.0513 29.207 13.419 27.7518 13.419 27.7085C13.419 27.6565 14.2852 27.6219 18.2696 27.6219L18.3995 27.4053C18.5121 27.2148 18.5121 27.1628 18.2696 26.7557L12.7694 26.747L11.8166 25.9848C11.2968 25.569 9.5385 24.2005 7.91875 22.9445C6.29899 21.6885 4.28079 20.1207 3.44059 19.4625C2.59173 18.8042 1.90745 18.2498 1.92478 18.2238C1.93344 18.2065 3.31933 18.1718 4.99972 18.1632C7.94473 18.1372 8.066 18.1285 8.18726 17.964C8.25656 17.8687 8.30853 17.7474 8.30853 17.7041C8.30853 17.6521 8.26522 17.5482 8.20458 17.4702C8.10064 17.3316 7.80614 17.3143 4.67057 17.3143C2.79096 17.3057 1.16254 17.2797 1.0586 17.245C0.876698 17.1844 0.868037 17.1411 0.859375 14.889H3.47524C4.92176 14.889 10.8205 14.863 16.5806 14.837ZM16.7538 38.4491C16.9443 38.3885 17.2995 38.3105 17.5334 38.2672C17.7759 38.2326 18.2176 38.2239 18.5295 38.2412C18.8413 38.2672 19.309 38.3452 19.5689 38.4231C19.8287 38.4924 20.2791 38.6743 20.565 38.8129C20.8768 38.9775 21.3359 39.324 21.6997 39.6964C22.0808 40.0775 22.4186 40.5193 22.5918 40.8484C22.7391 41.1516 22.921 41.6193 22.9903 41.8879C23.0682 42.165 23.1289 42.7021 23.1289 43.0832C23.1289 43.4643 23.0596 44.01 22.9903 44.2958C22.9123 44.5817 22.7391 45.0321 22.6005 45.292C22.4533 45.5518 22.1414 45.9936 21.8902 46.2794C21.639 46.5566 21.1626 46.955 20.8248 47.1629C20.487 47.3708 19.9327 47.6133 19.5689 47.7086C19.1791 47.8212 18.6594 47.8905 18.2696 47.8905C17.9145 47.8905 17.3774 47.8299 17.0829 47.7606C16.7798 47.6913 16.2514 47.4921 15.9136 47.3188C15.4805 47.1023 15.0994 46.8164 14.7183 46.4266C14.4064 46.1148 14.034 45.6211 13.8781 45.3353C13.7308 45.0494 13.5403 44.5644 13.4623 44.2525C13.3843 43.9407 13.3237 43.395 13.3237 43.0399C13.3237 42.6847 13.3843 42.165 13.4623 41.8879C13.5316 41.6193 13.7135 41.1516 13.8607 40.8484C14.034 40.5193 14.3718 40.0775 14.7529 39.6964C15.1254 39.324 15.5758 38.9775 15.8876 38.8216C16.1734 38.6743 16.5632 38.5098 16.7538 38.4491Z" fill="#1090D0"/>
<path fill-rule="evenodd" clip-rule="evenodd" d="M17.4182 40.1151C17.626 40.0458 17.7213 39.9505 17.782 39.7513C17.8512 39.4914 17.8772 39.4741 18.2324 39.4741C18.5962 39.4741 18.6135 39.4828 18.6135 39.734C18.6135 39.9072 18.6655 40.0112 18.7694 40.0458C18.8474 40.0718 19.0899 40.1757 19.2978 40.2797C19.5576 40.4009 19.7655 40.6002 19.9301 40.86C20.0687 41.0766 20.1726 41.3364 20.1726 41.4404C20.1726 41.5789 20.112 41.6482 19.9821 41.6656C19.8694 41.6742 19.6789 41.6742 19.549 41.6656C19.4017 41.6482 19.3064 41.5876 19.3064 41.5096C19.3064 41.4404 19.1938 41.2844 19.0466 41.1632C18.908 41.0419 18.7521 40.964 18.7001 40.9899C18.6568 41.0159 18.6135 41.3277 18.6135 41.6829C18.6135 42.038 18.6308 42.3931 18.6568 42.4624C18.6828 42.5317 18.7607 42.5924 18.83 42.5924C18.8993 42.5924 19.1072 42.6703 19.2891 42.7569C19.4623 42.8522 19.7222 43.0341 19.8608 43.1727C19.9994 43.3026 20.1726 43.5452 20.2332 43.6924C20.2939 43.8483 20.3458 44.1342 20.3458 44.3247C20.3458 44.5153 20.2939 44.8011 20.2332 44.9484C20.164 45.1043 19.9474 45.3815 19.7568 45.5547C19.5576 45.7366 19.2371 45.9358 19.0466 45.9878C18.856 46.0484 18.7001 46.1524 18.7001 46.2043C18.7001 46.265 18.6914 46.3689 18.6828 46.4209C18.6655 46.4902 18.4922 46.5422 18.2497 46.5508C17.9638 46.5681 17.8339 46.5422 17.8166 46.4642C17.8166 46.4122 17.8079 46.3083 17.7993 46.239C17.7906 46.1784 17.6001 46.0484 17.3575 45.9618C17.1237 45.8665 16.7945 45.6673 16.6299 45.5114C16.474 45.3642 16.2835 45.1043 16.2228 44.9484C16.1535 44.8011 16.1016 44.5932 16.1016 44.498C16.1016 44.3507 16.1622 44.3247 16.4913 44.3247C16.8465 44.3247 16.8984 44.3507 17.0544 44.6279C17.1496 44.7925 17.3489 44.9917 17.4875 45.061C17.7386 45.1823 17.7473 45.1823 17.756 44.9917C17.7646 44.8878 17.782 44.5066 17.7906 44.1515C17.8079 43.7964 17.7993 43.4499 17.782 43.3893C17.7646 43.3373 17.6434 43.268 17.5134 43.242C17.3748 43.216 17.1063 43.0861 16.9071 42.9388C16.6819 42.7829 16.4654 42.5317 16.3614 42.3065C16.2661 42.1073 16.1882 41.8128 16.1882 41.6569C16.1882 41.5096 16.2575 41.2325 16.3441 41.0592C16.422 40.886 16.6386 40.6261 16.8118 40.4789C16.9851 40.3316 17.2622 40.1671 17.4182 40.1151ZM17.0638 41.5802C17.0638 41.5109 17.1764 41.329 17.315 41.1904C17.4536 41.0518 17.6008 40.9392 17.6528 40.9392C17.7134 40.9392 17.7481 41.1471 17.7481 41.4589V42.1518V42.3684C17.7481 42.3944 17.6355 42.3424 17.4882 42.2644C17.3496 42.1778 17.1937 42.0219 17.1418 41.918C17.0984 41.8054 17.0551 41.6581 17.0638 41.5802ZM18.6489 44.3606C18.6229 43.9795 18.6229 43.6157 18.6489 43.5637C18.6749 43.5031 18.7355 43.4511 18.7875 43.4511C18.8308 43.4511 19.0127 43.5897 19.1773 43.7543C19.3765 43.9535 19.4804 44.1354 19.4804 44.3C19.4804 44.4299 19.4198 44.6204 19.3505 44.733C19.2812 44.837 19.0993 44.9842 18.9607 45.0535C18.8221 45.1228 18.7009 45.1575 18.7009 45.1228C18.6955 45.0961 18.6869 44.9568 18.6749 44.7643C18.6675 44.6454 18.6588 44.5062 18.6489 44.3606Z" fill="#1090D0"/>
</svg>
