<svg width="49" height="50" viewBox="0 0 49 50" fill="none" xmlns="http://www.w3.org/2000/svg">
<path fill-rule="evenodd" clip-rule="evenodd" d="M19.3329 0.275201C19.1265 0.114667 18.8972 0 18.8284 0C18.7366 0 18.5532 0.160534 18.4156 0.344002C18.278 0.52747 18.2321 0.871471 18.3009 1.07787C18.3697 1.30721 19.1953 2.86668 20.1356 4.51789C21.6033 7.15524 21.9015 7.56805 22.406 7.56805C22.75 7.56805 23.0252 7.40751 23.094 7.17818C23.1857 6.92591 22.5436 5.5499 21.4657 3.66936C20.5025 1.97228 19.5393 0.435735 19.3329 0.275201ZM31.1437 12.9574C27.1532 7.88911 26.0983 6.74244 25.7772 6.69657C25.4103 6.62777 25.2039 6.83417 24.8599 7.61391C24.6306 8.16432 23.1399 11.7878 21.5804 15.6636C19.0577 21.9473 18.7825 22.75 19.0807 23.0711C19.3788 23.3921 19.8375 23.3692 23.438 22.8417L27.4514 22.2455C31.373 23.8508 32.5426 24.3095 32.6114 24.3095C32.6802 24.3324 32.5426 24.4471 32.3362 24.6076C32.1298 24.7682 31.4189 26.1671 30.7767 27.7495C29.7677 30.1575 29.6071 30.7309 29.7906 31.3042C29.9053 31.6941 30.341 32.2215 30.7767 32.5197C31.2125 32.8178 31.9463 33.1389 32.3821 33.2535C33.0013 33.4141 33.3682 33.3911 33.9645 33.0701C34.6295 32.7261 34.8818 32.3362 35.845 30.0428C36.4413 28.598 36.9458 27.1303 36.9688 26.7863C36.9688 26.19 37.0146 26.1442 37.7026 26.2818C38.1613 26.3506 38.8034 26.2818 39.308 26.0524C39.7896 25.846 40.3629 25.4103 40.5693 25.0663C40.7757 24.6994 40.9821 24.3783 41.028 24.3095C41.0739 24.2407 41.2344 24.3783 41.3949 24.6076C41.5325 24.8599 41.8765 24.9975 42.1059 24.9516C42.404 24.9058 42.7939 24.3553 43.2525 23.3233C43.8259 22.062 43.9176 21.6721 43.7112 21.374C43.5507 21.1447 43.1837 21.0071 42.8397 21.0529C42.5187 21.0759 42.2435 21.0529 42.2435 20.9841C42.2435 20.9153 42.3581 20.5943 42.4957 20.2503C42.6333 19.8833 42.6792 19.31 42.5875 18.9201C42.5187 18.5302 42.2893 18.0028 42.06 17.7046C41.7848 17.3377 39.996 16.5121 36.3954 15.0673L31.1437 12.9574ZM20.1127 8.89819C19.2871 8.16432 18.5532 7.56805 18.4385 7.59098C18.3468 7.59098 18.1174 7.65978 17.9569 7.72858C17.7734 7.77445 17.6358 8.04965 17.6588 8.32485C17.6817 8.62299 18.255 9.33392 19.0807 10.0449C19.998 10.8399 20.6248 11.2221 20.9612 11.1915C21.2823 11.1457 21.5116 10.9393 21.5575 10.6641C21.6033 10.343 21.1676 9.81553 20.1127 8.89819ZM7.04058 11.1227V9.74673C1.53654 9.63206 1.21547 9.65499 0.642136 10.0907L0 10.5723C0.045867 39.8354 0.0917335 42.3811 0.366935 42.7709C0.642137 43.1608 1.03201 43.2525 3.07308 43.3443C4.38029 43.4131 15.0214 43.4131 26.7175 43.3443L26.9744 43.3429C47.6815 43.2296 48.024 43.2277 48.3438 42.7709C48.619 42.3811 48.6648 39.8813 48.6648 26.4423V10.5494C47.4723 9.67793 47.0595 9.60912 44.6515 9.60912C42.404 9.60912 41.8307 9.67793 41.5555 9.97606C41.3032 10.2742 41.2803 10.4577 41.4637 10.7329C41.6701 11.0539 42.1976 11.1227 44.3992 11.1686L47.0595 11.2374C47.1512 22.8876 47.1512 28.5063 47.1054 31.2354L47.0595 36.2349H1.65121C1.55948 26.19 1.55948 20.5713 1.58241 17.2689L1.65121 11.2374L7.04058 11.1227ZM17.246 11.8795C15.5489 11.1686 14.0582 10.5723 13.9206 10.5723C13.783 10.5953 13.5308 10.6411 13.3702 10.7099C13.1638 10.7558 13.0491 11.0539 13.0721 11.375C13.1179 11.8566 13.4849 12.0859 15.9158 13.095C17.4753 13.7372 19.1036 14.2876 19.5393 14.3105C20.2503 14.3334 20.342 14.2646 20.342 13.7601C20.342 13.2555 20.0439 13.0721 17.246 11.8795ZM19.0119 16.4662C18.8743 16.1222 18.5302 16.0534 16.6726 16.0534C15.1361 16.0534 14.4481 16.1452 14.3564 16.3516C14.2646 16.4892 14.2876 16.8102 14.3564 17.0396C14.471 17.3377 14.8609 17.4524 16.1452 17.567C17.0625 17.6358 18.0257 17.6817 18.255 17.6358C18.4844 17.59 18.7825 17.3836 18.9201 17.2001C19.0348 17.0166 19.0807 16.6726 19.0119 16.4662ZM17.1772 20.3649C17.1542 19.9521 16.9708 19.8375 16.4433 19.7916C16.0534 19.7687 14.3105 20.2044 12.5446 20.7319C9.49446 21.6492 9.33392 21.718 9.26512 22.3143C9.24219 22.6583 9.35686 23.0023 9.49446 23.0711C9.65499 23.1399 11.2374 22.7729 13.0033 22.2455C14.7692 21.7409 16.4433 21.2135 16.7185 21.0988C17.0854 20.9383 17.223 20.7089 17.1772 20.3649ZM20.9153 48.3896C20.9383 45.2019 20.8924 44.9267 20.4796 44.7203C20.1356 44.5597 19.9292 44.5827 19.654 44.8579C19.3788 45.1101 19.2871 45.6147 19.2871 46.8072L19.31 48.3896C17.0166 48.3896 16.3057 48.5043 16.1452 48.6878C15.9846 48.8254 15.87 49.0318 15.87 49.1464C15.87 49.2382 16.0305 49.4675 16.214 49.651C16.5121 49.9491 17.7276 49.995 24.2866 49.995C31.0061 50.0179 32.0839 49.972 32.3133 49.651C32.4738 49.4675 32.5885 49.1235 32.5426 48.9171C32.4967 48.5731 32.1986 48.4814 30.8914 48.3896L29.286 48.275C29.1714 45.7752 29.0108 44.9267 28.8732 44.7661C28.7127 44.6056 28.5522 44.468 28.4834 44.4909C28.4146 44.4909 28.2311 44.5827 28.0706 44.6744C27.8412 44.7891 27.7495 45.3395 27.7724 46.6237L27.7954 48.3896H20.9153ZM21.1438 21.2595C21.1438 21.1219 22.2217 18.324 23.506 15.0904C24.7903 11.8338 25.9369 9.2194 26.0745 9.24234C26.1892 9.2882 27.1753 10.4349 30.2026 14.2877L35.4543 16.3746C39.1466 17.8424 40.7749 18.5992 40.9354 18.9203C41.096 19.2643 40.9354 19.9293 40.2704 21.6723C39.7888 22.9336 39.2384 24.1491 39.0549 24.3784C38.8485 24.6078 38.5045 24.7912 38.2752 24.7683C38.0688 24.7683 35.569 23.828 27.5652 20.6403L24.4692 21.0989C22.7721 21.3512 21.3273 21.5576 21.2585 21.5576C21.1897 21.5576 21.1438 21.42 21.1438 21.2595ZM32.2666 28.2083C32.8399 26.8094 33.2986 25.4792 33.2986 25.227C33.2986 24.9747 33.3903 24.7683 33.5279 24.7683C33.6426 24.7683 34.3306 24.9976 35.0186 25.2728C35.7295 25.571 36.3029 25.8691 36.2799 25.9608C36.2799 26.0755 36.1423 26.1902 35.9818 26.2131C35.8442 26.259 35.1791 27.5203 34.5599 29.011C33.9178 30.4787 33.3445 31.7401 33.2298 31.7859C33.1381 31.8318 32.7023 31.7171 32.2666 31.5337C31.8308 31.3502 31.418 31.075 31.3492 30.9603C31.2804 30.8227 31.6932 29.5843 32.2666 28.2083ZM1.65039 41.9684V39.9044V37.8404H47.0587V41.9684H1.65039Z" fill="#292751"/>
<path d="M29.469 14.9583C29.3543 15.1188 28.8269 16.2655 28.3453 17.5039C27.4967 19.6367 27.4738 19.7514 27.8637 20.1412C28.1618 20.4164 28.3682 20.4623 28.6205 20.3018C28.8269 20.1871 29.4231 19.0634 29.9506 17.825C30.6845 16.0361 30.845 15.4857 30.6386 15.1876C30.501 14.9583 30.2258 14.7748 30.0423 14.7289C29.8589 14.6831 29.6066 14.7977 29.469 14.9583ZM23.1164 39.1072C22.8871 39.3136 22.7266 39.6576 22.7266 39.864C22.7266 40.0704 22.91 40.4374 23.1394 40.6667C23.4375 40.9648 23.7356 41.0566 24.1714 40.9648C24.63 40.8731 24.8594 40.6438 24.9511 40.208C25.0428 39.8411 24.997 39.4054 24.8823 39.2219C24.7447 39.0384 24.4007 38.855 24.0796 38.8091C23.7586 38.7632 23.3228 38.9008 23.1164 39.1072Z" fill="#292751"/>
</svg>
