<svg width="54" height="50" viewBox="0 0 54 50" fill="none" xmlns="http://www.w3.org/2000/svg">
<path fill-rule="evenodd" clip-rule="evenodd" d="M9.76262 0C9.83644 0 9.98409 0.0421852 10.079 0.0949166C10.1845 0.137102 11.4184 1.40266 12.821 2.88969C14.2343 4.37671 15.426 5.70555 15.4893 5.8532C15.5631 6.04303 15.5525 6.20122 15.4471 6.4016C15.3733 6.57034 15.2256 6.72854 15.1307 6.77072C15.0358 6.82345 14.6034 6.85509 13.38 6.85509V15.9249C13.38 24.5096 13.3905 24.9947 13.5593 24.942C13.6648 24.9104 14.0866 24.8154 14.4874 24.7311C14.8881 24.6467 15.7635 24.5729 17.5985 24.5729V13.7102H16.7759C16.0799 13.7102 15.9322 13.668 15.7213 13.4676C15.5842 13.3305 15.4787 13.109 15.4787 12.9192C15.4787 12.6556 15.8795 12.181 18.1047 9.80806C19.539 8.2683 20.8151 6.98165 20.9312 6.93946C21.0366 6.90783 21.2475 6.90783 21.3846 6.93946C21.5323 6.98165 22.7451 8.19447 24.2638 9.80806C26.2148 11.8962 26.8793 12.6661 26.8793 12.8665C26.8898 13.0141 26.7949 13.2567 26.6683 13.4149C26.468 13.6996 26.4152 13.7102 24.77 13.7102V17.7178L25.5082 17.3487C25.909 17.1483 26.6367 16.8635 27.1113 16.7264C27.5964 16.5893 28.2081 16.4417 28.9885 16.3468V8.12065H28.1976C27.7652 8.12065 27.3222 8.07846 27.2167 8.02573C27.1218 7.98355 26.9742 7.80426 26.9004 7.63552C26.7738 7.38241 26.7738 7.28749 26.9004 7.05547C26.9742 6.89728 28.0815 5.66336 29.3576 4.31344C30.6337 2.95296 31.7833 1.74014 31.9099 1.61358C32.0645 1.45187 32.2684 1.37102 32.5215 1.37102C32.7641 1.37102 32.975 1.45539 33.1227 1.61358C33.2598 1.74014 34.4093 2.95296 35.6854 4.31344C36.9615 5.66336 38.0689 6.89728 38.1427 7.05547C38.2693 7.28749 38.2693 7.38241 38.1427 7.63552C38.0689 7.80426 37.9212 7.98355 37.8158 8.02573C37.7209 8.07846 37.2779 8.12065 36.0545 8.12065V17.7178L36.8666 18.2873C37.3201 18.5931 37.9212 19.0572 38.206 19.3103C38.4907 19.5634 38.9864 20.1118 39.3134 20.5126C39.6403 20.9239 39.9883 21.3773 40.0832 21.5144C40.252 21.7676 40.2625 21.641 40.2731 15.9249H39.4505C38.7544 15.9249 38.6068 15.8827 38.3958 15.6823C38.2587 15.5558 38.1638 15.3238 38.1638 15.155C38.1638 14.9547 38.3536 14.6594 38.8177 14.1426C39.1868 13.7524 40.3574 12.4868 41.4332 11.3478C42.5089 10.2088 43.4791 9.2491 43.5951 9.21746C43.7112 9.17528 43.9221 9.17528 44.0697 9.20692C44.2385 9.2491 45.1033 10.0928 46.3899 11.4533C47.5184 12.6556 48.6996 13.9211 48.9949 14.2586C49.3851 14.6804 49.5538 14.9652 49.5538 15.155C49.5538 15.3238 49.4589 15.5558 49.3429 15.6823C49.153 15.8933 49.0265 15.9249 47.4445 15.9249V19.0044C47.4551 21.9468 47.4445 22.105 47.2336 22.3792C47.0754 22.6007 46.9383 22.6745 46.6536 22.6745C46.4005 22.6745 46.2106 22.6007 46.0735 22.432C45.8626 22.2105 45.8626 22.0629 45.8521 18.5615C45.8521 15.2183 45.8731 14.9019 46.0419 14.691C46.1474 14.5644 46.3794 14.4168 46.8961 14.2902L43.8588 11.1263L40.8215 14.2902L41.159 14.3641C41.3382 14.4062 41.5703 14.5433 41.6757 14.6804C41.855 14.9019 41.8656 15.3027 41.855 26.2076L42.878 26.2919C43.4475 26.3341 44.3018 26.4607 44.7763 26.5767C45.2615 26.6927 45.6939 26.7876 45.7571 26.7876C45.8204 26.7876 45.8626 26.3657 45.8626 25.733C45.8626 24.8154 45.8942 24.6467 46.0735 24.4674C46.2001 24.3409 46.4216 24.2565 46.6536 24.2565C46.9383 24.2565 47.0754 24.3303 47.2336 24.5518C47.4235 24.8049 47.4551 24.9947 47.4445 27.5258L47.8348 27.7262C48.0562 27.8422 48.5835 28.1692 48.9949 28.4645C49.4167 28.7598 50.1233 29.3714 50.5663 29.8249C51.0092 30.2679 51.6209 31.0167 51.9373 31.4807C52.2431 31.9447 52.6544 32.683 52.8653 33.1154C53.0657 33.5478 53.3505 34.3071 53.4876 34.8028C53.6352 35.2985 53.804 36.0683 53.8672 36.5218C53.9305 36.9648 53.9833 37.703 53.9833 38.1565C53.9833 38.5994 53.9094 39.4221 53.8145 39.9705C53.7301 40.5189 53.5403 41.3309 53.3927 41.7633C53.245 42.1957 52.9392 42.934 52.7071 43.398C52.4751 43.8621 51.99 44.6425 51.6209 45.1382C51.2518 45.6338 50.6295 46.3404 50.2288 46.7096C49.828 47.0892 49.1214 47.6376 48.6574 47.9435C48.1933 48.2388 47.6238 48.5868 47.3918 48.7028C47.1598 48.8188 46.5376 49.0614 46.0208 49.2407C45.504 49.4305 44.5232 49.6731 43.8588 49.7891C42.8253 49.9578 42.1187 49.9895 39.0075 49.9895C35.4007 49.9895 35.369 49.9895 35.0632 49.7469C34.8312 49.5676 34.7574 49.4305 34.7574 49.1458C34.7574 48.8821 34.8312 48.7134 35.0421 48.5446C35.3163 48.302 35.3269 48.302 39.2923 48.302C42.7409 48.302 43.4053 48.2704 44.2279 48.1017C44.7447 47.9962 45.5779 47.7431 46.0735 47.5216C46.5692 47.3107 47.2231 46.9838 47.5395 46.7939C47.8453 46.6146 48.4359 46.1717 48.8577 45.8131C49.2691 45.4651 49.8807 44.8218 50.2077 44.3894C50.5346 43.957 50.9881 43.2504 51.2201 42.818C51.4521 42.3856 51.758 41.6473 51.9056 41.1833C52.0533 40.7193 52.2326 39.9388 52.3064 39.4432C52.3802 38.8947 52.4013 38.146 52.3697 37.4921C52.3275 36.912 52.1798 36.0051 52.0427 35.4883C51.8951 34.9715 51.6525 34.2544 51.5049 33.9063C51.3467 33.5583 50.9986 32.9466 50.7455 32.5353C50.4819 32.124 49.9229 31.4491 49.5116 31.0167C49.1003 30.5948 48.4781 30.0464 48.1301 29.7933C47.782 29.5507 47.0965 29.1394 46.6008 28.8969C46.1052 28.6543 45.2509 28.3274 44.7025 28.1903C43.9959 28.011 43.2893 27.9161 42.3296 27.8844C41.5808 27.8528 40.8637 27.8106 40.7477 27.7895C40.6316 27.7684 40.4734 27.6313 40.3996 27.4837C40.3363 27.336 40.2731 27.0618 40.2731 26.8931C40.2731 26.7243 40.1992 26.2076 40.1043 25.7646C40.02 25.3111 39.7985 24.5834 39.6297 24.151C39.4505 23.7186 39.1341 23.0542 38.902 22.6745C38.6806 22.2949 38.2165 21.6726 37.8791 21.2824C37.5416 20.8922 36.9404 20.3016 36.5291 19.9747C36.1178 19.6583 35.3163 19.1626 34.7363 18.8779C34.1562 18.5931 33.2809 18.2556 32.7852 18.1396C32.2895 18.0236 31.4564 17.8971 30.9396 17.8549C30.3701 17.8232 29.6318 17.8443 29.094 17.9287C28.5983 17.992 27.8179 18.1713 27.3538 18.3189C26.8898 18.4666 26.1516 18.7724 25.7192 19.0044C25.2868 19.2364 24.6645 19.6267 24.3482 19.8798C24.0318 20.1223 23.4412 20.6707 23.0404 21.1031C22.6502 21.5355 22.1334 22.1894 21.912 22.5691C21.6905 22.9487 21.3636 23.5921 21.1948 23.9928C21.0366 24.4041 20.8151 25.1002 20.7202 25.5537C20.5937 26.1548 20.4882 26.4079 20.3089 26.5345C20.1613 26.6399 19.9398 26.6716 19.7078 26.6399C19.5074 26.6189 18.959 26.4923 18.495 26.3763C17.8938 26.2181 17.3243 26.1548 16.4912 26.1548C15.7107 26.1548 15.0569 26.2181 14.4874 26.3552C14.0233 26.4712 13.38 26.6716 13.0636 26.8087C12.7472 26.9458 12.1461 27.2833 11.7453 27.5469C11.3446 27.8106 10.7118 28.3274 10.3532 28.6965C9.98409 29.0656 9.52006 29.6351 9.29858 29.9515C9.08766 30.2679 8.78182 30.8163 8.61307 31.1643C8.45488 31.5123 8.23341 32.1557 8.1174 32.5881C8.01194 33.0205 7.88538 33.7798 7.83265 34.2755C7.77992 34.8661 7.69555 35.2246 7.59008 35.3406C7.49517 35.425 7.06277 35.5832 6.63037 35.6781C6.19797 35.773 5.55465 35.9945 5.20662 36.1738C4.85859 36.3425 4.34182 36.6695 4.04653 36.8804C3.76178 37.1019 3.30829 37.5448 3.04463 37.8718C2.78097 38.1987 2.41185 38.7787 2.22202 39.169C2.04273 39.5486 1.81071 40.1919 1.72634 40.6032C1.64197 41.0146 1.56815 41.6157 1.56815 41.9532C1.56815 42.2801 1.64197 42.8812 1.72634 43.2926C1.82126 43.7039 2.06382 44.3894 2.27475 44.8218C2.5595 45.3913 2.88643 45.8342 3.46648 46.4037C4.03598 46.9732 4.47892 47.3107 5.04843 47.5954C5.48082 47.8064 6.12415 48.0595 6.47218 48.1439C7.02058 48.281 8.80291 48.302 19.8132 48.302C32.4266 48.2915 32.5215 48.2915 32.8168 48.513C33.0278 48.6712 33.1016 48.8083 33.1016 49.093C33.1016 49.3567 33.0172 49.536 32.5215 50L20.0453 49.9895C8.2545 49.9895 7.52681 49.9789 6.59873 49.7891C6.07142 49.6836 5.32263 49.4621 4.94296 49.3145C4.5633 49.1563 3.95161 48.8188 3.57194 48.5763C3.19228 48.3231 2.54895 47.7642 2.14819 47.3318C1.68416 46.8467 1.24121 46.235 0.967008 45.7077C0.734989 45.2542 0.429146 44.5476 0.302591 44.1363C0.186581 43.725 0.0494795 42.9551 0.0178406 42.3961C-0.0243446 41.7106 0.00729432 41.1306 0.123304 40.5505C0.207674 40.0865 0.397507 39.401 0.555702 39.0213C0.70335 38.6416 0.9881 38.0721 1.17793 37.7557C1.35722 37.4394 1.91617 36.7749 2.41185 36.2793C3.05517 35.6359 3.52976 35.2563 4.09926 34.961C4.53166 34.7395 5.19607 34.4442 6.26125 34.0856L6.29289 25.1424C6.31398 16.8424 6.33507 16.178 6.50381 15.9987C6.60928 15.8933 6.8413 15.8089 7.05222 15.8089C7.29479 15.8089 7.49517 15.8933 7.63227 16.0409C7.83265 16.2518 7.84319 16.4417 7.94866 29.15L8.2545 28.6754C8.43379 28.4223 8.89782 27.895 9.28804 27.5047C9.67825 27.104 10.3743 26.545 10.8173 26.2603C11.2707 25.965 11.6715 25.7224 11.7137 25.733C11.7664 25.733 11.7981 21.293 11.7981 15.8722C11.7981 9.49167 11.8402 5.92702 11.9035 5.77937C11.9668 5.64227 12.125 5.47353 12.2726 5.41025C12.4203 5.33643 12.6207 5.27315 12.7156 5.27315C12.8527 5.2837 12.7578 5.11495 12.3781 4.72474C12.0934 4.4189 11.4078 3.68066 9.84699 2.0038L8.34942 3.61738C6.87294 5.18878 6.85184 5.22042 7.13659 5.29424C7.29479 5.33643 7.51626 5.47353 7.63227 5.58954C7.83265 5.81101 7.84319 5.9692 7.84319 9.75533C7.84319 13.5414 7.83265 13.6996 7.63227 13.9106C7.50571 14.0477 7.29479 14.1426 7.10495 14.132C6.92567 14.132 6.69365 14.0688 6.57764 13.9844C6.37726 13.8367 6.36671 13.6785 6.26125 6.90783L5.41755 6.87619C4.79531 6.85509 4.52111 6.79182 4.38401 6.66526C4.28909 6.57034 4.18363 6.38051 4.15199 6.25396C4.12035 6.11685 4.15199 5.90593 4.22581 5.77937C4.28909 5.64227 5.10116 4.73529 6.02923 3.74394C6.95731 2.76313 8.14904 1.50812 8.66581 0.980806C9.19312 0.442944 9.67825 0 9.76262 0ZM31.0134 4.87239C30.1803 5.75828 29.5369 6.49652 29.5897 6.50707C29.6319 6.51761 29.8006 6.54925 29.9588 6.58089C30.1486 6.62308 30.3174 6.76018 30.4123 6.96056C30.5494 7.22421 30.5705 7.98355 30.5705 11.7591V16.2413C31.836 16.3362 32.6375 16.4733 33.1543 16.6104C33.6711 16.7475 34.1879 16.8846 34.2828 16.9163C34.4621 16.9795 34.4726 16.7053 34.4726 12.1282C34.4726 8.25775 34.5042 7.21367 34.6202 6.98165C34.6941 6.82345 34.8417 6.66526 34.9366 6.62308C35.0316 6.57034 35.2003 6.5387 35.3163 6.5387C35.4956 6.5387 35.464 6.46488 35.1054 6.03248C34.8734 5.75828 34.1984 5.02004 33.5973 4.39781L32.5215 3.25881L31.0134 4.87239ZM18.1469 12.0755C18.6637 12.181 18.8957 12.3286 19.0012 12.4657C19.1805 12.6872 19.191 13.088 19.191 18.5298C19.1805 21.7359 19.2227 24.3619 19.2648 24.3619C19.307 24.3619 19.4547 24.0667 19.5918 23.7081C19.7394 23.339 20.0136 22.7378 20.214 22.3582C20.4144 21.9785 20.773 21.3879 21.0261 21.0399C21.2686 20.6918 21.8592 20.0274 22.3233 19.5634L23.1881 18.7197C23.1881 12.8665 23.1986 12.5817 23.3673 12.413C23.4728 12.3075 23.7048 12.1915 23.8947 12.1493L24.2321 12.0755C21.9436 9.57604 21.2475 8.85889 21.2054 8.86944C21.1632 8.86944 20.4566 9.59713 19.634 10.4725L18.1469 12.0755ZM20.2456 32.3771C20.678 32.3771 21.3003 32.451 21.6167 32.5459C21.9331 32.6408 22.4393 32.8517 22.7451 33.0205C23.051 33.1892 23.3779 33.4318 23.4623 33.5689C23.5466 33.6954 23.6205 33.9169 23.6205 34.0645C23.6205 34.2122 23.5044 34.4337 23.3779 34.5708C23.2408 34.7079 23.0193 34.8028 22.8506 34.8028C22.6924 34.8028 22.3865 34.6868 22.1651 34.5391C21.9541 34.402 21.5639 34.2122 21.3003 34.1173C21.0366 34.0329 20.5726 33.9591 20.2667 33.9591C19.9609 33.9591 19.5707 34.0329 19.4019 34.1173C19.2227 34.2016 18.9906 34.402 18.8641 34.5708C18.7481 34.729 18.6532 34.9821 18.6532 35.1508C18.6637 35.309 18.7692 35.5516 18.8957 35.6992C19.0434 35.8574 19.7183 36.1949 20.6148 36.5535C21.4268 36.8699 22.2283 37.2284 22.4076 37.3339C22.5764 37.4394 22.9349 37.7557 23.1986 38.0405C23.4623 38.3252 23.7259 38.7471 23.7997 38.9791C23.8736 39.2006 23.9368 39.5592 23.9368 39.7595C23.9368 39.9599 23.863 40.3396 23.7787 40.6032C23.6943 40.8669 23.4201 41.3204 23.167 41.6051C22.8611 41.9532 22.4815 42.2379 22.0807 42.4172C21.7116 42.586 21.1737 42.7336 20.773 42.7758C20.2984 42.818 19.8554 42.7863 19.3492 42.6598C18.9379 42.5649 18.3262 42.3434 17.9887 42.1536C17.6513 41.9637 17.1872 41.6157 16.9657 41.3731C16.7337 41.12 16.5544 40.8247 16.5544 40.7087C16.5544 40.5927 16.6915 40.3607 16.8708 40.1814C17.1239 39.9283 17.2505 39.8756 17.472 39.9283C17.6302 39.9599 17.9571 40.1708 18.1891 40.3818C18.4739 40.6349 18.8852 40.8458 19.4019 41.0146C20.0136 41.2149 20.3089 41.2571 20.7202 41.1938C21.005 41.1622 21.3846 41.0462 21.5639 40.9407C21.7327 40.8353 21.9858 40.5822 22.1229 40.3818C22.2494 40.1919 22.3549 39.8966 22.3549 39.7384C22.3549 39.5697 22.2283 39.2955 22.0596 39.1162C21.9014 38.9264 21.6272 38.7155 21.4585 38.6205C21.2792 38.5362 20.4988 38.2092 19.7183 37.8928C18.9379 37.5765 18.1575 37.2284 17.9993 37.1124C17.8411 37.007 17.5985 36.7117 17.4509 36.4691C17.3032 36.216 17.1556 35.7625 17.1134 35.4356C17.0712 35.0032 17.1028 34.7079 17.2505 34.2755C17.3876 33.8747 17.588 33.5583 17.9255 33.2419C18.1786 32.9888 18.6321 32.6935 18.9274 32.5881C19.2543 32.4615 19.7394 32.3877 20.2456 32.3771ZM27.9655 32.3771C29.5897 32.3771 30.1592 32.4088 30.3174 32.5142C30.4334 32.5986 30.5599 32.7884 30.6021 32.9466C30.6548 33.1154 30.6337 33.3263 30.5388 33.5161C30.465 33.6743 30.3174 33.8325 30.2224 33.8853C30.1275 33.9274 29.3682 33.9591 26.9953 33.9591V36.8066H28.4401C29.8006 36.8066 29.9061 36.8277 30.1381 37.0491C30.2646 37.1757 30.3701 37.3972 30.3806 37.5448C30.3806 37.6925 30.2857 37.9245 30.1697 38.0721C29.9693 38.3252 29.9271 38.3358 26.9953 38.3885V41.1306L28.5878 41.1622C30.1697 41.1833 30.1803 41.1833 30.4334 41.4786C30.5705 41.6368 30.6865 41.8583 30.6865 41.9743C30.6865 42.0903 30.5705 42.3117 30.1803 42.7652H28.0077C25.8879 42.7652 25.8352 42.7547 25.3606 42.2907L25.329 37.8823C25.3079 35.4672 25.3184 33.3263 25.3501 33.147C25.3817 32.9572 25.5082 32.7041 25.6243 32.5881C25.8246 32.3877 25.9723 32.3771 27.9655 32.3771ZM36.5924 32.3877C37.0881 32.3771 37.7209 32.4404 38.0162 32.5248C38.3009 32.5986 38.8071 32.799 39.1235 32.9572C39.4399 33.1154 39.9883 33.5372 40.3469 33.8958C40.6949 34.2544 41.1062 34.7817 41.2539 35.0664C41.4015 35.3617 41.6019 35.8574 41.6968 36.1738C41.7917 36.4902 41.8656 37.1124 41.8656 37.5448C41.8656 37.9772 41.8128 38.5467 41.7495 38.8104C41.6863 39.074 41.4859 39.5908 41.3066 39.9599C41.1168 40.329 40.7055 40.8985 40.3785 41.2255C40.0516 41.5524 39.5137 41.9637 39.1657 42.1536C38.8177 42.3434 38.206 42.5649 37.8052 42.6703C37.299 42.7863 36.835 42.818 36.3288 42.7758C35.9174 42.7441 35.3058 42.6176 34.9577 42.5016C34.6097 42.3856 34.114 42.143 33.8504 41.9743C33.5867 41.8161 33.1543 41.447 32.9012 41.1622C32.6375 40.888 32.3106 40.4872 32.1946 40.2869C32.068 40.0865 31.8571 39.633 31.7411 39.285C31.6251 38.9369 31.4985 38.3252 31.4564 37.9139C31.4247 37.4077 31.4564 36.9437 31.5724 36.4375C31.6778 36.0367 31.8993 35.4145 32.0891 35.0664C32.2684 34.7184 32.6586 34.2016 32.9539 33.9063C33.2387 33.6216 33.7133 33.2419 34.0086 33.0732C34.2933 32.9045 34.7995 32.6724 35.1159 32.5775C35.4745 32.4615 36.0335 32.3877 36.5924 32.3877ZM34.0297 35.1192C33.5234 35.657 33.3863 35.8785 33.1965 36.5218C33.0278 37.1124 32.9856 37.4288 33.0383 37.9139C33.0805 38.2725 33.2387 38.8209 33.418 39.1795C33.5867 39.5381 33.9136 39.9916 34.1773 40.2236C34.4304 40.4451 34.905 40.7509 35.2214 40.8985C35.6749 41.12 35.9596 41.1727 36.5924 41.1727C37.0986 41.1833 37.5838 41.1095 37.9634 40.9829C38.3853 40.8353 38.7122 40.6138 39.1868 40.1392C39.6508 39.6646 39.8934 39.3271 40.0621 38.8631C40.2625 38.3463 40.2942 38.0721 40.2625 37.3866C40.2309 36.7749 40.1465 36.3953 39.9672 36.0156C39.8301 35.7309 39.4926 35.2774 39.229 35.0137C38.9653 34.7501 38.5118 34.4126 38.2271 34.2755C37.8263 34.0856 37.4783 34.0118 36.8033 33.9907C36.0335 33.9591 35.812 33.9907 35.2741 34.2122C34.8206 34.402 34.4621 34.6551 34.0297 35.1192Z" fill="#292751"/>
</svg>
