<svg width="50" height="50" viewBox="0 0 50 50" fill="none" xmlns="http://www.w3.org/2000/svg">
<path fill-rule="evenodd" clip-rule="evenodd" d="M4.83398 0.0195312L45.0195 0L45.6836 0.205078C46.0449 0.322266 46.5918 0.546875 46.8945 0.693359C47.207 0.849609 47.7539 1.25977 48.125 1.60156C48.4863 1.94336 48.9453 2.5 49.1504 2.8418C49.3555 3.18359 49.6289 3.81836 50 5.0293V20.752C50 36.2793 50 36.4844 49.8047 37.2559C49.6875 37.6855 49.4531 38.3008 49.2773 38.623C49.0918 38.9453 48.7305 39.4531 48.4668 39.7461C48.2031 40.0391 47.7246 40.459 47.4023 40.6738C47.0898 40.8789 46.4551 41.1914 45.166 41.6504L31.6406 41.6992V45.0195H34.0137C36.2793 45.0195 36.3965 45.0293 36.8652 45.2441C37.1387 45.3711 37.5 45.6445 37.6855 45.8594C37.8711 46.0645 38.0859 46.3965 38.1641 46.582C38.2324 46.7676 38.3008 47.1875 38.3008 47.5098C38.3008 47.9395 38.2324 48.2227 38.0566 48.584C37.9199 48.8574 37.7051 49.1699 37.5781 49.2871C37.4609 49.4043 37.1484 49.6094 36.4258 50H13.5742L13.1152 49.7461C12.8516 49.6094 12.5391 49.4043 12.4219 49.2871C12.2949 49.1699 12.0801 48.8574 11.9434 48.584C11.7676 48.2227 11.6992 47.9395 11.6992 47.5098C11.6992 47.1875 11.7676 46.7676 11.8359 46.582C11.9141 46.3965 12.1289 46.0645 12.3145 45.8594C12.5 45.6445 12.8711 45.3711 13.1348 45.2441C13.6035 45.0293 13.7207 45.0195 18.3594 45.0195V41.6992L4.83398 41.6504L4.00391 41.3574C3.54492 41.1914 2.91016 40.8789 2.59766 40.6738C2.27539 40.459 1.79688 40.0391 1.5332 39.7461C1.26953 39.4531 0.908203 38.9453 0.722656 38.623C0.546875 38.3008 0.3125 37.7051 0.205078 37.3047C0 36.582 0 36.4453 0 20.8496C0 5.23438 0 5.11719 0.205078 4.39453C0.3125 3.99414 0.546875 3.39844 0.712891 3.07617C0.888672 2.75391 1.29883 2.20703 1.63086 1.85547C1.95313 1.50391 2.48047 1.06445 2.79297 0.878906C3.10547 0.693359 3.69141 0.419922 4.10156 0.273438L4.83398 0.0195312ZM3.87695 2.16797C3.65234 2.28516 3.24219 2.58789 2.97852 2.8418C2.70508 3.0957 2.37305 3.51562 2.22656 3.7793C2.08008 4.04297 1.89453 4.52148 1.80664 4.84375C1.66992 5.36133 1.66016 7.02148 1.66016 19.3652V33.3105H48.3398C48.3398 7.26562 48.3203 5.35156 48.1934 4.86328C48.1055 4.55078 47.9492 4.11133 47.832 3.88672C47.7148 3.66211 47.4121 3.25195 47.1582 2.98828C46.9043 2.71484 46.4844 2.37305 46.2207 2.23633C45.9668 2.08984 45.4883 1.9043 45.166 1.81641C44.6387 1.67969 42.4707 1.66992 24.9512 1.66992C8.22266 1.67969 5.24414 1.69922 4.80469 1.81641C4.52148 1.89453 4.11133 2.05078 3.87695 2.16797ZM1.66016 35.625C1.66016 35.9863 1.72852 36.5527 1.80664 36.875C1.89453 37.1973 2.08008 37.6562 2.2168 37.9004C2.36328 38.1348 2.65625 38.5254 2.87109 38.7598C3.0957 39.0039 3.56445 39.3262 3.95508 39.5215C4.3457 39.7168 4.90234 39.8926 5.27344 39.9512C5.6543 40 13.5254 40.0391 25 40.0391C36.4648 40.0391 44.3457 40 44.7266 39.9512C45.0879 39.8926 45.6445 39.7168 46.0449 39.5215C46.4355 39.3262 46.8945 39.0039 47.1191 38.7598C47.3438 38.5254 47.6367 38.1348 47.7734 37.9004C47.9199 37.6562 48.1055 37.1973 48.1836 36.875C48.2715 36.5527 48.3398 35.9863 48.3398 35.625V34.9707H1.66016V35.625ZM20.0195 45.0195H29.9805V41.6992H20.0195V45.0195ZM13.623 46.9238C13.4766 47.0703 13.3789 47.2852 13.3789 47.4805C13.3691 47.666 13.4473 47.9102 13.5547 48.0469L13.75 48.291H36.25C36.543 47.9102 36.6211 47.6562 36.6211 47.4902C36.6211 47.2852 36.5332 47.0801 36.377 46.9238L36.1328 46.6797H13.8574L13.623 46.9238ZM25.3418 7.56836C26.4355 7.58789 27.4512 7.66602 28.0273 7.77344C28.5352 7.86133 29.3262 8.04688 29.7852 8.17383C30.2441 8.31055 31.0547 8.59375 31.5918 8.79883C32.1289 9.01367 33.0273 9.45312 33.5938 9.77539C34.1602 10.0977 35.0098 10.6543 35.498 11.0156C35.9766 11.377 36.7969 12.0898 37.3145 12.5977C37.8223 13.1152 38.5742 13.9648 38.9746 14.502C39.375 15.0391 39.9219 15.8789 40.1953 16.3574C40.4688 16.8457 40.8594 17.6172 41.0547 18.0664C41.2598 18.5254 41.5625 19.3848 41.748 19.9707C41.9238 20.5664 42.1387 21.4648 42.2266 21.9727C42.3145 22.4902 42.4121 23.3691 42.4512 23.9258C42.4805 24.4922 42.4805 25.1172 42.4414 25.3223C42.4121 25.5273 42.2461 25.8398 42.0605 26.0449C41.8848 26.2402 41.6016 26.4648 41.4258 26.5332C41.1816 26.6309 40.293 26.6699 37.4707 26.6699C33.8867 26.6699 33.8281 26.6602 33.3984 26.4453C33.1055 26.2988 32.8809 26.0938 32.7441 25.8301C32.5977 25.5859 32.5195 25.2734 32.5195 24.9805C32.5195 24.7266 32.4707 24.4922 32.4219 24.4629C32.3633 24.4434 31.2988 24.9414 30.0488 25.5859C28.1738 26.5527 27.7441 26.8164 27.5391 27.1094C27.4023 27.3047 27.0996 27.5977 26.8555 27.7539C26.6113 27.9102 26.1719 28.1152 25.8789 28.1934C25.5371 28.291 25.127 28.3301 24.7559 28.3008C24.4336 28.2812 23.9258 28.1543 23.6328 28.0176C23.3398 27.8906 22.9004 27.5781 22.6562 27.3438C22.4219 27.1094 22.1094 26.6699 21.9727 26.3672C21.7676 25.9277 21.7285 25.6934 21.7285 25C21.7285 24.3164 21.7676 24.082 21.9727 23.6328C22.1094 23.3398 22.4219 22.9004 22.6562 22.666C22.9004 22.4316 23.3398 22.1191 23.6328 21.9824C24.082 21.7676 24.3164 21.7285 25.1465 21.7188C26.0449 21.709 26.2988 21.6602 28.4375 21.0352C29.7168 20.6738 30.7617 20.3223 30.7617 20.2637C30.7617 20.2148 30.5371 19.9512 30.2539 19.6777C29.9707 19.4043 29.4238 18.9746 29.0527 18.7402C28.6719 18.4961 28.1445 18.2129 27.8809 18.0957C27.6074 17.9883 27.1289 17.8223 26.8066 17.7441C26.4844 17.6562 25.8887 17.5684 25.4883 17.5293C25.0488 17.4902 24.4434 17.5098 23.9746 17.5879C23.5449 17.6465 22.8809 17.8125 22.5098 17.9395C22.1289 18.0664 21.5137 18.3594 21.1426 18.584C20.7617 18.8086 20.1758 19.2578 19.834 19.5801C19.4922 19.9023 19.0137 20.4785 18.7695 20.8496C18.5156 21.2305 18.1836 21.8652 18.0273 22.2656C17.8711 22.6758 17.6855 23.3301 17.6172 23.7305C17.5488 24.1406 17.4805 24.6875 17.4805 24.9512C17.4805 25.2734 17.4023 25.5859 17.2559 25.8301C17.1094 26.0938 16.8945 26.2988 16.6016 26.4453C16.1719 26.6602 16.1035 26.6699 12.5195 26.6699C9.70703 26.6699 8.81836 26.6309 8.56445 26.5332C8.38867 26.4648 8.10547 26.2402 7.92969 26.0449C7.75391 25.8398 7.58789 25.5273 7.54883 25.3223C7.51953 25.1172 7.51953 24.4922 7.54883 23.9258C7.58789 23.3691 7.68555 22.4902 7.77344 21.9727C7.86133 21.4648 8.07617 20.5664 8.25195 19.9707C8.42773 19.3848 8.74023 18.5254 8.93555 18.0664C9.14062 17.6172 9.54102 16.8262 9.83398 16.3086C10.1172 15.8008 10.6543 14.9902 11.0156 14.502C11.377 14.0234 12.0801 13.2031 12.5977 12.6953C13.1055 12.1777 13.9648 11.4258 14.502 11.0254C15.0391 10.625 15.8691 10.0781 16.3574 9.80469C16.8359 9.53125 17.6074 9.15039 18.0664 8.94531C18.5254 8.75 19.375 8.4375 19.9707 8.26172C20.5566 8.07617 21.4844 7.86133 22.0215 7.7832C22.5586 7.69531 23.125 7.60742 23.291 7.57812C23.4473 7.55859 24.375 7.55859 25.3418 7.56836ZM21.7285 9.54102C21.2988 9.62891 20.5469 9.82422 20.0684 9.99023C19.5801 10.1465 18.7891 10.459 18.3105 10.6934C17.8223 10.918 17.1191 11.2988 16.748 11.5234C16.3672 11.7578 15.6934 12.2363 15.2441 12.5879L14.4336 13.2324C18.8574 17.6465 19.1602 17.9102 19.3066 17.8027C19.4043 17.7344 19.834 17.4609 20.2637 17.1973C20.6934 16.9238 21.416 16.5723 21.875 16.4062C22.334 16.2402 23.0176 16.0547 23.4082 15.9863L24.1211 15.8691C24.1211 10.6934 24.082 9.18945 24.043 9.19922C24.0039 9.20898 23.6426 9.24805 23.2422 9.29688C22.8418 9.33594 22.1582 9.45312 21.7285 9.54102ZM25.8789 15.8691C26.6699 15.9961 27.2559 16.1523 27.6855 16.2793C28.1152 16.416 28.7305 16.6602 29.0527 16.8262C29.375 16.9824 29.9023 17.3047 30.2246 17.5391L30.8105 17.9492L35.5664 13.2324C34.2969 12.2363 33.6523 11.7676 33.3008 11.5527C32.9492 11.3379 32.3828 11.0254 32.0312 10.8496C31.6797 10.6738 31.0254 10.3809 30.5664 10.2051C30.1074 10.0391 29.3652 9.80469 28.9062 9.6875C28.4473 9.57031 27.7637 9.44336 27.3926 9.38477C27.0117 9.33594 26.5137 9.27734 26.2793 9.24805L25.8594 9.19922L25.8789 15.8691ZM12.5879 15.2539C12.2266 15.7031 11.7676 16.3281 11.5625 16.6504C11.3574 16.9727 10.9863 17.6758 10.7324 18.2129C10.4688 18.75 10.1367 19.5898 9.9707 20.0684C9.81445 20.5566 9.58984 21.3867 9.48242 21.9238C9.375 22.4609 9.24805 23.3789 9.20898 23.9551L9.13086 25.0098H15.7715C15.957 23.5254 16.123 22.7246 16.2695 22.2656C16.4062 21.8164 16.6406 21.2207 16.7676 20.9473C16.9043 20.6836 17.207 20.1855 17.4414 19.8535C17.6758 19.5215 17.8711 19.209 17.8711 19.1699C17.8711 19.1309 16.8262 18.0469 15.5469 16.7676L13.2324 14.4336L12.5879 15.2539ZM32.041 19.1992L32.5684 19.8633C36.6211 18.7793 36.7969 18.75 37.1582 18.8574C37.373 18.9258 37.666 19.0918 37.8027 19.2383C37.9492 19.375 38.1152 19.668 38.1836 19.8828C38.2812 20.1855 38.291 20.3613 38.2031 20.6641C38.1445 20.8789 37.9688 21.1719 37.8223 21.3086C37.6758 21.4551 36.8066 21.9727 35.8887 22.4707C34.9805 22.9688 34.1895 23.3984 34.1504 23.4375C34.1016 23.4668 34.0918 23.8379 34.1211 24.248L34.1797 25.0098H40.8691C40.752 23.3789 40.6348 22.4707 40.5176 21.9336C40.4102 21.3965 40.1953 20.5566 40.0293 20.0781C39.873 19.5898 39.4629 18.623 39.1113 17.9297C38.7305 17.1582 38.1836 16.25 37.7051 15.6055C37.2656 15.0293 36.875 14.541 36.8262 14.5117C36.7871 14.4922 35.6836 15.5371 34.3945 16.8359L32.041 19.1992ZM30.0977 22.2754L27.6367 22.959C28.0859 23.7891 28.2227 24.1406 28.2227 24.2773C28.2227 24.4141 28.252 24.541 28.291 24.5605C28.3398 24.5898 29.4629 24.0234 30.8105 23.3105C32.1484 22.5977 33.6133 21.8164 34.0527 21.582C34.502 21.3477 34.8633 21.123 34.8633 21.0742C34.8633 21.0352 34.8047 21.0059 34.7363 21.0156C34.6777 21.0156 34.1602 21.1523 33.5938 21.3086C33.0273 21.4648 31.4551 21.9043 30.0977 22.2754ZM23.5645 24.2285C23.4375 24.4727 23.3398 24.8242 23.3398 25.0098C23.3398 25.1953 23.4375 25.5469 23.5547 25.7812C23.7109 26.084 23.9062 26.2793 24.2188 26.4453C24.4629 26.5723 24.8145 26.6699 25 26.6699C25.1855 26.6699 25.5371 26.5723 25.7715 26.4551C26.0742 26.2988 26.2695 26.1035 26.4355 25.791C26.5625 25.5469 26.6602 25.1953 26.6602 25.0098C26.6602 24.8242 26.5625 24.4727 26.4355 24.2285C26.2695 23.916 26.0742 23.7207 25.7715 23.5645C25.5371 23.4473 25.1855 23.3496 25 23.3496C24.8047 23.3496 24.4629 23.4473 24.2285 23.5645C23.9258 23.7207 23.7305 23.916 23.5645 24.2285ZM25.1758 36.6602C26.1523 36.6797 26.2012 36.6895 26.4258 36.9434C26.5625 37.0996 26.6602 37.334 26.6602 37.5098C26.6602 37.6758 26.5625 37.9102 26.4258 38.0664C26.1914 38.3398 26.1719 38.3398 25 38.3398C23.8281 38.3398 23.8086 38.3398 23.5742 38.0664C23.4473 37.9199 23.3398 37.6855 23.3398 37.5293C23.3301 37.3828 23.4277 37.1484 23.5352 37.002C23.6426 36.8555 23.8379 36.7188 23.9551 36.6895C24.0723 36.6699 24.6191 36.6504 25.1758 36.6602Z" fill="#292751"/>
</svg>
