<svg width="1918" height="1030" viewBox="0 0 1918 1030" fill="none" xmlns="http://www.w3.org/2000/svg">
<g clip-path="url(#clip0_1437_17260)">
<rect width="1918" height="1030" fill="white"/>
<path fill-rule="evenodd" clip-rule="evenodd" d="M1131.33 685.607C1415.22 779.213 1509.93 989.097 1826.93 1036.62C2081.53 1074.79 2297.6 997.92 2395.96 904.746C2491.4 814.333 2363.88 659.2 2342.31 548.38C2323.91 453.824 2342.59 363.256 2268 268.324C2188.05 166.568 2108.54 44.4521 1898.84 -16.0614C1684.34 -77.9569 1443.4 -44.7146 1225.62 -32.4708C1067.34 -23.5719 978.958 51.896 811.999 45.0428C522.703 33.1681 206.753 -122.321 -46.0504 -84.6688C-265.516 -51.9817 -330.662 91.1194 -266.989 205.747C-202.317 322.171 79.7343 402.93 276.959 496.824C406.573 558.529 528.853 626.46 692.84 662.695C837.802 694.726 997.805 641.583 1131.33 685.607Z" fill="#1090D0" fill-opacity="0.08"/>
</g>
<defs>
<clipPath id="clip0_1437_17260">
<rect width="1918" height="1030" fill="white"/>
</clipPath>
</defs>
</svg>
