<svg width="46" height="61" viewBox="0 0 46 61" fill="none" xmlns="http://www.w3.org/2000/svg">
<path fill-rule="evenodd" clip-rule="evenodd" d="M8.66206 1.39181C8.9264 1.2332 9.34934 1.05345 9.61368 0.979439C9.87802 0.905424 10.5019 0.852556 11.0411 0.873703C11.8553 0.89485 12.0879 0.947718 12.7117 1.24378C13.1029 1.4341 13.6528 1.80417 13.9277 2.07909C14.2132 2.36457 14.5621 2.81923 14.7101 3.11529C14.8582 3.40078 15.0379 3.90831 15.1119 4.22552C15.1965 4.58502 15.2282 5.08197 15.1859 5.54721C15.1331 6.07588 15.0168 6.48825 14.7736 6.97464C14.5938 7.35528 14.2132 7.88396 13.9277 8.15887C13.6528 8.44436 13.1029 8.82501 12.7117 9.00476C12.035 9.33253 11.9293 9.35368 10.8296 9.35368C9.78285 9.35368 9.6031 9.32196 9.06385 9.05762C8.7255 8.89902 8.18625 8.51837 7.85847 8.21174C7.49897 7.88396 7.15004 7.40815 6.95972 7.0275C6.79054 6.67858 6.60022 6.10761 6.54735 5.75868C6.48391 5.34631 6.48391 4.90222 6.54735 4.48985C6.61079 4.14093 6.7694 3.60168 6.91743 3.29504C7.06546 2.99898 7.40381 2.50203 7.67872 2.20597C7.96421 1.90991 8.39772 1.53984 8.66206 1.39181ZM20.0815 1.50812C20.2824 1.38123 20.737 1.16976 21.086 1.05345C21.5724 0.89485 21.953 0.852555 22.672 0.863129C23.5285 0.89485 23.7188 0.937145 24.4166 1.2755C24.9453 1.53984 25.3683 1.8359 25.6749 2.17425C25.9286 2.45973 26.2882 2.99898 26.4679 3.37963C26.764 4.00347 26.7957 4.16207 26.7957 5.13484C26.7957 6.13933 26.7745 6.23449 26.4045 6.98521C26.1613 7.49274 25.8441 7.93683 25.5057 8.24346C25.2308 8.49723 24.6915 8.85673 24.3109 9.03648C23.6765 9.33254 23.539 9.35368 22.5134 9.35368C21.5829 9.34311 21.2974 9.30081 20.7688 9.08934C20.367 8.93074 19.9123 8.62411 19.5211 8.24346C19.1404 7.89453 18.7809 7.41873 18.5906 7.0275C18.4214 6.67858 18.2311 6.10761 18.1888 5.75868C18.136 5.39918 18.136 4.84935 18.1888 4.48985C18.2417 4.14093 18.432 3.56996 18.6012 3.22103C18.7704 2.8721 19.0876 2.39629 19.3096 2.17425C19.5317 1.9522 19.8806 1.64557 20.0815 1.50812ZM32.5054 1.44467C32.738 1.30722 33.1609 1.10632 33.457 1.02173C33.7531 0.92657 34.3346 0.852556 34.7576 0.852556C35.2651 0.841983 35.7303 0.915998 36.185 1.06403C36.5445 1.19091 37.0309 1.41295 37.2635 1.58213C37.4961 1.74073 37.8662 2.07909 38.0882 2.33285C38.3103 2.58662 38.6169 3.06243 38.7649 3.37963C38.9764 3.82372 39.061 4.18322 39.0927 4.85993C39.135 5.53663 39.0927 5.90671 38.9552 6.34022C38.8495 6.65743 38.6698 7.09095 38.5535 7.29184C38.4266 7.49274 38.1622 7.84167 37.9508 8.06371C37.7499 8.28576 37.3692 8.60296 37.1049 8.77214C36.8405 8.93074 36.3647 9.14221 36.0475 9.23737C35.7303 9.33253 35.1594 9.40655 34.7787 9.40655C34.3875 9.40655 33.7954 9.32196 33.4041 9.19508C33.0235 9.07877 32.4842 8.80386 32.1882 8.59239C31.9027 8.37034 31.4903 7.9474 31.2683 7.66192C31.0462 7.36586 30.7713 6.82661 30.655 6.44596C30.5387 6.06531 30.4436 5.47319 30.4436 5.12427C30.4436 4.77534 30.5176 4.22552 30.6127 3.90831C30.7079 3.5911 30.9194 3.11529 31.078 2.85096C31.2471 2.58662 31.5432 2.22712 31.7335 2.04737C31.9238 1.85704 32.2728 1.5927 32.5054 1.44467ZM5.49 11.1723C5.92351 10.9609 6.49448 10.7388 6.75882 10.6859C7.02316 10.6331 8.76779 10.5908 10.6499 10.5802C13.3461 10.5696 14.2132 10.6014 14.8264 10.7282C15.2388 10.8234 15.8309 11.0032 16.6451 11.3944L17.2795 11.0983C17.6284 10.9397 18.1677 10.7494 18.4743 10.6859C18.8127 10.6119 20.3352 10.5696 22.3865 10.5696C24.9559 10.5696 25.9075 10.6119 26.4785 10.7282C26.8908 10.8234 27.5358 11.0454 28.646 11.5741L29.3016 11.2358C29.6717 11.0454 30.2532 10.8234 30.6022 10.7282C31.1097 10.6014 31.9344 10.5696 34.6201 10.5696C37.2 10.5696 38.1834 10.6119 38.7438 10.7282C39.1561 10.8128 39.8117 11.0454 40.2241 11.2358C40.6364 11.4367 41.2286 11.8279 41.5458 12.124C41.863 12.42 42.2542 12.8852 42.4128 13.1707C42.5714 13.4562 42.7723 13.9743 42.8569 14.3232C42.9732 14.7462 43.0261 15.4229 43.0261 17.7596H43.9777C44.5064 17.7596 45.0245 17.8019 45.1408 17.8654C45.3417 17.9711 45.3522 18.0769 45.3522 20.2656C45.3628 22.3697 45.3417 22.5918 45.1619 22.8349C45.0456 22.983 44.4641 23.4799 43.8614 23.9346C43.5276 24.1922 42.701 24.826 41.6742 25.6132C40.8468 26.2476 39.8895 26.9816 38.9552 27.6988C38.7613 27.8477 38.5612 28.0013 38.3547 28.1597C36.3324 29.712 33.7004 31.7323 30.285 34.3707L27.8319 39.2557C26.4785 41.9413 25.2837 44.2041 25.1885 44.2781C25.051 44.3732 24.3743 44.405 22.672 44.4155C20.589 44.4155 20.3247 44.3944 20.1026 44.2252C19.944 44.0983 19.1193 42.3749 15.5772 34.413L13.8219 33.0384C13.5113 32.796 13.1136 32.4853 12.6758 32.1433C11.7575 31.4259 10.6628 30.5708 9.82515 29.9192C8.58804 28.957 6.69538 27.4873 5.60631 26.652C5.1819 26.3191 4.68708 25.9339 4.19531 25.551C3.4374 24.9609 2.68674 24.3764 2.2122 23.998C1.11255 23.1416 0.753051 22.7927 0.657889 22.5177C0.583875 22.2851 0.531009 21.4181 0.531009 20.2127C0.520435 18.3306 0.531009 18.2883 0.753054 18.1297C0.911657 18.024 1.25001 17.9711 2.52941 17.9711V16.6494C2.52941 15.9199 2.58228 15.074 2.64572 14.7673C2.70916 14.4713 2.91005 13.9109 3.0898 13.5302C3.2907 13.0861 3.63963 12.6103 4.052 12.198C4.48551 11.7645 4.96132 11.4261 5.49 11.1723ZM20.4516 46.858C20.8639 46.7206 21.456 46.5725 21.7732 46.5197C22.0905 46.4668 22.7143 46.4562 23.1478 46.488C23.5813 46.5091 24.2263 46.6043 24.5752 46.6889C24.9242 46.784 25.5374 47.0166 25.9498 47.207C26.3622 47.4079 26.9966 47.8202 27.3772 48.1374C27.7579 48.4546 28.2654 48.9939 28.498 49.3322C28.7412 49.6812 29.0373 50.157 29.1642 50.4107C29.2805 50.6539 29.4814 51.2038 29.5977 51.6267C29.7457 52.1237 29.8197 52.7158 29.8197 53.3396C29.8197 53.8683 29.7457 54.619 29.6505 55.0314C29.5554 55.4438 29.3016 56.1205 29.0901 56.5328C28.8787 56.9558 28.4874 57.5585 28.2231 57.8651C27.9588 58.1823 27.4618 58.6581 27.1129 58.9119C26.764 59.1762 26.2141 59.5251 25.8969 59.6837C25.5797 59.8423 24.9559 60.0644 24.5224 60.1701C24.036 60.297 23.3593 60.371 22.7777 60.371C22.1645 60.371 21.5301 60.297 20.9802 60.1595C20.515 60.0327 19.8066 59.7683 19.3942 59.5463C18.8867 59.2819 18.3686 58.8802 17.7553 58.2563C17.0786 57.5796 16.7614 57.1672 16.4653 56.5645C16.2539 56.131 16.0001 55.4438 15.9049 55.0314C15.8098 54.619 15.7252 53.8894 15.7358 53.3925C15.7358 52.8638 15.8203 52.166 15.9367 51.7007C16.053 51.2672 16.2644 50.6751 16.4125 50.379C16.5499 50.0935 16.8883 49.5649 17.1526 49.2159C17.417 48.867 17.861 48.3912 18.1465 48.1586C18.4214 47.926 18.8972 47.5982 19.1827 47.4184C19.4788 47.2387 20.0392 46.9849 20.4516 46.858ZM9.0428 2.42534C9.26484 2.28789 9.62434 2.10814 9.82524 2.03412C10.0367 1.94954 10.5337 1.90724 10.9883 1.92839C11.5382 1.93896 11.9294 2.02355 12.2572 2.18215C12.5215 2.30903 12.9339 2.61567 13.1876 2.86943C13.4308 3.1232 13.748 3.53557 13.8749 3.7999C14.0547 4.16998 14.1075 4.46604 14.097 5.1216C14.097 5.81945 14.0547 6.06264 13.822 6.49616C13.674 6.78164 13.3145 7.2363 13.029 7.50064C12.7012 7.7967 12.2994 8.05047 11.9294 8.16678C11.6122 8.26194 11.0835 8.34653 10.7451 8.34653C10.3116 8.34653 9.95212 8.26194 9.47631 8.05047C9.02165 7.839 8.6833 7.58523 8.37667 7.22573C8.1229 6.94024 7.84799 6.46444 7.75283 6.17895C7.64709 5.88289 7.57308 5.40708 7.57308 5.1216C7.57308 4.82554 7.64709 4.34973 7.74225 4.06424C7.83741 3.76818 8.08061 3.34524 8.27093 3.11262C8.46125 2.88001 8.81018 2.57337 9.0428 2.42534ZM20.716 2.39362C20.9169 2.26674 21.2552 2.10814 21.4561 2.03412C21.6676 1.94954 22.1646 1.90724 22.6192 1.92839C23.2008 1.94954 23.5497 2.02355 23.9409 2.21387C24.237 2.35133 24.6493 2.66854 24.8714 2.90115C25.0934 3.13377 25.3789 3.53557 25.5058 3.7999C25.6856 4.16998 25.7384 4.46604 25.7384 5.1216C25.7278 5.80888 25.6856 6.06264 25.4741 6.48558C25.3261 6.77107 25.0194 7.19401 24.7868 7.41605C24.5542 7.64867 24.1524 7.93416 23.8881 8.06104C23.5814 8.20907 23.1479 8.30423 22.6721 8.32538C22.1117 8.3571 21.7945 8.31481 21.3504 8.14563C21.0332 8.02932 20.5785 7.77556 20.3565 7.58523C20.1239 7.39491 19.8384 7.06713 19.7115 6.86623C19.5846 6.66533 19.4154 6.30583 19.3414 6.07322C19.2674 5.8406 19.2145 5.36479 19.2251 5.01586C19.2357 4.58235 19.3203 4.2017 19.5106 3.7999C19.6586 3.4827 19.9018 3.0809 20.0604 2.9223C20.219 2.75312 20.5151 2.52051 20.716 2.39362ZM32.4526 2.83771C32.7487 2.54165 33.1505 2.26674 33.51 2.12928C33.8695 1.99183 34.3453 1.90724 34.7576 1.90724C35.1912 1.89667 35.6247 1.97068 36.0265 2.12928C36.3965 2.27731 36.7983 2.53108 37.0838 2.81656C37.327 3.07033 37.6337 3.47212 37.7605 3.71532C37.9614 4.08539 38.0037 4.33915 38.0037 5.1216C38.0037 5.97805 37.972 6.12608 37.6865 6.64419C37.5173 6.96139 37.179 7.37376 36.9464 7.56408C36.7138 7.75441 36.2697 8.00817 35.9736 8.13506C35.6353 8.26194 35.1594 8.34653 34.7788 8.34653C34.377 8.34653 33.9223 8.26194 33.5417 8.11391C33.161 7.96588 32.7487 7.70154 32.4526 7.39491C32.146 7.09885 31.8816 6.68648 31.7336 6.30583C31.5962 5.94633 31.501 5.47052 31.501 5.1216C31.501 4.77267 31.5962 4.29686 31.7336 3.92679C31.8816 3.55671 32.1566 3.13377 32.4526 2.83771ZM5.86016 12.1636C6.15622 12.0261 6.60031 11.8464 6.86465 11.7724C7.203 11.6878 8.34495 11.6455 10.724 11.6349C13.6317 11.6243 14.2027 11.6455 14.8054 11.8041C15.1966 11.9098 15.535 12.0261 15.5772 12.0684C15.609 12.1213 15.4504 12.4068 15.2283 12.7028C14.9957 13.0095 14.7208 13.4747 14.6045 13.739C14.4882 14.0034 14.3401 14.5215 14.2661 14.9021C14.2027 15.2828 14.1604 16.1075 14.2133 17.9156L7.18186 17.9684V16.9322C7.18186 16.1921 7.13956 15.8432 7.02325 15.6634C6.93866 15.5365 6.76949 15.4308 6.66375 15.4308C6.54744 15.4308 6.37827 15.5048 6.29368 15.5894C6.15622 15.7163 6.1245 15.9912 6.1245 17.9684L3.63972 17.9156V16.3824L3.63975 16.3784C3.6503 14.8809 3.6506 14.838 3.98865 14.1303C4.17897 13.7285 4.54904 13.1998 4.83453 12.9143C5.10944 12.6394 5.57468 12.301 5.86016 12.1636ZM17.5756 12.1424C17.9034 11.9732 18.3581 11.7935 18.5801 11.7406C18.7916 11.6878 20.5891 11.6455 22.5664 11.656C26.0979 11.6772 26.1719 11.6878 26.8909 11.9415C27.2927 12.0896 27.6417 12.2693 27.6522 12.3328C27.6734 12.4068 27.5782 12.6288 27.4408 12.8086C27.2927 12.9989 27.0495 13.443 26.8804 13.7919C26.6054 14.384 26.5843 14.5426 26.4786 17.8098L18.8128 17.8627V16.8054C18.8128 16.0018 18.7705 15.7057 18.6541 15.5894C18.5696 15.5048 18.411 15.4308 18.3158 15.4308C18.2101 15.4308 18.0409 15.5154 17.9351 15.6211C17.7765 15.7691 17.7448 15.9806 17.7554 17.8627L16.9412 17.8839C16.4866 17.8944 15.9367 17.905 15.7147 17.905C15.5032 17.9156 15.3235 17.8627 15.3129 17.8098C15.3129 17.7464 15.2918 17.2283 15.26 16.6468C15.2283 16.0441 15.26 15.3356 15.3341 15.0079C15.3975 14.6906 15.5561 14.2148 15.6936 13.9505C15.8204 13.6862 16.1588 13.2421 16.4443 12.9566C16.7298 12.6711 17.2373 12.301 17.5756 12.1424ZM29.7141 12.2164C30.0313 12.0473 30.4965 11.8464 30.7609 11.7724C31.0886 11.6878 32.294 11.6349 34.5673 11.6349C37.6019 11.6243 37.972 11.6455 38.7439 11.8358C39.2091 11.9627 39.7801 12.1636 40.0127 12.301C40.2453 12.4385 40.5942 12.6817 40.7951 12.8509C40.996 13.02 41.271 13.3372 41.4084 13.5487C41.5353 13.7708 41.7256 14.2254 41.8102 14.5532C41.9159 14.9444 41.9688 15.6423 41.9688 17.757H39.8541V16.8265C39.8541 16.1815 39.8118 15.8326 39.6955 15.6634C39.6109 15.5365 39.4417 15.4308 39.336 15.4308C39.2197 15.4308 39.0505 15.5048 38.9659 15.5894C38.839 15.7163 38.7967 15.9806 38.7967 17.757L35.8361 17.7781C34.2078 17.7993 32.4843 17.8098 31.1309 17.8098L31.0781 16.7208C31.0358 15.9172 30.9829 15.6105 30.8666 15.5365C30.782 15.4837 30.6234 15.4308 30.5282 15.4308C30.4225 15.4308 30.2639 15.5365 30.1793 15.6634C30.063 15.8432 30.0207 16.1921 30.0207 17.8627H27.5888V16.3824C27.5888 15.1136 27.6205 14.8175 27.8214 14.2889C27.9694 13.9188 28.2655 13.4641 28.6038 13.1046C28.8999 12.7874 29.4074 12.3856 29.7141 12.2164ZM20.7689 18.9624C27.8003 18.9201 33.584 18.8778 33.6051 18.8566C33.6263 18.8355 36.0476 18.8143 44.295 18.8143V21.9864H30.782C20.1133 21.9864 17.2373 22.0181 17.1421 22.1133C17.0681 22.1873 17.0152 22.3565 17.0152 22.4833C17.0152 22.6208 17.121 22.8006 17.2584 22.8851C17.4382 23.012 17.7448 23.0437 18.5484 23.0332C19.13 23.0226 24.8502 23.0226 31.2684 23.0332C41.2287 23.0437 42.9204 23.0649 42.8993 23.1918C42.8781 23.2764 40.129 25.4439 36.7878 28.0239C35.5757 28.956 34.4123 29.8519 33.3824 30.645C31.5733 32.0381 30.1762 33.114 29.6506 33.5115H28.2021C27.3985 33.5115 26.6689 33.5327 26.5843 33.5644C26.4891 33.5961 26.4257 33.7547 26.4257 33.9556C26.4257 34.146 26.4786 34.368 26.5526 34.442C26.6477 34.5266 27.039 34.5689 27.7791 34.5689C28.4241 34.5689 28.8576 34.6112 28.8576 34.6746C28.8576 34.7275 27.8954 36.7048 24.5753 43.3449H20.716L20.5151 42.8903C20.4136 42.6569 19.6207 40.8751 18.7252 38.8626L18.6119 38.608C17.6814 36.5039 16.9095 34.7275 16.9095 34.6746C16.9095 34.6112 17.9669 34.5689 22.8307 34.5689L22.9893 34.3046C23.1268 34.0719 23.1268 34.0085 22.8307 33.5115L16.1165 33.501L14.9534 32.5705C14.319 32.063 12.1726 30.3924 10.1953 28.8592C8.21806 27.326 5.75443 25.4122 4.72879 24.6086C3.69259 23.805 2.85728 23.1283 2.87842 23.0966C2.889 23.0755 4.58076 23.0332 6.63203 23.0226C10.227 22.9909 10.3751 22.9803 10.5231 22.7794C10.6077 22.6631 10.6711 22.5151 10.6711 22.4622C10.6711 22.3988 10.6183 22.2719 10.5442 22.1767C10.4174 22.0075 10.0579 21.9864 6.23024 21.9864C3.93578 21.9758 1.94795 21.9441 1.82107 21.9018C1.59903 21.8278 1.58845 21.7749 1.57788 19.0258H4.77109C6.53687 19.0258 13.7375 18.9941 20.7689 18.9624ZM20.9803 47.7858C21.2129 47.7118 21.6465 47.6166 21.9319 47.5638C22.228 47.5215 22.7673 47.5109 23.1479 47.5321C23.5285 47.5638 24.0995 47.6589 24.4167 47.7541C24.7339 47.8387 25.2838 48.0607 25.6327 48.2299C26.0133 48.4308 26.5737 48.8538 27.0178 49.3084C27.483 49.7737 27.8954 50.3129 28.1069 50.7147C28.2866 51.0848 28.5087 51.6557 28.5933 51.9835C28.6884 52.3219 28.7624 52.9774 28.7624 53.4427C28.7624 53.9079 28.6779 54.574 28.5933 54.923C28.4981 55.2719 28.2866 55.8217 28.1175 56.1389C27.9377 56.4561 27.5571 56.9954 27.2504 57.3443C26.9438 57.6827 26.3623 58.169 25.9499 58.4228C25.5375 58.6766 24.8608 58.9726 24.4167 59.0889C23.9409 59.2264 23.3065 59.311 22.8307 59.311C22.3972 59.311 21.7416 59.237 21.3821 59.1524C21.012 59.0678 20.3671 58.8246 19.9547 58.6131C19.426 58.3488 18.9608 57.9999 18.4955 57.524C18.1149 57.1434 17.6602 56.5407 17.4699 56.1918C17.2902 55.8429 17.0575 55.2507 16.9624 54.8701C16.8672 54.4894 16.7932 53.8233 16.7932 53.3898C16.7932 52.9563 16.8672 52.3219 16.9624 51.9835C17.047 51.6557 17.269 51.0848 17.4488 50.7147C17.6602 50.3129 18.0726 49.7737 18.5378 49.3084C18.9925 48.8538 19.5423 48.4308 19.923 48.2405C20.2719 48.0607 20.7477 47.8598 20.9803 47.7858Z" fill="white"/>
<path fill-rule="evenodd" clip-rule="evenodd" d="M21.7947 49.8215C22.0484 49.7369 22.1648 49.6206 22.2388 49.3774C22.3234 49.0602 22.3551 49.0391 22.7886 49.0391C23.2327 49.0391 23.2538 49.0496 23.2538 49.3563C23.2538 49.5677 23.3173 49.6946 23.4441 49.7369C23.5393 49.7686 23.8354 49.8955 24.0891 50.0224C24.4063 50.1704 24.6601 50.4136 24.861 50.7308C25.0302 50.9952 25.1571 51.3124 25.1571 51.4393C25.1571 51.6084 25.083 51.693 24.9244 51.7142C24.787 51.7247 24.5544 51.7247 24.3958 51.7142C24.216 51.693 24.0997 51.619 24.0997 51.5238C24.0997 51.4393 23.9623 51.2489 23.7825 51.1009C23.6133 50.9529 23.423 50.8577 23.3596 50.8894C23.3067 50.9212 23.2538 51.3018 23.2538 51.7353C23.2538 52.1688 23.275 52.6023 23.3067 52.6869C23.3384 52.7715 23.4336 52.8455 23.5182 52.8455C23.6028 52.8455 23.8565 52.9407 24.0786 53.0464C24.29 53.1627 24.6072 53.3848 24.7764 53.554C24.9456 53.7126 25.1571 54.0086 25.2311 54.1884C25.3051 54.3787 25.3685 54.7276 25.3685 54.9602C25.3685 55.1929 25.3051 55.5418 25.2311 55.7215C25.1465 55.9119 24.8822 56.2502 24.6495 56.4617C24.4063 56.6837 24.0151 56.9269 23.7825 56.9904C23.5499 57.0644 23.3596 57.1913 23.3596 57.2547C23.3596 57.3287 23.349 57.4556 23.3384 57.519C23.3173 57.6036 23.1058 57.6671 22.8097 57.6776C22.4608 57.6988 22.3022 57.6671 22.2811 57.5719C22.2811 57.5085 22.2705 57.3816 22.2599 57.297C22.2493 57.223 22.0167 57.0644 21.7207 56.9586C21.4352 56.8423 21.0334 56.5991 20.8325 56.4088C20.6422 56.2291 20.4095 55.9119 20.3355 55.7215C20.2509 55.5418 20.1875 55.288 20.1875 55.1717C20.1875 54.992 20.2615 54.9602 20.6633 54.9602C21.0968 54.9602 21.1603 54.992 21.3506 55.3303C21.4669 55.5312 21.7101 55.7744 21.8793 55.859C22.1859 56.007 22.1965 56.007 22.207 55.7744C22.2176 55.6475 22.2388 55.1823 22.2493 54.7488C22.2705 54.3153 22.2599 53.8923 22.2388 53.8183C22.2176 53.7549 22.0696 53.6703 21.911 53.6386C21.7418 53.6068 21.414 53.4482 21.1708 53.2685C20.8959 53.0782 20.6316 52.7715 20.5047 52.4966C20.3884 52.2534 20.2932 51.8939 20.2932 51.7036C20.2932 51.5238 20.3778 51.1855 20.4836 50.974C20.5787 50.7625 20.8431 50.4453 21.0545 50.2656C21.266 50.0858 21.6044 49.8849 21.7947 49.8215ZM21.361 51.6106C21.361 51.526 21.4984 51.3039 21.6676 51.1348C21.8368 50.9656 22.0165 50.8281 22.08 50.8281C22.154 50.8281 22.1963 51.0819 22.1963 51.4625V52.3084V52.5728C22.1963 52.6045 22.0588 52.541 21.8791 52.4459C21.7099 52.3401 21.5196 52.1498 21.4561 52.0229C21.4033 51.8855 21.3504 51.7057 21.361 51.6106ZM23.2959 55.0047C23.2642 54.5394 23.2642 54.0953 23.2959 54.0319C23.3277 53.9579 23.4017 53.8945 23.4651 53.8945C23.518 53.8945 23.74 54.0636 23.9409 54.2645C24.1841 54.5077 24.311 54.7298 24.311 54.9307C24.311 55.0893 24.237 55.3219 24.1524 55.4593C24.0678 55.5862 23.8458 55.766 23.6766 55.8506C23.5074 55.9351 23.3594 55.9774 23.3594 55.9351C23.3528 55.9025 23.3423 55.7325 23.3277 55.4975C23.3186 55.3524 23.3081 55.1824 23.2959 55.0047Z" fill="white"/>
</svg>
