<svg width="200" height="200" viewBox="0 0 200 200" fill="none" xmlns="http://www.w3.org/2000/svg">
<g clip-path="url(#clip0_1420_15372)">
<path d="M90.0026 115.001C90.0026 116.842 91.495 118.335 93.3359 118.335C95.1769 118.335 96.6693 116.842 96.6693 115.001C96.6693 103.975 86.4693 94.8613 73.3359 93.5213V90.0013C73.3359 88.1604 71.8436 86.668 70.0026 86.668C68.1617 86.668 66.6693 88.1604 66.6693 90.0013V93.5213C53.5359 94.8546 43.3359 103.975 43.3359 115.001C43.3359 126.028 53.5359 135.141 66.6693 136.481V166.441C57.2259 165.248 50.0026 159.085 50.0026 151.668C50.0026 149.827 48.5102 148.335 46.6693 148.335C44.8283 148.335 43.3359 149.827 43.3359 151.668C43.3359 162.695 53.5359 171.808 66.6693 173.148V176.668C66.6693 178.509 68.1617 180.001 70.0026 180.001C71.8436 180.001 73.3359 178.509 73.3359 176.668V173.148C86.4693 171.815 96.6693 162.695 96.6693 151.668C96.6693 140.641 86.4693 131.528 73.3359 130.188V100.228C82.7793 101.421 90.0026 107.585 90.0026 115.001ZM50.0026 115.001C50.0026 107.585 57.2259 101.421 66.6693 100.228V129.775C57.2259 128.581 50.0026 122.418 50.0026 115.001ZM90.0026 151.668C90.0026 159.085 82.7793 165.248 73.3359 166.441V136.895C82.7793 138.088 90.0026 144.251 90.0026 151.668Z" fill="#1090D0"/>
<path d="M12.0002 100.576C10.3305 99.8013 8.34869 100.527 7.57357 102.196C2.55664 112.993 -0.0286612 124.76 0.000239662 136.666C0.000239662 178.69 23.5502 200 70.0002 200C79.386 200.147 88.7507 199.068 97.8569 196.79C99.6362 196.316 100.695 194.49 100.222 192.711C99.7488 190.932 97.9229 189.873 96.1436 190.346C87.5931 192.458 78.8067 193.462 70.0002 193.333C27.3836 193.333 6.66691 174.796 6.66691 136.666C6.60693 125.725 8.9833 114.908 13.6236 105C14.3958 103.33 13.6693 101.35 12.0002 100.576Z" fill="#1090D0"/>
<path d="M189.997 83.3359H116.664C111.141 83.3359 106.664 87.8131 106.664 93.3359V190.003C106.664 195.525 111.141 200.003 116.664 200.003H189.997C195.52 200.003 199.997 195.525 199.997 190.003V93.3359C199.997 87.8131 195.52 83.3359 189.997 83.3359ZM193.331 190.003C193.331 191.844 191.838 193.336 189.997 193.336H116.664C114.823 193.336 113.331 191.844 113.331 190.003V93.3359C113.331 91.495 114.823 90.0026 116.664 90.0026H189.997C191.838 90.0026 193.331 91.495 193.331 93.3359V190.003Z" fill="#1090D0"/>
<path d="M130.003 126.667H176.669C180.351 126.667 183.336 123.682 183.336 120V106.667C183.336 102.985 180.351 100 176.669 100H130.003C126.321 100 123.336 102.985 123.336 106.667V120C123.336 123.682 126.321 126.667 130.003 126.667ZM130.003 106.667H176.669V120H130.003V106.667Z" fill="#1090D0"/>
<path d="M136.669 136.668H126.669C124.828 136.668 123.336 138.16 123.336 140.001C123.336 141.842 124.828 143.335 126.669 143.335H136.669C138.51 143.335 140.003 141.842 140.003 140.001C140.003 138.16 138.51 136.668 136.669 136.668Z" fill="#1090D0"/>
<path d="M136.669 150H126.669C124.828 150 123.336 151.492 123.336 153.333C123.336 155.174 124.828 156.667 126.669 156.667H136.669C138.51 156.667 140.003 155.174 140.003 153.333C140.003 151.492 138.51 150 136.669 150Z" fill="#1090D0"/>
<path d="M136.669 163.336H126.669C124.828 163.336 123.336 164.828 123.336 166.669C123.336 168.51 124.828 170.003 126.669 170.003H136.669C138.51 170.003 140.003 168.51 140.003 166.669C140.003 164.828 138.51 163.336 136.669 163.336Z" fill="#1090D0"/>
<path d="M136.669 176.668H126.669C124.828 176.668 123.336 178.16 123.336 180.001C123.336 181.842 124.828 183.335 126.669 183.335H136.669C138.51 183.335 140.003 181.842 140.003 180.001C140.003 178.16 138.51 176.668 136.669 176.668Z" fill="#1090D0"/>
<path d="M159.997 136.668H149.997C148.156 136.668 146.664 138.16 146.664 140.001C146.664 141.842 148.156 143.335 149.997 143.335H159.997C161.838 143.335 163.331 141.842 163.331 140.001C163.331 138.16 161.838 136.668 159.997 136.668Z" fill="#1090D0"/>
<path d="M159.997 150H149.997C148.156 150 146.664 151.492 146.664 153.333C146.664 155.174 148.156 156.667 149.997 156.667H159.997C161.838 156.667 163.331 155.174 163.331 153.333C163.331 151.492 161.838 150 159.997 150Z" fill="#1090D0"/>
<path d="M159.997 163.336H149.997C148.156 163.336 146.664 164.828 146.664 166.669C146.664 168.51 148.156 170.003 149.997 170.003H159.997C161.838 170.003 163.331 168.51 163.331 166.669C163.331 164.828 161.838 163.336 159.997 163.336Z" fill="#1090D0"/>
<path d="M159.997 176.668H149.997C148.156 176.668 146.664 178.16 146.664 180.001C146.664 181.842 148.156 183.335 149.997 183.335H159.997C161.838 183.335 163.331 181.842 163.331 180.001C163.331 178.16 161.838 176.668 159.997 176.668Z" fill="#1090D0"/>
<path d="M183.333 136.668H173.333C171.492 136.668 170 138.16 170 140.001C170 141.842 171.492 143.335 173.333 143.335H183.333C185.174 143.335 186.667 141.842 186.667 140.001C186.667 138.16 185.174 136.668 183.333 136.668Z" fill="#1090D0"/>
<path d="M183.333 150H173.333C171.492 150 170 151.492 170 153.333C170 155.174 171.492 156.667 173.333 156.667H183.333C185.174 156.667 186.667 155.174 186.667 153.333C186.667 151.492 185.174 150 183.333 150Z" fill="#1090D0"/>
<path d="M183.333 163.336H173.333C171.492 163.336 170 164.828 170 166.669C170 168.51 171.492 170.003 173.333 170.003H183.333C185.174 170.003 186.667 168.51 186.667 166.669C186.667 164.828 185.174 163.336 183.333 163.336Z" fill="#1090D0"/>
<path d="M183.333 176.668H173.333C171.492 176.668 170 178.16 170 180.001C170 181.842 171.492 183.335 173.333 183.335H183.333C185.174 183.335 186.667 181.842 186.667 180.001C186.667 178.16 185.174 176.668 183.333 176.668Z" fill="#1090D0"/>
<path d="M21.0814 4.21106C12.3048 12.2511 27.7248 37.0511 36.8114 50.0011H34.9981C31.9017 49.9898 28.9291 51.2163 26.7414 53.4077C24.5613 55.6045 23.3359 58.5727 23.3314 61.6677C23.3458 65.8214 25.5743 69.6522 29.1781 71.7177C25.2872 75.8332 21.6219 80.1562 18.1981 84.6677C17.0935 86.1405 17.392 88.2298 18.8648 89.3344C20.3375 90.439 22.4269 90.1405 23.5314 88.6677C27.6488 83.2811 32.1021 78.1598 36.8648 73.3344H104.998C109.166 73.3344 113.018 71.1107 115.102 67.5011C117.186 63.8914 117.186 59.4441 115.102 55.8344C113.018 52.2247 109.166 50.0011 104.998 50.0011H103.185C112.268 37.0511 127.688 12.2544 118.918 4.21106C114.885 0.517723 110.185 3.21106 106.041 5.56772C102.274 8.14806 97.8867 9.67828 93.3314 10.0011C89.7153 9.99342 86.2681 8.46991 83.8281 5.80106C80.1805 2.09253 75.1965 0.00390625 69.9948 0.00390625C64.793 0.00390625 59.8091 2.09253 56.1615 5.80106C53.7175 8.47418 50.2634 9.99809 46.6414 10.0011C42.0886 9.68163 37.704 8.15102 33.9414 5.56772C29.8014 3.20439 25.1048 0.521056 21.0814 4.21106ZM108.541 58.1277C109.976 59.5583 110.405 61.7129 109.629 63.5839C108.852 65.455 107.024 66.6727 104.998 66.6677H34.9981C32.2367 66.6677 29.9981 64.4292 29.9981 61.6677C29.9981 58.9063 32.2367 56.6677 34.9981 56.6677H104.998C106.326 56.6681 107.599 57.1929 108.541 58.1277ZM46.6414 16.6677C51.8453 16.667 56.8307 14.576 60.4781 10.8644C62.9126 8.19002 66.3616 6.66566 69.9781 6.66566C73.5946 6.66566 77.0436 8.19002 79.4781 10.8644C83.1304 14.5789 88.1222 16.67 93.3314 16.6677C99.0547 16.367 104.592 14.5317 109.361 11.3544C110.883 10.2802 112.605 9.52196 114.425 9.12439C117.845 12.2577 108.805 31.1544 94.9848 50.0011H86.6648V33.3344C86.6648 31.4934 85.1724 30.0011 83.3314 30.0011C81.4905 30.0011 79.9981 31.4934 79.9981 33.3344V50.0011H59.9981V33.3344C59.9981 31.4934 58.5057 30.0011 56.6648 30.0011C54.8238 30.0011 53.3314 31.4934 53.3314 33.3344V50.0011H45.0248C31.2048 31.1544 22.1648 12.2577 25.6314 9.07439C27.4135 9.55038 29.1035 10.321 30.6314 11.3544C35.394 14.5313 40.9244 16.3667 46.6414 16.6677Z" fill="#1090D0"/>
</g>
<defs>
<clipPath id="clip0_1420_15372">
<rect width="200" height="200" fill="white"/>
</clipPath>
</defs>
</svg>
