<svg width="200" height="200" viewBox="0 0 200 200" fill="none" xmlns="http://www.w3.org/2000/svg">
<path d="M87.5 42.8125L103.125 28.125C105.625 25.9375 107.188 22.8125 107.5 19.375C107.813 15.9375 106.563 12.5 104.375 10C101.875 7.8125 98.75 6.25 95 6.25C91.5625 6.25 88.125 7.8125 85.9375 10.3125L70.9375 26.25L29.0625 9.6875C27.8125 9.0625 26.5625 9.375 25.625 10.3125L16.25 19.6875C15.625 20.3125 15.3125 21.25 15.3125 22.1875C15.3125 23.125 15.9375 24.0625 16.875 24.375L51.25 46.5625L31.25 67.8125L20.9375 65.3125C20 65 18.75 65.3125 18.125 66.25L10.3125 74.0625C9.375 74.6875 9.0625 75.625 9.375 76.875C9.375 77.8125 10 78.75 10.9375 79.0625L26.25 87.1875L34.375 102.188C34.6875 103.125 35.625 103.75 36.5625 103.75H36.875C37.8125 103.75 38.4375 103.438 39.0625 102.813L46.875 95C47.5 94.375 47.8125 93.125 47.8125 92.1875L45.3125 81.875L66.5625 62.1875L89.0625 96.25C89.6875 97.1875 90.3125 97.5 91.25 97.5H91.5625C92.5 97.5 93.125 97.1875 93.75 96.5625L103.125 87.1875C104.063 86.25 104.375 85 103.75 83.75L87.5 42.8125ZM23.4375 21.25L28.75 15.9375L66.25 30.625L55.625 41.875L23.4375 21.25ZM40 78.75C39.0625 79.375 38.75 80.625 39.0625 81.875L41.5625 92.1875L37.8125 95.9375L31.25 83.4375C30.9375 82.8125 30.625 82.5 30 82.1875L17.8125 75.625L21.25 71.875L31.5625 74.375C32.5 74.6875 33.75 74.375 34.6875 73.4375L74.0625 31.875L90.625 14.375C91.5625 13.125 93.4375 12.5 95 12.5C96.875 12.5 98.4375 13.125 99.6875 14.375C100.938 15.625 101.25 17.1875 101.25 18.75C101.25 20.625 100.313 22.1875 99.0625 23.4375L40 78.75ZM92.5 89.6875L71.5625 57.8125L82.8125 47.1875L97.8125 84.375L92.5 89.6875Z" fill="#1090D0"/>
<path d="M116.25 155.312H110C108.125 155.312 106.875 156.562 106.875 158.438C106.875 160.313 108.125 161.562 110 161.562H116.25C118.125 161.562 119.375 160.313 119.375 158.438C119.375 156.562 118.125 155.312 116.25 155.312Z" fill="#1090D0"/>
<path d="M73.435 155.314H68.435C66.2475 155.314 64.3725 155.001 62.4975 154.376C60.935 153.751 59.06 154.689 58.7475 156.564C58.1225 158.126 59.06 160.001 60.935 160.314C63.435 160.939 66.2475 161.564 68.7475 161.564H73.7475C75.6225 161.564 76.8725 160.314 76.8725 158.439C76.8725 156.564 75.31 155.314 73.435 155.314Z" fill="#1090D0"/>
<path d="M47.8099 140.001C47.1849 138.439 45.6224 137.501 44.0599 137.814C42.4974 138.439 41.5599 140.001 41.8724 141.564C43.1224 145.939 45.6224 150.001 48.7474 153.126C49.3724 153.751 49.9974 154.064 50.9349 154.064C51.8724 154.064 52.4974 153.751 53.1224 153.126C54.3724 151.876 54.3724 150.001 53.1224 148.751C50.9349 146.564 49.0599 143.439 47.8099 140.001Z" fill="#1090D0"/>
<path d="M43.75 131.874H44.375C45.9375 131.874 47.1875 130.936 47.5 129.374C48.125 125.936 50 122.811 52.1875 119.999C53.4375 118.749 53.125 116.874 51.875 115.624C50.625 114.374 48.75 114.686 47.5 115.936C44.375 119.374 42.5 123.436 41.25 128.124C41.25 129.999 42.1875 131.561 43.75 131.874Z" fill="#1090D0"/>
<path d="M60.938 114.375C63.438 113.437 65.938 113.125 68.438 113.125H71.8755C73.7505 113.125 75.0005 111.875 75.0005 110C75.0005 108.125 73.7505 106.875 71.8755 106.875H68.438C65.0005 106.875 61.8755 107.5 58.7505 108.75C57.188 109.375 56.2505 111.25 56.8755 112.812C57.188 114.062 58.438 115 59.688 115C60.313 114.375 60.6255 114.375 60.938 114.375Z" fill="#1090D0"/>
<path d="M180.938 79.6875C181.25 80.9375 182.5 81.875 184.063 81.875H185C186.563 81.25 187.5 79.6875 187.188 78.125C185.938 73.75 183.438 69.6875 180.313 66.5625C179.063 65.3125 177.188 65.3125 175.938 66.5625C174.688 67.8125 174.688 69.6875 175.938 70.9375C178.125 73.4375 180 76.5625 180.938 79.6875Z" fill="#1090D0"/>
<path d="M184.999 87.8131C183.436 87.5006 181.561 88.4381 181.249 90.3131C180.311 93.7506 178.749 96.8756 176.561 99.6881C175.311 100.938 175.624 102.813 176.874 104.063C177.499 104.688 178.124 105.001 179.061 105.001C179.999 105.001 180.624 104.688 181.249 104.063C184.374 100.626 186.561 96.5631 187.499 91.8756C187.811 90.0006 186.874 88.4381 184.999 87.8131Z" fill="#1090D0"/>
<path d="M155.625 64.375H160.625C162.813 64.375 165 64.6875 166.875 65.3125H167.813C169.063 65.3125 170.313 64.375 170.938 63.125C171.563 61.5625 170.625 59.6875 168.75 59.375C166.25 58.4375 163.438 58.125 160.625 58.125H155.625C153.75 58.125 152.5 59.375 152.5 61.25C152.5 63.125 154.062 64.375 155.625 64.375Z" fill="#1090D0"/>
<path d="M167.813 105.313C165.625 106.25 163.125 106.562 160.625 106.562H156.875C155 106.562 153.75 107.812 153.75 109.687C153.75 111.562 155 112.812 156.875 112.812H160.625C163.75 112.812 166.875 112.187 170 111.25C171.563 110.625 172.5 108.75 171.875 107.187C171.25 105.625 169.375 105 167.813 105.313Z" fill="#1090D0"/>
<path d="M143.438 64.375C145.313 64.375 146.563 63.125 146.563 61.25C146.563 59.375 145.313 58.125 143.438 58.125H131.25C129.375 58.125 128.125 59.375 128.125 61.25C128.125 63.125 129.375 64.375 131.25 64.375H143.438Z" fill="#1090D0"/>
<path d="M120.313 106.562H108.125C106.25 106.562 105 107.812 105 109.688C105 111.563 106.25 112.812 108.125 112.812H120.313C122.188 112.812 123.438 111.563 123.438 109.688C123.438 107.812 122.188 106.562 120.313 106.562Z" fill="#1090D0"/>
<path d="M144.687 112.812C146.562 112.812 147.812 111.563 147.812 109.688C147.812 107.812 146.562 106.562 144.687 106.562H132.5C130.625 106.562 129.375 107.812 129.375 109.688C129.375 111.563 130.625 112.812 132.5 112.812H144.687Z" fill="#1090D0"/>
<path d="M96.25 112.812C98.125 112.812 99.375 111.563 99.375 109.688C99.375 107.812 98.125 106.562 96.25 106.562H84.0625C82.1875 106.562 80.9375 107.812 80.9375 109.688C80.9375 111.563 82.1875 112.812 84.0625 112.812H96.25Z" fill="#1090D0"/>
<path d="M97.8125 155.312H85.625C83.75 155.312 82.5 156.562 82.5 158.438C82.5 160.313 83.75 161.562 85.625 161.562H97.8125C99.6875 161.562 100.937 160.313 100.937 158.438C100.937 156.562 99.6875 155.312 97.8125 155.312Z" fill="#1090D0"/>
<path d="M112.812 64.375H119.062C120.938 64.375 122.188 63.125 122.188 61.25C122.188 59.375 120.938 58.125 119.062 58.125H112.812C110.937 58.125 109.688 59.375 109.688 61.25C109.688 63.125 110.937 64.375 112.812 64.375Z" fill="#1090D0"/>
<path d="M160.625 122.812C144.063 122.812 130.625 136.25 130.625 152.813C130.625 178.75 158.125 192.813 159.375 193.438C159.688 193.75 160.313 193.75 160.938 193.75C161.563 193.75 161.875 193.75 162.5 193.438C163.75 192.813 191.25 178.75 191.25 152.813C190.625 136.25 177.188 122.812 160.625 122.812ZM160.625 187.188C155.313 184.063 136.875 171.875 136.875 152.813C136.875 139.688 147.5 129.062 160.625 129.062C173.75 129.062 184.375 139.688 184.375 152.813C184.375 171.563 165.938 184.063 160.625 187.188Z" fill="#1090D0"/>
<path d="M160.625 139.688C153.438 139.688 147.812 145.625 147.812 152.5C147.812 159.375 153.75 165.313 160.625 165.313C167.5 165.313 173.438 159.375 173.438 152.5C173.438 145.625 167.813 139.688 160.625 139.688ZM160.625 159.375C156.875 159.375 154.062 156.25 154.062 152.813C154.062 149.063 157.188 146.25 160.625 146.25C164.375 146.25 167.188 149.375 167.188 152.813C167.188 156.25 164.375 159.375 160.625 159.375Z" fill="#1090D0"/>
</svg>
