<svg width="200" height="200" viewBox="0 0 200 200" fill="none" xmlns="http://www.w3.org/2000/svg">
<path d="M190.88 188.612H9.11719C8.70674 188.612 8.30028 188.532 7.92103 188.375C7.54178 188.218 7.1972 187.988 6.90697 187.697C6.61674 187.407 6.38656 187.063 6.2296 186.683C6.07263 186.304 5.99196 185.898 5.99219 185.487V171.361C5.99415 168.983 6.93923 166.703 8.62009 165.021C10.3009 163.339 12.5803 162.392 14.9583 162.389H18.657V39.4514C18.6597 37.4224 19.4216 35.4679 20.7929 33.9723C22.1641 32.4768 24.0454 31.5485 26.0666 31.3702V21.321C26.0698 18.6883 27.1171 16.1643 28.9787 14.3027C30.8403 12.4411 33.3643 11.3939 35.997 11.3906H164.067C166.7 11.3939 169.224 12.4412 171.085 14.3028C172.947 16.1644 173.994 18.6883 173.998 21.321V31.3674C175.999 31.5367 177.864 32.4509 179.223 33.9292C180.583 35.4076 181.338 37.3423 181.34 39.3508V162.388H185.039C187.417 162.392 189.696 163.339 191.377 165.021C193.058 166.703 194.003 168.983 194.005 171.361V185.487C194.005 185.898 193.924 186.304 193.767 186.683C193.61 187.063 193.38 187.407 193.09 187.697C192.8 187.988 192.455 188.218 192.076 188.375C191.697 188.532 191.29 188.612 190.88 188.612ZM12.2422 182.362H187.755V171.361C187.754 170.64 187.468 169.949 186.959 169.438C186.45 168.928 185.759 168.64 185.039 168.639H14.9581C14.2373 168.64 13.5467 168.928 13.0376 169.438C12.5285 169.949 12.2424 170.64 12.2421 171.361L12.2422 182.362ZM85.6126 162.389H175.09V69.7158C173.072 71.4831 170.702 72.8014 168.136 73.5835C165.571 74.3655 162.868 74.5934 160.208 74.252C157.547 73.9107 154.99 73.0079 152.705 71.6034C150.419 70.199 148.459 68.325 146.953 66.1056C145.213 68.6475 142.88 70.7271 140.156 72.1641C137.432 73.601 134.398 74.352 131.318 74.352C128.238 74.352 125.205 73.601 122.48 72.1641C119.756 70.7271 117.423 68.6475 115.684 66.1056C113.946 68.6475 111.613 70.7272 108.89 72.1642C106.166 73.6012 103.133 74.3523 100.053 74.3523C96.9733 74.3523 93.9401 73.6012 91.2163 72.1642C88.4925 70.7272 86.1602 68.6475 84.4217 66.1056C82.6825 68.6475 80.3497 70.7271 77.6254 72.1641C74.9011 73.601 71.8676 74.352 68.7875 74.352C65.7075 74.352 62.674 73.601 59.9497 72.1641C57.2254 70.7271 54.8926 68.6475 53.1534 66.1056C51.64 68.3348 49.6681 70.2153 47.3697 71.6215C45.0713 73.0276 42.4992 73.927 39.8254 74.2595C37.1516 74.592 34.4375 74.35 31.8647 73.5495C29.2919 72.7491 26.9196 71.4088 24.9063 69.6181V162.389H34.3979V99.9892C34.3976 99.5788 34.4783 99.1723 34.6353 98.7931C34.7922 98.4138 35.0224 98.0692 35.3126 97.779C35.6029 97.4888 35.9475 97.2586 36.3267 97.1016C36.706 96.9447 37.1124 96.864 37.5229 96.8642H82.4874C82.8979 96.864 83.3044 96.9447 83.6836 97.1016C84.0629 97.2586 84.4075 97.4888 84.6977 97.779C84.9879 98.0692 85.2181 98.4138 85.3751 98.7931C85.532 99.1723 85.6127 99.5788 85.6124 99.9892L85.6126 162.389ZM40.648 162.389H79.3626V103.114H40.6479L40.648 162.389ZM150.078 55.7479C150.109 59.0442 151.441 62.1949 153.783 64.5147C156.125 66.8345 159.288 68.1359 162.584 68.1359C165.881 68.1358 169.044 66.8343 171.386 64.5144C173.728 62.1945 175.059 59.0438 175.09 55.7475V39.4514C175.089 38.958 174.893 38.485 174.544 38.1361C174.195 37.7872 173.722 37.5908 173.229 37.5899H150.078V55.7479ZM118.81 55.7479C118.847 59.0408 120.182 62.1861 122.523 64.5014C124.865 66.8166 128.026 68.1151 131.319 68.115C134.612 68.115 137.772 66.8164 140.114 64.5011C142.456 62.1858 143.79 59.0404 143.828 55.7475V37.5899H118.81V55.7479ZM87.547 55.7479C87.58 59.0431 88.9122 62.1921 91.254 64.5106C93.5958 66.829 96.7581 68.1296 100.053 68.1295C103.349 68.1295 106.511 66.8289 108.853 64.5103C111.195 62.1918 112.527 59.0427 112.56 55.7475V37.5899H87.547V55.7479ZM56.2789 37.5899V55.7479C56.2753 57.393 56.5961 59.0226 57.2231 60.5435C57.8501 62.0644 58.7709 63.4467 59.9329 64.6113C61.0948 65.7758 62.4751 66.6997 63.9946 67.3301C65.5141 67.9605 67.143 68.285 68.7881 68.285C70.4332 68.285 72.0621 67.9605 73.5816 67.3301C75.1011 66.6997 76.4814 65.7758 77.6433 64.6113C78.8053 63.4467 79.7261 62.0644 80.3531 60.5435C80.9801 59.0226 81.3009 57.393 81.2973 55.7479V37.5899H56.2789ZM26.7746 37.5899C26.3081 37.5908 25.861 37.7766 25.5314 38.1068C25.2019 38.4369 25.0168 38.8843 25.0168 39.3508V55.7479C25.0497 59.0431 26.3819 62.1921 28.7238 64.5106C31.0656 66.829 34.2278 68.1296 37.5232 68.1295C40.8186 68.1295 43.9808 66.8289 46.3225 64.5103C48.6643 62.1918 49.9964 59.0427 50.0292 55.7475V37.5899H26.7746ZM32.3166 31.3247H167.747V21.321C167.753 20.8363 167.661 20.3554 167.478 19.9066C167.295 19.4577 167.024 19.05 166.681 18.7072C166.338 18.3644 165.93 18.0935 165.482 17.9104C165.033 17.7272 164.552 17.6355 164.067 17.6406H35.997C35.0214 17.6422 34.0862 18.0305 33.3963 18.7203C32.7065 19.4102 32.3182 20.3454 32.3166 21.321V31.3247ZM131.316 153.77H131.273C130.683 153.762 130.107 153.588 129.613 153.267L129.606 153.26L129.594 153.254L129.588 153.251C129.478 153.175 129.368 153.093 129.264 153.004L129.252 152.992C129.095 152.853 128.951 152.699 128.824 152.532C128.621 152.254 95.0461 108.955 94.8889 108.711L94.8764 108.693C94.7375 108.476 94.6229 108.245 94.5347 108.003C94.3067 107.343 94.3067 106.625 94.5347 105.965V105.949L94.5469 105.922C94.5922 105.799 94.6473 105.674 94.7056 105.553C94.7634 105.445 94.8231 105.341 94.8887 105.241L104.478 90.6202C104.762 90.1857 105.149 89.8289 105.605 89.5821C106.062 89.3354 106.572 89.2065 107.091 89.2072H155.547C156.065 89.2065 156.576 89.3354 157.032 89.5821C157.488 89.8289 157.876 90.1857 158.159 90.6202C158.174 90.8401 167.824 105.211 167.858 105.424L167.87 105.44L167.876 105.455C167.973 105.628 168.053 105.81 168.114 105.998L168.121 106.016C168.236 106.372 168.285 106.745 168.267 107.118V107.161C168.235 107.715 168.056 108.252 167.748 108.714L167.736 108.732L167.73 108.735C167.7 108.813 133.879 152.424 133.807 152.531C133.685 152.696 133.545 152.847 133.392 152.983L133.385 152.986L133.379 152.992L133.373 152.998L133.367 153.001C133.269 153.085 133.167 153.167 133.061 153.24L133.055 153.243L133.043 153.249L133.036 153.255C132.532 153.587 131.943 153.766 131.34 153.771L131.316 153.77ZM121.855 110.103L131.316 140.217L140.776 110.103H121.855ZM103.862 110.103L123.112 134.95L115.306 110.103H103.862ZM147.331 110.103L139.525 134.95L158.775 110.103H147.331ZM147.05 103.853H159.361L153.856 95.4577H143.254L147.05 103.853ZM122.441 103.853H140.196L136.4 95.4577H126.237L122.441 103.853ZM103.276 103.853H115.587L119.383 95.4572H108.781L103.276 103.853Z" fill="#1090D0"/>
</svg>
