<svg width="200" height="200" viewBox="0 0 200 200" fill="none" xmlns="http://www.w3.org/2000/svg">
<g clip-path="url(#clip0_1420_15329)">
<path d="M138.01 81.339C138.01 79.1799 136.26 77.4297 134.1 77.4297H99.7062C97.5471 77.4297 95.7969 79.1799 95.7969 81.339C95.7969 83.4981 97.5471 85.2483 99.7062 85.2483H134.1C136.259 85.2483 138.01 83.4981 138.01 81.339Z" fill="#1090D0"/>
<path d="M63.5407 38.332H56.2943C51.828 38.332 48.1964 41.9591 48.1964 46.4162V50.179H44.4275C39.9612 50.179 36.3281 53.8121 36.3281 58.2753V65.5278C36.3281 69.991 39.9612 73.6226 44.4275 73.6226H48.1964V77.3855C48.1964 81.8502 51.828 85.4818 56.2943 85.4818H63.5407C68.007 85.4818 71.6401 81.8502 71.6401 77.3855V73.6226H75.409C79.8737 73.6226 83.5069 69.991 83.5069 65.5278V58.2753C83.5069 53.8121 79.8737 50.179 75.409 50.179H71.6401V46.4162C71.6401 41.9591 68.007 38.332 63.5407 38.332ZM75.4075 57.9991C75.554 57.9991 75.6867 58.1303 75.6867 58.2753V65.5278C75.6867 65.6713 75.554 65.8025 75.4075 65.8025H67.7292C65.5701 65.8025 63.8199 67.5542 63.8199 69.7133V77.3855C63.8199 77.5304 63.6872 77.6616 63.5407 77.6616H56.2943C56.1493 77.6616 56.0166 77.5304 56.0166 77.3855V69.7133C56.0166 67.5542 54.2649 65.8025 52.1057 65.8025H44.4275C44.281 65.8025 44.1483 65.6713 44.1483 65.5278V58.2753C44.1483 58.1303 44.281 57.9991 44.4275 57.9991H52.1057C54.2649 57.9991 56.0166 56.2489 56.0166 54.0898V46.4162C56.0166 46.2803 56.1509 46.1522 56.2943 46.1522H63.5407C63.6841 46.1522 63.8199 46.2803 63.8199 46.4162V54.0898C63.8199 56.2489 65.5701 57.9991 67.7292 57.9991H75.4075Z" fill="#1090D0"/>
<path d="M139.716 58.007C139.716 55.8478 137.966 54.0977 135.807 54.0977H99.7062C97.5471 54.0977 95.7969 55.8478 95.7969 58.007C95.7969 60.1676 97.5471 61.9178 99.7062 61.9178H135.807C137.966 61.9178 139.716 60.1676 139.716 58.007Z" fill="#1090D0"/>
<path d="M42.864 108.566H132.384C134.544 108.566 136.294 106.815 136.294 104.655C136.294 102.496 134.544 100.746 132.384 100.746H42.864C40.7048 100.746 38.9531 102.496 38.9531 104.655C38.9531 106.815 40.7048 108.566 42.864 108.566Z" fill="#1090D0"/>
<path d="M185.352 123.136C176.129 121.727 168.631 119.837 162.911 117.481V83.4856C162.911 81.3249 161.161 79.5747 159 79.5747C156.841 79.5747 155.091 81.3249 155.091 83.4856V113.173C154.218 112.506 153.441 111.818 152.765 111.103C152.027 110.323 151 109.88 149.925 109.88C148.851 109.88 147.823 110.323 147.086 111.103C141.905 116.579 130.937 120.627 114.488 123.136C113.725 123.252 113.045 123.586 112.5 124.065H42.865C40.7059 124.065 38.9542 125.815 38.9542 127.974C38.9542 130.133 40.7059 131.884 42.865 131.884H111.167V147.383H40.239C38.0799 147.383 36.3282 149.134 36.3282 151.293C36.3282 153.452 38.0799 155.202 40.239 155.202H111.479C112.769 164.997 117.324 174.126 125.069 182.45H30.687C24.5392 182.45 19.5389 177.459 19.5389 171.323V27.1927C19.5389 21.0572 24.5392 16.066 30.687 16.066H49.3485V17.5156C49.3485 21.4722 52.5742 24.6918 56.5385 24.6918H118.091C122.055 24.6918 125.281 21.4722 125.281 17.5156V16.066H143.943C150.09 16.066 155.092 21.0572 155.092 27.1927V52.2935C155.092 54.4526 156.842 56.2043 159.001 56.2043C161.161 56.2043 162.911 54.4526 162.911 52.2935V27.1927C162.911 16.745 154.402 8.24587 143.943 8.24587H125.281V6.7856C125.281 2.82899 122.055 -0.390625 118.091 -0.390625H56.5385C52.5742 -0.390625 49.3485 2.82899 49.3485 6.7856V8.24587H30.687C20.2286 8.24587 11.7188 16.745 11.7188 27.1927V171.323C11.7188 181.771 20.2271 190.27 30.687 190.27H133.47C140.509 196.309 144.855 199.604 149.9 199.61H149.915C155.59 199.61 160.369 195.475 169.039 187.976C181.29 177.37 187.894 165.276 188.666 152.03C188.671 151.955 188.674 151.879 188.674 151.802V127.001C188.672 125.069 187.262 123.427 185.352 123.136ZM57.1687 7.42952H117.461V16.8717H57.1687V7.42952ZM180.854 151.685C180.176 162.702 174.478 172.922 163.921 182.062C157.151 187.92 152.677 191.79 149.913 191.79C149.913 191.79 149.912 191.79 149.91 191.79C147.167 191.787 142.937 188.126 135.93 182.064C125.373 172.924 119.673 162.705 118.987 151.685V130.327C133.284 127.864 143.476 124.158 149.925 119.063C151.937 120.65 154.311 122.104 157.061 123.427C157.238 123.529 157.424 123.615 157.616 123.688C163.607 126.483 171.314 128.682 180.854 130.327V151.685Z" fill="#1090D0"/>
<path d="M145.362 158.625L138.484 152.174C136.91 150.697 134.435 150.775 132.958 152.351C131.479 153.926 131.558 156.399 133.133 157.878L142.906 167.045C143.633 167.727 144.589 168.104 145.581 168.104C145.633 168.104 145.685 168.103 145.737 168.101C146.782 168.06 147.769 167.6 148.474 166.825L168.297 145.034C169.751 143.437 169.634 140.963 168.036 139.511C166.439 138.056 163.965 138.174 162.512 139.771L145.362 158.625Z" fill="#1090D0"/>
<path d="M159.003 63.9062C156.844 63.9062 155.094 65.658 155.094 67.8171V67.8827C155.094 70.0418 156.844 71.792 159.003 71.792C161.164 71.792 162.914 70.0418 162.914 67.8827V67.8171C162.914 65.658 161.164 63.9062 159.003 63.9062Z" fill="#1090D0"/>
</g>
<defs>
<clipPath id="clip0_1420_15329">
<rect width="200" height="200" fill="white"/>
</clipPath>
</defs>
</svg>
