<svg width="200" height="200" viewBox="0 0 200 200" fill="none" xmlns="http://www.w3.org/2000/svg">
<path d="M31.25 146.875C31.2499 146.465 31.3307 146.058 31.4877 145.679C31.6447 145.3 31.8748 144.955 32.1651 144.665C32.4553 144.375 32.7998 144.145 33.179 143.988C33.5582 143.831 33.9646 143.75 34.375 143.75H81.25C82.0788 143.75 82.8737 144.079 83.4597 144.665C84.0458 145.251 84.375 146.046 84.375 146.875C84.375 147.704 84.0458 148.499 83.4597 149.085C82.8737 149.671 82.0788 150 81.25 150H34.375C33.9646 150 33.5582 149.919 33.179 149.762C32.7998 149.605 32.4553 149.375 32.1651 149.085C31.8748 148.795 31.6447 148.45 31.4877 148.071C31.3307 147.692 31.2499 147.285 31.25 146.875ZM103.125 128.125C103.125 127.715 103.044 127.308 102.887 126.929C102.73 126.55 102.5 126.205 102.21 125.915C101.92 125.625 101.575 125.395 101.196 125.238C100.817 125.081 100.41 125 100 125H65.625C64.7962 125 64.0013 125.329 63.4153 125.915C62.8292 126.501 62.5 127.296 62.5 128.125C62.5 128.954 62.8292 129.749 63.4153 130.335C64.0013 130.921 64.7962 131.25 65.625 131.25H100C100.41 131.25 100.817 131.169 101.196 131.012C101.575 130.855 101.92 130.625 102.21 130.335C102.5 130.045 102.73 129.7 102.887 129.321C103.044 128.942 103.125 128.535 103.125 128.125ZM34.375 131.25H53.125C53.9538 131.25 54.7487 130.921 55.3347 130.335C55.9208 129.749 56.25 128.954 56.25 128.125C56.25 127.296 55.9208 126.501 55.3347 125.915C54.7487 125.329 53.9538 125 53.125 125H34.375C33.5462 125 32.7513 125.329 32.1653 125.915C31.5792 126.501 31.25 127.296 31.25 128.125C31.25 128.954 31.5792 129.749 32.1653 130.335C32.7513 130.921 33.5462 131.25 34.375 131.25ZM71.2006 171.875C71.2007 172.285 71.1199 172.692 70.9629 173.071C70.8059 173.45 70.5757 173.795 70.2855 174.085C69.9953 174.375 69.6508 174.605 69.2716 174.762C68.8924 174.919 68.486 175 68.0756 175H28.125C23.9825 174.995 20.011 173.347 17.0818 170.418C14.1526 167.489 12.5049 163.518 12.5 159.375V21.8751C12.5049 17.7325 14.1526 13.7611 17.0818 10.8319C20.011 7.90269 23.9825 6.25492 28.125 6.25006H110.446C112.499 6.24429 114.533 6.64577 116.43 7.43126C118.327 8.21675 120.049 9.37066 121.497 10.8262L139.172 28.505C140.628 29.9524 141.782 31.674 142.568 33.5703C143.353 35.4665 143.755 37.4998 143.75 39.5524V88.5727C143.75 89.4015 143.421 90.1964 142.835 90.7825C142.249 91.3685 141.454 91.6977 140.625 91.6977C139.796 91.6977 139.001 91.3685 138.415 90.7825C137.829 90.1964 137.5 89.4015 137.5 88.5727V39.5524C137.493 38.861 137.409 38.1726 137.249 37.5001H121.875C119.389 37.4973 117.006 36.5088 115.249 34.7512C113.491 32.9936 112.503 30.6106 112.5 28.1251V12.7436C111.826 12.5873 111.138 12.5056 110.446 12.5001H28.125C25.6394 12.5028 23.2564 13.4914 21.4989 15.2489C19.7413 17.0065 18.7527 19.3895 18.75 21.8751V159.375C18.7527 161.861 19.7413 164.244 21.4989 166.001C23.2564 167.759 25.6394 168.747 28.125 168.75H68.0756C68.486 168.75 68.8924 168.831 69.2716 168.988C69.6508 169.145 69.9953 169.375 70.2855 169.665C70.5757 169.955 70.8059 170.3 70.9629 170.679C71.1199 171.058 71.2007 171.465 71.2006 171.875ZM118.75 16.9179V28.1251C118.751 28.9536 119.08 29.748 119.666 30.3339C120.252 30.9197 121.046 31.2492 121.875 31.2501H133.08L118.75 16.9179ZM183.997 98.5489L178.402 104.143C178.778 105.69 178.746 107.308 178.311 108.839C177.875 110.371 177.05 111.763 175.916 112.88L173.17 115.626L175.046 117.501C177.014 119.47 178.122 122.139 178.125 124.923C178.128 127.708 177.028 130.38 175.064 132.354L152.216 155.328C151.926 155.619 151.582 155.851 151.204 156.009C150.825 156.167 150.419 156.249 150.009 156.25C149.598 156.251 149.192 156.171 148.812 156.015C148.433 155.859 148.088 155.63 147.797 155.341C147.506 155.051 147.275 154.708 147.116 154.329C146.958 153.95 146.876 153.544 146.875 153.134C146.874 152.723 146.954 152.317 147.11 151.937C147.266 151.558 147.495 151.213 147.784 150.922L170.633 127.945C171.429 127.144 171.876 126.06 171.875 124.93C171.874 123.8 171.425 122.717 170.627 121.918L168.751 120.044L105.334 183.459C104.992 183.803 104.574 184.061 104.114 184.215L75.9887 193.59C75.4381 193.773 74.8472 193.8 74.2823 193.667C73.7175 193.533 73.2009 193.245 72.7906 192.835C72.3802 192.424 72.0924 191.907 71.9592 191.342C71.826 190.778 71.8529 190.187 72.0367 189.636L81.4117 161.511C81.5652 161.052 81.8233 160.634 82.1656 160.291L152.747 89.7094C153.872 88.5909 155.264 87.7753 156.79 87.3423C158.317 86.9092 159.929 86.8714 161.474 87.2324L167.078 81.6299C169.357 79.4542 172.386 78.2402 175.537 78.2402C178.688 78.2402 181.718 79.4542 183.997 81.6299C186.236 83.8756 187.494 86.9178 187.494 90.0894C187.494 93.261 186.236 96.3032 183.997 98.5489ZM116.919 134.375L131.25 148.706L171.497 108.459C171.787 108.169 172.017 107.825 172.174 107.446C172.331 107.067 172.412 106.661 172.412 106.251C172.412 105.84 172.331 105.434 172.174 105.055C172.017 104.676 171.787 104.332 171.497 104.042L161.584 94.1285C160.998 93.5432 160.203 93.2146 159.375 93.2149C158.546 93.2152 157.751 93.5443 157.165 94.13L116.919 134.375ZM103.125 176.831L126.831 153.125L112.5 138.794L88.7939 162.5L103.125 176.831ZM79.9408 185.684L97.3404 179.884L85.7406 168.285L79.9408 185.684ZM179.578 86.0489C178.49 85.0089 177.042 84.4285 175.537 84.4285C174.032 84.4285 172.585 85.0089 171.497 86.0489L166.92 90.6247L175 98.7063L179.578 94.13C180.648 93.0575 181.248 91.6044 181.248 90.0895C181.248 88.5745 180.648 87.1214 179.578 86.0489ZM106.067 112.5H50C49.5896 112.5 49.1832 112.419 48.804 112.262C48.4248 112.105 48.0803 111.875 47.7901 111.585C47.4998 111.295 47.2697 110.95 47.1127 110.571C46.9557 110.192 46.8749 109.785 46.875 109.375V76.3237C46.2206 76.7985 45.4071 77 44.6067 76.8853C43.8064 76.7707 43.0821 76.349 42.5873 75.7096L35.025 65.8967C34.5194 65.2396 34.2954 64.4087 34.4024 63.5866C34.5094 62.7644 34.9387 62.0185 35.5957 61.5128L72.409 33.1941C74.0481 31.934 76.0576 31.2509 78.125 31.2509C80.1924 31.2509 82.2019 31.934 83.8409 33.1941L120.654 61.5128C121.311 62.0185 121.74 62.7644 121.848 63.5866C121.955 64.4087 121.731 65.2396 121.225 65.8967L113.663 75.7094C113.413 76.0344 113.101 76.3068 112.745 76.5113C112.39 76.7158 111.998 76.8482 111.591 76.901C111.184 76.9539 110.771 76.9261 110.375 76.8193C109.979 76.7125 109.608 76.5288 109.283 76.2786L109.192 76.2082V109.375C109.192 109.785 109.111 110.192 108.954 110.571C108.797 110.95 108.567 111.295 108.277 111.585C107.987 111.875 107.642 112.105 107.263 112.262C106.884 112.419 106.477 112.5 106.067 112.5ZM45.6329 69.4214L76.2207 45.8878C76.7665 45.4673 77.436 45.2393 78.125 45.2393C78.814 45.2393 79.4835 45.4673 80.0293 45.8878L110.617 69.4214L114.365 64.5585L80.0323 38.1469C79.4849 37.7276 78.8146 37.5003 78.125 37.5003C77.4354 37.5003 76.7651 37.7276 76.2177 38.1469L41.8854 64.5585L45.6329 69.4214ZM84.375 84.3751H71.6919V106.25H84.375V84.3751ZM102.942 106.25V71.4001L78.125 52.3072L53.125 71.5407V106.25H65.4419V81.2501C65.4418 80.8396 65.5225 80.4332 65.6796 80.054C65.8366 79.6749 66.0667 79.3303 66.357 79.0401C66.6472 78.7499 66.9917 78.5197 67.3709 78.3627C67.7501 78.2057 68.1565 78.1249 68.5669 78.1251H87.5C87.9104 78.125 88.3168 78.2057 88.696 78.3627C89.0752 78.5197 89.4197 78.7499 89.7099 79.0401C90.0002 79.3303 90.2303 79.6749 90.3873 80.054C90.5443 80.4332 90.6251 80.8396 90.625 81.2501V106.25H102.942Z" fill="#1090D0"/>
</svg>
