<svg width="200" height="200" viewBox="0 0 200 200" fill="none" xmlns="http://www.w3.org/2000/svg">
<g clip-path="url(#clip0_1420_15360)">
<path d="M196.667 193.303H186.06L180.277 164.393C181.298 163.569 182.146 162.549 182.771 161.395C183.395 160.24 183.785 158.973 183.917 157.667L189.25 104.297C189.381 102.994 189.255 101.679 188.878 100.426C188.501 99.1722 187.881 98.0053 187.053 96.9916C186.225 95.9779 185.205 95.1372 184.052 94.5175C182.899 93.8979 181.636 93.5113 180.333 93.38C179.031 93.2487 177.716 93.3751 176.462 93.7522C175.209 94.1292 174.042 94.7494 173.028 95.5774C172.015 96.4054 171.174 97.4249 170.554 98.5778C169.935 99.7307 169.548 100.994 169.417 102.297L165 146.667H126.667C124.085 146.67 121.605 147.674 119.748 149.467C117.891 151.261 116.801 153.705 116.709 156.285C116.616 158.865 117.527 161.38 119.25 163.303C120.974 165.225 123.375 166.405 125.95 166.593L120.617 193.303H110V130H133.333C135.985 130 138.529 128.946 140.404 127.071C142.28 125.196 143.333 122.652 143.333 120C143.333 117.348 142.28 114.804 140.404 112.929C138.529 111.054 135.985 110 133.333 110H103.333V61.6833C106.411 64.8208 110.605 66.6124 115 66.6667C118.094 66.568 121.107 65.6589 123.74 64.0304C126.372 62.4019 128.531 60.111 130 57.3867C131.404 60.1949 133.567 62.5533 136.244 64.1938C138.921 65.8343 142.004 66.6912 145.143 66.6673C148.283 66.6433 151.353 65.7394 154.004 64.0582C156.656 62.3771 158.783 59.986 160.143 57.1567C161.861 60.0162 164.28 62.3903 167.172 64.0543C170.063 65.7184 173.331 66.6175 176.667 66.6667C186.62 66.6667 196.667 59.4533 196.667 43.3333C196.648 43.1881 196.619 43.0444 196.58 42.9033C197.463 41.8108 198.104 40.5439 198.463 39.1858C198.821 37.8277 198.889 36.4092 198.66 35.0233C198.626 34.8118 198.571 34.6041 198.497 34.4033L188.073 6.49667C187.354 4.59235 186.073 2.95145 184.401 1.7913C182.728 0.631144 180.742 0.0064669 178.707 0L21.2933 0C19.257 0.00697888 17.2707 0.632198 15.5975 1.7929C13.9243 2.9536 12.6431 4.59506 11.9233 6.5L1.50333 34.4033C1.42867 34.6041 1.37396 34.8118 1.34 35.0233C1.10882 36.4207 1.17803 37.8513 1.54301 39.2198C1.90798 40.5883 2.56035 41.8633 3.45667 42.96C3.37439 43.6134 3.3332 44.2714 3.33333 44.93C3.11913 50.4604 5.10237 55.8508 8.8498 59.9236C12.5972 63.9965 17.8043 66.4207 23.3333 66.6667C26.669 66.6175 29.9369 65.7184 32.8282 64.0543C35.7195 62.3903 38.1386 60.0162 39.8567 57.1567C41.3126 59.9408 43.4818 62.2884 46.1424 63.9593C48.8031 65.6302 51.8598 66.5645 55 66.6667C58.0937 66.568 61.1074 65.6589 63.7396 64.0304C66.3719 62.4019 68.5306 60.111 70 57.3867C71.4694 60.111 73.6281 62.4019 76.2603 64.0304C78.8926 65.6589 81.9063 66.568 85 66.6667C89.397 66.608 93.5918 64.8103 96.6667 61.6667V110H66.6667C64.0145 110 61.471 111.054 59.5956 112.929C57.7202 114.804 56.6667 117.348 56.6667 120C56.6667 122.652 57.7202 125.196 59.5956 127.071C61.471 128.946 64.0145 130 66.6667 130H90V193.303H79.3933L74.06 166.593C76.6357 166.405 79.0379 165.224 80.7614 163.301C82.4848 161.378 83.3952 158.861 83.3011 156.28C83.207 153.699 82.1157 151.255 80.2567 149.462C78.3977 147.669 75.916 146.667 73.3333 146.667H35.0167L30.58 102.307C30.3148 99.6766 29.0156 97.2596 26.9684 95.5874C24.9211 93.9152 22.2934 93.1248 19.6633 93.39C17.0333 93.6552 14.6163 94.9544 12.9441 97.0016C11.2719 99.0489 10.4814 101.677 10.7467 104.307L16.0833 157.667C16.2147 158.973 16.604 160.241 17.2289 161.396C17.8537 162.552 18.7016 163.571 19.7233 164.397L13.94 193.303H3.33333C2.44928 193.303 1.60143 193.655 0.976311 194.28C0.35119 194.905 0 195.753 0 196.637C0 197.521 0.35119 198.369 0.976311 198.994C1.60143 199.619 2.44928 199.97 3.33333 199.97H16.3733C16.4733 199.97 16.5733 200 16.67 200C16.7667 200 16.78 199.973 16.8367 199.97H76.5033C76.56 199.97 76.6133 200 76.67 200C76.7267 200 76.8667 199.98 76.9667 199.97H93.1933C93.2467 199.97 93.29 200 93.34 200H106.673C106.723 200 106.767 199.973 106.82 199.97H123.047C123.147 199.97 123.247 200 123.343 200C123.44 200 123.453 199.973 123.51 199.97H183.177C183.233 199.97 183.287 200 183.343 200C183.4 200 183.54 199.98 183.64 199.97H196.667C197.551 199.97 198.399 199.619 199.024 198.994C199.649 198.369 200 197.521 200 196.637C200 195.753 199.649 194.905 199.024 194.28C198.399 193.655 197.551 193.303 196.667 193.303ZM176.667 60C173.212 59.795 169.956 58.3199 167.523 55.8585C165.091 53.3971 163.654 50.1233 163.49 46.6667H188.797C189.13 46.6667 189.463 46.59 189.797 46.5567C188.853 55.0267 184.11 60 176.667 60ZM163.333 6.66667H178.707C179.385 6.66904 180.047 6.87708 180.604 7.26332C181.162 7.64955 181.589 8.19582 181.83 8.83L192.12 36.3833C192.159 36.8443 192.102 37.3084 191.952 37.7461C191.803 38.1838 191.563 38.5856 191.25 38.9257C190.936 39.2659 190.555 39.5371 190.131 39.7221C189.707 39.907 189.249 40.0017 188.787 40H163.333V6.66667ZM145 60C139.027 60 134.147 54.15 133.47 46.6667H156.53C155.853 54.15 150.973 60 145 60ZM133.333 6.66667H156.667V40H133.333V6.66667ZM115 60C109.027 60 104.147 54.15 103.47 46.6667H126.53C125.853 54.15 120.973 60 115 60ZM103.333 6.66667H126.667V40H103.333V6.66667ZM23.3333 60C19.8592 59.7913 16.5864 58.2996 14.1499 55.8144C11.7133 53.3292 10.2867 50.0276 10.1467 46.55C10.4964 46.609 10.8492 46.6479 11.2033 46.6667H36.51C36.3458 50.1233 34.9093 53.3971 32.4769 55.8585C30.0444 58.3199 26.7878 59.795 23.3333 60ZM36.6667 40H11.2033C10.7407 40.0017 10.2828 39.907 9.85871 39.7221C9.43465 39.5371 9.05373 39.2659 8.74019 38.9257C8.42665 38.5856 8.18736 38.1838 8.03755 37.7461C7.88773 37.3084 7.83067 36.8443 7.87 36.3833L18.17 8.83333C18.4102 8.19853 18.8373 7.65155 19.395 7.26469C19.9527 6.87783 20.6146 6.6693 21.2933 6.66667H36.6667V40ZM55 60C49.0267 60 44.1467 54.15 43.47 46.6667H66.53C65.8533 54.15 60.9733 60 55 60ZM66.6667 40H43.3333V6.66667H66.6667V40ZM20.7367 193.303L26.0667 166.667H67.2667L72.6 193.303H20.7367ZM26.0333 160C25.207 160 24.4101 159.693 23.7972 159.139C23.1844 158.584 22.7993 157.822 22.7167 157L17.3833 103.63C17.2949 102.759 17.5561 101.889 18.1093 101.211C18.6625 100.532 19.4625 100.102 20.3333 100.013C21.2041 99.9249 22.0744 100.186 22.7526 100.739C23.4309 101.293 23.8616 102.093 23.95 102.963L28.3833 147.333C28.5442 148.979 29.3131 150.506 30.5398 151.616C31.7664 152.726 33.3627 153.338 35.0167 153.333H73.3333C74.2174 153.333 75.0652 153.685 75.6904 154.31C76.3155 154.935 76.6667 155.783 76.6667 156.667C76.6667 157.551 76.3155 158.399 75.6904 159.024C75.0652 159.649 74.2174 160 73.3333 160H26.0333ZM85 60C79.0267 60 74.1467 54.15 73.47 46.6667H96.53C95.8533 54.15 90.9733 60 85 60ZM73.3333 40V6.66667H96.6667V40H73.3333ZM103.333 193.303H96.6667V130H103.333V193.303ZM106.667 123.333H66.6667C65.7826 123.333 64.9348 122.982 64.3096 122.357C63.6845 121.732 63.3333 120.884 63.3333 120C63.3333 119.116 63.6845 118.268 64.3096 117.643C64.9348 117.018 65.7826 116.667 66.6667 116.667H133.333C134.217 116.667 135.065 117.018 135.69 117.643C136.315 118.268 136.667 119.116 136.667 120C136.667 120.884 136.315 121.732 135.69 122.357C135.065 122.982 134.217 123.333 133.333 123.333H106.667ZM123.333 156.667C123.333 155.783 123.685 154.935 124.31 154.31C124.935 153.685 125.783 153.333 126.667 153.333H165C166.654 153.338 168.25 152.726 169.477 151.616C170.704 150.506 171.472 148.979 171.633 147.333L176.07 102.977C176.148 102.164 176.525 101.409 177.128 100.859C177.731 100.309 178.517 100.003 179.333 100C179.795 100 180.251 100.097 180.672 100.284C181.094 100.471 181.471 100.744 181.781 101.086C182.09 101.428 182.324 101.831 182.468 102.27C182.612 102.708 182.663 103.171 182.617 103.63L177.283 157C177.2 157.825 176.813 158.59 176.197 159.144C175.58 159.699 174.779 160.004 173.95 160H126.667C125.783 160 124.935 159.649 124.31 159.024C123.685 158.399 123.333 157.551 123.333 156.667ZM127.403 193.303L132.733 166.667H173.933L179.267 193.303H127.403Z" fill="#1090D0"/>
</g>
<defs>
<clipPath id="clip0_1420_15360">
<rect width="200" height="200" fill="white"/>
</clipPath>
</defs>
</svg>
