<svg width="200" height="200" viewBox="0 0 200 200" fill="none" xmlns="http://www.w3.org/2000/svg">
<path d="M56.2515 62.499H71.8765V84.374C71.8766 85.0777 72.1142 85.7608 72.551 86.3127C72.9877 86.8645 73.5978 87.2528 74.2827 87.4146C74.9682 87.577 75.6885 87.503 76.3266 87.2046C76.9648 86.9063 77.4834 86.401 77.7983 85.7709L96.5483 48.2709C96.7865 47.7943 96.8988 47.2648 96.8747 46.7326C96.8506 46.2004 96.6908 45.6832 96.4106 45.2302C96.1304 44.7771 95.739 44.4032 95.2736 44.144C94.8081 43.8847 94.2842 43.7488 93.7515 43.749H78.1265V21.874C78.1271 21.1695 77.8897 20.4853 77.4526 19.9327C77.0156 19.3801 76.4046 18.9913 75.7189 18.8296C75.0332 18.6678 74.3129 18.7425 73.6749 19.0416C73.037 19.3407 72.5189 19.8466 72.2046 20.4771L53.4546 57.9771C53.2164 58.4537 53.1041 58.9832 53.1282 59.5154C53.1523 60.0476 53.3121 60.5648 53.5923 61.0179C53.8725 61.4709 54.2639 61.8448 54.7293 62.1041C55.1948 62.3633 55.7187 62.4993 56.2515 62.499ZM71.8765 35.1115V46.874C71.8765 47.7028 72.2057 48.4977 72.7917 49.0837C73.3778 49.6698 74.1727 49.999 75.0015 49.999H88.6952L78.1265 71.1365V59.374C78.1265 58.5452 77.7972 57.7504 77.2112 57.1643C76.6251 56.5783 75.8303 56.249 75.0015 56.249H61.3077L71.8765 35.1115Z" fill="#1090D0"/>
<path d="M184.375 6.25H159.375C156.891 6.25742 154.511 7.24752 152.754 9.00407C150.998 10.7606 150.007 13.1409 150 15.625V115.625C150.007 118.109 150.998 120.489 152.754 122.246C154.511 124.002 156.891 124.993 159.375 125H184.375C186.859 124.993 189.239 124.002 190.996 122.246C192.752 120.489 193.743 118.109 193.75 115.625V15.625C193.743 13.1409 192.752 10.7606 190.996 9.00407C189.239 7.24752 186.859 6.25742 184.375 6.25ZM187.5 115.625C187.5 116.454 187.171 117.249 186.585 117.835C185.999 118.421 185.204 118.75 184.375 118.75H159.375C158.546 118.75 157.751 118.421 157.165 117.835C156.579 117.249 156.25 116.454 156.25 115.625V15.625C156.25 14.7962 156.579 14.0013 157.165 13.4153C157.751 12.8292 158.546 12.5 159.375 12.5H184.375C185.204 12.5 185.999 12.8292 186.585 13.4153C187.171 14.0013 187.5 14.7962 187.5 15.625V115.625Z" fill="#1090D0"/>
<path d="M162.5 37.5H181.25V43.75H162.5V37.5Z" fill="#1090D0"/>
<path d="M162.5 18.75H181.25V25H162.5V18.75Z" fill="#1090D0"/>
<path d="M162.5 106.25H181.25V112.5H162.5V106.25Z" fill="#1090D0"/>
<path d="M162.5 87.5H181.25V93.75H162.5V87.5Z" fill="#1090D0"/>
<path d="M171.875 56.25C170.021 56.25 168.208 56.7998 166.667 57.83C165.125 58.8601 163.923 60.3243 163.214 62.0373C162.504 63.7504 162.318 65.6354 162.68 67.454C163.042 69.2725 163.935 70.943 165.246 72.2541C166.557 73.5652 168.227 74.4581 170.046 74.8199C171.865 75.1816 173.75 74.9959 175.463 74.2864C177.176 73.5768 178.64 72.3752 179.67 70.8335C180.7 69.2918 181.25 67.4792 181.25 65.625C181.25 63.1386 180.262 60.754 178.504 58.9959C176.746 57.2377 174.361 56.25 171.875 56.25ZM171.875 68.75C171.257 68.75 170.653 68.5667 170.139 68.2233C169.625 67.88 169.224 67.3919 168.988 66.8209C168.751 66.2499 168.689 65.6215 168.81 65.0153C168.931 64.4091 169.228 63.8523 169.665 63.4153C170.102 62.9782 170.659 62.6806 171.265 62.56C171.872 62.4395 172.5 62.5014 173.071 62.7379C173.642 62.9744 174.13 63.3749 174.473 63.8888C174.817 64.4027 175 65.0069 175 65.625C175 66.4538 174.671 67.2487 174.085 67.8347C173.499 68.4208 172.704 68.75 171.875 68.75Z" fill="#1090D0"/>
<path d="M184.375 168.75H168.75V162.5H184.375C186.861 162.5 189.246 161.512 191.004 159.754C192.762 157.996 193.75 155.611 193.75 153.125C193.75 150.639 192.762 148.254 191.004 146.496C189.246 144.738 186.861 143.75 184.375 143.75H168.75V140.625C168.75 139.796 168.421 139.001 167.835 138.415C167.249 137.829 166.454 137.5 165.625 137.5H121.875C119.391 137.507 117.011 138.498 115.254 140.254C113.498 142.011 112.507 144.391 112.5 146.875V150H96.875C96.0462 150 95.2513 150.329 94.6653 150.915C94.0792 151.501 93.75 152.296 93.75 153.125V162.5H25C21.6848 162.5 18.5054 161.183 16.1612 158.839C13.817 156.495 12.5 153.315 12.5 150C12.5 146.685 13.817 143.505 16.1612 141.161C18.5054 138.817 21.6848 137.5 25 137.5H43.75V140.625C43.75 141.454 44.0792 142.249 44.6653 142.835C45.2513 143.421 46.0462 143.75 46.875 143.75H103.125C103.954 143.75 104.749 143.421 105.335 142.835C105.921 142.249 106.25 141.454 106.25 140.625V134.375C106.243 131.891 105.252 129.511 103.496 127.754C101.739 125.998 99.3591 125.007 96.875 125H87.5V112.5H128.125C132.269 112.5 136.243 110.854 139.174 107.924C142.104 104.993 143.75 101.019 143.75 96.875V21.875C143.75 17.731 142.104 13.7567 139.174 10.8265C136.243 7.8962 132.269 6.25 128.125 6.25H21.875C17.731 6.25 13.7567 7.8962 10.8265 10.8265C7.8962 13.7567 6.25 17.731 6.25 21.875V96.875C6.25 101.019 7.8962 104.993 10.8265 107.924C13.7567 110.854 17.731 112.5 21.875 112.5H62.5V125H53.125C51.1919 125.01 49.3088 125.615 47.7319 126.734C46.1551 127.852 44.9611 129.429 44.3125 131.25H25C20.0272 131.25 15.2581 133.225 11.7417 136.742C8.22544 140.258 6.25 145.027 6.25 150C6.25 154.973 8.22544 159.742 11.7417 163.258C15.2581 166.775 20.0272 168.75 25 168.75H93.75V178.125C93.75 178.954 94.0792 179.749 94.6653 180.335C95.2513 180.921 96.0462 181.25 96.875 181.25H112.5V184.375C112.507 186.859 113.498 189.239 115.254 190.996C117.011 192.752 119.391 193.743 121.875 193.75H165.625C166.454 193.75 167.249 193.421 167.835 192.835C168.421 192.249 168.75 191.454 168.75 190.625V187.5H184.375C186.861 187.5 189.246 186.512 191.004 184.754C192.762 182.996 193.75 180.611 193.75 178.125C193.75 175.639 192.762 173.254 191.004 171.496C189.246 169.738 186.861 168.75 184.375 168.75ZM168.75 150H184.375C185.204 150 185.999 150.329 186.585 150.915C187.171 151.501 187.5 152.296 187.5 153.125C187.5 153.954 187.171 154.749 186.585 155.335C185.999 155.921 185.204 156.25 184.375 156.25H168.75V150ZM12.5 21.875C12.5074 19.3909 13.4975 17.0106 15.2541 15.2541C17.0106 13.4975 19.3909 12.5074 21.875 12.5H128.125C130.609 12.5074 132.989 13.4975 134.746 15.2541C136.502 17.0106 137.493 19.3909 137.5 21.875V93.75H12.5V21.875ZM21.875 106.25C19.9419 106.24 18.0588 105.635 16.4819 104.516C14.9051 103.398 13.7111 101.821 13.0625 100H136.937C136.289 101.821 135.095 103.398 133.518 104.516C131.941 105.635 130.058 106.24 128.125 106.25H21.875ZM81.25 112.5V125H68.75V112.5H81.25ZM50 134.375C50 133.546 50.3292 132.751 50.9153 132.165C51.5013 131.579 52.2962 131.25 53.125 131.25H96.875C97.7038 131.25 98.4987 131.579 99.0847 132.165C99.6708 132.751 100 133.546 100 134.375V137.5H50V134.375ZM112.5 175H100V156.25H112.5V175ZM162.5 187.5H121.875C121.046 187.5 120.251 187.171 119.665 186.585C119.079 185.999 118.75 185.204 118.75 184.375V146.875C118.75 146.046 119.079 145.251 119.665 144.665C120.251 144.079 121.046 143.75 121.875 143.75H162.5V187.5ZM184.375 181.25H168.75V175H184.375C185.204 175 185.999 175.329 186.585 175.915C187.171 176.501 187.5 177.296 187.5 178.125C187.5 178.954 187.171 179.749 186.585 180.335C185.999 180.921 185.204 181.25 184.375 181.25Z" fill="#1090D0"/>
</svg>
