<svg width="200" height="200" viewBox="0 0 200 200" fill="none" xmlns="http://www.w3.org/2000/svg">
<g clip-path="url(#clip0_1420_15314)">
<path d="M193.751 181.825V152.548C195.835 151.815 197.592 150.368 198.711 148.463C199.83 146.558 200.239 144.318 199.865 142.141C199.49 139.963 198.357 137.989 196.666 136.567C194.975 135.146 192.835 134.368 190.626 134.374H174.425C174.795 133.373 174.99 132.316 175.001 131.249C174.995 129.316 174.391 127.433 173.272 125.858C172.153 124.282 170.573 123.092 168.751 122.45V115.624H178.69L173.224 82.8375C174.598 81.5179 175.601 79.8604 176.132 78.0312C176.663 76.202 176.704 74.2653 176.251 72.4152C175.798 70.5651 174.866 68.8666 173.55 67.4899C172.234 66.1133 170.578 65.1067 168.751 64.5713V50.9691L160.613 47.8694L186.539 37.4987L100.001 2.88281L13.4618 37.4987L50.0005 52.1147V90.6238H37.5005C32.2099 90.6181 27.0541 92.2928 22.7767 95.4064C18.4993 98.52 15.3213 102.912 13.7009 107.948C12.0805 112.984 12.1015 118.405 13.7609 123.429C15.4203 128.453 18.6322 132.82 22.9336 135.9C15.461 138.259 9.0793 143.214 4.94309 149.87C0.806887 156.526 -0.810694 164.442 0.382976 172.186C1.57664 179.931 5.50273 186.993 11.451 192.094C17.3993 197.195 24.9769 199.999 32.813 199.999H190.626C192.835 200.004 194.975 199.227 196.666 197.805C198.357 196.384 199.49 194.409 199.865 192.232C200.239 190.054 199.83 187.815 198.711 185.91C197.592 184.005 195.835 182.558 193.751 181.825ZM187.501 159.374H131.251V165.624H187.501V181.249H32.2593C28.5297 181.249 24.9528 179.767 22.3156 177.13C19.6783 174.493 18.1968 170.916 18.1968 167.186C18.1968 163.457 19.6783 159.88 22.3156 157.243C24.9528 154.605 28.5297 153.124 32.2593 153.124H187.501V159.374ZM162.501 121.874H37.5005C35.8429 121.874 34.2532 121.215 33.0811 120.043C31.909 118.871 31.2505 117.281 31.2505 115.624C31.2505 113.966 31.909 112.376 33.0811 111.204C34.2532 110.032 35.8429 109.374 37.5005 109.374H74.924C83.1043 111.538 91.5392 112.589 100.001 112.499C108.462 112.589 116.897 111.538 125.077 109.374H153.603L152.561 115.624H162.501V121.874ZM148.279 96.8738H155.688L154.646 103.124H140.192C143.157 101.414 145.877 99.3121 148.279 96.8738ZM171.31 109.374H159.94L163.876 85.7594C165.03 85.9951 166.221 85.9951 167.376 85.7594L171.31 109.374ZM170.313 74.9988C170.313 75.9259 170.038 76.8321 169.523 77.603C169.008 78.3738 168.276 78.9746 167.419 79.3294C166.563 79.6842 165.62 79.7771 164.711 79.5962C163.802 79.4153 162.967 78.9689 162.311 78.3133C161.655 77.6578 161.209 76.8225 161.028 75.9132C160.847 75.004 160.94 74.0615 161.295 73.2049C161.65 72.3484 162.25 71.6163 163.021 71.1012C163.792 70.5862 164.698 70.3113 165.626 70.3113C166.868 70.3127 168.06 70.807 168.939 71.6857C169.817 72.5645 170.312 73.756 170.313 74.9988ZM162.501 55.28V64.5728C160.673 65.1083 159.017 66.1148 157.701 67.4915C156.385 68.8682 155.453 70.5667 155 72.4168C154.547 74.2669 154.588 76.2036 155.119 78.0328C155.651 79.862 156.653 81.5195 158.027 82.8391L156.729 90.6238H150.001V52.1147L152.047 51.2959L162.501 55.28ZM100.001 9.61469L169.712 37.4987L151.993 44.5859L101.113 25.2031L98.888 31.0444L143.428 48.0131L100.001 65.3828L30.2893 37.4987L100.001 9.61469ZM100.001 72.1147L143.751 54.6147V92.5647C140.951 95.4675 128.611 106.249 100.001 106.249C71.3599 106.249 59.0246 95.4425 56.2505 92.5678V54.6147L100.001 72.1147ZM18.7505 115.624C18.756 110.653 20.7332 105.887 24.2483 102.372C27.7634 98.8564 32.5294 96.8792 37.5005 96.8738H51.7224C54.1239 99.3121 56.844 101.414 59.809 103.124H37.5005C34.1853 103.124 31.0059 104.441 28.6617 106.785C26.3175 109.129 25.0005 112.309 25.0005 115.624C25.0005 118.939 26.3175 122.118 28.6617 124.463C31.0059 126.807 34.1853 128.124 37.5005 128.124H165.626C166.454 128.124 167.249 128.453 167.835 129.039C168.421 129.625 168.751 130.42 168.751 131.249C168.751 132.078 168.421 132.872 167.835 133.458C167.249 134.045 166.454 134.374 165.626 134.374H37.5005C32.5294 134.368 27.7634 132.391 24.2483 128.876C20.7332 125.361 18.756 120.595 18.7505 115.624ZM190.626 193.749H32.813C25.7682 193.749 19.0119 190.95 14.0305 185.969C9.04905 180.987 6.25051 174.231 6.25051 167.186C6.25051 160.141 9.04905 153.385 14.0305 148.404C19.0119 143.422 25.7682 140.624 32.813 140.624H190.626C191.454 140.624 192.249 140.953 192.835 141.539C193.421 142.125 193.751 142.92 193.751 143.749C193.751 144.578 193.421 145.372 192.835 145.958C192.249 146.545 191.454 146.874 190.626 146.874H32.2593C26.8721 146.874 21.7055 149.014 17.8962 152.823C14.0868 156.632 11.9468 161.799 11.9468 167.186C11.9468 172.573 14.0868 177.74 17.8962 181.549C21.7055 185.359 26.8721 187.499 32.2593 187.499H190.626C191.454 187.499 192.249 187.828 192.835 188.414C193.421 189 193.751 189.795 193.751 190.624C193.751 191.453 193.421 192.247 192.835 192.833C192.249 193.42 191.454 193.749 190.626 193.749Z" fill="#1090D0"/>
<path d="M118.75 168.75H31.25V175H118.75V168.75Z" fill="#1090D0"/>
</g>
<defs>
<clipPath id="clip0_1420_15314">
<rect width="200" height="200" fill="white"/>
</clipPath>
</defs>
</svg>
