<svg width="105" height="105" viewBox="0 0 105 105" fill="none" xmlns="http://www.w3.org/2000/svg">
<circle cx="52.5" cy="52.5" r="52.5" fill="#1090D0"/>
<path d="M52.7612 56.6068C56.4974 56.6068 59.9426 55.5508 62.7067 53.7711C64.8338 52.4012 67.633 52.6374 69.5056 54.3379C74.5294 58.9015 77.679 65.4902 77.6684 72.8134L77.6638 75.8304C77.6577 78.9495 75.1283 81.4743 72.0092 81.4743H33.5147C30.3956 81.4743 27.8662 78.948 27.8601 75.8304L27.8555 72.8134C27.8448 65.4917 30.9944 58.903 36.0182 54.3379C37.8909 52.6359 40.69 52.3997 42.8172 53.7711C45.5813 55.5508 49.0265 56.6068 52.7627 56.6068H52.7612Z" fill="white"/>
<path d="M52.7634 51.5757C60.4964 51.5757 66.7652 45.3069 66.7652 37.574C66.7652 29.8411 60.4964 23.5723 52.7634 23.5723C45.0305 23.5723 38.7617 29.8411 38.7617 37.574C38.7617 45.3069 45.0305 51.5757 52.7634 51.5757Z" fill="white"/>
</svg>
