<svg width="24" height="24" viewBox="0 0 24 24" fill="none" xmlns="http://www.w3.org/2000/svg">
<path d="M17.3438 7.80469V4.96875C17.7188 4.79688 18.0234 4.53516 18.2578 4.18359C18.4922 3.83203 18.6094 3.44531 18.6094 3.02344V2.95312C18.5938 2.35938 18.375 1.85156 17.9531 1.42969C17.5312 1.00781 17.0234 0.796875 16.4297 0.796875H16.3828C15.7734 0.796875 15.2578 1.00781 14.8359 1.42969C14.4141 1.85156 14.2031 2.35938 14.2031 2.95312V3.02344C14.2031 3.44531 14.3164 3.83203 14.543 4.18359C14.7695 4.53516 15.0703 4.79688 15.4453 4.96875V7.80469C14.3516 7.97656 13.375 8.40625 12.5156 9.09375L12.5391 9.07031L4.80469 3.07031C4.85156 2.88281 4.88281 2.67969 4.89844 2.46094C4.89844 2.00781 4.78906 1.59375 4.57031 1.21875C4.35156 0.84375 4.05469 0.546875 3.67969 0.328125C3.30469 0.109375 2.89453 0 2.44922 0C2.00391 0 1.59375 0.109375 1.21875 0.328125C0.84375 0.546875 0.546875 0.84375 0.328125 1.21875C0.109375 1.59375 0 2.00781 0 2.46094C0 3.13281 0.238281 3.70703 0.714844 4.18359C1.19141 4.66016 1.76562 4.89844 2.4375 4.89844C2.875 4.89844 3.28125 4.78906 3.65625 4.57031H3.63281L11.25 10.4766C10.5625 11.5078 10.2188 12.6484 10.2188 13.8984C10.2188 15.2109 10.6016 16.3984 11.3672 17.4609L11.3438 17.4375L9 19.7578C8.84375 19.7109 8.67969 19.6875 8.50781 19.6875C7.94531 19.6875 7.46875 19.8828 7.07812 20.2734C6.6875 20.6641 6.49219 21.1367 6.49219 21.6914C6.49219 22.2461 6.6875 22.7188 7.07812 23.1094C7.46875 23.5 7.94141 23.6953 8.49609 23.6953C9.05078 23.6953 9.52344 23.5 9.91406 23.1094C10.3047 22.7188 10.5 22.2422 10.5 21.6797V21.6562C10.5 21.4531 10.4688 21.2578 10.4062 21.0703V21.0938L12.6562 18.8438C13.1719 19.2344 13.7422 19.5352 14.3672 19.7461C14.9922 19.957 15.6484 20.0625 16.3359 20.0625C17.4609 20.0625 18.4961 19.7852 19.4414 19.2305C20.3867 18.6758 21.1367 17.9258 21.6914 16.9805C22.2461 16.0352 22.5234 15.0078 22.5234 13.8984C22.5234 12.8984 22.2969 11.9609 21.8438 11.0859C21.3906 10.2109 20.7734 9.48828 19.9922 8.91797C19.2109 8.34766 18.3438 7.97656 17.3906 7.80469H17.3438ZM16.4062 17.0625C15.8281 17.0625 15.2969 16.9219 14.8125 16.6406C14.3281 16.3594 13.9414 15.9727 13.6523 15.4805C13.3633 14.9883 13.2188 14.457 13.2188 13.8867C13.2188 13.3164 13.3633 12.7891 13.6523 12.3047C13.9414 11.8203 14.3281 11.4336 14.8125 11.1445C15.2969 10.8555 15.8242 10.7109 16.3945 10.7109C16.9648 10.7109 17.4922 10.8555 17.9766 11.1445C18.4609 11.4336 18.8477 11.8203 19.1367 12.3047C19.4258 12.7891 19.5703 13.3203 19.5703 13.8984C19.5703 14.4766 19.4297 15.0078 19.1484 15.4922C18.8672 15.9766 18.4844 16.3594 18 16.6406C17.5156 16.9219 16.9844 17.0625 16.4062 17.0625Z" fill="#EF1649"/>
</svg>
