<svg width="14" height="11" viewBox="0 0 14 11" fill="none" xmlns="http://www.w3.org/2000/svg">
<path d="M1.23131 9.72139C0.430143 8.87044 0 7.91603 0 6.36892C0 3.64649 1.91114 1.20642 4.69035 0L5.38496 1.07186C2.79087 2.47507 2.28373 4.29599 2.08149 5.44407C2.49919 5.22783 3.04601 5.15238 3.58193 5.20217C4.98515 5.33206 6.09123 6.48404 6.09123 7.91603C6.09123 8.63807 5.80441 9.33053 5.29385 9.84108C4.7833 10.3516 4.09084 10.6385 3.36881 10.6385C2.9695 10.635 2.57488 10.5522 2.20791 10.3947C1.84094 10.2373 1.50896 10.0084 1.23131 9.72139ZM9.00967 9.72139C8.2085 8.87044 7.77836 7.91603 7.77836 6.36892C7.77836 3.64649 9.6895 1.20642 12.4687 0L13.1633 1.07186C10.5692 2.47507 10.0621 4.29599 9.85985 5.44407C10.2775 5.22783 10.8244 5.15238 11.3603 5.20217C12.7635 5.33206 13.8696 6.48404 13.8696 7.91603C13.8696 8.63807 13.5828 9.33053 13.0722 9.84108C12.5617 10.3516 11.8692 10.6385 11.1472 10.6385C10.7479 10.635 10.3532 10.5522 9.98627 10.3947C9.6193 10.2373 9.28732 10.0084 9.00967 9.72139Z" fill="#EF1649"/>
</svg>
