<svg width="153" height="153" viewBox="0 0 153 153" fill="none" xmlns="http://www.w3.org/2000/svg">
<g clip-path="url(#clip0_2821_6480)">
<path d="M8.22226 93.2965V115.454C8.22495 117.825 9.16779 120.097 10.8439 121.774C12.5201 123.45 14.7927 124.393 17.1632 124.396H86.2364C88.2204 128.504 91.1313 132.095 94.7398 134.887C98.3483 137.679 102.556 139.594 107.031 140.483C111.506 141.371 116.126 141.208 120.527 140.007C124.928 138.806 128.991 136.599 132.394 133.56L133.7 134.867L131.952 136.614C131.616 136.95 131.427 137.406 131.427 137.882C131.427 138.357 131.616 138.813 131.952 139.15L143.053 150.251C144.146 151.344 145.629 151.958 147.175 151.958C148.721 151.958 150.204 151.344 151.297 150.25C152.39 149.157 153.005 147.674 153.004 146.128C153.004 144.582 152.39 143.099 151.297 142.006L140.196 130.905C139.86 130.569 139.404 130.38 138.928 130.38C138.453 130.38 137.997 130.569 137.661 130.905L136.235 132.331L134.917 131.013C137.878 127.628 140.025 123.611 141.195 119.269C142.365 114.926 142.526 110.374 141.667 105.96C140.808 101.546 138.95 97.3867 136.237 93.8004C133.524 90.2141 130.026 87.2958 126.012 85.2685V41.0554C126.009 38.8097 125.162 36.6471 123.639 34.9967C122.116 33.3464 120.029 32.3288 117.79 32.1458V9.98833C117.788 7.6179 116.845 5.34518 115.17 3.66875C113.494 1.99232 111.221 1.04906 108.851 1.0459H8.94094C6.57024 1.04867 4.29746 1.99175 2.62127 3.66822C0.945076 5.3447 0.00237264 7.61764 0 9.98833L0 84.3873C0.00297036 86.633 0.850022 88.7956 2.3731 90.4459C3.89617 92.0962 5.98397 93.1137 8.22226 93.2965ZM149.414 146.127C149.415 146.571 149.285 147.005 149.039 147.374C148.793 147.743 148.443 148.031 148.033 148.201C147.623 148.371 147.172 148.415 146.737 148.329C146.302 148.242 145.902 148.028 145.589 147.713L140.11 142.234L143.283 139.061L148.763 144.54C148.971 144.748 149.135 144.996 149.247 145.268C149.359 145.541 149.416 145.833 149.414 146.127ZM140.748 136.525L137.574 139.699L135.757 137.881L138.93 134.708L140.748 136.525ZM3.58594 84.3873V25.6096L114.206 25.8761V32.1142H17.1632C14.7927 32.1169 12.5201 33.0597 10.844 34.7359C9.1678 36.412 8.22495 38.6846 8.22226 41.0551V89.6882C6.93956 89.5136 5.76342 88.8806 4.91117 87.9062C4.05892 86.9318 3.58818 85.6818 3.58594 84.3873ZM92.6039 90.1364C92.3833 90.3438 92.1649 90.5548 91.95 90.7684C89.6705 93.0427 87.7788 95.6748 86.35 98.5604V78.9898H92.6039V90.1364ZM138.642 111.594C138.642 117.578 136.567 123.377 132.771 128.003C128.974 132.629 123.691 135.795 117.822 136.962C111.953 138.13 105.861 137.226 100.583 134.405C95.3056 131.584 91.1694 127.021 88.8794 121.492C86.5894 115.963 86.2872 109.812 88.0244 104.085C89.7615 98.3588 93.4305 93.4119 98.4061 90.0873C103.382 86.7627 109.356 85.2661 115.312 85.8527C121.267 86.4392 126.835 89.0726 131.066 93.304C133.475 95.7003 135.386 98.5507 136.686 101.69C137.986 104.83 138.651 108.196 138.642 111.594ZM112.776 82.1422C106.858 82.1268 101.075 83.9075 96.1907 87.2488V77.1969C96.1907 76.7213 96.0018 76.2653 95.6655 75.929C95.3293 75.5928 94.8732 75.4039 94.3977 75.4039H84.557C84.0815 75.4039 83.6254 75.5928 83.2892 75.929C82.9529 76.2653 82.764 76.7213 82.764 77.1969V113.256H81.1124V88.1809C81.1124 87.7054 80.9235 87.2493 80.5873 86.9131C80.251 86.5768 79.795 86.3879 79.3194 86.3879H69.4793C69.0038 86.3879 68.5478 86.5768 68.2115 86.9131C67.8753 87.2493 67.6864 87.7054 67.6864 88.1809V113.256H66.0347V82.6887C66.0347 82.2132 65.8458 81.7572 65.5096 81.4209C65.1733 81.0847 64.7173 80.8958 64.2418 80.8958H54.402C53.9264 80.8958 53.4704 81.0847 53.1341 81.4209C52.7979 81.7572 52.609 82.2132 52.609 82.6887V113.256H50.9574V93.6728C50.9574 93.1972 50.7685 92.7412 50.4322 92.4049C50.096 92.0687 49.6399 91.8798 49.1644 91.8798H39.3258C38.8503 91.8798 38.3942 92.0687 38.058 92.4049C37.7217 92.7412 37.5328 93.1972 37.5328 93.6728V113.256H34.1381C33.6626 113.256 33.2066 113.445 32.8703 113.781C32.5341 114.117 32.3452 114.573 32.3452 115.049C32.3452 115.524 32.5341 115.98 32.8703 116.317C33.2066 116.653 33.6626 116.842 34.1381 116.842H83.7884C84.0283 118.186 84.3621 119.512 84.7874 120.81H17.1632C15.7434 120.809 14.3823 120.244 13.3784 119.24C12.3745 118.236 11.8098 116.875 11.8082 115.455V56.6769L122.428 56.9438V83.755C119.323 82.6834 116.06 82.1383 112.776 82.1422ZM77.5265 113.256H71.2723V89.9739H77.5265V113.256ZM62.4488 113.256H56.1949V84.4817H62.4488V113.256ZM47.3714 113.256H41.1188V95.4657H47.3726L47.3714 113.256ZM122.428 41.056V53.3585L11.8082 53.0916V41.0554C11.8098 39.6357 12.3745 38.2745 13.3784 37.2706C14.3823 36.2667 15.7434 35.702 17.1632 35.7004H117.073C118.493 35.702 119.854 36.2667 120.858 37.2706C121.862 38.2745 122.426 39.6357 122.428 41.0554V41.056ZM8.94094 4.63184H108.851C110.271 4.6335 111.632 5.19826 112.636 6.20222C113.64 7.20618 114.204 8.56736 114.206 9.98713V22.2905L3.58594 22.0236V9.98833C3.5872 8.56835 4.15175 7.20686 5.15569 6.20264C6.15963 5.19842 7.52095 4.6335 8.94094 4.63184ZM13.6227 18.6379C14.6504 18.638 15.655 18.3333 16.5095 17.7624C17.364 17.1915 18.0301 16.38 18.4234 15.4305C18.8167 14.4811 18.9197 13.4363 18.7192 12.4284C18.5187 11.4204 18.0239 10.4946 17.2972 9.76785C16.5706 9.04114 15.6447 8.54624 14.6368 8.34573C13.6288 8.14521 12.5841 8.24809 11.6346 8.64136C10.6851 9.03462 9.87362 9.70061 9.30266 10.5551C8.7317 11.4096 8.42695 12.4142 8.42695 13.4419C8.42846 14.8194 8.97633 16.1402 9.95039 17.1143C10.9244 18.0884 12.2451 18.6363 13.6227 18.6379ZM13.6227 11.8318C13.9411 11.8317 14.2525 11.9261 14.5173 12.103C14.7821 12.2799 14.9885 12.5313 15.1104 12.8255C15.2323 13.1197 15.2643 13.4435 15.2022 13.7558C15.1401 14.0682 14.9867 14.3551 14.7616 14.5803C14.5364 14.8055 14.2495 14.9589 13.9372 15.021C13.6249 15.0832 13.3011 15.0513 13.0069 14.9294C12.7127 14.8076 12.4612 14.6012 12.2843 14.3364C12.1073 14.0717 12.0129 13.7603 12.0129 13.4419C12.0134 13.0151 12.1831 12.6059 12.4849 12.304C12.7867 12.0022 13.1959 11.8324 13.6227 11.8318ZM28.2449 18.6379C29.2726 18.6379 30.2772 18.3332 31.1317 17.7622C31.9862 17.1913 32.6522 16.3798 33.0454 15.4303C33.4387 14.4809 33.5416 13.4361 33.3411 12.4282C33.1406 11.4203 32.6458 10.4944 31.9191 9.76774C31.1924 9.04107 30.2666 8.54619 29.2586 8.3457C28.2507 8.14521 27.206 8.24811 26.2565 8.64139C25.3071 9.03466 24.4955 9.70065 23.9246 10.5551C23.3537 11.4096 23.0489 12.4142 23.0489 13.4419C23.0504 14.8195 23.5983 16.1403 24.5725 17.1144C25.5466 18.0885 26.8673 18.6364 28.2449 18.6379ZM28.2449 11.8318C28.5634 11.8318 28.8747 11.9262 29.1395 12.1031C29.4042 12.2801 29.6106 12.5315 29.7325 12.8257C29.8543 13.1199 29.8862 13.4437 29.8241 13.756C29.762 14.0683 29.6086 14.3552 29.3834 14.5804C29.1583 14.8056 28.8714 14.9589 28.559 15.021C28.2467 15.0832 27.923 15.0513 27.6288 14.9294C27.3346 14.8075 27.0831 14.6012 26.9062 14.3364C26.7293 14.0716 26.6348 13.7603 26.6348 13.4419C26.6353 13.015 26.8051 12.6058 27.107 12.3039C27.4088 12.0021 27.8181 11.8323 28.2449 11.8318ZM42.8669 18.6379C43.8946 18.638 44.8992 18.3333 45.7537 17.7624C46.6083 17.1915 47.2743 16.38 47.6676 15.4305C48.0609 14.4811 48.1639 13.4363 47.9634 12.4284C47.763 11.4204 47.2681 10.4946 46.5414 9.76785C45.8148 9.04114 44.8889 8.54624 43.881 8.34573C42.8731 8.14521 41.8283 8.24809 40.8788 8.64136C39.9294 9.03462 39.1178 9.70061 38.5469 10.5551C37.9759 11.4096 37.6712 12.4142 37.6712 13.4419C37.6727 14.8194 38.2206 16.1402 39.1946 17.1143C40.1687 18.0884 41.4893 18.6363 42.8669 18.6379ZM42.8669 11.8318C43.1854 11.8317 43.4967 11.9261 43.7615 12.103C44.0263 12.2799 44.2327 12.5313 44.3546 12.8255C44.4765 13.1197 44.5085 13.4435 44.4464 13.7558C44.3843 14.0682 44.231 14.3551 44.0058 14.5803C43.7806 14.8055 43.4938 14.9589 43.1814 15.021C42.8691 15.0832 42.5453 15.0513 42.2511 14.9294C41.9569 14.8076 41.7054 14.6012 41.5285 14.3364C41.3515 14.0717 41.2571 13.7603 41.2571 13.4419C41.2576 13.0151 41.4273 12.6059 41.7291 12.304C42.0309 12.0022 42.4401 11.8324 42.8669 11.8318ZM67.9962 18.6612H105.684C106.16 18.6612 106.616 18.4723 106.952 18.1361C107.289 17.7998 107.477 17.3438 107.477 16.8683V10.0158C107.477 9.5403 107.289 9.08425 106.952 8.748C106.616 8.41176 106.16 8.22285 105.684 8.22285H67.9962C67.5207 8.22285 67.0647 8.41176 66.7284 8.748C66.3922 9.08425 66.2033 9.5403 66.2033 10.0158V16.8683C66.2033 17.3438 66.3922 17.7998 66.7284 18.1361C67.0647 18.4723 67.5207 18.6612 67.9962 18.6612ZM69.7892 11.8088H103.891V15.0753H69.7892V11.8088ZM21.8443 39.3132C20.8166 39.3132 19.812 39.6179 18.9575 40.1888C18.103 40.7597 17.4369 41.5712 17.0436 42.5206C16.6503 43.4701 16.5474 44.5148 16.7478 45.5228C16.9483 46.5307 17.4431 47.4566 18.1698 48.1833C18.8965 48.91 19.8223 49.4049 20.8302 49.6054C21.8382 49.8059 22.8829 49.703 23.8324 49.3098C24.7819 48.9165 25.5934 48.2505 26.1644 47.396C26.7353 46.5415 27.0401 45.5369 27.0401 44.5093C27.0385 43.1317 26.4906 41.8111 25.5165 40.837C24.5425 39.8629 23.2219 39.3149 21.8443 39.3132ZM21.8443 46.1193C21.5259 46.1194 21.2146 46.025 20.9497 45.8481C20.6849 45.6713 20.4785 45.4198 20.3566 45.1256C20.2347 44.8314 20.2028 44.5077 20.2649 44.1953C20.3269 43.883 20.4803 43.5961 20.7054 43.3709C20.9306 43.1457 21.2175 42.9923 21.5298 42.9301C21.8421 42.868 22.1659 42.8998 22.4601 43.0217C22.7543 43.1436 23.0058 43.3499 23.1828 43.6147C23.3597 43.8795 23.4541 44.1908 23.4541 44.5093C23.4536 44.9361 23.2839 45.3453 22.9821 45.6471C22.6803 45.949 22.2712 46.1188 21.8443 46.1193ZM36.4663 39.3132C35.4386 39.3132 34.434 39.618 33.5795 40.1889C32.7251 40.7599 32.0591 41.5714 31.6658 42.5208C31.2725 43.4703 31.1696 44.515 31.3701 45.5229C31.5706 46.5309 32.0655 47.4567 32.7922 48.1834C33.5188 48.9101 34.4447 49.4049 35.4526 49.6054C36.4605 49.8059 37.5053 49.703 38.4547 49.3098C39.4042 48.9165 40.2157 48.2505 40.7866 47.396C41.3576 46.5415 41.6623 45.5369 41.6623 44.5093C41.6607 43.1318 41.1129 41.8112 40.1389 40.8371C39.1649 39.863 37.8444 39.315 36.4669 39.3132H36.4663ZM36.4663 46.1193C36.1479 46.1193 35.8366 46.0249 35.5718 45.848C35.307 45.6711 35.1006 45.4196 34.9788 45.1254C34.8569 44.8312 34.825 44.5075 34.8871 44.1951C34.9493 43.8828 35.1026 43.5959 35.3278 43.3708C35.553 43.1456 35.8399 42.9922 36.1522 42.9301C36.4645 42.868 36.7882 42.8999 37.0824 43.0217C37.3767 43.1436 37.6281 43.35 37.805 43.6147C37.9819 43.8795 38.0764 44.1908 38.0764 44.5093C38.0759 44.936 37.9062 45.3452 37.6045 45.647C37.3028 45.9489 36.8937 46.1187 36.4669 46.1193H36.4663ZM51.0886 39.3132C50.0609 39.3132 49.0563 39.618 48.2018 40.1889C47.3473 40.7599 46.6813 41.5714 46.2881 42.5208C45.8948 43.4703 45.7919 44.515 45.9924 45.5229C46.1929 46.5309 46.6877 47.4567 47.4144 48.1834C48.1411 48.9101 49.0669 49.4049 50.0749 49.6054C51.0828 49.8059 52.1275 49.703 53.077 49.3098C54.0264 48.9165 54.8379 48.2505 55.4089 47.396C55.9798 46.5415 56.2846 45.5369 56.2846 44.5093C56.283 43.1318 55.7351 41.8112 54.7612 40.8371C53.7872 39.863 52.4666 39.315 51.0891 39.3132H51.0886ZM51.0886 46.1193C50.7701 46.1193 50.4588 46.0249 50.194 45.848C49.9293 45.6711 49.7229 45.4196 49.601 45.1254C49.4792 44.8312 49.4473 44.5075 49.5094 44.1951C49.5715 43.8828 49.7249 43.5959 49.9501 43.3708C50.1752 43.1456 50.4621 42.9922 50.7744 42.9301C51.0868 42.868 51.4105 42.8999 51.7047 43.0217C51.9989 43.1436 52.2504 43.35 52.4273 43.6147C52.6042 43.8795 52.6986 44.1908 52.6986 44.5093C52.6982 44.936 52.5285 45.3452 52.2267 45.647C51.925 45.9489 51.5159 46.1187 51.0891 46.1193H51.0886ZM113.906 39.2902H76.2185C75.743 39.2902 75.2869 39.4791 74.9507 39.8154C74.6144 40.1516 74.4255 40.6077 74.4255 41.0832V47.9356C74.4255 48.4111 74.6144 48.8672 74.9507 49.2034C75.2869 49.5397 75.743 49.7286 76.2185 49.7286H113.907C114.382 49.7286 114.838 49.5397 115.175 49.2034C115.511 48.8672 115.7 48.4111 115.7 47.9356V41.0832C115.7 40.6077 115.511 40.1516 115.175 39.8154C114.838 39.4791 114.382 39.2902 113.907 39.2902H113.906ZM112.113 46.1427H78.0115V42.8762H112.114L112.113 46.1427ZM89.4763 60.6696C88.5898 60.6693 87.7158 60.878 86.925 61.2787C86.1343 61.6795 85.4492 62.2609 84.9252 62.976C84.4013 63.6911 84.0533 64.5196 83.9094 65.3943C83.7656 66.2691 83.83 67.1654 84.0974 68.0106L77.66 72.7004C76.4882 71.8632 75.0396 71.5081 73.6134 71.7083C72.1872 71.9085 70.8924 72.6487 69.9963 73.7762L64.9554 71.9402C64.9554 71.8939 64.9625 71.849 64.9625 71.8027C64.963 70.9889 64.7874 70.1845 64.4477 69.4449C64.108 68.7053 63.6124 68.048 62.9947 67.518C62.3771 66.988 61.6521 66.598 60.8694 66.3746C60.0868 66.1512 59.2652 66.0998 58.4608 66.2239C57.6565 66.3479 56.8885 66.6446 56.2096 67.0934C55.5307 67.5423 54.9569 68.1327 54.5277 68.8242C54.0985 69.5157 53.824 70.2919 53.723 71.0994C53.622 71.907 53.6969 72.7269 53.9427 73.5028L47.5053 78.1923C46.4157 77.4229 45.0881 77.0659 43.7596 77.185C42.4311 77.3041 41.1882 77.8916 40.2529 78.8426C39.3176 79.7936 38.7508 81.046 38.6537 82.3764C38.5566 83.7066 38.9356 85.0282 39.723 86.1048C40.5103 87.1815 41.6548 87.9432 42.9519 88.2539C44.2491 88.5647 45.6144 88.4042 46.8041 87.8011C47.9939 87.198 48.9305 86.1917 49.4467 84.9618C49.9629 83.7319 50.0251 82.3585 49.6222 81.087L56.0602 76.3972C57.2339 77.2355 58.6851 77.5903 60.1132 77.388C61.5413 77.1857 62.8369 76.4419 63.7317 75.3107L68.7651 77.144C68.7651 77.1945 68.7577 77.2438 68.7577 77.2934C68.7571 78.1073 68.9327 78.9116 69.2724 79.6512C69.612 80.3909 70.1077 81.0482 70.7253 81.5783C71.343 82.1083 72.068 82.4984 72.8506 82.7218C73.6332 82.9452 74.4549 82.9966 75.2592 82.8726C76.0636 82.7485 76.8316 82.4519 77.5105 82.003C78.1894 81.5542 78.7632 80.9637 79.1924 80.2723C79.6217 79.5808 79.8962 78.8046 79.9972 77.997C80.0982 77.1894 80.0233 76.3696 79.7775 75.5937L86.2149 70.9041C86.9384 71.418 87.773 71.7538 88.6507 71.8843C89.5285 72.0148 90.4246 71.9362 91.2663 71.6551C92.108 71.3739 92.8714 70.8981 93.4945 70.2663C94.1176 69.6344 94.5828 68.8644 94.8522 68.0189C95.1217 67.1734 95.1877 66.2763 95.0451 65.4004C94.9024 64.5246 94.555 63.6948 94.0312 62.9785C93.5073 62.2622 92.8218 61.6796 92.0304 61.2782C91.239 60.8768 90.364 60.6679 89.4766 60.6684L89.4763 60.6696ZM44.2448 84.8424C43.8382 84.8425 43.4407 84.722 43.1026 84.4962C42.7645 84.2704 42.5009 83.9494 42.3452 83.5738C42.1895 83.1982 42.1487 82.7849 42.228 82.3861C42.3072 81.9873 42.503 81.6209 42.7904 81.3334C43.0779 81.0459 43.4442 80.85 43.8429 80.7706C44.2417 80.6913 44.6551 80.732 45.0307 80.8875C45.4064 81.0431 45.7274 81.3066 45.9534 81.6446C46.1793 81.9827 46.2998 82.3801 46.2998 82.7867C46.2992 83.3316 46.0825 83.854 45.6973 84.2394C45.312 84.6247 44.7897 84.8416 44.2448 84.8424ZM59.3222 73.8581C58.9157 73.8581 58.5183 73.7375 58.1803 73.5117C57.8423 73.2858 57.5788 72.9648 57.4233 72.5893C57.2677 72.2137 57.227 71.8004 57.3063 71.4017C57.3856 71.003 57.5814 70.6368 57.8688 70.3494C58.1563 70.0619 58.5225 69.8662 58.9212 69.7869C59.3199 69.7076 59.7331 69.7483 60.1087 69.9038C60.4843 70.0594 60.8053 70.3228 61.0311 70.6608C61.257 70.9988 61.3775 71.3962 61.3775 71.8027C61.3768 72.3476 61.16 72.87 60.7747 73.2553C60.3894 73.6406 59.8671 73.8573 59.3222 73.8581ZM74.3995 79.3502C73.993 79.3503 73.5955 79.2298 73.2574 79.0039C72.9193 78.7781 72.6558 78.4571 72.5002 78.0815C72.3445 77.7058 72.3038 77.2925 72.3831 76.8937C72.4623 76.495 72.6581 76.1286 72.9456 75.8411C73.233 75.5536 73.5993 75.3578 73.9981 75.2785C74.3969 75.1991 74.8102 75.2398 75.1858 75.3954C75.5615 75.551 75.8825 75.8144 76.1084 76.1525C76.3343 76.4906 76.4549 76.888 76.4549 77.2946C76.4542 77.8395 76.2375 78.362 75.8522 78.7473C75.4669 79.1327 74.9445 79.3495 74.3995 79.3502ZM89.4769 68.3662C89.0704 68.3664 88.6729 68.2461 88.3348 68.0205C87.9967 67.7948 87.733 67.4739 87.5773 67.0984C87.4215 66.7229 87.3806 66.3097 87.4597 65.9109C87.5387 65.5122 87.7343 65.1459 88.0216 64.8583C88.3089 64.5707 88.6751 64.3747 89.0738 64.2952C89.4724 64.2157 89.8857 64.2562 90.2614 64.4116C90.637 64.567 90.9581 64.8303 91.1841 65.1682C91.4101 65.5061 91.5309 65.9034 91.5311 66.31C91.5307 66.8549 91.3143 67.3774 90.9292 67.7629C90.5441 68.1483 90.0218 68.3653 89.4769 68.3662ZM89.9604 111.594C89.9603 116.873 91.7905 121.988 95.1391 126.068C98.4877 130.149 103.147 132.942 108.325 133.971C113.502 135.001 118.876 134.204 123.531 131.716C128.186 129.228 131.835 125.203 133.855 120.326C135.875 115.449 136.141 110.023 134.609 104.972C133.077 99.9205 129.841 95.5568 125.452 92.6242C121.063 89.6916 115.793 88.3714 110.54 88.8887C105.287 89.4061 100.376 91.7288 96.6431 95.4612C94.5178 97.5749 92.8329 100.089 91.6858 102.858C90.5387 105.627 89.9523 108.597 89.9604 111.594ZM112.776 92.3648C117.225 92.3646 121.536 93.907 124.976 96.7293C128.415 99.5515 130.769 103.479 131.637 107.842C132.505 112.206 131.833 116.735 129.736 120.659C127.639 124.583 124.247 127.658 120.136 129.361C116.026 131.063 111.452 131.288 107.195 129.997C102.938 128.705 99.2597 125.978 96.7879 122.278C94.3162 118.579 93.2035 114.137 93.6396 109.71C94.0756 105.282 96.0334 101.143 99.1793 97.9971C100.961 96.2059 103.08 94.7858 105.413 93.819C107.747 92.8522 110.25 92.358 112.776 92.3648Z" fill="#1090D0"/>
</g>
<defs>
<clipPath id="clip0_2821_6480">
<rect width="153" height="153" fill="white"/>
</clipPath>
</defs>
</svg>
