<svg width="65" height="88" viewBox="0 0 65 88" fill="none" xmlns="http://www.w3.org/2000/svg">
<path d="M30.0101 54.9958L28.4908 53.9L28.4908 53.8999L30.0101 54.9958ZM8.00022 35.498L6.62672 34.2242L6.62673 34.2242L8.00022 35.498ZM50.6495 86.9555C49.8439 87.6047 48.6646 87.4779 48.0155 86.6723L37.4366 73.5448C36.7874 72.7393 36.9142 71.56 37.7197 70.9108C38.5253 70.2616 39.7046 70.3884 40.3538 71.194L49.7572 82.8628L61.4261 73.4594C62.2317 72.8102 63.411 72.937 64.0602 73.7425C64.7093 74.5481 64.5826 75.7274 63.777 76.3766L50.6495 86.9555ZM38.3733 0.497585C38.3733 3.0044 38.3736 14.4332 37.5577 26.3756C37.15 32.3432 36.536 38.4805 35.6065 43.7153C35.1419 46.3326 34.5928 48.7565 33.9396 50.8371C33.294 52.8934 32.5117 54.7298 31.5294 56.0917L28.4908 53.8999C29.131 53.0124 29.7684 51.615 30.365 49.7148C30.954 47.8388 31.4697 45.5834 31.9177 43.0604C32.8135 38.0146 33.4163 32.0274 33.8199 26.1202C34.6265 14.313 34.6267 2.99148 34.6267 0.497584L38.3733 0.497585ZM31.5294 56.0917C25.804 64.0294 20.364 68.14 15.4345 69.1124C10.2844 70.1283 6.20304 67.6421 3.65386 63.7314C1.14963 59.8897 0.011362 54.5773 0.397089 49.2757C0.784268 43.9541 2.72152 38.4349 6.62672 34.2242L9.37373 36.7719C6.15788 40.2393 4.47211 44.8974 4.13378 49.5475C3.79399 54.2177 4.82773 58.6714 6.79249 61.6855C8.71232 64.6307 11.3969 66.0901 14.7094 65.4367C18.2423 64.7398 22.9613 61.5661 28.4908 53.9L31.5294 56.0917ZM6.62673 34.2242C13.2177 27.1176 26.1253 27.3121 36.2265 35.3757C46.4919 43.5703 54.1146 59.8567 51.3366 85.6971L47.6115 85.2967C50.2951 60.3346 42.8776 45.4791 33.8891 38.3037C24.7365 30.9974 14.1763 31.5936 9.37372 36.7719L6.62673 34.2242Z" fill="#EF1649"/>
</svg>
